<?xml version="1.0" encoding="UTF-8"?>
<svg id="_Слой_1" data-name="Слой 1" xmlns="http://www.w3.org/2000/svg" viewBox="0 0 141.73 141.73">
  <defs>
    <style>
      .cls-1 {
        fill: #ffffff;
      }
    </style>
  </defs>
  <path class="cls-1" d="m102.74,49.55h0c-1.29,0-2.33.94-2.46,2.22l-4.88,46.98-8.89-57.87c-.19-1.24-1.2-2.1-2.45-2.1h0c-1.26,0-2.26.88-2.45,2.12l-5.92,40.24-3.93-7.65c-.48-.93-1.46-1.45-2.5-1.33-1.04.13-1.87.86-2.12,1.88l-3.96,16.45-5.87-29.07c-.23-1.14-1.17-1.94-2.34-1.99-1.16-.05-2.16.68-2.48,1.81l-4.73,16.81-4.17-7.19c-.47-.8-1.33-1.26-2.26-1.23-.93.04-1.74.59-2.14,1.43l-4.25,9.08h-5.24c-.75,0-1.35.6-1.35,1.35s.6,1.35,1.35,1.35h5.38c.96,0,1.84-.56,2.25-1.43l4.13-8.83,4.22,7.27c.5.86,1.46,1.34,2.46,1.22.99-.13,1.81-.83,2.08-1.79l4.62-16.43,5.89,29.15c.23,1.15,1.21,1.97,2.39,1.99.02,0,.03,0,.05,0,1.15,0,2.14-.78,2.41-1.9l4.05-16.84,3.97,7.73c.5.96,1.55,1.49,2.61,1.31,1.07-.18,1.89-1.02,2.05-2.09l5.8-39.47,8.93,58.11c.19,1.23,1.21,2.1,2.45,2.1h.06c1.26-.03,2.28-.97,2.41-2.22l4.98-47.89c.28.3.71.47,1.14.42.74-.08,1.27-.75,1.19-1.49-.14-1.28-1.18-2.21-2.46-2.21Z"/>
  <path class="cls-1" d="m112.04,32.83c-.75,0-1.35.6-1.35,1.35v73.38c0,.75.6,1.35,1.35,1.35s1.35-.6,1.35-1.35V34.18c0-.75-.6-1.35-1.35-1.35Z"/>
</svg>