<?xml version="1.0" encoding="UTF-8"?>
<svg id="_Слой_1" data-name="Слой 1" xmlns="http://www.w3.org/2000/svg" viewBox="0 0 141.73 141.73">
  <defs>
    <style>
      .cls-1 {
        fill: #ffffff;
      }
    </style>
  </defs>
  <path class="cls-1" d="m104.02,79.61l1.19-1.32,4.41,6.12h2.82l-5.62-7.52,4.93-5.25h-2.8l-3.75,4.41c-.37.45-.82,1-1.13,1.45h-.05v-11.82h-2.3v18.73h2.3v-4.8Z"/>
  <g>
    <g>
      <path class="cls-1" d="m72.45,35.64c-1.21,0-2.06.32-2.82.9-.53.4-1.03.95-1.42,1.66h-.05c-.55-1.5-1.87-2.56-3.61-2.56-2.11,0-3.3,1.13-4.01,2.35h-.08l-.11-2.06h-2.03c.08,1.05.11,2.14.11,3.46v9.31h2.27v-7.7c0-.4.05-.79.18-1.14.37-1.16,1.42-2.32,2.88-2.32,1.77,0,2.66,1.48,2.66,3.51v7.65h2.27v-7.89c0-.42.08-.84.18-1.16.4-1.13,1.42-2.11,2.74-2.11,1.87,0,2.77,1.48,2.77,3.93v7.23h2.27v-7.52c0-4.43-2.51-5.54-4.19-5.54Z"/>
      <polygon class="cls-1" points="80.09 46.12 80.35 47.15 82.09 46.21 82.12 46.21 82.12 54.94 83.42 54.94 83.42 44.95 82.27 44.95 80.09 46.12"/>
    </g>
    <path class="cls-1" d="m95.45,62.58h-49.17c-2.76,0-5-2.24-5-5v-24.58c0-2.76,2.24-5,5-5h49.17c2.76,0,5,2.24,5,5v24.58c0,2.76-2.24,5-5,5ZM46.28,30.55c-1.35,0-2.46,1.1-2.46,2.46v24.58c0,1.35,1.1,2.45,2.46,2.45h49.17c1.35,0,2.45-1.1,2.45-2.45v-24.58c0-1.35-1.1-2.46-2.45-2.46h-49.17Z"/>
  </g>
  <g>
    <g>
      <path class="cls-1" d="m71.38,92.24c-1.21,0-2.06.32-2.82.9-.53.4-1.03.95-1.42,1.66h-.05c-.55-1.5-1.87-2.56-3.61-2.56-2.11,0-3.3,1.13-4.01,2.35h-.08l-.11-2.06h-2.03c.08,1.05.11,2.14.11,3.46v9.31h2.27v-7.7c0-.4.05-.79.18-1.14.37-1.16,1.42-2.32,2.88-2.32,1.77,0,2.66,1.48,2.66,3.51v7.65h2.27v-7.89c0-.42.08-.84.18-1.16.4-1.13,1.42-2.11,2.74-2.11,1.87,0,2.77,1.48,2.77,3.93v7.23h2.27v-7.52c0-4.43-2.51-5.54-4.19-5.54Z"/>
      <path class="cls-1" d="m80,107.84l.8-.74c2.11-2.03,3.44-3.52,3.44-5.37,0-1.43-.91-2.91-3.06-2.91-1.15,0-2.14.43-2.83,1.02l.43.95c.46-.38,1.21-.84,2.12-.84,1.49,0,1.98.94,1.98,1.95-.02,1.51-1.17,2.8-3.72,5.23l-1.06,1.03v.83h6.38v-1.12h-4.49v-.03Z"/>
    </g>
    <path class="cls-1" d="m108.25,113.73H33.49c-2.83,0-5.14-2.31-5.14-5.14v-15.94c0-2.83,2.31-5.14,5.14-5.14h74.76c2.83,0,5.14,2.31,5.14,5.14v15.94c0,2.83-2.31,5.14-5.14,5.14Zm-74.76-23.68c-1.43,0-2.6,1.16-2.6,2.6v15.94c0,1.43,1.16,2.6,2.6,2.6h74.76c1.43,0,2.6-1.16,2.6-2.6v-15.94c0-1.43-1.16-2.6-2.6-2.6H33.49Z"/>
  </g>
  <g>
    <path class="cls-1" d="m57.57,69c-.6-.04-1.25-.28-1.65-.96-.64-1.08.14-2.42,1.48-2.49,1.97-.1,3.94-.26,5.9-.49,1.91-.23,3.81-.52,5.7-.87,3.76-.71,7.46-1.66,11.09-2.86,1.07-.35,2.12-.74,3.18-1.13.98-.36,2.01.04,2.37.96.36.93-.09,1.84-1.11,2.24-3.58,1.39-7.26,2.48-10.99,3.36-3.16.75-6.36,1.3-9.59,1.7-2.07.26-4.15.42-6.38.54Z"/>
    <path class="cls-1" d="m57.73,87.67c-.76-.02-1.41-.27-1.81-.95-.67-1.13.17-2.46,1.58-2.51,1.78-.06,3.54-.23,5.3-.42,2.12-.23,4.23-.56,6.34-.96,4.54-.86,8.98-2.07,13.32-3.66.28-.1.56-.21.84-.31.95-.36,1.97.07,2.33.99.35.88-.07,1.82-1.02,2.2-1.57.63-3.17,1.15-4.78,1.66-3.15.99-6.35,1.8-9.59,2.43-3.47.67-6.98,1.15-10.51,1.4-.67.05-1.35.09-2.02.13Z"/>
    <path class="cls-1" d="m58.06,78.32c-.49.01-.97.02-1.42-.25-.7-.41-1.07-1.12-.92-1.81.16-.75.79-1.3,1.6-1.35,2.28-.14,4.56-.33,6.83-.62,1.65-.21,3.29-.47,4.92-.78,2.38-.45,4.75-.99,7.08-1.65,2.25-.63,4.48-1.34,6.66-2.17.43-.16.86-.33,1.34-.28.77.07,1.41.62,1.56,1.35.16.77-.2,1.53-.94,1.86-1.08.49-2.21.86-3.34,1.23-2.09.69-4.2,1.32-6.33,1.86-2.73.69-5.48,1.24-8.26,1.68-2.91.46-5.85.74-8.79.93Z"/>
    <path class="cls-1" d="m65.13,87.6c.2-.13.44-.12.65-.15,4.57-.64,9.07-1.65,13.48-2.99.59-.18,1.16-.26,1.77-.25,1.1.01,2.2,0,3.3,0,.82.01,1.47.56,1.67,1.36.18.73-.17,1.51-.85,1.87-.3.16-.64.22-.98.22-6.25,0-12.5,0-18.74,0-.09,0-.2.04-.3-.07Z"/>
    <path class="cls-1" d="m63.85,69.26c.64-.09,1.27-.19,1.91-.27,2.84-.37,5.64-.94,8.43-1.59.26-.06.51-.07.78-.02,2.43.42,4.82.98,7.22,1.56.06.01.12.03.18.05.08.03.19.03.2.14,0,.11-.11.12-.19.15-.84.3-1.67.6-2.51.88-.97.32-1.96.61-2.93.92-.26.08-.5.1-.77.04-2.53-.53-5.09-.94-7.65-1.25-1.36-.17-2.73-.35-4.1-.42-.18,0-.37-.02-.55-.18Z"/>
    <path class="cls-1" d="m63.79,78.62c1.13-.17,2.18-.32,3.22-.47,2.3-.34,4.58-.79,6.84-1.34.48-.12.95-.14,1.44-.04,2.34.46,4.68.94,6.99,1.56.1.03.27,0,.28.14.01.13-.15.15-.25.18-1.8.65-3.61,1.25-5.45,1.79-.36.11-.7.02-1.03-.05-2.71-.56-5.44-.93-8.18-1.29-1.13-.15-2.26-.22-3.39-.33-.13-.01-.27,0-.46-.14Z"/>
  </g>
</svg>