<?xml version="1.0" encoding="UTF-8"?>
<svg id="_Слой_1" data-name="Слой 1" xmlns="http://www.w3.org/2000/svg" viewBox="0 0 141.73 141.73">
  <defs>
    <style>
      .cls-1 {
        fill: #ffffff;
      }
    </style>
  </defs>
  <path class="cls-1" d="m46.51,44.39c-.46-.4-1.16-.34-1.55.12s-.34,1.16.12,1.55c7.63,6.53,11.84,15.33,11.84,24.79s-4.2,18.26-11.84,24.8c-.46.4-.52,1.09-.12,1.55.22.25.53.39.84.39.25,0,.51-.09.72-.27,8.13-6.96,12.61-16.37,12.61-26.48s-4.6-19.61-12.61-26.47Z"/>
  <path class="cls-1" d="m48.1,70.87c0-2.52-.43-5-1.26-7.38-1.56-4.47-4.51-8.48-8.55-11.6-.48-.37-1.17-.28-1.55.2-.37.48-.28,1.17.2,1.55,3.69,2.86,6.4,6.52,7.81,10.58.76,2.15,1.14,4.39,1.14,6.66s-.38,4.51-1.14,6.66c-1.42,4.06-4.12,7.72-7.81,10.58-.48.37-.57,1.07-.2,1.55.22.28.54.43.87.43.24,0,.47-.08.67-.23,4.03-3.12,6.99-7.13,8.54-11.6.84-2.39,1.26-4.87,1.26-7.39Z"/>
  <path class="cls-1" d="m30.02,59.48c-.52-.32-1.2-.15-1.52.37-.32.52-.15,1.2.37,1.52,3.81,2.33,6,5.79,6,9.5s-2.19,7.17-6,9.51c-.52.32-.68,1-.36,1.52.21.34.57.53.94.53.2,0,.4-.05.58-.16,4.48-2.75,7.05-6.9,7.05-11.39s-2.57-8.64-7.05-11.38Z"/>
  <path class="cls-1" d="m81.51,51.88c-.48-.37-1.17-.28-1.55.2-.37.48-.28,1.17.2,1.55,3.69,2.86,6.4,6.52,7.81,10.58.76,2.15,1.14,4.39,1.14,6.66s-.38,4.51-1.14,6.66c-1.42,4.06-4.12,7.72-7.81,10.58-.48.37-.57,1.07-.2,1.55.22.28.54.43.87.43.24,0,.47-.08.67-.23,4.03-3.12,6.99-7.13,8.54-11.6.84-2.39,1.26-4.87,1.26-7.39s-.43-5-1.26-7.38c-1.56-4.47-4.51-8.48-8.55-11.6Z"/>
  <path class="cls-1" d="m73.24,59.48c-.52-.32-1.2-.15-1.52.37-.32.52-.15,1.2.37,1.52,3.81,2.33,6,5.79,6,9.5s-2.19,7.17-6,9.51c-.52.32-.68,1-.36,1.52.21.34.57.53.94.53.2,0,.4-.05.58-.16,4.48-2.75,7.05-6.9,7.05-11.39s-2.57-8.64-7.05-11.38Z"/>
  <path class="cls-1" d="m106.33,59.48c-.52-.32-1.2-.15-1.52.37-.32.52-.15,1.2.37,1.52,3.81,2.33,6,5.79,6,9.5s-2.19,7.17-6,9.51c-.52.32-.68,1-.36,1.52.21.34.57.53.94.53.2,0,.4-.05.58-.16,4.48-2.75,7.05-6.9,7.05-11.39s-2.57-8.64-7.05-11.38Z"/>
  <path class="cls-1" d="m65.98,39.3c-.61,0-1.1.49-1.1,1.1v60.92c0,.61.49,1.1,1.1,1.1s1.1-.49,1.1-1.1v-60.92c0-.61-.49-1.1-1.1-1.1Z"/>
</svg>