<?xml version="1.0" encoding="UTF-8"?>
<svg id="_Слой_1" data-name="Слой 1" xmlns="http://www.w3.org/2000/svg" viewBox="0 0 141.73 141.73">
  <defs>
    <style>
      .cls-1 {
        fill: #ffffff;
      }
    </style>
  </defs>
  <polygon class="cls-1" points="77.24 70.15 53.71 58.61 30.17 70.15 53.71 70.15 77.24 70.15"/>
  <rect class="cls-1" x="32.43" y="71.12" width="3.6" height="26.58"/>
  <rect class="cls-1" x="42.17" y="71.12" width="3.6" height="26.58"/>
  <rect class="cls-1" x="51.91" y="71.12" width="3.6" height="26.58"/>
  <rect class="cls-1" x="61.65" y="71.12" width="3.6" height="26.58"/>
  <rect class="cls-1" x="71.38" y="71.12" width="3.6" height="26.58"/>
  <rect class="cls-1" x="28.35" y="98.67" width="50.72" height="4.94"/>
  <path class="cls-1" d="m82.13,38.12v59.58h10.95v-9.69h9.36v9.69h10.95v-59.58h-31.25Zm6.36,40.33h-4.71v-9.05h4.71v9.05Zm0-13.47h-4.71v-9.05h4.71v9.05Zm0-13.48h-4.71v-9.05h4.71v9.05Zm7.75,26.95h-4.71v-9.05h4.71v9.05Zm0-13.47h-4.71v-9.05h4.71v9.05Zm0-13.48h-4.71v-9.05h4.71v9.05Zm7.74,26.95h-4.71v-9.05h4.71v9.05Zm0-13.47h-4.71v-9.05h4.71v9.05Zm0-13.48h-4.71v-9.05h4.71v9.05Zm7.75,26.95h-4.71v-9.05h4.71v9.05Zm0-13.47h-4.71v-9.05h4.71v9.05Zm0-13.48h-4.71v-9.05h4.71v9.05Z"/>
</svg>