<?xml version="1.0" encoding="UTF-8"?>
<svg id="_Слой_1" data-name="Слой 1" xmlns="http://www.w3.org/2000/svg" viewBox="0 0 426.07 134.68">
  <defs>
    <style>
      .cls-1 {
        fill: #6c767a;
      }

      .cls-2 {
        fill: #272f33;
      }
    </style>
  </defs>
  <path class="cls-1" d="m207.82,90.47H48.02V22.11h159.81v30.45h-46.43v12.21h46.43v25.7Zm-156.74-3.07h153.66v-19.56h-46.43v-18.35h46.43v-24.31H51.09v62.22Z"/>
  <path class="cls-1" d="m378.05,90.47h-159.81v-25.7h46.43v-12.21h-46.43v-30.45h159.81v68.36Zm-156.74-3.07h153.66V25.18h-153.66v24.31h46.43v18.35h-46.43v19.56Z"/>
  <path class="cls-2" d="m283.21,106.43c-3.39-10.34-13.22-17.61-24.27-17.61s-20.88,7.27-24.27,17.61h-18.12v-42.87h41.01v-9.21h-40.37v-30.71h-8.08v30.71h-40.1v9.21h41.4v42.87h-20.81c-3.4-10.34-13.23-17.61-24.27-17.61s-20.87,7.27-24.27,17.61h-31.66v6.14h36.72v-2.46l.26.06c1.95-8.81,9.91-15.21,18.94-15.21s16.49,6.06,18.72,14.49v3.12h55.58v-2.49l.37.08c1.94-8.81,9.91-15.21,18.94-15.21s16.87,6.32,18.89,15.03v2.58h93.37v-6.14h-87.99Z"/>
</svg>