<?xml version="1.0" encoding="UTF-8"?>
<svg id="_Слой_1" data-name="Слой 1" xmlns="http://www.w3.org/2000/svg" viewBox="0 0 290 289.87">
  <defs>
    <style>
      .cls-1 {
        fill: #878787;
      }
    </style>
  </defs>
  <path class="cls-1" d="m145.05,0c77.69-.59,147.08,64.15,144.9,148.63-2.01,77.8-64.08,139.28-141.26,141.19C64.72,291.91.5,223.61,0,145.96-.52,64.32,67.54-.86,145.05,0Zm.36,9.07C70.98,8.29,9.19,69.55,9.03,144.68c-.16,74.39,60.43,136.51,136.46,136.06,73.98-.44,135.62-58.74,135.47-136.82-.15-75.14-61.74-135.07-135.55-134.84Z"/>
  <path class="cls-1" d="m208.49,71.26c-.22,12.17.52,23.67-.2,35.18-.21,3.33.22,6.7.23,10.05.02,20.83.05,41.66-.03,62.49-.03,8.16.42,16.32-.18,24.5-.27,3.65.47,7.38.28,11.08-.04.75.17,1.73-.66,2.09-.89.38-1.34-.56-1.83-1.1-10.27-11.5-21.69-21.87-32.43-32.91-6.12-6.29-12.27-12.55-18.48-18.75-5.66-5.65-11.42-11.22-17.14-16.81-.48-.47-.98-1.29-1.66-1.07-.94.31-.51,1.34-.51,2.05-.02,21.53,0,43.05,0,64.58,0,.17.03.35,0,.52-.24,1.23,1.11,3.07-.19,3.57-1.58.61-2.1-1.57-3.07-2.54-9.98-9.98-19.93-20-29.91-29.99-11.74-11.76-23.48-23.52-35.26-35.25-4.02-4-4.05-3.95-.06-7.94,19.42-19.43,38.83-38.86,58.23-58.3,2.92-2.92,6.06-5.62,8.62-8.9.24-.31.68-.7.99-.68.67.06.61.73.61,1.22.02,2.41.03,4.82.03,7.23,0,10.85,0,21.7,0,32.55,0,8.95-.01,17.89.01,26.84,0,.82-.43,1.96.46,2.38,1.03.48,1.69-.64,2.31-1.26,8.86-8.8,17.69-17.62,26.5-26.46,13-13.06,25.96-26.16,38.98-39.19,1.45-1.45,2.45-3.26,4.37-5.18Zm-81.21,23.25c-2.87,1.97-4.84,3.98-6.82,5.98-13.91,13.96-27.81,27.93-41.73,41.89-2.5,2.51-2.53,2.5-.1,4.93,14.64,14.69,29.29,29.37,43.95,44.04.97.97,2.03,1.87,3.1,2.72,1.03.82,1.58.45,1.51-.82-.09-1.54-.32-3.09-.33-4.63-.04-19.88-.11-39.77-.06-59.65.03-11.26-.46-22.53.47-34.47Zm71.89.41c-.52.41-1.05.8-1.55,1.23-5.64,4.95-10.52,10.65-15.86,15.89-10.63,10.42-21.11,20.99-31.75,31.41-1.42,1.39-.59,1.95.3,2.84,11.46,11.43,22.84,22.93,34.38,34.27,4.17,4.1,7.77,8.77,12.32,12.49.64.52,1.19,1.64,2.06,1.28.91-.37.46-1.55.46-2.35-.08-8.69-.27-17.38-.29-26.06-.02-9.2.29-18.4.15-27.59-.22-13.77-.33-27.52.15-41.28.02-.65.24-1.37-.37-2.1Z"/>
</svg>