<?xml version="1.0" standalone="no"?>
<!DOCTYPE svg PUBLIC "-//W3C//DTD SVG 20010904//EN"
 "http://www.w3.org/TR/2001/REC-SVG-20010904/DTD/svg10.dtd">
<svg version="1.0" xmlns="http://www.w3.org/2000/svg"
 width="512.000000pt" height="512.000000pt" viewBox="0 0 512.000000 512.000000"
 preserveAspectRatio="xMidYMid meet">

<g transform="translate(0.000000,512.000000) scale(0.100000,-0.100000)"
fill="#ffffff" stroke="none">
<path d="M1125 5104 c-239 -51 -437 -238 -507 -479 l-23 -80 0 -1985 0 -1985
23 -80 c55 -190 180 -339 357 -425 151 -73 77 -70 1585 -70 1508 0 1434 -3
1585 70 177 86 302 235 357 425 l23 80 0 1985 0 1985 -23 80 c-71 244 -270
430 -514 479 -113 23 -2754 23 -2863 0z m2878 -210 c110 -41 206 -122 262
-223 58 -103 55 29 55 -2111 0 -2140 3 -2008 -55 -2111 -57 -104 -163 -191
-273 -226 -54 -17 -131 -18 -1432 -18 -1301 0 -1378 1 -1432 18 -110 35 -216
122 -273 226 -58 103 -55 -29 -55 2111 0 2140 -3 2008 55 2111 72 130 204 221
350 242 17 2 640 4 1385 3 l1355 -1 58 -21z"/>
<path d="M1246 4525 c-57 -30 -55 -21 -56 -412 0 -245 4 -370 11 -386 25 -54
-40 -52 1366 -52 l1305 0 29 33 29 32 0 368 c0 360 0 369 -21 391 -11 12 -32
26 -46 32 -15 5 -531 9 -1306 9 -1126 0 -1286 -2 -1311 -15z m2484 -420 l0
-235 -1170 0 -1170 0 0 235 0 235 1170 0 1170 0 0 -235z"/>
<path d="M1265 3342 c-75 -26 -75 -25 -75 -416 l0 -346 29 -32 29 -33 329 -3
c353 -4 387 0 422 45 20 25 21 38 21 374 l0 349 -29 32 -29 33 -339 2 c-186 1
-347 -2 -358 -5z m555 -407 l0 -215 -215 0 -215 0 0 215 0 215 215 0 215 0 0
-215z"/>
<path d="M2202 3335 c-59 -26 -62 -46 -62 -405 0 -362 3 -380 64 -405 52 -22
660 -22 712 0 61 25 64 43 64 405 0 362 -3 380 -64 405 -51 22 -665 21 -714 0z
m576 -402 l2 -213 -220 0 -220 0 0 208 c0 115 3 212 7 216 4 3 102 5 217 4
l211 -3 3 -212z"/>
<path d="M3173 3343 c-12 -2 -34 -18 -48 -34 l-25 -31 0 -347 c0 -336 1 -349
21 -374 35 -45 69 -49 422 -45 l329 3 29 33 29 32 0 345 c0 223 -4 352 -11
368 -23 51 -29 52 -389 53 -184 1 -345 0 -357 -3z m557 -408 l0 -215 -215 0
-215 0 0 215 0 215 215 0 215 0 0 -215z"/>
<path d="M1263 2399 c-17 -5 -41 -21 -52 -35 -20 -26 -21 -38 -21 -379 l0
-352 26 -26 c14 -15 40 -29 58 -32 17 -3 179 -5 359 -3 l329 3 29 33 29 32 0
340 c0 191 -4 350 -10 364 -5 14 -21 33 -37 43 -24 16 -58 18 -353 20 -182 1
-339 -2 -357 -8z m557 -414 l0 -215 -215 0 -215 0 0 215 0 215 215 0 215 0 0
-215z"/>
<path d="M2228 2403 c-35 -6 -74 -46 -82 -84 -3 -18 -6 -171 -6 -341 0 -349 3
-368 64 -393 52 -22 660 -22 712 0 63 26 65 43 62 418 -2 264 -6 336 -17 353
-32 48 -36 49 -381 50 -179 1 -337 0 -352 -3z m550 -415 l-3 -213 -215 0 -215
0 -3 213 -2 212 220 0 220 0 -2 -212z"/>
<path d="M3174 2399 c-17 -5 -39 -18 -50 -30 -18 -20 -19 -42 -22 -374 l-3
-354 30 -33 29 -33 329 -3 c180 -2 342 0 359 3 18 3 44 17 58 32 l26 26 0 352
c0 340 -1 353 -20 378 -12 15 -38 31 -58 37 -46 12 -634 12 -678 -1z m556
-414 l0 -215 -215 0 -215 0 0 215 0 215 215 0 215 0 0 -215z"/>
<path d="M1263 1473 c-12 -2 -34 -18 -48 -34 l-25 -31 0 -343 c0 -231 4 -352
11 -368 23 -50 36 -52 411 -52 l350 0 29 33 29 32 0 348 c0 305 -2 350 -16
371 -34 48 -60 51 -401 50 -175 -1 -328 -4 -340 -6z m557 -418 l0 -215 -215 0
-215 0 0 215 0 215 215 0 215 0 0 -215z"/>
<path d="M2210 1467 c-67 -23 -70 -39 -70 -405 0 -364 3 -382 64 -407 52 -22
660 -22 712 0 61 25 64 43 64 407 0 366 -3 382 -70 405 -49 17 -651 17 -700 0z
m568 -409 l-3 -213 -215 0 -215 0 -3 213 -2 212 220 0 220 0 -2 -212z"/>
<path d="M3164 1466 c-65 -29 -64 -24 -64 -408 l0 -348 29 -32 29 -33 350 0
c375 0 388 2 411 52 7 16 11 137 11 368 l0 345 -29 32 -29 33 -339 2 c-270 2
-344 0 -369 -11z m566 -411 l0 -215 -215 0 -215 0 0 215 0 215 215 0 215 0 0
-215z"/>
</g>
</svg>
