<?xml version="1.0" encoding="UTF-8"?>
<svg id="_Слой_1" data-name="Слой 1" xmlns="http://www.w3.org/2000/svg" 
viewBox="0 0 791.93 791.94">
  <path d="m670.48,334.99c-.27,69.48-20.03,132.94-59.14,190.35-4.97,7.29-10.37,14.31-16.01,21.1-2.81,3.38-1.75,5.27.83,7.83,16.22,16.06,32.36,32.21,48.5,48.35,30.42,30.39,60.82,60.8,91.24,91.19,15.32,15.31,30.62,30.64,45.99,45.89,14.47,14.36,13.13,36.44-2.96,47.17-11.89,7.93-27.05,6.51-37.57-3.91-20.24-20.05-40.33-40.25-60.48-60.4-41.96-41.96-83.95-83.88-125.79-125.96-3.63-3.65-5.88-3.48-9.75-.38-50.69,40.65-108.3,64.92-172.93,72.04-64.76,7.14-126.61-3.53-185.08-32.23-53.02-26.03-96.13-63.82-129.43-112.59C26.38,477.27,7.65,426.2,1.91,370.62c-6.9-66.88,4.82-130.56,35.9-190.24,28.17-54.1,68.47-97.38,120.15-129.8C196.71,26.26,238.84,10.45,284.11,3.89c79.51-11.54,154.29,2.5,223.46,43.82,51.79,30.94,92.35,73.05,121.49,125.84,23.34,42.29,36.94,87.65,40.45,135.96.62,8.5.78,16.97.97,25.49Zm-62.39-.07c.87-148.61-121.14-273.17-273.9-272.87-150.35.3-272.4,123.1-271.89,274.57.51,150.74,124.41,272.15,274.35,271.53,149.25-.62,272.55-123.45,271.44-273.23Z"/>
  <path d="m373.22,237.56c0,22.5,0,45,0,67.5q0,7.5,7.77,7.51c45,0,90.01,0,135.01,0,7.28,0,7.31.02,7.31,7.15.01,18.33.01,36.67,0,55,0,7.34-.03,7.36-7.62,7.36-45.17,0-90.34,0-135.51,0-6.92,0-6.94.02-6.94,6.85,0,45.34,0,90.67,0,136.01,0,7.16-.03,7.17-7.31,7.18-18.67.01-37.34-.12-56,.1-4.83.06-6.29-1.62-6.28-6.36.13-45.33.08-90.67.08-136.01q0-7.77-8-7.77c-45,0-90.01,0-135.01,0-6.96,0-7.04-.07-7.05-6.91-.02-18.67-.02-37.34,0-56,0-6.48.11-6.59,6.84-6.6,45.34-.02,90.67,0,136.01-.01q7.19,0,7.21-7.06c0-45.34,0-90.67,0-136.01,0-6.99.04-7.02,6.9-7.02,19-.01,38,.13,57-.11,4.47-.06,5.72,1.36,5.69,5.68-.16,23.17-.08,46.34-.08,69.5Z"/>
</svg>