<?xml version="1.0" encoding="utf-8"?>
<!-- Generator: Adobe Illustrator 27.6.1, SVG Export Plug-In . SVG Version: 6.00 Build 0)  -->
<!DOCTYPE svg PUBLIC "-//W3C//DTD SVG 1.1//EN" "http://www.w3.org/Graphics/SVG/1.1/DTD/svg11.dtd" [
	<!ENTITY ns_extend "http://ns.adobe.com/Extensibility/1.0/">
	<!ENTITY ns_ai "http://ns.adobe.com/AdobeIllustrator/10.0/">
	<!ENTITY ns_graphs "http://ns.adobe.com/Graphs/1.0/">
	<!ENTITY ns_vars "http://ns.adobe.com/Variables/1.0/">
	<!ENTITY ns_imrep "http://ns.adobe.com/ImageReplacement/1.0/">
	<!ENTITY ns_sfw "http://ns.adobe.com/SaveForWeb/1.0/">
	<!ENTITY ns_custom "http://ns.adobe.com/GenericCustomNamespace/1.0/">
	<!ENTITY ns_adobe_xpath "http://ns.adobe.com/XPath/1.0/">
]>
<svg version="1.1" id="_Слой_1" xmlns:x="&ns_extend;" xmlns:i="&ns_ai;" xmlns:graph="&ns_graphs;"
	 xmlns="http://www.w3.org/2000/svg" xmlns:xlink="http://www.w3.org/1999/xlink" x="0px" y="0px" viewBox="0 0 791.9 791.9"
	 style="enable-background:new 0 0 791.9 791.9;" xml:space="preserve">
<style type="text/css">
	.st0{fill:#FFFFFF;}
</style>
<metadata>
	<sfw  xmlns="&ns_sfw;">
		<slices></slices>
		<sliceSourceBounds  bottomLeftOrigin="true" height="791.9" width="791.9" x="0" y="0"></sliceSourceBounds>
	</sfw>
</metadata>
<path class="st0" d="M670.5,335c-0.3,69.5-20,132.9-59.1,190.3c-5,7.3-10.4,14.3-16,21.1c-2.8,3.4-1.8,5.3,0.8,7.8
	c16.2,16.1,32.4,32.2,48.5,48.3c30.4,30.4,60.8,60.8,91.2,91.2c15.3,15.3,30.6,30.6,46,45.9c14.5,14.4,13.1,36.4-3,47.2
	c-11.9,7.9-27,6.5-37.6-3.9c-20.2-20-40.3-40.2-60.5-60.4c-42-42-84-83.9-125.8-126c-3.6-3.7-5.9-3.5-9.8-0.4
	c-50.7,40.7-108.3,64.9-172.9,72c-64.8,7.1-126.6-3.5-185.1-32.2c-53-26-96.1-63.8-129.4-112.6c-31.5-46.2-50.2-97.2-56-152.8
	C-5,303.7,6.7,240.1,37.8,180.4C66,126.3,106.3,83,158,50.6c38.8-24.3,80.9-40.1,126.1-46.7c79.5-11.5,154.3,2.5,223.5,43.8
	c51.8,30.9,92.3,73.1,121.5,125.8c23.3,42.3,36.9,87.6,40.5,136C670.1,318,670.3,326.5,670.5,335L670.5,335z M608.1,334.9
	C609,186.3,486.9,61.7,334.2,62C183.8,62.3,61.8,185.1,62.3,336.6c0.5,150.7,124.4,272.2,274.4,271.5
	C485.9,607.5,609.2,484.7,608.1,334.9L608.1,334.9z"/>
<path class="st0" d="M373.2,237.6c0,22.5,0,45,0,67.5c0,5,2.6,7.5,7.8,7.5c45,0,90,0,135,0c7.3,0,7.3,0,7.3,7.1c0,18.3,0,36.7,0,55
	c0,7.3,0,7.4-7.6,7.4c-45.2,0-90.3,0-135.5,0c-6.9,0-6.9,0-6.9,6.9c0,45.3,0,90.7,0,136c0,7.2,0,7.2-7.3,7.2
	c-18.7,0-37.3-0.1-56,0.1c-4.8,0.1-6.3-1.6-6.3-6.4c0.1-45.3,0.1-90.7,0.1-136c0-5.2-2.7-7.8-8-7.8c-45,0-90,0-135,0
	c-7,0-7-0.1-7.1-6.9c0-18.7,0-37.3,0-56c0-6.5,0.1-6.6,6.8-6.6c45.3,0,90.7,0,136,0c4.8,0,7.2-2.4,7.2-7.1c0-45.3,0-90.7,0-136
	c0-7,0-7,6.9-7c19,0,38,0.1,57-0.1c4.5-0.1,5.7,1.4,5.7,5.7C373.2,191.2,373.2,214.4,373.2,237.6L373.2,237.6z"/>
</svg>
