<?xml version="1.0" encoding="UTF-8"?>
<svg id="_Слой_1" data-name="Слой 1" xmlns="http://www.w3.org/2000/svg" viewBox="0 0 290 290.23">
  <defs>
    <style>
      .cls-1 {
        fill: #878787;
      }
    </style>
  </defs>
  <path class="cls-1" d="m194.04,241.76c.13-2.69,0-5.35.66-7.94.67-2.59-.25-4.26-2.68-5.46-21.41-10.59-42.79-21.24-64.17-31.89-12.83-6.39-25.72-12.67-38.41-19.32-3-1.57-4.48-1.04-6.64,1.2-20.73,21.56-55.51,19.59-73.09-4.04-22.09-29.69-4.4-71.86,32.17-76.53,16.17-2.06,30.06,2.77,41.31,14.62,1.97,2.08,3.46,2.49,6.09,1.17,34.27-17.24,68.58-34.41,102.96-51.44,3.06-1.52,2.98-3.4,2.53-6.04-4.43-25.81,12.05-49.9,37.63-55.08,28.18-5.71,54.42,13.54,57.35,42.08,2.12,20.66-8.87,39.91-27.83,48.74-18.03,8.4-40.25,4.34-54.24-10.26-2.66-2.78-4.67-2.78-7.76-1.23-33.97,16.97-67.99,33.87-102.02,50.73-2.2,1.09-3.26,2.2-2.6,4.92,1.46,5.94,1.41,12.01.07,17.96-.61,2.72.39,3.85,2.6,4.94,24.57,12.15,49.12,24.35,73.65,36.56,9.79,4.88,19.57,9.77,29.29,14.79,2.33,1.2,3.77,1.2,5.79-.89,14.09-14.57,31.22-19.18,50.35-12.97,19.05,6.19,30.27,19.93,32.62,39.97,4.34,36.96-33.24,64.89-67.06,49.61-18.66-8.43-28.05-23.67-28.56-44.21ZM242.36,18.91c-16.09-.09-29.67,13.21-29.64,29.04.03,15.93,13.43,29.36,29.39,29.45,15.48.08,29.03-13.34,29.09-28.83.07-16.43-12.71-29.56-28.84-29.65Zm-.2,252.04c16.12-.01,29.06-12.9,29.05-28.93,0-16.33-12.93-29.22-29.23-29.17-15.88.05-29.22,13.27-29.26,28.98-.03,16.04,13.21,29.13,29.44,29.12ZM19.16,144.71c.01,16.07,13.31,29.42,29.19,29.32,15.76-.11,28.94-13.47,28.89-29.3-.05-15.94-13.15-29.16-28.92-29.19-16.26-.03-29.17,12.88-29.16,29.17Z"/>
</svg>