<?xml version="1.0" encoding="UTF-8"?>
<svg id="_Слой_1" data-name="Слой 1" xmlns="http://www.w3.org/2000/svg" viewBox="0 0 62.99 56.35">
  <defs>
    <style>
      .cls-1 {
        fill: #ffffff;
      }
    </style>
  </defs>
  <path class="cls-1" d="m55.1,12.39h0c-.96,0-1.72.7-1.82,1.65l-3.62,34.79-6.59-42.86c-.14-.92-.89-1.56-1.82-1.56h0c-.93,0-1.68.65-1.81,1.57l-4.38,29.8-2.91-5.66c-.35-.69-1.08-1.07-1.85-.98-.77.09-1.39.64-1.57,1.39l-2.93,12.19-4.35-21.53c-.17-.85-.87-1.44-1.73-1.47-.86-.04-1.6.51-1.84,1.34l-3.5,12.45-3.09-5.32c-.34-.59-.99-.93-1.67-.91-.69.03-1.29.44-1.58,1.06l-3.15,6.73H1c-.55,0-1,.45-1,1s.45,1,1,1h3.98c.71,0,1.36-.42,1.66-1.06l3.06-6.54,3.13,5.39c.37.64,1.08.99,1.82.9.73-.09,1.34-.61,1.54-1.33l3.42-12.17,4.36,21.59c.17.85.9,1.46,1.77,1.47.01,0,.02,0,.03,0,.85,0,1.58-.58,1.79-1.41l3-12.48,2.94,5.73c.37.71,1.15,1.1,1.94.97.79-.13,1.4-.75,1.52-1.55l4.3-29.23,6.61,43.04c.14.91.9,1.56,1.81,1.56h.05c.94-.02,1.69-.72,1.78-1.65l3.69-35.48c.21.22.52.35.84.31.55-.06.94-.56.88-1.1-.1-.95-.87-1.63-1.83-1.63Z"/>
  <path class="cls-1" d="m61.99,0c-.55,0-1,.45-1,1v54.35c0,.55.45,1,1,1s1-.45,1-1V1c0-.55-.45-1-1-1Z"/>
</svg>