<?xml version="1.0" encoding="UTF-8"?>
<svg id="_Слой_1" data-name="Слой 1" xmlns="http://www.w3.org/2000/svg" viewBox="0 0 77.15 57.27">
  <defs>
    <style>
      .cls-1 {
        fill: #ffffff;
      }
    </style>
  </defs>
  <path class="cls-1" d="m16.48,4.62c-.42-.36-1.05-.31-1.41.11s-.31,1.05.11,1.41c6.93,5.92,10.74,13.91,10.74,22.49s-3.81,16.57-10.74,22.5c-.42.36-.47.99-.11,1.41.2.23.48.35.76.35.23,0,.46-.08.65-.24,7.38-6.32,11.44-14.85,11.44-24.02s-4.17-17.79-11.44-24.01Z"/>
  <path class="cls-1" d="m17.92,28.64c0-2.28-.39-4.54-1.15-6.7-1.41-4.05-4.09-7.69-7.75-10.52-.44-.34-1.06-.26-1.4.18-.34.44-.26,1.06.18,1.4,3.35,2.59,5.8,5.91,7.09,9.6.69,1.95,1.03,3.98,1.03,6.04s-.35,4.09-1.03,6.04c-1.28,3.68-3.74,7-7.09,9.6-.44.34-.52.97-.18,1.4.2.25.49.39.79.39.21,0,.43-.07.61-.21,3.66-2.83,6.34-6.47,7.75-10.52.76-2.16,1.15-4.42,1.15-6.7Z"/>
  <path class="cls-1" d="m1.52,18.31c-.47-.29-1.09-.14-1.38.33-.29.47-.14,1.09.33,1.38,3.46,2.11,5.44,5.25,5.44,8.62s-1.98,6.5-5.44,8.63c-.47.29-.62.9-.33,1.38.19.31.52.48.85.48.18,0,.36-.05.52-.15,4.07-2.5,6.4-6.26,6.4-10.33s-2.33-7.84-6.4-10.32Z"/>
  <path class="cls-1" d="m48.23,11.41c-.44-.34-1.06-.26-1.4.18-.34.44-.26,1.06.18,1.4,3.35,2.59,5.8,5.91,7.09,9.6.69,1.95,1.03,3.98,1.03,6.04s-.35,4.09-1.03,6.04c-1.28,3.69-3.74,7-7.09,9.6-.44.34-.52.97-.18,1.4.2.25.49.39.79.39.21,0,.43-.07.61-.21,3.66-2.83,6.34-6.47,7.75-10.52.76-2.16,1.15-4.42,1.15-6.7s-.39-4.54-1.15-6.7c-1.41-4.05-4.09-7.69-7.75-10.52Z"/>
  <path class="cls-1" d="m40.73,18.31c-.47-.29-1.09-.14-1.38.33-.29.47-.14,1.09.33,1.38,3.46,2.11,5.44,5.25,5.44,8.62s-1.98,6.5-5.44,8.63c-.47.29-.62.9-.33,1.38.19.31.52.48.85.48.18,0,.36-.05.52-.15,4.07-2.5,6.4-6.26,6.4-10.33s-2.33-7.84-6.4-10.32Z"/>
  <path class="cls-1" d="m70.75,18.31c-.47-.29-1.09-.14-1.38.33-.29.47-.14,1.09.33,1.38,3.46,2.11,5.44,5.25,5.44,8.62s-1.98,6.5-5.44,8.63c-.47.29-.62.9-.33,1.38.19.31.52.48.85.48.18,0,.36-.05.52-.15,4.06-2.5,6.4-6.26,6.4-10.33s-2.33-7.84-6.4-10.32Z"/>
  <path class="cls-1" d="m34.14,0c-.55,0-1,.45-1,1v55.27c0,.55.45,1,1,1s1-.45,1-1V1c0-.55-.45-1-1-1Z"/>
</svg>