<?xml version="1.0" encoding="UTF-8"?>
<svg id="_Слой_1" data-name="Слой 1" xmlns="http://www.w3.org/2000/svg" viewBox="0 0 67.08 67.36">
  <defs>
    <style>
      .cls-1 {
        fill: #ffffff;
      }
    </style>
  </defs>
  <path class="cls-1" d="m62.64,46.73h-22.28v-1.93h-1.09l1.29-.39c.53-.16.86-.67.78-1.21-.08-.55-.54-.95-1.1-.95h-1.12l1.45-.44c.53-.16.85-.67.77-1.22-.08-.55-.55-.94-1.1-.94h-1.12l1.44-.43c.53-.16.86-.67.78-1.21-.08-.55-.54-.95-1.1-.95h-1.12l1.44-.43c.53-.16.86-.67.78-1.21-.08-.55-.54-.95-1.1-.95h-1.12l1.45-.44c.53-.16.85-.67.77-1.22-.08-.55-.55-.94-1.1-.94h-1.12l1.44-.43c.53-.16.86-.67.78-1.21-.08-.55-.54-.95-1.1-.95h-1.12l1.44-.43c.53-.16.86-.67.78-1.21-.02-.13-.06-.25-.12-.36h11.23c2.38,0,4.31-1.94,4.31-4.31V4.31c0-2.38-1.94-4.31-4.31-4.31H14.62c-2.38,0-4.31,1.93-4.31,4.31v18.64c0,2.38,1.94,4.31,4.31,4.31h12.15v1.41h7.4l-1.7.51c-.19.06-.38.08-.57.08h-5.13v2h7.4l-1.7.51c-.18.05-.37.08-.57.08h-5.13v2h7.4l-1.7.51c-.18.06-.38.08-.57.08h-5.13v2h7.4l-1.69.51c-.19.06-.38.08-.57.08h-5.13v2h7.4l-1.7.51c-.18.05-.37.08-.57.08h-5.13v2h7.4l-1.7.51c-.18.06-.38.08-.57.08h-5.13v2h7.4l-1.69.51c-.09.03-.18.03-.27.04h-3.14v.04h-2.3v1.89H4.44c-2.45,0-4.44,1.99-4.44,4.44v11.75c0,2.45,1.99,4.44,4.44,4.44h58.2c2.45,0,4.44-1.99,4.44-4.44v-11.75c0-2.45-1.99-4.44-4.44-4.44ZM12.31,22.96V4.31c0-1.28,1.04-2.31,2.31-2.31h37.84c1.28,0,2.31,1.04,2.31,2.31v18.64c0,1.28-1.04,2.31-2.31,2.31H14.62c-1.28,0-2.31-1.04-2.31-2.31Zm52.78,39.97c0,1.35-1.1,2.44-2.44,2.44H4.44c-1.35,0-2.44-1.1-2.44-2.44v-11.75c0-1.35,1.1-2.44,2.44-2.44h58.2c1.35,0,2.44,1.1,2.44,2.44v11.75Z"/>
  <path class="cls-1" d="m59.65,40.96l.93-1.04,3.46,4.81h2.22l-4.42-5.91,3.88-4.13h-2.2l-2.94,3.46c-.29.35-.64.79-.89,1.14h-.04v-9.29h-1.8v14.72h1.8v-3.77Z"/>
  <path class="cls-1" d="m36.69,6.41c-.95,0-1.62.25-2.22.71-.41.31-.81.75-1.12,1.31h-.04c-.44-1.18-1.47-2.01-2.84-2.01-1.66,0-2.59.89-3.15,1.85h-.06l-.08-1.62h-1.6c.06.83.08,1.68.08,2.72v7.32h1.78v-6.05c0-.31.04-.62.15-.89.29-.91,1.12-1.82,2.26-1.82,1.39,0,2.09,1.16,2.09,2.76v6.01h1.78v-6.2c0-.33.06-.66.15-.91.31-.89,1.12-1.66,2.16-1.66,1.47,0,2.18,1.16,2.18,3.09v5.68h1.78v-5.91c0-3.48-1.97-4.35-3.3-4.35Z"/>
  <polygon class="cls-1" points="42.69 14.64 42.9 15.45 44.26 14.71 44.29 14.71 44.29 21.58 45.31 21.58 45.31 13.72 44.41 13.72 42.69 14.64"/>
  <path class="cls-1" d="m36.69,50.46c-.95,0-1.62.25-2.22.71-.41.31-.81.75-1.12,1.31h-.04c-.44-1.18-1.47-2.01-2.84-2.01-1.66,0-2.59.89-3.15,1.85h-.06l-.08-1.62h-1.6c.06.83.08,1.68.08,2.72v7.32h1.78v-6.05c0-.31.04-.62.15-.89.29-.91,1.12-1.82,2.26-1.82,1.39,0,2.09,1.16,2.09,2.76v6.01h1.78v-6.2c0-.33.06-.66.15-.91.31-.89,1.12-1.66,2.16-1.66,1.47,0,2.18,1.16,2.18,3.09v5.68h1.78v-5.91c0-3.48-1.97-4.35-3.3-4.35Z"/>
  <path class="cls-1" d="m43.47,62.72l.63-.58c1.66-1.6,2.71-2.77,2.71-4.22,0-1.12-.71-2.28-2.4-2.28-.91,0-1.68.34-2.22.8l.34.75c.36-.3.95-.66,1.67-.66,1.17,0,1.56.74,1.56,1.53-.01,1.18-.92,2.2-2.92,4.11l-.83.81v.65h5.02v-.88h-3.53v-.02Z"/>
</svg>