<?xml version="1.0" encoding="UTF-8"?>
<svg id="_Слой_1" data-name="Слой 1" xmlns="http://www.w3.org/2000/svg" viewBox="0 0 40.23 49.93">
  <defs>
    <style>
      .cls-1 {
        fill: #ffffff;
      }
    </style>
  </defs>
  <path class="cls-1" d="m39.94,10.47L29.75.29c-.19-.19-.45-.28-.7-.28h0s-21.39,0-21.39,0c-1.73,0-3.14,1.41-3.14,3.14v2.58h-1.38c-1.73,0-3.14,1.41-3.14,3.14v37.93c0,1.73,1.41,3.14,3.14,3.14h29.31c1.74,0,3.15-1.41,3.15-3.14v-2.58h1.37c1.74,0,3.15-1.41,3.15-3.14V11.62s.03-.04.04-.06c.15-.37.07-.8-.22-1.09Zm-9.89-7.06l6.77,6.76h-6.05c-.4,0-.72-.32-.72-.71V3.41Zm3.55,43.38c0,.63-.52,1.14-1.15,1.14H3.14c-.63,0-1.14-.51-1.14-1.14V8.86c0-.63.51-1.14,1.14-1.14h1.38v33.35c0,1.73,1.41,3.14,3.14,3.14h25.94v2.58Zm3.37-4.58H7.66c-.63,0-1.14-.51-1.14-1.14V3.14c0-.63.51-1.14,1.14-1.14h20.39v7.46c0,1.5,1.22,2.71,2.72,2.71h7.35v28.89c0,.63-.52,1.14-1.15,1.14Z"/>
  <path class="cls-1" d="m10.95,12.17h15.67c.55,0,1-.45,1-1s-.45-1-1-1h-15.67c-.55,0-1,.45-1,1s.45,1,1,1Z"/>
  <path class="cls-1" d="m35.52,14.96H10.95c-.55,0-1,.45-1,1s.45,1,1,1h24.56c.55,0,1-.45,1-1s-.45-1-1-1Z"/>
  <path class="cls-1" d="m35.52,19.75H10.95c-.55,0-1,.45-1,1s.45,1,1,1h24.56c.55,0,1-.45,1-1s-.45-1-1-1Z"/>
  <path class="cls-1" d="m35.52,24.54H10.95c-.55,0-1,.45-1,1s.45,1,1,1h24.56c.55,0,1-.45,1-1s-.45-1-1-1Z"/>
  <path class="cls-1" d="m35.52,29.33H10.95c-.55,0-1,.45-1,1s.45,1,1,1h24.56c.55,0,1-.45,1-1s-.45-1-1-1Z"/>
  <path class="cls-1" d="m35.52,34.11H10.95c-.55,0-1,.45-1,1s.45,1,1,1h24.56c.55,0,1-.45,1-1s-.45-1-1-1Z"/>
</svg>