<?xml version="1.0" encoding="UTF-8"?>
<svg id="_Слой_1" data-name="Слой 1" xmlns="http://www.w3.org/2000/svg" xmlns:xlink="http://www.w3.org/1999/xlink" viewBox="0 0 95.72 8.42">
  <defs>
    <style>
      .cls-1, .cls-2, .cls-3 {
        fill: none;
      }

      .cls-2 {
        stroke: #010101;
        stroke-miterlimit: 10;
        stroke-width: .25px;
      }

      .cls-3 {
        clip-path: url(#clippath);
      }

      .cls-4 {
        fill: #010101;
      }
    </style>
    <clipPath id="clippath">
      <path class="cls-1" d="m14.2.32v2.2h-1.97v5.59H.32V.32h13.88Zm2.28,0v2.2h1.82v5.59h10.18V2.52h1.94V.32h-13.94Zm16.16,0v2.2h1.91v5.59h10.16V2.52h1.87V.32h-13.94Zm16.16,0v2.2h1.98v5.59h10.2V2.52h1.76V.32h-13.94Zm16.4,0v2.2h1.85v5.59h10.2V2.52h1.83V.32h-13.87Zm16.15,0v2.2h1.97v5.59h12.07V.32h-14.04Z"/>
    </clipPath>
  </defs>
  <g class="cls-3">
    <g>
      <line class="cls-2" x1="86.18" y1="-91.57" x2="-40.59" y2="35.2"/>
      <line class="cls-2" x1="87.02" y1="-90.73" x2="-39.75" y2="36.04"/>
      <line class="cls-2" x1="87.86" y1="-89.89" x2="-38.91" y2="36.88"/>
      <line class="cls-2" x1="88.7" y1="-89.05" x2="-38.08" y2="37.72"/>
      <line class="cls-2" x1="89.53" y1="-88.22" x2="-37.24" y2="38.56"/>
      <line class="cls-2" x1="90.37" y1="-87.38" x2="-36.4" y2="39.39"/>
      <line class="cls-2" x1="91.21" y1="-86.54" x2="-35.56" y2="40.23"/>
      <line class="cls-2" x1="92.05" y1="-85.7" x2="-34.72" y2="41.07"/>
      <line class="cls-2" x1="92.89" y1="-84.86" x2="-33.89" y2="41.91"/>
      <line class="cls-2" x1="93.72" y1="-84.02" x2="-33.05" y2="42.75"/>
      <line class="cls-2" x1="94.56" y1="-83.19" x2="-32.21" y2="43.59"/>
      <line class="cls-2" x1="95.4" y1="-82.35" x2="-31.37" y2="44.42"/>
      <line class="cls-2" x1="96.24" y1="-81.51" x2="-30.53" y2="45.26"/>
      <line class="cls-2" x1="97.08" y1="-80.67" x2="-29.69" y2="46.1"/>
      <line class="cls-2" x1="97.92" y1="-79.83" x2="-28.86" y2="46.94"/>
      <line class="cls-2" x1="98.75" y1="-78.99" x2="-28.02" y2="47.78"/>
      <line class="cls-2" x1="99.59" y1="-78.16" x2="-27.18" y2="48.62"/>
      <line class="cls-2" x1="100.43" y1="-77.32" x2="-26.34" y2="49.45"/>
      <line class="cls-2" x1="101.27" y1="-76.48" x2="-25.5" y2="50.29"/>
      <line class="cls-2" x1="102.11" y1="-75.64" x2="-24.66" y2="51.13"/>
      <line class="cls-2" x1="102.95" y1="-74.8" x2="-23.83" y2="51.97"/>
      <line class="cls-2" x1="103.78" y1="-73.97" x2="-22.99" y2="52.81"/>
      <line class="cls-2" x1="104.62" y1="-73.13" x2="-22.15" y2="53.64"/>
      <line class="cls-2" x1="105.46" y1="-72.29" x2="-21.31" y2="54.48"/>
      <line class="cls-2" x1="106.3" y1="-71.45" x2="-20.47" y2="55.32"/>
      <line class="cls-2" x1="107.14" y1="-70.61" x2="-19.64" y2="56.16"/>
      <line class="cls-2" x1="107.97" y1="-69.77" x2="-18.8" y2="57"/>
      <line class="cls-2" x1="108.81" y1="-68.94" x2="-17.96" y2="57.84"/>
      <line class="cls-2" x1="109.65" y1="-68.1" x2="-17.12" y2="58.67"/>
      <line class="cls-2" x1="110.49" y1="-67.26" x2="-16.28" y2="59.51"/>
      <line class="cls-2" x1="111.33" y1="-66.42" x2="-15.44" y2="60.35"/>
      <line class="cls-2" x1="112.17" y1="-65.58" x2="-14.61" y2="61.19"/>
      <line class="cls-2" x1="113" y1="-64.74" x2="-13.77" y2="62.03"/>
      <line class="cls-2" x1="113.84" y1="-63.91" x2="-12.93" y2="62.87"/>
      <line class="cls-2" x1="114.68" y1="-63.07" x2="-12.09" y2="63.7"/>
      <line class="cls-2" x1="115.52" y1="-62.23" x2="-11.25" y2="64.54"/>
      <line class="cls-2" x1="116.36" y1="-61.39" x2="-10.41" y2="65.38"/>
      <line class="cls-2" x1="117.2" y1="-60.55" x2="-9.58" y2="66.22"/>
      <line class="cls-2" x1="118.03" y1="-59.72" x2="-8.74" y2="67.06"/>
      <line class="cls-2" x1="118.87" y1="-58.88" x2="-7.9" y2="67.89"/>
      <line class="cls-2" x1="119.71" y1="-58.04" x2="-7.06" y2="68.73"/>
      <line class="cls-2" x1="120.55" y1="-57.2" x2="-6.22" y2="69.57"/>
      <line class="cls-2" x1="121.39" y1="-56.36" x2="-5.39" y2="70.41"/>
      <line class="cls-2" x1="122.22" y1="-55.52" x2="-4.55" y2="71.25"/>
      <line class="cls-2" x1="123.06" y1="-54.69" x2="-3.71" y2="72.09"/>
      <line class="cls-2" x1="123.9" y1="-53.85" x2="-2.87" y2="72.92"/>
      <line class="cls-2" x1="124.74" y1="-53.01" x2="-2.03" y2="73.76"/>
      <line class="cls-2" x1="125.58" y1="-52.17" x2="-1.19" y2="74.6"/>
      <line class="cls-2" x1="126.42" y1="-51.33" x2="-.36" y2="75.44"/>
      <line class="cls-2" x1="127.25" y1="-50.49" x2=".48" y2="76.28"/>
      <line class="cls-2" x1="128.09" y1="-49.66" x2="1.32" y2="77.12"/>
      <line class="cls-2" x1="128.93" y1="-48.82" x2="2.16" y2="77.95"/>
      <line class="cls-2" x1="129.77" y1="-47.98" x2="3" y2="78.79"/>
      <line class="cls-2" x1="130.61" y1="-47.14" x2="3.84" y2="79.63"/>
      <line class="cls-2" x1="131.45" y1="-46.3" x2="4.67" y2="80.47"/>
      <line class="cls-2" x1="132.28" y1="-45.47" x2="5.51" y2="81.31"/>
      <line class="cls-2" x1="133.12" y1="-44.63" x2="6.35" y2="82.14"/>
      <line class="cls-2" x1="133.96" y1="-43.79" x2="7.19" y2="82.98"/>
      <line class="cls-2" x1="134.8" y1="-42.95" x2="8.03" y2="83.82"/>
      <line class="cls-2" x1="135.64" y1="-42.11" x2="8.86" y2="84.66"/>
      <line class="cls-2" x1="136.47" y1="-41.27" x2="9.7" y2="85.5"/>
      <line class="cls-2" x1="137.31" y1="-40.44" x2="10.54" y2="86.34"/>
      <line class="cls-2" x1="138.15" y1="-39.6" x2="11.38" y2="87.17"/>
      <line class="cls-2" x1="138.99" y1="-38.76" x2="12.22" y2="88.01"/>
      <line class="cls-2" x1="139.83" y1="-37.92" x2="13.06" y2="88.85"/>
      <line class="cls-2" x1="140.67" y1="-37.08" x2="13.89" y2="89.69"/>
      <line class="cls-2" x1="141.5" y1="-36.24" x2="14.73" y2="90.53"/>
      <line class="cls-2" x1="142.34" y1="-35.41" x2="15.57" y2="91.37"/>
      <line class="cls-2" x1="143.18" y1="-34.57" x2="16.41" y2="92.2"/>
    </g>
  </g>
  <path class="cls-4" d="m95.72,0H0v8.42h95.72V0h0Zm-.64,7.79h-11.44V2.2h-1.97V.64h13.41v7.15Zm-18.14-4.95v4.95h-9.56V2.2h-1.85V.64h13.24v1.57h-1.83v.63Zm-16.27,0v4.95h-9.56V2.2h-1.98V.64h13.3v1.57h-1.76v.63Zm-16.27,0v4.95h-9.53V2.2h-1.91V.64h13.3v1.57h-1.87v.63Zm-16.24,0v4.95h-9.55V2.2h-1.82V.64h13.31v1.57h-1.94v.63Zm-16.25,0v4.95H.63V.64h13.25v1.57h-1.97v.63Zm.63,4.95V2.84h1.97V.64h1.64v2.2h1.82v4.95h-5.44Zm16.25,0V2.84h1.94V.64h1.59v2.2h1.91v4.95h-5.44Zm16.24,0V2.84h1.87V.64h1.59v2.2h1.98v4.95h-5.44Zm16.27,0V2.84h1.76V.64h1.83v2.2h1.85v4.95h-5.44Zm16.27,0V2.84h1.83V.64h1.64v2.2h1.97v4.95h-5.44Z"/>
</svg>