<?xml version="1.0" encoding="UTF-8"?>
<svg id="_Слой_1" data-name="Слой 1" xmlns="http://www.w3.org/2000/svg" xmlns:xlink="http://www.w3.org/1999/xlink" viewBox="0 0 94.9 108.71">
  <defs>
    <style>
      .cls-1, .cls-2 {
        fill: none;
      }

      .cls-2 {
        clip-path: url(#clippath);
      }

      .cls-3 {
        fill: #010101;
      }
    </style>
    <clipPath id="clippath">
      <rect class="cls-1" x="-2.44" y="-2.44" width="99.78" height="113.59"/>
    </clipPath>
  </defs>
  <path class="cls-3" d="m94.9,108.71H0V0h94.9v108.71Zm-94.46-.44h94.02V.44H.44v107.82Z"/>
  <path class="cls-3" d="m93.43,107.35H1.48V1.57h91.95v105.78Zm-91.51-.44h91.06V2.02H1.93v104.89Z"/>
  <g class="cls-2">
    <path class="cls-3" d="m90.14,5.63c-.78,0-1.41-.63-1.41-1.42s.63-1.41,1.41-1.41,1.41.63,1.41,1.41-.63,1.42-1.41,1.42Zm0-2.39c-.53,0-.97.44-.97.97s.44.97.97.97.97-.44.97-.97-.44-.97-.97-.97Z"/>
    <path class="cls-3" d="m90.14,9.35c-.78,0-1.41-.64-1.41-1.42s.63-1.41,1.41-1.41,1.41.63,1.41,1.41-.63,1.42-1.41,1.42Zm0-2.39c-.53,0-.97.44-.97.97s.44.97.97.97.97-.44.97-.97-.44-.97-.97-.97Z"/>
    <path class="cls-3" d="m90.14,13.25c-.78,0-1.41-.63-1.41-1.42s.63-1.41,1.41-1.41,1.41.63,1.41,1.41-.63,1.42-1.41,1.42Zm0-2.38c-.53,0-.97.44-.97.97s.44.97.97.97.97-.44.97-.97-.44-.97-.97-.97Z"/>
    <path class="cls-3" d="m86.42,5.88c-.78,0-1.41-.63-1.41-1.42s.63-1.41,1.41-1.41,1.41.63,1.41,1.41-.63,1.42-1.41,1.42Zm0-2.38c-.54,0-.97.44-.97.97s.44.97.97.97.97-.44.97-.97-.44-.97-.97-.97Z"/>
    <path class="cls-3" d="m86.42,9.59c-.78,0-1.41-.63-1.41-1.42s.63-1.41,1.41-1.41,1.41.63,1.41,1.41-.63,1.42-1.41,1.42Zm0-2.39c-.54,0-.97.44-.97.97s.44.97.97.97.97-.44.97-.97-.44-.97-.97-.97Z"/>
    <path class="cls-3" d="m86.42,13.31c-.78,0-1.41-.63-1.41-1.42s.63-1.41,1.41-1.41,1.41.63,1.41,1.41-.63,1.42-1.41,1.42Zm0-2.39c-.54,0-.97.44-.97.97s.44.97.97.97.97-.44.97-.97-.44-.97-.97-.97Z"/>
    <path class="cls-3" d="m86.42,17.21c-.78,0-1.41-.63-1.41-1.42s.63-1.41,1.41-1.41,1.41.63,1.41,1.41-.63,1.42-1.41,1.42Zm0-2.38c-.54,0-.97.44-.97.97s.44.97.97.97.97-.44.97-.97-.44-.97-.97-.97Z"/>
    <path class="cls-3" d="m82.71,6.13c-.78,0-1.41-.63-1.41-1.42s.63-1.41,1.41-1.41,1.41.63,1.41,1.41-.63,1.42-1.41,1.42Zm0-2.38c-.54,0-.97.44-.97.97s.44.97.97.97.97-.44.97-.97-.44-.97-.97-.97Z"/>
    <path class="cls-3" d="m82.71,9.84c-.78,0-1.41-.63-1.41-1.42s.63-1.41,1.41-1.41,1.41.63,1.41,1.41-.63,1.42-1.41,1.42Zm0-2.38c-.54,0-.97.44-.97.97s.44.97.97.97.97-.44.97-.97-.44-.97-.97-.97Z"/>
    <path class="cls-3" d="m82.71,13.56c-.78,0-1.41-.63-1.41-1.42s.63-1.41,1.41-1.41,1.41.63,1.41,1.41-.63,1.42-1.41,1.42Zm0-2.38c-.54,0-.97.44-.97.97s.44.97.97.97.97-.44.97-.97-.44-.97-.97-.97Z"/>
    <path class="cls-3" d="m82.71,17.27c-.78,0-1.41-.63-1.41-1.42s.63-1.41,1.41-1.41,1.41.63,1.41,1.41-.63,1.42-1.41,1.42Zm0-2.39c-.54,0-.97.44-.97.97s.44.97.97.97.97-.44.97-.97-.44-.97-.97-.97Z"/>
    <path class="cls-3" d="m82.71,21.18c-.78,0-1.41-.63-1.41-1.42s.63-1.41,1.41-1.41,1.41.63,1.41,1.41-.63,1.42-1.41,1.42Zm0-2.38c-.54,0-.97.44-.97.97s.44.97.97.97.97-.44.97-.97-.44-.97-.97-.97Z"/>
    <path class="cls-3" d="m78.99,6.37c-.78,0-1.41-.63-1.41-1.42s.63-1.41,1.41-1.41,1.41.63,1.41,1.41-.63,1.42-1.41,1.42Zm0-2.39c-.53,0-.97.44-.97.97s.44.97.97.97.97-.44.97-.97-.44-.97-.97-.97Z"/>
    <path class="cls-3" d="m78.99,10.09c-.78,0-1.41-.63-1.41-1.42s.63-1.41,1.41-1.41,1.41.63,1.41,1.41-.63,1.42-1.41,1.42Zm0-2.39c-.53,0-.97.44-.97.97s.44.97.97.97.97-.44.97-.97-.44-.97-.97-.97Z"/>
    <path class="cls-3" d="m78.99,13.81c-.78,0-1.41-.64-1.41-1.42s.63-1.41,1.41-1.41,1.41.63,1.41,1.41-.63,1.42-1.41,1.42Zm0-2.39c-.53,0-.97.44-.97.97s.44.97.97.97.97-.44.97-.97-.44-.97-.97-.97Z"/>
    <path class="cls-3" d="m78.99,17.52c-.78,0-1.41-.63-1.41-1.42s.63-1.41,1.41-1.41,1.41.63,1.41,1.41-.63,1.42-1.41,1.42Zm0-2.38c-.53,0-.97.44-.97.97s.44.97.97.97.97-.44.97-.97-.44-.97-.97-.97Z"/>
    <path class="cls-3" d="m78.99,21.24c-.78,0-1.41-.63-1.41-1.42s.63-1.41,1.41-1.41,1.41.63,1.41,1.41-.63,1.42-1.41,1.42Zm0-2.39c-.53,0-.97.44-.97.97s.44.97.97.97.97-.44.97-.97-.44-.97-.97-.97Z"/>
    <path class="cls-3" d="m78.99,25.14c-.78,0-1.41-.63-1.41-1.42s.63-1.41,1.41-1.41,1.41.63,1.41,1.41-.63,1.42-1.41,1.42Zm0-2.38c-.53,0-.97.44-.97.97s.44.97.97.97.97-.44.97-.97-.44-.97-.97-.97Z"/>
    <path class="cls-3" d="m75.28,6.62c-.78,0-1.41-.63-1.41-1.42s.63-1.41,1.41-1.41,1.41.63,1.41,1.41-.63,1.42-1.41,1.42Zm0-2.38c-.54,0-.97.44-.97.97s.44.97.97.97.97-.44.97-.97-.44-.97-.97-.97Z"/>
    <path class="cls-3" d="m75.28,10.34c-.78,0-1.41-.63-1.41-1.42s.63-1.41,1.41-1.41,1.41.63,1.41,1.41-.63,1.42-1.41,1.42Zm0-2.38c-.54,0-.97.44-.97.97s.44.97.97.97.97-.44.97-.97-.44-.97-.97-.97Z"/>
    <path class="cls-3" d="m75.28,14.05c-.78,0-1.41-.63-1.41-1.42s.63-1.41,1.41-1.41,1.41.63,1.41,1.41-.63,1.42-1.41,1.42Zm0-2.39c-.54,0-.97.44-.97.97s.44.97.97.97.97-.44.97-.97-.44-.97-.97-.97Z"/>
    <path class="cls-3" d="m75.28,17.77c-.78,0-1.41-.64-1.41-1.42s.63-1.41,1.41-1.41,1.41.63,1.41,1.41-.63,1.42-1.41,1.42Zm0-2.39c-.54,0-.97.44-.97.97s.44.97.97.97.97-.44.97-.97-.44-.97-.97-.97Z"/>
    <path class="cls-3" d="m75.28,21.49c-.78,0-1.41-.63-1.41-1.42s.63-1.41,1.41-1.41,1.41.63,1.41,1.41-.63,1.42-1.41,1.42Zm0-2.38c-.54,0-.97.44-.97.97s.44.97.97.97.97-.44.97-.97-.44-.97-.97-.97Z"/>
    <path class="cls-3" d="m75.28,25.2c-.78,0-1.41-.63-1.41-1.42s.63-1.41,1.41-1.41,1.41.63,1.41,1.41-.63,1.42-1.41,1.42Zm0-2.38c-.54,0-.97.44-.97.97s.44.97.97.97.97-.44.97-.97-.44-.97-.97-.97Z"/>
    <path class="cls-3" d="m75.28,29.1c-.78,0-1.41-.63-1.41-1.42s.63-1.41,1.41-1.41,1.41.63,1.41,1.41-.63,1.42-1.41,1.42Zm0-2.38c-.54,0-.97.44-.97.97s.44.97.97.97.97-.44.97-.97-.44-.97-.97-.97Z"/>
    <path class="cls-3" d="m71.56,10.59c-.78,0-1.41-.64-1.41-1.42s.63-1.41,1.41-1.41,1.41.63,1.41,1.41-.63,1.42-1.41,1.42Zm0-2.39c-.54,0-.97.44-.97.97s.44.97.97.97.97-.44.97-.97-.44-.97-.97-.97Z"/>
    <path class="cls-3" d="m71.56,14.3c-.78,0-1.41-.63-1.41-1.42s.63-1.41,1.41-1.41,1.41.63,1.41,1.41-.63,1.42-1.41,1.42Zm0-2.38c-.54,0-.97.44-.97.97s.44.97.97.97.97-.44.97-.97-.44-.97-.97-.97Z"/>
    <path class="cls-3" d="m71.56,18.02c-.78,0-1.41-.63-1.41-1.42s.63-1.41,1.41-1.41,1.41.63,1.41,1.41-.63,1.42-1.41,1.42Zm0-2.38c-.54,0-.97.44-.97.97s.44.97.97.97.97-.44.97-.97-.44-.97-.97-.97Z"/>
    <path class="cls-3" d="m71.56,21.73c-.78,0-1.41-.64-1.41-1.42s.63-1.41,1.41-1.41,1.41.63,1.41,1.41-.63,1.42-1.41,1.42Zm0-2.39c-.54,0-.97.44-.97.97s.44.97.97.97.97-.44.97-.97-.44-.97-.97-.97Z"/>
    <path class="cls-3" d="m71.56,25.45c-.78,0-1.41-.63-1.41-1.42s.63-1.41,1.41-1.41,1.41.63,1.41,1.41-.63,1.42-1.41,1.42Zm0-2.38c-.54,0-.97.44-.97.97s.44.97.97.97.97-.44.97-.97-.44-.97-.97-.97Z"/>
    <path class="cls-3" d="m71.56,29.17c-.78,0-1.41-.63-1.41-1.42s.63-1.41,1.41-1.41,1.41.63,1.41,1.41-.63,1.42-1.41,1.42Zm0-2.38c-.54,0-.97.44-.97.97s.44.97.97.97.97-.44.97-.97-.44-.97-.97-.97Z"/>
    <path class="cls-3" d="m71.56,33.07c-.78,0-1.41-.63-1.41-1.42s.63-1.41,1.41-1.41,1.41.63,1.41,1.41-.63,1.42-1.41,1.42Zm0-2.39c-.54,0-.97.44-.97.97s.44.97.97.97.97-.44.97-.97-.44-.97-.97-.97Z"/>
    <path class="cls-3" d="m67.84,14.55c-.78,0-1.41-.64-1.41-1.42s.63-1.41,1.41-1.41,1.41.63,1.41,1.41-.63,1.42-1.41,1.42Zm0-2.39c-.53,0-.97.44-.97.97s.44.97.97.97.97-.44.97-.97-.44-.97-.97-.97Z"/>
    <path class="cls-3" d="m67.84,18.27c-.78,0-1.41-.63-1.41-1.42s.63-1.41,1.41-1.41,1.41.63,1.41,1.41-.63,1.42-1.41,1.42Zm0-2.38c-.53,0-.97.44-.97.97s.44.97.97.97.97-.44.97-.97-.44-.97-.97-.97Z"/>
    <path class="cls-3" d="m67.84,21.98c-.78,0-1.41-.63-1.41-1.42s.63-1.41,1.41-1.41,1.41.63,1.41,1.41-.63,1.42-1.41,1.42Zm0-2.38c-.53,0-.97.44-.97.97s.44.97.97.97.97-.44.97-.97-.44-.97-.97-.97Z"/>
    <path class="cls-3" d="m67.84,25.7c-.78,0-1.41-.63-1.41-1.42s.63-1.41,1.41-1.41,1.41.63,1.41,1.41-.63,1.42-1.41,1.42Zm0-2.39c-.53,0-.97.44-.97.97s.44.97.97.97.97-.44.97-.97-.44-.97-.97-.97Z"/>
    <path class="cls-3" d="m67.84,29.41c-.78,0-1.41-.64-1.41-1.42s.63-1.41,1.41-1.41,1.41.63,1.41,1.41-.63,1.42-1.41,1.42Zm0-2.39c-.53,0-.97.44-.97.97s.44.97.97.97.97-.44.97-.97-.44-.97-.97-.97Z"/>
    <path class="cls-3" d="m67.84,33.13c-.78,0-1.41-.63-1.41-1.42s.63-1.41,1.41-1.41,1.41.63,1.41,1.41-.63,1.42-1.41,1.42Zm0-2.38c-.53,0-.97.44-.97.97s.44.97.97.97.97-.44.97-.97-.44-.97-.97-.97Z"/>
    <path class="cls-3" d="m67.84,37.03c-.78,0-1.41-.63-1.41-1.42s.63-1.41,1.41-1.41,1.41.63,1.41,1.41-.63,1.42-1.41,1.42Zm0-2.39c-.53,0-.97.44-.97.97s.44.97.97.97.97-.44.97-.97-.44-.97-.97-.97Z"/>
    <path class="cls-3" d="m64.13,18.51c-.78,0-1.41-.64-1.41-1.42s.63-1.41,1.41-1.41,1.41.63,1.41,1.41-.63,1.42-1.41,1.42Zm0-2.39c-.54,0-.97.44-.97.97s.44.97.97.97.97-.44.97-.97-.44-.97-.97-.97Z"/>
    <path class="cls-3" d="m64.13,22.23c-.78,0-1.41-.63-1.41-1.42s.63-1.41,1.41-1.41,1.41.63,1.41,1.41-.63,1.42-1.41,1.42Zm0-2.38c-.54,0-.97.44-.97.97s.44.97.97.97.97-.44.97-.97-.44-.97-.97-.97Z"/>
    <path class="cls-3" d="m64.13,25.95c-.78,0-1.41-.63-1.41-1.42s.63-1.41,1.41-1.41,1.41.63,1.41,1.41-.63,1.42-1.41,1.42Zm0-2.38c-.54,0-.97.44-.97.97s.44.97.97.97.97-.44.97-.97-.44-.97-.97-.97Z"/>
    <path class="cls-3" d="m64.13,29.66c-.78,0-1.41-.63-1.41-1.42s.63-1.41,1.41-1.41,1.41.63,1.41,1.41-.63,1.42-1.41,1.42Zm0-2.39c-.54,0-.97.44-.97.97s.44.97.97.97.97-.44.97-.97-.44-.97-.97-.97Z"/>
    <path class="cls-3" d="m64.13,33.38c-.78,0-1.41-.63-1.41-1.42s.63-1.41,1.41-1.41,1.41.63,1.41,1.41-.63,1.42-1.41,1.42Zm0-2.39c-.54,0-.97.44-.97.97s.44.97.97.97.97-.44.97-.97-.44-.97-.97-.97Z"/>
    <path class="cls-3" d="m64.13,37.09c-.78,0-1.41-.64-1.41-1.42s.63-1.41,1.41-1.41,1.41.63,1.41,1.41-.63,1.42-1.41,1.42Zm0-2.39c-.54,0-.97.44-.97.97s.44.97.97.97.97-.44.97-.97-.44-.97-.97-.97Z"/>
    <path class="cls-3" d="m64.13,41c-.78,0-1.41-.63-1.41-1.42s.63-1.41,1.41-1.41,1.41.63,1.41,1.41-.63,1.42-1.41,1.42Zm0-2.39c-.54,0-.97.44-.97.97s.44.97.97.97.97-.44.97-.97-.44-.97-.97-.97Z"/>
    <path class="cls-3" d="m60.41,22.48c-.78,0-1.41-.63-1.41-1.42s.63-1.41,1.41-1.41,1.41.63,1.41,1.41-.63,1.42-1.41,1.42Zm0-2.39c-.53,0-.97.44-.97.97s.44.97.97.97.97-.44.97-.97-.44-.97-.97-.97Z"/>
    <path class="cls-3" d="m60.41,26.19c-.78,0-1.41-.64-1.41-1.42s.63-1.41,1.41-1.41,1.41.63,1.41,1.41-.63,1.42-1.41,1.42Zm0-2.39c-.53,0-.97.44-.97.97s.44.97.97.97.97-.44.97-.97-.44-.97-.97-.97Z"/>
    <path class="cls-3" d="m60.41,29.91c-.78,0-1.41-.63-1.41-1.42s.63-1.41,1.41-1.41,1.41.63,1.41,1.41-.63,1.42-1.41,1.42Zm0-2.38c-.53,0-.97.44-.97.97s.44.97.97.97.97-.44.97-.97-.44-.97-.97-.97Z"/>
    <path class="cls-3" d="m60.41,33.63c-.78,0-1.41-.63-1.41-1.42s.63-1.41,1.41-1.41,1.41.63,1.41,1.41-.63,1.42-1.41,1.42Zm0-2.38c-.53,0-.97.44-.97.97s.44.97.97.97.97-.44.97-.97-.44-.97-.97-.97Z"/>
    <path class="cls-3" d="m60.41,37.34c-.78,0-1.41-.63-1.41-1.42s.63-1.41,1.41-1.41,1.41.63,1.41,1.41-.63,1.42-1.41,1.42Zm0-2.39c-.53,0-.97.44-.97.97s.44.97.97.97.97-.44.97-.97-.44-.97-.97-.97Z"/>
    <path class="cls-3" d="m60.41,41.06c-.78,0-1.41-.63-1.41-1.42s.63-1.41,1.41-1.41,1.41.63,1.41,1.41-.63,1.42-1.41,1.42Zm0-2.38c-.53,0-.97.44-.97.97s.44.97.97.97.97-.44.97-.97-.44-.97-.97-.97Z"/>
    <path class="cls-3" d="m60.41,44.96c-.78,0-1.41-.63-1.41-1.42s.63-1.41,1.41-1.41,1.41.63,1.41,1.41-.63,1.42-1.41,1.42Zm0-2.39c-.53,0-.97.44-.97.97s.44.97.97.97.97-.44.97-.97-.44-.97-.97-.97Z"/>
    <path class="cls-3" d="m56.69,26.44c-.78,0-1.41-.63-1.41-1.42s.63-1.41,1.41-1.41,1.41.63,1.41,1.41-.63,1.42-1.41,1.42Zm0-2.38c-.53,0-.97.44-.97.97s.44.97.97.97.97-.44.97-.97-.44-.97-.97-.97Z"/>
    <path class="cls-3" d="m56.69,30.16c-.78,0-1.41-.63-1.41-1.42s.63-1.41,1.41-1.41,1.41.63,1.41,1.41-.63,1.42-1.41,1.42Zm0-2.39c-.53,0-.97.44-.97.97s.44.97.97.97.97-.44.97-.97-.44-.97-.97-.97Z"/>
    <path class="cls-3" d="m56.69,33.87c-.78,0-1.41-.63-1.41-1.42s.63-1.41,1.41-1.41,1.41.63,1.41,1.41-.63,1.42-1.41,1.42Zm0-2.38c-.53,0-.97.44-.97.97s.44.97.97.97.97-.44.97-.97-.44-.97-.97-.97Z"/>
    <path class="cls-3" d="m56.69,37.59c-.78,0-1.41-.63-1.41-1.42s.63-1.41,1.41-1.41,1.41.63,1.41,1.41-.63,1.42-1.41,1.42Zm0-2.38c-.53,0-.97.44-.97.97s.44.97.97.97.97-.44.97-.97-.44-.97-.97-.97Z"/>
    <path class="cls-3" d="m56.69,41.31c-.78,0-1.41-.63-1.41-1.42s.63-1.41,1.41-1.41,1.41.63,1.41,1.41-.63,1.42-1.41,1.42Zm0-2.39c-.53,0-.97.44-.97.97s.44.97.97.97.97-.44.97-.97-.44-.97-.97-.97Z"/>
    <path class="cls-3" d="m56.69,45.02c-.78,0-1.41-.64-1.41-1.42s.63-1.41,1.41-1.41,1.41.63,1.41,1.41-.63,1.42-1.41,1.42Zm0-2.39c-.53,0-.97.44-.97.97s.44.97.97.97.97-.44.97-.97-.44-.97-.97-.97Z"/>
    <path class="cls-3" d="m56.69,48.92c-.78,0-1.41-.63-1.41-1.42s.63-1.41,1.41-1.41,1.41.63,1.41,1.41-.63,1.42-1.41,1.42Zm0-2.38c-.53,0-.97.44-.97.97s.44.97.97.97.97-.44.97-.97-.44-.97-.97-.97Z"/>
    <path class="cls-3" d="m52.98,30.41c-.78,0-1.41-.63-1.41-1.42s.63-1.41,1.41-1.41,1.41.63,1.41,1.41-.63,1.42-1.41,1.42Zm0-2.38c-.54,0-.97.44-.97.97s.44.97.97.97.97-.44.97-.97-.44-.97-.97-.97Z"/>
    <path class="cls-3" d="m52.98,34.12c-.78,0-1.41-.63-1.41-1.42s.63-1.41,1.41-1.41,1.41.63,1.41,1.41-.63,1.42-1.41,1.42Zm0-2.39c-.54,0-.97.44-.97.97s.44.97.97.97.97-.44.97-.97-.44-.97-.97-.97Z"/>
    <path class="cls-3" d="m52.98,37.84c-.78,0-1.41-.64-1.41-1.42s.63-1.41,1.41-1.41,1.41.63,1.41,1.41-.63,1.42-1.41,1.42Zm0-2.39c-.54,0-.97.44-.97.97s.44.97.97.97.97-.44.97-.97-.44-.97-.97-.97Z"/>
    <path class="cls-3" d="m52.98,41.55c-.78,0-1.41-.63-1.41-1.42s.63-1.41,1.41-1.41,1.41.63,1.41,1.41-.63,1.42-1.41,1.42Zm0-2.38c-.54,0-.97.44-.97.97s.44.97.97.97.97-.44.97-.97-.44-.97-.97-.97Z"/>
    <path class="cls-3" d="m52.98,45.27c-.78,0-1.41-.63-1.41-1.42s.63-1.41,1.41-1.41,1.41.63,1.41,1.41-.63,1.42-1.41,1.42Zm0-2.39c-.54,0-.97.44-.97.97s.44.97.97.97.97-.44.97-.97-.44-.97-.97-.97Z"/>
    <path class="cls-3" d="m52.98,48.99c-.78,0-1.41-.63-1.41-1.42s.63-1.41,1.41-1.41,1.41.63,1.41,1.41-.63,1.42-1.41,1.42Zm0-2.39c-.54,0-.97.44-.97.97s.44.97.97.97.97-.44.97-.97-.44-.97-.97-.97Z"/>
    <path class="cls-3" d="m52.98,52.89c-.78,0-1.41-.63-1.41-1.42s.63-1.41,1.41-1.41,1.41.63,1.41,1.41-.63,1.42-1.41,1.42Zm0-2.38c-.54,0-.97.44-.97.97s.44.97.97.97.97-.44.97-.97-.44-.97-.97-.97Z"/>
    <path class="cls-3" d="m49.26,34.37c-.78,0-1.41-.63-1.41-1.42s.63-1.41,1.41-1.41,1.41.63,1.41,1.41-.63,1.42-1.41,1.42Zm0-2.38c-.53,0-.97.44-.97.97s.44.97.97.97.97-.44.97-.97-.44-.97-.97-.97Z"/>
    <path class="cls-3" d="m49.26,38.09c-.78,0-1.41-.63-1.41-1.42s.63-1.41,1.41-1.41,1.41.63,1.41,1.41-.63,1.42-1.41,1.42Zm0-2.39c-.53,0-.97.44-.97.97s.44.97.97.97.97-.44.97-.97-.44-.97-.97-.97Z"/>
    <path class="cls-3" d="m49.26,41.8c-.78,0-1.41-.64-1.41-1.42s.63-1.41,1.41-1.41,1.41.63,1.41,1.41-.63,1.42-1.41,1.42Zm0-2.39c-.53,0-.97.44-.97.97s.44.97.97.97.97-.44.97-.97-.44-.97-.97-.97Z"/>
    <path class="cls-3" d="m49.26,45.52c-.78,0-1.41-.63-1.41-1.42s.63-1.41,1.41-1.41,1.41.63,1.41,1.41-.63,1.42-1.41,1.42Zm0-2.38c-.53,0-.97.44-.97.97s.44.97.97.97.97-.44.97-.97-.44-.97-.97-.97Z"/>
    <path class="cls-3" d="m49.26,49.23c-.78,0-1.41-.63-1.41-1.42s.63-1.41,1.41-1.41,1.41.63,1.41,1.41-.63,1.42-1.41,1.42Zm0-2.38c-.53,0-.97.44-.97.97s.44.97.97.97.97-.44.97-.97-.44-.97-.97-.97Z"/>
    <path class="cls-3" d="m49.26,52.95c-.78,0-1.41-.63-1.41-1.42s.63-1.41,1.41-1.41,1.41.63,1.41,1.41-.63,1.42-1.41,1.42Zm0-2.39c-.53,0-.97.44-.97.97s.44.97.97.97.97-.44.97-.97-.44-.97-.97-.97Z"/>
    <path class="cls-3" d="m49.26,56.85c-.78,0-1.41-.64-1.41-1.42s.63-1.41,1.41-1.41,1.41.63,1.41,1.41-.63,1.42-1.41,1.42Zm0-2.39c-.53,0-.97.44-.97.97s.44.97.97.97.97-.44.97-.97-.44-.97-.97-.97Z"/>
    <path class="cls-3" d="m45.55,38.33c-.78,0-1.41-.63-1.41-1.42s.63-1.41,1.41-1.41,1.41.63,1.41,1.41-.63,1.42-1.41,1.42Zm0-2.38c-.54,0-.97.44-.97.97s.44.97.97.97.97-.44.97-.97-.44-.97-.97-.97Z"/>
    <path class="cls-3" d="m45.55,42.05c-.78,0-1.41-.63-1.41-1.42s.63-1.41,1.41-1.41,1.41.63,1.41,1.41-.63,1.42-1.41,1.42Zm0-2.38c-.54,0-.97.44-.97.97s.44.97.97.97.97-.44.97-.97-.44-.97-.97-.97Z"/>
    <path class="cls-3" d="m45.55,45.77c-.78,0-1.41-.63-1.41-1.42s.63-1.41,1.41-1.41,1.41.63,1.41,1.41-.63,1.42-1.41,1.42Zm0-2.39c-.54,0-.97.44-.97.97s.44.97.97.97.97-.44.97-.97-.44-.97-.97-.97Z"/>
    <path class="cls-3" d="m45.55,49.48c-.78,0-1.41-.64-1.41-1.42s.63-1.41,1.41-1.41,1.41.63,1.41,1.41-.63,1.42-1.41,1.42Zm0-2.39c-.54,0-.97.44-.97.97s.44.97.97.97.97-.44.97-.97-.44-.97-.97-.97Z"/>
    <path class="cls-3" d="m45.55,53.2c-.78,0-1.41-.63-1.41-1.42s.63-1.41,1.41-1.41,1.41.63,1.41,1.41-.63,1.42-1.41,1.42Zm0-2.38c-.54,0-.97.44-.97.97s.44.97.97.97.97-.44.97-.97-.44-.97-.97-.97Z"/>
    <path class="cls-3" d="m45.55,56.91c-.78,0-1.41-.63-1.41-1.42s.63-1.41,1.41-1.41,1.41.63,1.41,1.41-.63,1.42-1.41,1.42Zm0-2.38c-.54,0-.97.44-.97.97s.44.97.97.97.97-.44.97-.97-.44-.97-.97-.97Z"/>
    <path class="cls-3" d="m45.55,60.82c-.78,0-1.41-.63-1.41-1.42s.63-1.41,1.41-1.41,1.41.63,1.41,1.41-.63,1.42-1.41,1.42Zm0-2.38c-.54,0-.97.44-.97.97s.44.97.97.97.97-.44.97-.97-.44-.97-.97-.97Z"/>
    <path class="cls-3" d="m41.83,42.3c-.78,0-1.41-.63-1.41-1.42s.63-1.41,1.41-1.41,1.41.63,1.41,1.41-.63,1.42-1.41,1.42Zm0-2.38c-.54,0-.97.44-.97.97s.44.97.97.97.97-.44.97-.97-.44-.97-.97-.97Z"/>
    <path class="cls-3" d="m41.83,46.01c-.78,0-1.41-.63-1.41-1.42s.63-1.41,1.41-1.41,1.41.63,1.41,1.41-.63,1.42-1.41,1.42Zm0-2.38c-.54,0-.97.44-.97.97s.44.97.97.97.97-.44.97-.97-.44-.97-.97-.97Z"/>
    <path class="cls-3" d="m41.83,49.73c-.78,0-1.41-.63-1.41-1.42s.63-1.41,1.41-1.41,1.41.63,1.41,1.41-.63,1.42-1.41,1.42Zm0-2.38c-.54,0-.97.44-.97.97s.44.97.97.97.97-.44.97-.97-.44-.97-.97-.97Z"/>
    <path class="cls-3" d="m41.83,53.45c-.78,0-1.41-.63-1.41-1.42s.63-1.41,1.41-1.41,1.41.63,1.41,1.41-.63,1.42-1.41,1.42Zm0-2.39c-.54,0-.97.44-.97.97s.44.97.97.97.97-.44.97-.97-.44-.97-.97-.97Z"/>
    <path class="cls-3" d="m41.83,57.16c-.78,0-1.41-.63-1.41-1.42s.63-1.41,1.41-1.41,1.41.63,1.41,1.41-.63,1.42-1.41,1.42Zm0-2.38c-.54,0-.97.44-.97.97s.44.97.97.97.97-.44.97-.97-.44-.97-.97-.97Z"/>
    <path class="cls-3" d="m41.83,60.88c-.78,0-1.41-.63-1.41-1.42s.63-1.41,1.41-1.41,1.41.63,1.41,1.41-.63,1.42-1.41,1.42Zm0-2.38c-.54,0-.97.44-.97.97s.44.97.97.97.97-.44.97-.97-.44-.97-.97-.97Z"/>
    <path class="cls-3" d="m41.83,64.78c-.78,0-1.41-.64-1.41-1.42s.63-1.41,1.41-1.41,1.41.63,1.41,1.41-.63,1.42-1.41,1.42Zm0-2.39c-.54,0-.97.44-.97.97s.44.97.97.97.97-.44.97-.97-.44-.97-.97-.97Z"/>
    <path class="cls-3" d="m38.11,46.26c-.78,0-1.41-.64-1.41-1.42s.63-1.41,1.41-1.41,1.41.63,1.41,1.41-.63,1.42-1.41,1.42Zm0-2.39c-.53,0-.97.44-.97.97s.44.97.97.97.97-.44.97-.97-.44-.97-.97-.97Z"/>
    <path class="cls-3" d="m38.11,49.98c-.78,0-1.41-.63-1.41-1.42s.63-1.41,1.41-1.41,1.41.63,1.41,1.41-.63,1.42-1.41,1.42Zm0-2.38c-.53,0-.97.44-.97.97s.44.97.97.97.97-.44.97-.97-.44-.97-.97-.97Z"/>
    <path class="cls-3" d="m38.11,53.69c-.78,0-1.41-.63-1.41-1.42s.63-1.41,1.41-1.41,1.41.63,1.41,1.41-.63,1.42-1.41,1.42Zm0-2.38c-.53,0-.97.44-.97.97s.44.97.97.97.97-.44.97-.97-.44-.97-.97-.97Z"/>
    <path class="cls-3" d="m38.11,57.41c-.78,0-1.41-.64-1.41-1.42s.63-1.41,1.41-1.41,1.41.63,1.41,1.41-.63,1.42-1.41,1.42Zm0-2.39c-.53,0-.97.44-.97.97s.44.97.97.97.97-.44.97-.97-.44-.97-.97-.97Z"/>
    <path class="cls-3" d="m38.11,61.13c-.78,0-1.41-.63-1.41-1.42s.63-1.41,1.41-1.41,1.41.63,1.41,1.41-.63,1.42-1.41,1.42Zm0-2.38c-.53,0-.97.44-.97.97s.44.97.97.97.97-.44.97-.97-.44-.97-.97-.97Z"/>
    <path class="cls-3" d="m38.11,64.84c-.78,0-1.41-.63-1.41-1.42s.63-1.41,1.41-1.41,1.41.63,1.41,1.41-.63,1.42-1.41,1.42Zm0-2.38c-.53,0-.97.44-.97.97s.44.97.97.97.97-.44.97-.97-.44-.97-.97-.97Z"/>
    <path class="cls-3" d="m38.11,68.74c-.78,0-1.41-.63-1.41-1.42s.63-1.41,1.41-1.41,1.41.63,1.41,1.41-.63,1.42-1.41,1.42Zm0-2.39c-.53,0-.97.44-.97.97s.44.97.97.97.97-.44.97-.97-.44-.97-.97-.97Z"/>
    <path class="cls-3" d="m34.4,50.23c-.78,0-1.41-.64-1.41-1.42s.63-1.41,1.41-1.41,1.41.63,1.41,1.41-.63,1.42-1.41,1.42Zm0-2.39c-.54,0-.97.44-.97.97s.44.97.97.97.97-.44.97-.97-.44-.97-.97-.97Z"/>
    <path class="cls-3" d="m34.4,53.94c-.78,0-1.41-.63-1.41-1.42s.63-1.41,1.41-1.41,1.41.63,1.41,1.41-.63,1.42-1.41,1.42Zm0-2.38c-.54,0-.97.44-.97.97s.44.97.97.97.97-.44.97-.97-.44-.97-.97-.97Z"/>
    <path class="cls-3" d="m34.4,57.66c-.78,0-1.41-.63-1.41-1.42s.63-1.41,1.41-1.41,1.41.63,1.41,1.41-.63,1.42-1.41,1.42Zm0-2.38c-.54,0-.97.44-.97.97s.44.97.97.97.97-.44.97-.97-.44-.97-.97-.97Z"/>
    <path class="cls-3" d="m34.4,61.37c-.78,0-1.41-.63-1.41-1.42s.63-1.41,1.41-1.41,1.41.63,1.41,1.41-.63,1.42-1.41,1.42Zm0-2.39c-.54,0-.97.44-.97.97s.44.97.97.97.97-.44.97-.97-.44-.97-.97-.97Z"/>
    <path class="cls-3" d="m34.4,65.09c-.78,0-1.41-.64-1.41-1.42s.63-1.41,1.41-1.41,1.41.63,1.41,1.41-.63,1.42-1.41,1.42Zm0-2.39c-.54,0-.97.44-.97.97s.44.97.97.97.97-.44.97-.97-.44-.97-.97-.97Z"/>
    <path class="cls-3" d="m34.4,68.81c-.78,0-1.41-.63-1.41-1.42s.63-1.41,1.41-1.41,1.41.63,1.41,1.41-.63,1.42-1.41,1.42Zm0-2.38c-.54,0-.97.44-.97.97s.44.97.97.97.97-.44.97-.97-.44-.97-.97-.97Z"/>
    <path class="cls-3" d="m34.4,72.71c-.78,0-1.41-.63-1.41-1.42s.63-1.41,1.41-1.41,1.41.63,1.41,1.41-.63,1.42-1.41,1.42Zm0-2.39c-.54,0-.97.44-.97.97s.44.97.97.97.97-.44.97-.97-.44-.97-.97-.97Z"/>
    <path class="cls-3" d="m30.68,54.19c-.78,0-1.41-.63-1.41-1.42s.63-1.41,1.41-1.41,1.41.63,1.41,1.41-.63,1.42-1.41,1.42Zm0-2.39c-.54,0-.97.44-.97.97s.44.97.97.97.97-.44.97-.97-.44-.97-.97-.97Z"/>
    <path class="cls-3" d="m30.68,57.91c-.78,0-1.41-.64-1.41-1.42s.63-1.41,1.41-1.41,1.41.63,1.41,1.41-.63,1.42-1.41,1.42Zm0-2.39c-.54,0-.97.44-.97.97s.44.97.97.97.97-.44.97-.97-.44-.97-.97-.97Z"/>
    <path class="cls-3" d="m30.68,61.62c-.78,0-1.41-.63-1.41-1.42s.63-1.41,1.41-1.41,1.41.63,1.41,1.41-.63,1.42-1.41,1.42Zm0-2.38c-.54,0-.97.44-.97.97s.44.97.97.97.97-.44.97-.97-.44-.97-.97-.97Z"/>
    <path class="cls-3" d="m30.68,65.34c-.78,0-1.41-.63-1.41-1.42s.63-1.41,1.41-1.41,1.41.63,1.41,1.41-.63,1.42-1.41,1.42Zm0-2.38c-.54,0-.97.44-.97.97s.44.97.97.97.97-.44.97-.97-.44-.97-.97-.97Z"/>
    <path class="cls-3" d="m30.68,69.05c-.78,0-1.41-.63-1.41-1.42s.63-1.41,1.41-1.41,1.41.63,1.41,1.41-.63,1.42-1.41,1.42Zm0-2.39c-.54,0-.97.44-.97.97s.44.97.97.97.97-.44.97-.97-.44-.97-.97-.97Z"/>
    <path class="cls-3" d="m30.68,72.77c-.78,0-1.41-.64-1.41-1.42s.63-1.41,1.41-1.41,1.41.63,1.41,1.41-.63,1.42-1.41,1.42Zm0-2.39c-.54,0-.97.44-.97.97s.44.97.97.97.97-.44.97-.97-.44-.97-.97-.97Z"/>
    <path class="cls-3" d="m30.68,76.67c-.78,0-1.41-.63-1.41-1.42s.63-1.41,1.41-1.41,1.41.63,1.41,1.41-.63,1.42-1.41,1.42Zm0-2.38c-.54,0-.97.44-.97.97s.44.97.97.97.97-.44.97-.97-.44-.97-.97-.97Z"/>
    <path class="cls-3" d="m26.96,58.15c-.78,0-1.41-.63-1.41-1.42s.63-1.41,1.41-1.41,1.41.63,1.41,1.41-.63,1.42-1.41,1.42Zm0-2.39c-.53,0-.97.44-.97.97s.44.97.97.97.97-.44.97-.97-.44-.97-.97-.97Z"/>
    <path class="cls-3" d="m26.96,61.87c-.78,0-1.41-.64-1.41-1.42s.63-1.41,1.41-1.41,1.41.63,1.41,1.41-.63,1.42-1.41,1.42Zm0-2.39c-.53,0-.97.44-.97.97s.44.97.97.97.97-.44.97-.97-.44-.97-.97-.97Z"/>
    <path class="cls-3" d="m26.96,65.59c-.78,0-1.41-.64-1.41-1.42s.63-1.41,1.41-1.41,1.41.63,1.41,1.41-.63,1.42-1.41,1.42Zm0-2.39c-.53,0-.97.44-.97.97s.44.97.97.97.97-.44.97-.97-.44-.97-.97-.97Z"/>
    <path class="cls-3" d="m26.96,69.3c-.78,0-1.41-.63-1.41-1.42s.63-1.41,1.41-1.41,1.41.63,1.41,1.41-.63,1.42-1.41,1.42Zm0-2.38c-.53,0-.97.44-.97.97s.44.97.97.97.97-.44.97-.97-.44-.97-.97-.97Z"/>
    <path class="cls-3" d="m26.96,73.02c-.78,0-1.41-.63-1.41-1.42s.63-1.41,1.41-1.41,1.41.63,1.41,1.41-.63,1.42-1.41,1.42Zm0-2.39c-.53,0-.97.44-.97.97s.44.97.97.97.97-.44.97-.97-.44-.97-.97-.97Z"/>
    <path class="cls-3" d="m26.96,76.73c-.78,0-1.41-.64-1.41-1.42s.63-1.41,1.41-1.41,1.41.63,1.41,1.41-.63,1.42-1.41,1.42Zm0-2.39c-.53,0-.97.44-.97.97s.44.97.97.97.97-.44.97-.97-.44-.97-.97-.97Z"/>
    <path class="cls-3" d="m26.96,80.64c-.78,0-1.41-.63-1.41-1.42s.63-1.41,1.41-1.41,1.41.63,1.41,1.41-.63,1.42-1.41,1.42Zm0-2.38c-.53,0-.97.44-.97.97s.44.97.97.97.97-.44.97-.97-.44-.97-.97-.97Z"/>
    <path class="cls-3" d="m23.25,62.12c-.78,0-1.41-.63-1.41-1.42s.63-1.41,1.41-1.41,1.41.63,1.41,1.41-.63,1.42-1.41,1.42Zm0-2.38c-.54,0-.97.44-.97.97s.44.97.97.97.97-.44.97-.97-.44-.97-.97-.97Z"/>
    <path class="cls-3" d="m23.25,65.83c-.78,0-1.41-.63-1.41-1.42s.63-1.41,1.41-1.41,1.41.63,1.41,1.41-.63,1.42-1.41,1.42Zm0-2.39c-.54,0-.97.44-.97.97s.44.97.97.97.97-.44.97-.97-.44-.97-.97-.97Z"/>
    <path class="cls-3" d="m23.25,69.55c-.78,0-1.41-.64-1.41-1.42s.63-1.41,1.41-1.41,1.41.63,1.41,1.41-.63,1.42-1.41,1.42Zm0-2.39c-.54,0-.97.44-.97.97s.44.97.97.97.97-.44.97-.97-.44-.97-.97-.97Z"/>
    <path class="cls-3" d="m23.25,73.27c-.78,0-1.41-.63-1.41-1.42s.63-1.41,1.41-1.41,1.41.63,1.41,1.41-.63,1.42-1.41,1.42Zm0-2.38c-.54,0-.97.44-.97.97s.44.97.97.97.97-.44.97-.97-.44-.97-.97-.97Z"/>
    <path class="cls-3" d="m23.25,76.98c-.78,0-1.41-.63-1.41-1.42s.63-1.41,1.41-1.41,1.41.63,1.41,1.41-.63,1.42-1.41,1.42Zm0-2.38c-.54,0-.97.44-.97.97s.44.97.97.97.97-.44.97-.97-.44-.97-.97-.97Z"/>
    <path class="cls-3" d="m23.25,80.7c-.78,0-1.41-.63-1.41-1.42s.63-1.41,1.41-1.41,1.41.63,1.41,1.41-.63,1.42-1.41,1.42Zm0-2.39c-.54,0-.97.44-.97.97s.44.97.97.97.97-.44.97-.97-.44-.97-.97-.97Z"/>
    <path class="cls-3" d="m23.25,84.6c-.78,0-1.41-.63-1.41-1.42s.63-1.41,1.41-1.41,1.41.63,1.41,1.41-.63,1.42-1.41,1.42Zm0-2.38c-.54,0-.97.44-.97.97s.44.97.97.97.97-.44.97-.97-.44-.97-.97-.97Z"/>
    <path class="cls-3" d="m19.53,66.08c-.78,0-1.41-.63-1.41-1.42s.63-1.41,1.41-1.41,1.41.63,1.41,1.41-.63,1.42-1.41,1.42Zm0-2.38c-.53,0-.97.44-.97.97s.44.97.97.97.97-.44.97-.97-.44-.97-.97-.97Z"/>
    <path class="cls-3" d="m19.53,69.8c-.78,0-1.41-.63-1.41-1.42s.63-1.41,1.41-1.41,1.41.63,1.41,1.41-.63,1.42-1.41,1.42Zm0-2.39c-.53,0-.97.44-.97.97s.44.97.97.97.97-.44.97-.97-.44-.97-.97-.97Z"/>
    <path class="cls-3" d="m19.53,73.51c-.78,0-1.41-.64-1.41-1.42s.63-1.41,1.41-1.41,1.41.63,1.41,1.41-.63,1.42-1.41,1.42Zm0-2.39c-.53,0-.97.44-.97.97s.44.97.97.97.97-.44.97-.97-.44-.97-.97-.97Z"/>
    <path class="cls-3" d="m19.53,77.23c-.78,0-1.41-.63-1.41-1.42s.63-1.41,1.41-1.41,1.41.63,1.41,1.41-.63,1.42-1.41,1.42Zm0-2.38c-.53,0-.97.44-.97.97s.44.97.97.97.97-.44.97-.97-.44-.97-.97-.97Z"/>
    <path class="cls-3" d="m19.53,80.95c-.78,0-1.41-.63-1.41-1.42s.63-1.41,1.41-1.41,1.41.63,1.41,1.41-.63,1.42-1.41,1.42Zm0-2.38c-.53,0-.97.44-.97.97s.44.97.97.97.97-.44.97-.97-.44-.97-.97-.97Z"/>
    <path class="cls-3" d="m19.53,84.66c-.78,0-1.41-.63-1.41-1.42s.63-1.41,1.41-1.41,1.41.63,1.41,1.41-.63,1.42-1.41,1.42Zm0-2.39c-.53,0-.97.44-.97.97s.44.97.97.97.97-.44.97-.97-.44-.97-.97-.97Z"/>
    <path class="cls-3" d="m19.53,88.56c-.78,0-1.41-.63-1.41-1.42s.63-1.41,1.41-1.41,1.41.63,1.41,1.41-.63,1.42-1.41,1.42Zm0-2.38c-.53,0-.97.44-.97.97s.44.97.97.97.97-.44.97-.97-.44-.97-.97-.97Z"/>
    <path class="cls-3" d="m15.82,70.04c-.78,0-1.41-.63-1.41-1.42s.63-1.41,1.41-1.41,1.41.63,1.41,1.41-.63,1.42-1.41,1.42Zm0-2.38c-.54,0-.97.44-.97.97s.44.97.97.97.97-.44.97-.97-.44-.97-.97-.97Z"/>
    <path class="cls-3" d="m15.82,73.76c-.78,0-1.41-.63-1.41-1.42s.63-1.41,1.41-1.41,1.41.63,1.41,1.41-.63,1.42-1.41,1.42Zm0-2.39c-.54,0-.97.44-.97.97s.44.97.97.97.97-.44.97-.97-.44-.97-.97-.97Z"/>
    <path class="cls-3" d="m15.82,77.48c-.78,0-1.41-.64-1.41-1.42s.63-1.41,1.41-1.41,1.41.63,1.41,1.41-.63,1.42-1.41,1.42Zm0-2.39c-.54,0-.97.44-.97.97s.44.97.97.97.97-.44.97-.97-.44-.97-.97-.97Z"/>
    <path class="cls-3" d="m15.82,81.19c-.78,0-1.41-.64-1.41-1.42s.63-1.41,1.41-1.41,1.41.63,1.41,1.41-.63,1.42-1.41,1.42Zm0-2.39c-.54,0-.97.44-.97.97s.44.97.97.97.97-.44.97-.97-.44-.97-.97-.97Z"/>
    <path class="cls-3" d="m15.82,84.91c-.78,0-1.41-.63-1.41-1.42s.63-1.41,1.41-1.41,1.41.63,1.41,1.41-.63,1.42-1.41,1.42Zm0-2.38c-.54,0-.97.44-.97.97s.44.97.97.97.97-.44.97-.97-.44-.97-.97-.97Z"/>
    <path class="cls-3" d="m15.82,88.63c-.78,0-1.41-.63-1.41-1.42s.63-1.41,1.41-1.41,1.41.63,1.41,1.41-.63,1.42-1.41,1.42Zm0-2.38c-.54,0-.97.44-.97.97s.44.97.97.97.97-.44.97-.97-.44-.97-.97-.97Z"/>
    <path class="cls-3" d="m15.82,92.53c-.78,0-1.41-.64-1.41-1.42s.63-1.41,1.41-1.41,1.41.63,1.41,1.41-.63,1.42-1.41,1.42Zm0-2.39c-.54,0-.97.44-.97.97s.44.97.97.97.97-.44.97-.97-.44-.97-.97-.97Z"/>
    <path class="cls-3" d="m12.1,74.01c-.78,0-1.41-.63-1.41-1.42s.63-1.41,1.41-1.41,1.41.63,1.41,1.41-.63,1.42-1.41,1.42Zm0-2.38c-.54,0-.97.44-.97.97s.44.97.97.97.97-.44.97-.97-.44-.97-.97-.97Z"/>
    <path class="cls-3" d="m12.1,77.72c-.78,0-1.41-.63-1.41-1.42s.63-1.41,1.41-1.41,1.41.63,1.41,1.41-.63,1.42-1.41,1.42Zm0-2.38c-.54,0-.97.44-.97.97s.44.97.97.97.97-.44.97-.97-.44-.97-.97-.97Z"/>
    <path class="cls-3" d="m12.1,81.44c-.78,0-1.41-.63-1.41-1.42s.63-1.41,1.41-1.41,1.41.63,1.41,1.41-.63,1.42-1.41,1.42Zm0-2.39c-.54,0-.97.44-.97.97s.44.97.97.97.97-.44.97-.97-.44-.97-.97-.97Z"/>
    <path class="cls-3" d="m12.1,85.16c-.78,0-1.41-.64-1.41-1.42s.63-1.41,1.41-1.41,1.41.63,1.41,1.41-.63,1.42-1.41,1.42Zm0-2.39c-.54,0-.97.44-.97.97s.44.97.97.97.97-.44.97-.97-.44-.97-.97-.97Z"/>
    <path class="cls-3" d="m12.1,88.87c-.78,0-1.41-.63-1.41-1.42s.63-1.41,1.41-1.41,1.41.63,1.41,1.41-.63,1.42-1.41,1.42Zm0-2.38c-.54,0-.97.44-.97.97s.44.97.97.97.97-.44.97-.97-.44-.97-.97-.97Z"/>
    <path class="cls-3" d="m12.1,92.59c-.78,0-1.41-.63-1.41-1.42s.63-1.41,1.41-1.41,1.41.63,1.41,1.41-.63,1.42-1.41,1.42Zm0-2.38c-.54,0-.97.44-.97.97s.44.97.97.97.97-.44.97-.97-.44-.97-.97-.97Z"/>
    <path class="cls-3" d="m12.1,96.49c-.78,0-1.41-.64-1.41-1.42s.63-1.41,1.41-1.41,1.41.63,1.41,1.41-.63,1.42-1.41,1.42Zm0-2.39c-.54,0-.97.44-.97.97s.44.97.97.97.97-.44.97-.97-.44-.97-.97-.97Z"/>
    <path class="cls-3" d="m8.38,77.97c-.78,0-1.41-.64-1.41-1.42s.63-1.41,1.41-1.41,1.41.63,1.41,1.41-.63,1.42-1.41,1.42Zm0-2.39c-.53,0-.97.44-.97.97s.44.97.97.97.97-.44.97-.97-.44-.97-.97-.97Z"/>
    <path class="cls-3" d="m8.38,81.69c-.78,0-1.41-.63-1.41-1.42s.63-1.41,1.41-1.41,1.41.63,1.41,1.41-.63,1.42-1.41,1.42Zm0-2.38c-.53,0-.97.44-.97.97s.44.97.97.97.97-.44.97-.97-.44-.97-.97-.97Z"/>
    <path class="cls-3" d="m8.38,85.4c-.78,0-1.41-.63-1.41-1.42s.63-1.41,1.41-1.41,1.41.63,1.41,1.41-.63,1.42-1.41,1.42Zm0-2.38c-.53,0-.97.44-.97.97s.44.97.97.97.97-.44.97-.97-.44-.97-.97-.97Z"/>
    <path class="cls-3" d="m8.38,89.12c-.78,0-1.41-.63-1.41-1.42s.63-1.41,1.41-1.41,1.41.63,1.41,1.41-.63,1.42-1.41,1.42Zm0-2.39c-.53,0-.97.44-.97.97s.44.97.97.97.97-.44.97-.97-.44-.97-.97-.97Z"/>
    <path class="cls-3" d="m8.38,92.84c-.78,0-1.41-.64-1.41-1.42s.63-1.41,1.41-1.41,1.41.63,1.41,1.41-.63,1.42-1.41,1.42Zm0-2.39c-.53,0-.97.44-.97.97s.44.97.97.97.97-.44.97-.97-.44-.97-.97-.97Z"/>
    <path class="cls-3" d="m8.38,96.55c-.78,0-1.41-.63-1.41-1.42s.63-1.41,1.41-1.41,1.41.63,1.41,1.41-.63,1.42-1.41,1.42Zm0-2.38c-.53,0-.97.44-.97.97s.44.97.97.97.97-.44.97-.97-.44-.97-.97-.97Z"/>
    <path class="cls-3" d="m8.38,100.46c-.78,0-1.41-.64-1.41-1.42s.63-1.41,1.41-1.41,1.41.63,1.41,1.41-.63,1.42-1.41,1.42Zm0-2.39c-.53,0-.97.44-.97.97s.44.97.97.97.97-.44.97-.97-.44-.97-.97-.97Z"/>
    <path class="cls-3" d="m4.67,81.94c-.78,0-1.41-.63-1.41-1.42s.63-1.41,1.41-1.41,1.41.63,1.41,1.41-.63,1.42-1.41,1.42Zm0-2.39c-.54,0-.97.44-.97.97s.44.97.97.97.97-.44.97-.97-.44-.97-.97-.97Z"/>
    <path class="cls-3" d="m4.67,85.65c-.78,0-1.41-.64-1.41-1.42s.63-1.41,1.41-1.41,1.41.63,1.41,1.41-.63,1.42-1.41,1.42Zm0-2.39c-.54,0-.97.44-.97.97s.44.97.97.97.97-.44.97-.97-.44-.97-.97-.97Z"/>
    <path class="cls-3" d="m4.67,89.37c-.78,0-1.41-.63-1.41-1.42s.63-1.41,1.41-1.41,1.41.63,1.41,1.41-.63,1.42-1.41,1.42Zm0-2.38c-.54,0-.97.44-.97.97s.44.97.97.97.97-.44.97-.97-.44-.97-.97-.97Z"/>
    <path class="cls-3" d="m4.67,93.08c-.78,0-1.41-.63-1.41-1.42s.63-1.41,1.41-1.41,1.41.63,1.41,1.41-.63,1.42-1.41,1.42Zm0-2.39c-.54,0-.97.44-.97.97s.44.97.97.97.97-.44.97-.97-.44-.97-.97-.97Z"/>
    <path class="cls-3" d="m4.67,96.8c-.78,0-1.41-.64-1.41-1.42s.63-1.41,1.41-1.41,1.41.63,1.41,1.41-.63,1.42-1.41,1.42Zm0-2.39c-.54,0-.97.44-.97.97s.44.97.97.97.97-.44.97-.97-.44-.97-.97-.97Z"/>
    <path class="cls-3" d="m4.67,100.52c-.78,0-1.41-.63-1.41-1.42s.63-1.41,1.41-1.41,1.41.63,1.41,1.41-.63,1.42-1.41,1.42Zm0-2.38c-.54,0-.97.44-.97.97s.44.97.97.97.97-.44.97-.97-.44-.97-.97-.97Z"/>
    <path class="cls-3" d="m4.67,104.42c-.78,0-1.41-.63-1.41-1.42s.63-1.41,1.41-1.41,1.41.63,1.41,1.41-.63,1.42-1.41,1.42Zm0-2.39c-.54,0-.97.44-.97.97s.44.97.97.97.97-.44.97-.97-.44-.97-.97-.97Z"/>
    <path class="cls-3" d="m60.41,5.36c-.78,0-1.41-.63-1.41-1.42s.63-1.41,1.41-1.41,1.41.63,1.41,1.41-.63,1.42-1.41,1.42Zm0-2.39c-.53,0-.97.44-.97.97s.44.97.97.97.97-.44.97-.97-.44-.97-.97-.97Z"/>
    <path class="cls-3" d="m56.69,5.43c-.78,0-1.41-.64-1.41-1.42s.63-1.41,1.41-1.41,1.41.63,1.41,1.41-.63,1.42-1.41,1.42Zm0-2.39c-.53,0-.97.44-.97.97s.44.97.97.97.97-.44.97-.97-.44-.97-.97-.97Z"/>
    <path class="cls-3" d="m56.69,9.33c-.78,0-1.41-.63-1.41-1.42s.63-1.41,1.41-1.41,1.41.63,1.41,1.41-.63,1.42-1.41,1.42Zm0-2.38c-.53,0-.97.44-.97.97s.44.97.97.97.97-.44.97-.97-.44-.97-.97-.97Z"/>
    <path class="cls-3" d="m52.98,5.67c-.78,0-1.41-.63-1.41-1.42s.63-1.41,1.41-1.41,1.41.63,1.41,1.41-.63,1.42-1.41,1.42Zm0-2.39c-.54,0-.97.44-.97.97s.44.97.97.97.97-.44.97-.97-.44-.97-.97-.97Z"/>
    <path class="cls-3" d="m52.98,9.39c-.78,0-1.41-.63-1.41-1.42s.63-1.41,1.41-1.41,1.41.63,1.41,1.41-.63,1.42-1.41,1.42Zm0-2.39c-.54,0-.97.44-.97.97s.44.97.97.97.97-.44.97-.97-.44-.97-.97-.97Z"/>
    <path class="cls-3" d="m52.98,13.29c-.78,0-1.41-.63-1.41-1.42s.63-1.41,1.41-1.41,1.41.63,1.41,1.41-.63,1.42-1.41,1.42Zm0-2.38c-.54,0-.97.44-.97.97s.44.97.97.97.97-.44.97-.97-.44-.97-.97-.97Z"/>
    <path class="cls-3" d="m49.26,5.92c-.78,0-1.41-.63-1.41-1.42s.63-1.41,1.41-1.41,1.41.63,1.41,1.41-.63,1.42-1.41,1.42Zm0-2.38c-.53,0-.97.44-.97.97s.44.97.97.97.97-.44.97-.97-.44-.97-.97-.97Z"/>
    <path class="cls-3" d="m49.26,9.64c-.78,0-1.41-.63-1.41-1.42s.63-1.41,1.41-1.41,1.41.63,1.41,1.41-.63,1.42-1.41,1.42Zm0-2.38c-.53,0-.97.44-.97.97s.44.97.97.97.97-.44.97-.97-.44-.97-.97-.97Z"/>
    <path class="cls-3" d="m49.26,13.35c-.78,0-1.41-.63-1.41-1.42s.63-1.41,1.41-1.41,1.41.63,1.41,1.41-.63,1.42-1.41,1.42Zm0-2.39c-.53,0-.97.44-.97.97s.44.97.97.97.97-.44.97-.97-.44-.97-.97-.97Z"/>
    <path class="cls-3" d="m49.26,17.26c-.78,0-1.41-.63-1.41-1.42s.63-1.41,1.41-1.41,1.41.63,1.41,1.41-.63,1.42-1.41,1.42Zm0-2.38c-.53,0-.97.44-.97.97s.44.97.97.97.97-.44.97-.97-.44-.97-.97-.97Z"/>
    <path class="cls-3" d="m45.55,6.17c-.78,0-1.41-.64-1.41-1.42s.63-1.41,1.41-1.41,1.41.63,1.41,1.41-.63,1.42-1.41,1.42Zm0-2.39c-.54,0-.97.44-.97.97s.44.97.97.97.97-.44.97-.97-.44-.97-.97-.97Z"/>
    <path class="cls-3" d="m45.55,9.88c-.78,0-1.41-.63-1.41-1.42s.63-1.41,1.41-1.41,1.41.63,1.41,1.41-.63,1.42-1.41,1.42Zm0-2.38c-.54,0-.97.44-.97.97s.44.97.97.97.97-.44.97-.97-.44-.97-.97-.97Z"/>
    <path class="cls-3" d="m45.55,13.6c-.78,0-1.41-.63-1.41-1.42s.63-1.41,1.41-1.41,1.41.63,1.41,1.41-.63,1.42-1.41,1.42Zm0-2.38c-.54,0-.97.44-.97.97s.44.97.97.97.97-.44.97-.97-.44-.97-.97-.97Z"/>
    <path class="cls-3" d="m45.55,17.32c-.78,0-1.41-.63-1.41-1.42s.63-1.41,1.41-1.41,1.41.63,1.41,1.41-.63,1.42-1.41,1.42Zm0-2.38c-.54,0-.97.44-.97.97s.44.97.97.97.97-.44.97-.97-.44-.97-.97-.97Z"/>
    <path class="cls-3" d="m45.55,21.22c-.78,0-1.41-.64-1.41-1.42s.63-1.41,1.41-1.41,1.41.63,1.41,1.41-.63,1.42-1.41,1.42Zm0-2.39c-.54,0-.97.44-.97.97s.44.97.97.97.97-.44.97-.97-.44-.97-.97-.97Z"/>
    <path class="cls-3" d="m41.83,6.42c-.78,0-1.41-.63-1.41-1.42s.63-1.41,1.41-1.41,1.41.63,1.41,1.41-.63,1.42-1.41,1.42Zm0-2.38c-.54,0-.97.44-.97.97s.44.97.97.97.97-.44.97-.97-.44-.97-.97-.97Z"/>
    <path class="cls-3" d="m41.83,10.13c-.78,0-1.41-.63-1.41-1.42s.63-1.41,1.41-1.41,1.41.63,1.41,1.41-.63,1.42-1.41,1.42Zm0-2.39c-.54,0-.97.44-.97.97s.44.97.97.97.97-.44.97-.97-.44-.97-.97-.97Z"/>
    <path class="cls-3" d="m41.83,13.85c-.78,0-1.41-.64-1.41-1.42s.63-1.41,1.41-1.41,1.41.63,1.41,1.41-.63,1.42-1.41,1.42Zm0-2.39c-.54,0-.97.44-.97.97s.44.97.97.97.97-.44.97-.97-.44-.97-.97-.97Z"/>
    <path class="cls-3" d="m41.83,17.56c-.78,0-1.41-.63-1.41-1.42s.63-1.41,1.41-1.41,1.41.63,1.41,1.41-.63,1.42-1.41,1.42Zm0-2.38c-.54,0-.97.44-.97.97s.44.97.97.97.97-.44.97-.97-.44-.97-.97-.97Z"/>
    <path class="cls-3" d="m41.83,21.28c-.78,0-1.41-.63-1.41-1.42s.63-1.41,1.41-1.41,1.41.63,1.41,1.41-.63,1.42-1.41,1.42Zm0-2.38c-.54,0-.97.44-.97.97s.44.97.97.97.97-.44.97-.97-.44-.97-.97-.97Z"/>
    <path class="cls-3" d="m41.83,25.18c-.78,0-1.41-.64-1.41-1.42s.63-1.41,1.41-1.41,1.41.63,1.41,1.41-.63,1.42-1.41,1.42Zm0-2.39c-.54,0-.97.44-.97.97s.44.97.97.97.97-.44.97-.97-.44-.97-.97-.97Z"/>
    <path class="cls-3" d="m38.11,6.66c-.78,0-1.41-.63-1.41-1.42s.63-1.41,1.41-1.41,1.41.63,1.41,1.41-.63,1.42-1.41,1.42Zm0-2.38c-.53,0-.97.44-.97.97s.44.97.97.97.97-.44.97-.97-.44-.97-.97-.97Z"/>
    <path class="cls-3" d="m38.11,10.38c-.78,0-1.41-.63-1.41-1.42s.63-1.41,1.41-1.41,1.41.63,1.41,1.41-.63,1.42-1.41,1.42Zm0-2.38c-.53,0-.97.44-.97.97s.44.97.97.97.97-.44.97-.97-.44-.97-.97-.97Z"/>
    <path class="cls-3" d="m38.11,14.1c-.78,0-1.41-.63-1.41-1.42s.63-1.41,1.41-1.41,1.41.63,1.41,1.41-.63,1.42-1.41,1.42Zm0-2.38c-.53,0-.97.44-.97.97s.44.97.97.97.97-.44.97-.97-.44-.97-.97-.97Z"/>
    <path class="cls-3" d="m38.11,17.81c-.78,0-1.41-.63-1.41-1.42s.63-1.41,1.41-1.41,1.41.63,1.41,1.41-.63,1.42-1.41,1.42Zm0-2.39c-.53,0-.97.44-.97.97s.44.97.97.97.97-.44.97-.97-.44-.97-.97-.97Z"/>
    <path class="cls-3" d="m38.11,21.53c-.78,0-1.41-.64-1.41-1.42s.63-1.41,1.41-1.41,1.41.63,1.41,1.41-.63,1.42-1.41,1.42Zm0-2.39c-.53,0-.97.44-.97.97s.44.97.97.97.97-.44.97-.97-.44-.97-.97-.97Z"/>
    <path class="cls-3" d="m38.11,25.24c-.78,0-1.41-.63-1.41-1.42s.63-1.41,1.41-1.41,1.41.63,1.41,1.41-.63,1.42-1.41,1.42Zm0-2.38c-.53,0-.97.44-.97.97s.44.97.97.97.97-.44.97-.97-.44-.97-.97-.97Z"/>
    <path class="cls-3" d="m38.11,29.15c-.78,0-1.41-.64-1.41-1.42s.63-1.41,1.41-1.41,1.41.63,1.41,1.41-.63,1.42-1.41,1.42Zm0-2.39c-.53,0-.97.44-.97.97s.44.97.97.97.97-.44.97-.97-.44-.97-.97-.97Z"/>
    <path class="cls-3" d="m34.4,10.63c-.78,0-1.41-.63-1.41-1.42s.63-1.41,1.41-1.41,1.41.63,1.41,1.41-.63,1.42-1.41,1.42Zm0-2.39c-.54,0-.97.44-.97.97s.44.97.97.97.97-.44.97-.97-.44-.97-.97-.97Z"/>
    <path class="cls-3" d="m34.4,14.34c-.78,0-1.41-.64-1.41-1.42s.63-1.41,1.41-1.41,1.41.63,1.41,1.41-.63,1.42-1.41,1.42Zm0-2.39c-.54,0-.97.44-.97.97s.44.97.97.97.97-.44.97-.97-.44-.97-.97-.97Z"/>
    <path class="cls-3" d="m34.4,18.06c-.78,0-1.41-.63-1.41-1.42s.63-1.41,1.41-1.41,1.41.63,1.41,1.41-.63,1.42-1.41,1.42Zm0-2.38c-.54,0-.97.44-.97.97s.44.97.97.97.97-.44.97-.97-.44-.97-.97-.97Z"/>
    <path class="cls-3" d="m34.4,21.78c-.78,0-1.41-.63-1.41-1.42s.63-1.41,1.41-1.41,1.41.63,1.41,1.41-.63,1.42-1.41,1.42Zm0-2.39c-.54,0-.97.44-.97.97s.44.97.97.97.97-.44.97-.97-.44-.97-.97-.97Z"/>
    <path class="cls-3" d="m34.4,25.49c-.78,0-1.41-.64-1.41-1.42s.63-1.41,1.41-1.41,1.41.63,1.41,1.41-.63,1.42-1.41,1.42Zm0-2.39c-.54,0-.97.44-.97.97s.44.97.97.97.97-.44.97-.97-.44-.97-.97-.97Z"/>
    <path class="cls-3" d="m34.4,29.21c-.78,0-1.41-.63-1.41-1.42s.63-1.41,1.41-1.41,1.41.63,1.41,1.41-.63,1.42-1.41,1.42Zm0-2.38c-.54,0-.97.44-.97.97s.44.97.97.97.97-.44.97-.97-.44-.97-.97-.97Z"/>
    <path class="cls-3" d="m34.4,33.11c-.78,0-1.41-.63-1.41-1.42s.63-1.41,1.41-1.41,1.41.63,1.41,1.41-.63,1.42-1.41,1.42Zm0-2.39c-.54,0-.97.44-.97.97s.44.97.97.97.97-.44.97-.97-.44-.97-.97-.97Z"/>
    <path class="cls-3" d="m30.68,14.59c-.78,0-1.41-.63-1.41-1.42s.63-1.41,1.41-1.41,1.41.63,1.41,1.41-.63,1.42-1.41,1.42Zm0-2.39c-.54,0-.97.44-.97.97s.44.97.97.97.97-.44.97-.97-.44-.97-.97-.97Z"/>
    <path class="cls-3" d="m30.68,18.31c-.78,0-1.41-.64-1.41-1.42s.63-1.41,1.41-1.41,1.41.63,1.41,1.41-.63,1.42-1.41,1.42Zm0-2.39c-.54,0-.97.44-.97.97s.44.97.97.97.97-.44.97-.97-.44-.97-.97-.97Z"/>
    <path class="cls-3" d="m30.68,22.02c-.78,0-1.41-.63-1.41-1.42s.63-1.41,1.41-1.41,1.41.63,1.41,1.41-.63,1.42-1.41,1.42Zm0-2.38c-.54,0-.97.44-.97.97s.44.97.97.97.97-.44.97-.97-.44-.97-.97-.97Z"/>
    <path class="cls-3" d="m30.68,25.74c-.78,0-1.41-.63-1.41-1.42s.63-1.41,1.41-1.41,1.41.63,1.41,1.41-.63,1.42-1.41,1.42Zm0-2.38c-.54,0-.97.44-.97.97s.44.97.97.97.97-.44.97-.97-.44-.97-.97-.97Z"/>
    <path class="cls-3" d="m30.68,29.46c-.78,0-1.41-.64-1.41-1.42s.63-1.41,1.41-1.41,1.41.63,1.41,1.41-.63,1.42-1.41,1.42Zm0-2.39c-.54,0-.97.44-.97.97s.44.97.97.97.97-.44.97-.97-.44-.97-.97-.97Z"/>
    <path class="cls-3" d="m30.68,33.17c-.78,0-1.41-.64-1.41-1.42s.63-1.41,1.41-1.41,1.41.63,1.41,1.41-.63,1.42-1.41,1.42Zm0-2.39c-.54,0-.97.44-.97.97s.44.97.97.97.97-.44.97-.97-.44-.97-.97-.97Z"/>
    <path class="cls-3" d="m30.68,37.08c-.78,0-1.41-.63-1.41-1.42s.63-1.41,1.41-1.41,1.41.63,1.41,1.41-.63,1.42-1.41,1.42Zm0-2.38c-.54,0-.97.44-.97.97s.44.97.97.97.97-.44.97-.97-.44-.97-.97-.97Z"/>
    <path class="cls-3" d="m26.96,18.56c-.78,0-1.41-.63-1.41-1.42s.63-1.41,1.41-1.41,1.41.63,1.41,1.41-.63,1.42-1.41,1.42Zm0-2.39c-.53,0-.97.44-.97.97s.44.97.97.97.97-.44.97-.97-.44-.97-.97-.97Z"/>
    <path class="cls-3" d="m26.96,22.27c-.78,0-1.41-.64-1.41-1.42s.63-1.41,1.41-1.41,1.41.63,1.41,1.41-.63,1.42-1.41,1.42Zm0-2.39c-.53,0-.97.44-.97.97s.44.97.97.97.97-.44.97-.97-.44-.97-.97-.97Z"/>
    <path class="cls-3" d="m26.96,25.99c-.78,0-1.41-.63-1.41-1.42s.63-1.41,1.41-1.41,1.41.63,1.41,1.41-.63,1.42-1.41,1.42Zm0-2.38c-.53,0-.97.44-.97.97s.44.97.97.97.97-.44.97-.97-.44-.97-.97-.97Z"/>
    <path class="cls-3" d="m26.96,29.7c-.78,0-1.41-.63-1.41-1.42s.63-1.41,1.41-1.41,1.41.63,1.41,1.41-.63,1.42-1.41,1.42Zm0-2.38c-.53,0-.97.44-.97.97s.44.97.97.97.97-.44.97-.97-.44-.97-.97-.97Z"/>
    <path class="cls-3" d="m26.96,33.42c-.78,0-1.41-.63-1.41-1.42s.63-1.41,1.41-1.41,1.41.63,1.41,1.41-.63,1.42-1.41,1.42Zm0-2.39c-.53,0-.97.44-.97.97s.44.97.97.97.97-.44.97-.97-.44-.97-.97-.97Z"/>
    <path class="cls-3" d="m26.96,37.14c-.78,0-1.41-.64-1.41-1.42s.63-1.41,1.41-1.41,1.41.63,1.41,1.41-.63,1.42-1.41,1.42Zm0-2.39c-.53,0-.97.44-.97.97s.44.97.97.97.97-.44.97-.97-.44-.97-.97-.97Z"/>
    <path class="cls-3" d="m26.96,41.04c-.78,0-1.41-.63-1.41-1.42s.63-1.41,1.41-1.41,1.41.63,1.41,1.41-.63,1.42-1.41,1.42Zm0-2.38c-.53,0-.97.44-.97.97s.44.97.97.97.97-.44.97-.97-.44-.97-.97-.97Z"/>
    <path class="cls-3" d="m23.25,22.52c-.78,0-1.41-.63-1.41-1.42s.63-1.41,1.41-1.41,1.41.63,1.41,1.41-.63,1.42-1.41,1.42Zm0-2.38c-.54,0-.97.44-.97.97s.44.97.97.97.97-.44.97-.97-.44-.97-.97-.97Z"/>
    <path class="cls-3" d="m23.25,26.24c-.78,0-1.41-.64-1.41-1.42s.63-1.41,1.41-1.41,1.41.63,1.41,1.41-.63,1.42-1.41,1.42Zm0-2.39c-.54,0-.97.44-.97.97s.44.97.97.97.97-.44.97-.97-.44-.97-.97-.97Z"/>
    <path class="cls-3" d="m23.25,29.95c-.78,0-1.41-.64-1.41-1.42s.63-1.41,1.41-1.41,1.41.63,1.41,1.41-.63,1.42-1.41,1.42Zm0-2.39c-.54,0-.97.44-.97.97s.44.97.97.97.97-.44.97-.97-.44-.97-.97-.97Z"/>
    <path class="cls-3" d="m23.25,33.67c-.78,0-1.41-.63-1.41-1.42s.63-1.41,1.41-1.41,1.41.63,1.41,1.41-.63,1.42-1.41,1.42Zm0-2.38c-.54,0-.97.44-.97.97s.44.97.97.97.97-.44.97-.97-.44-.97-.97-.97Z"/>
    <path class="cls-3" d="m23.25,37.38c-.78,0-1.41-.63-1.41-1.42s.63-1.41,1.41-1.41,1.41.63,1.41,1.41-.63,1.42-1.41,1.42Zm0-2.38c-.54,0-.97.44-.97.97s.44.97.97.97.97-.44.97-.97-.44-.97-.97-.97Z"/>
    <path class="cls-3" d="m23.25,41.1c-.78,0-1.41-.63-1.41-1.42s.63-1.41,1.41-1.41,1.41.63,1.41,1.41-.63,1.42-1.41,1.42Zm0-2.39c-.54,0-.97.44-.97.97s.44.97.97.97.97-.44.97-.97-.44-.97-.97-.97Z"/>
    <path class="cls-3" d="m23.25,45c-.78,0-1.41-.63-1.41-1.42s.63-1.41,1.41-1.41,1.41.63,1.41,1.41-.63,1.42-1.41,1.42Zm0-2.38c-.54,0-.97.44-.97.97s.44.97.97.97.97-.44.97-.97-.44-.97-.97-.97Z"/>
    <path class="cls-3" d="m19.53,26.48c-.78,0-1.41-.63-1.41-1.42s.63-1.41,1.41-1.41,1.41.63,1.41,1.41-.63,1.42-1.41,1.42Zm0-2.38c-.53,0-.97.44-.97.97s.44.97.97.97.97-.44.97-.97-.44-.97-.97-.97Z"/>
    <path class="cls-3" d="m19.53,30.2c-.78,0-1.41-.63-1.41-1.42s.63-1.41,1.41-1.41,1.41.63,1.41,1.41-.63,1.42-1.41,1.42Zm0-2.39c-.53,0-.97.44-.97.97s.44.97.97.97.97-.44.97-.97-.44-.97-.97-.97Z"/>
    <path class="cls-3" d="m19.53,33.92c-.78,0-1.41-.64-1.41-1.42s.63-1.41,1.41-1.41,1.41.63,1.41,1.41-.63,1.42-1.41,1.42Zm0-2.39c-.53,0-.97.44-.97.97s.44.97.97.97.97-.44.97-.97-.44-.97-.97-.97Z"/>
    <path class="cls-3" d="m19.53,37.63c-.78,0-1.41-.63-1.41-1.42s.63-1.41,1.41-1.41,1.41.63,1.41,1.41-.63,1.42-1.41,1.42Zm0-2.38c-.53,0-.97.44-.97.97s.44.97.97.97.97-.44.97-.97-.44-.97-.97-.97Z"/>
    <path class="cls-3" d="m19.53,41.35c-.78,0-1.41-.63-1.41-1.42s.63-1.41,1.41-1.41,1.41.63,1.41,1.41-.63,1.42-1.41,1.42Zm0-2.38c-.53,0-.97.44-.97.97s.44.97.97.97.97-.44.97-.97-.44-.97-.97-.97Z"/>
    <path class="cls-3" d="m19.53,45.06c-.78,0-1.41-.63-1.41-1.42s.63-1.41,1.41-1.41,1.41.63,1.41,1.41-.63,1.42-1.41,1.42Zm0-2.39c-.53,0-.97.44-.97.97s.44.97.97.97.97-.44.97-.97-.44-.97-.97-.97Z"/>
    <path class="cls-3" d="m19.53,48.97c-.78,0-1.41-.63-1.41-1.42s.63-1.41,1.41-1.41,1.41.63,1.41,1.41-.63,1.42-1.41,1.42Zm0-2.38c-.53,0-.97.44-.97.97s.44.97.97.97.97-.44.97-.97-.44-.97-.97-.97Z"/>
    <path class="cls-3" d="m15.82,30.45c-.78,0-1.41-.63-1.41-1.42s.63-1.41,1.41-1.41,1.41.63,1.41,1.41-.63,1.42-1.41,1.42Zm0-2.38c-.54,0-.97.44-.97.97s.44.97.97.97.97-.44.97-.97-.44-.97-.97-.97Z"/>
    <path class="cls-3" d="m15.82,34.16c-.78,0-1.41-.63-1.41-1.42s.63-1.41,1.41-1.41,1.41.63,1.41,1.41-.63,1.42-1.41,1.42Zm0-2.38c-.54,0-.97.44-.97.97s.44.97.97.97.97-.44.97-.97-.44-.97-.97-.97Z"/>
    <path class="cls-3" d="m15.82,37.88c-.78,0-1.41-.63-1.41-1.42s.63-1.41,1.41-1.41,1.41.63,1.41,1.41-.63,1.42-1.41,1.42Zm0-2.39c-.54,0-.97.44-.97.97s.44.97.97.97.97-.44.97-.97-.44-.97-.97-.97Z"/>
    <path class="cls-3" d="m15.82,41.6c-.78,0-1.41-.63-1.41-1.42s.63-1.41,1.41-1.41,1.41.63,1.41,1.41-.63,1.42-1.41,1.42Zm0-2.38c-.54,0-.97.44-.97.97s.44.97.97.97.97-.44.97-.97-.44-.97-.97-.97Z"/>
    <path class="cls-3" d="m15.82,45.31c-.78,0-1.41-.63-1.41-1.42s.63-1.41,1.41-1.41,1.41.63,1.41,1.41-.63,1.42-1.41,1.42Zm0-2.38c-.54,0-.97.44-.97.97s.44.97.97.97.97-.44.97-.97-.44-.97-.97-.97Z"/>
    <path class="cls-3" d="m15.82,49.03c-.78,0-1.41-.63-1.41-1.42s.63-1.41,1.41-1.41,1.41.63,1.41,1.41-.63,1.42-1.41,1.42Zm0-2.39c-.54,0-.97.44-.97.97s.44.97.97.97.97-.44.97-.97-.44-.97-.97-.97Z"/>
    <path class="cls-3" d="m15.82,52.93c-.78,0-1.41-.64-1.41-1.42s.63-1.41,1.41-1.41,1.41.63,1.41,1.41-.63,1.42-1.41,1.42Zm0-2.39c-.54,0-.97.44-.97.97s.44.97.97.97.97-.44.97-.97-.44-.97-.97-.97Z"/>
    <path class="cls-3" d="m12.1,34.41c-.78,0-1.41-.63-1.41-1.42s.63-1.41,1.41-1.41,1.41.63,1.41,1.41-.63,1.42-1.41,1.42Zm0-2.38c-.54,0-.97.44-.97.97s.44.97.97.97.97-.44.97-.97-.44-.97-.97-.97Z"/>
    <path class="cls-3" d="m12.1,38.13c-.78,0-1.41-.63-1.41-1.42s.63-1.41,1.41-1.41,1.41.63,1.41,1.41-.63,1.42-1.41,1.42Zm0-2.38c-.54,0-.97.44-.97.97s.44.97.97.97.97-.44.97-.97-.44-.97-.97-.97Z"/>
    <path class="cls-3" d="m12.1,41.84c-.78,0-1.41-.63-1.41-1.42s.63-1.41,1.41-1.41,1.41.63,1.41,1.41-.63,1.42-1.41,1.42Zm0-2.39c-.54,0-.97.44-.97.97s.44.97.97.97.97-.44.97-.97-.44-.97-.97-.97Z"/>
    <path class="cls-3" d="m12.1,45.56c-.78,0-1.41-.64-1.41-1.42s.63-1.41,1.41-1.41,1.41.63,1.41,1.41-.63,1.42-1.41,1.42Zm0-2.39c-.54,0-.97.44-.97.97s.44.97.97.97.97-.44.97-.97-.44-.97-.97-.97Z"/>
    <path class="cls-3" d="m12.1,49.28c-.78,0-1.41-.63-1.41-1.42s.63-1.41,1.41-1.41,1.41.63,1.41,1.41-.63,1.42-1.41,1.42Zm0-2.38c-.54,0-.97.44-.97.97s.44.97.97.97.97-.44.97-.97-.44-.97-.97-.97Z"/>
    <path class="cls-3" d="m12.1,52.99c-.78,0-1.41-.63-1.41-1.42s.63-1.41,1.41-1.41,1.41.63,1.41,1.41-.63,1.42-1.41,1.42Zm0-2.38c-.54,0-.97.44-.97.97s.44.97.97.97.97-.44.97-.97-.44-.97-.97-.97Z"/>
    <path class="cls-3" d="m12.1,56.9c-.78,0-1.41-.64-1.41-1.42s.63-1.41,1.41-1.41,1.41.63,1.41,1.41-.63,1.42-1.41,1.42Zm0-2.39c-.54,0-.97.44-.97.97s.44.97.97.97.97-.44.97-.97-.44-.97-.97-.97Z"/>
    <path class="cls-3" d="m8.38,38.38c-.78,0-1.41-.63-1.41-1.42s.63-1.41,1.41-1.41,1.41.63,1.41,1.41-.63,1.42-1.41,1.42Zm0-2.38c-.53,0-.97.44-.97.97s.44.97.97.97.97-.44.97-.97-.44-.97-.97-.97Z"/>
    <path class="cls-3" d="m8.38,42.09c-.78,0-1.41-.63-1.41-1.42s.63-1.41,1.41-1.41,1.41.63,1.41,1.41-.63,1.42-1.41,1.42Zm0-2.38c-.53,0-.97.44-.97.97s.44.97.97.97.97-.44.97-.97-.44-.97-.97-.97Z"/>
    <path class="cls-3" d="m8.38,45.81c-.78,0-1.41-.63-1.41-1.42s.63-1.41,1.41-1.41,1.41.63,1.41,1.41-.63,1.42-1.41,1.42Zm0-2.39c-.53,0-.97.44-.97.97s.44.97.97.97.97-.44.97-.97-.44-.97-.97-.97Z"/>
    <path class="cls-3" d="m8.38,49.52c-.78,0-1.41-.63-1.41-1.42s.63-1.41,1.41-1.41,1.41.63,1.41,1.41-.63,1.42-1.41,1.42Zm0-2.39c-.53,0-.97.44-.97.97s.44.97.97.97.97-.44.97-.97-.44-.97-.97-.97Z"/>
    <path class="cls-3" d="m8.38,53.24c-.78,0-1.41-.64-1.41-1.42s.63-1.41,1.41-1.41,1.41.63,1.41,1.41-.63,1.42-1.41,1.42Zm0-2.39c-.53,0-.97.44-.97.97s.44.97.97.97.97-.44.97-.97-.44-.97-.97-.97Z"/>
    <path class="cls-3" d="m8.38,56.96c-.78,0-1.41-.63-1.41-1.42s.63-1.41,1.41-1.41,1.41.63,1.41,1.41-.63,1.42-1.41,1.42Zm0-2.38c-.53,0-.97.44-.97.97s.44.97.97.97.97-.44.97-.97-.44-.97-.97-.97Z"/>
    <path class="cls-3" d="m8.38,60.86c-.78,0-1.41-.64-1.41-1.42s.63-1.41,1.41-1.41,1.41.63,1.41,1.41-.63,1.42-1.41,1.42Zm0-2.39c-.53,0-.97.44-.97.97s.44.97.97.97.97-.44.97-.97-.44-.97-.97-.97Z"/>
    <path class="cls-3" d="m4.67,42.34c-.78,0-1.41-.64-1.41-1.42s.63-1.41,1.41-1.41,1.41.63,1.41,1.41-.63,1.42-1.41,1.42Zm0-2.39c-.54,0-.97.44-.97.97s.44.97.97.97.97-.44.97-.97-.44-.97-.97-.97Z"/>
    <path class="cls-3" d="m4.67,46.06c-.78,0-1.41-.63-1.41-1.42s.63-1.41,1.41-1.41,1.41.63,1.41,1.41-.63,1.42-1.41,1.42Zm0-2.38c-.54,0-.97.44-.97.97s.44.97.97.97.97-.44.97-.97-.44-.97-.97-.97Z"/>
    <path class="cls-3" d="m4.67,49.77c-.78,0-1.41-.63-1.41-1.42s.63-1.41,1.41-1.41,1.41.63,1.41,1.41-.63,1.42-1.41,1.42Zm0-2.38c-.54,0-.97.44-.97.97s.44.97.97.97.97-.44.97-.97-.44-.97-.97-.97Z"/>
    <path class="cls-3" d="m4.67,53.49c-.78,0-1.41-.63-1.41-1.42s.63-1.41,1.41-1.41,1.41.63,1.41,1.41-.63,1.42-1.41,1.42Zm0-2.39c-.54,0-.97.44-.97.97s.44.97.97.97.97-.44.97-.97-.44-.97-.97-.97Z"/>
    <path class="cls-3" d="m4.67,57.2c-.78,0-1.41-.64-1.41-1.42s.63-1.41,1.41-1.41,1.41.63,1.41,1.41-.63,1.42-1.41,1.42Zm0-2.39c-.54,0-.97.44-.97.97s.44.97.97.97.97-.44.97-.97-.44-.97-.97-.97Z"/>
    <path class="cls-3" d="m4.67,60.92c-.78,0-1.41-.63-1.41-1.42s.63-1.41,1.41-1.41,1.41.63,1.41,1.41-.63,1.42-1.41,1.42Zm0-2.38c-.54,0-.97.44-.97.97s.44.97.97.97.97-.44.97-.97-.44-.97-.97-.97Z"/>
    <path class="cls-3" d="m4.67,64.82c-.78,0-1.41-.63-1.41-1.42s.63-1.41,1.41-1.41,1.41.63,1.41,1.41-.63,1.42-1.41,1.42Zm0-2.39c-.54,0-.97.44-.97.97s.44.97.97.97.97-.44.97-.97-.44-.97-.97-.97Z"/>
    <path class="cls-3" d="m23.25,5.97c-.78,0-1.41-.64-1.41-1.42s.63-1.41,1.41-1.41,1.41.63,1.41,1.41-.63,1.42-1.41,1.42Zm0-2.39c-.54,0-.97.44-.97.97s.44.97.97.97.97-.44.97-.97-.44-.97-.97-.97Z"/>
    <path class="cls-3" d="m19.53,6.04c-.78,0-1.41-.63-1.41-1.42s.63-1.41,1.41-1.41,1.41.63,1.41,1.41-.63,1.42-1.41,1.42Zm0-2.38c-.53,0-.97.44-.97.97s.44.97.97.97.97-.44.97-.97-.44-.97-.97-.97Z"/>
    <path class="cls-3" d="m19.53,9.94c-.78,0-1.41-.64-1.41-1.42s.63-1.41,1.41-1.41,1.41.63,1.41,1.41-.63,1.42-1.41,1.42Zm0-2.39c-.53,0-.97.44-.97.97s.44.97.97.97.97-.44.97-.97-.44-.97-.97-.97Z"/>
    <path class="cls-3" d="m15.82,6.28c-.78,0-1.41-.64-1.41-1.42s.63-1.41,1.41-1.41,1.41.63,1.41,1.41-.63,1.42-1.41,1.42Zm0-2.39c-.54,0-.97.44-.97.97s.44.97.97.97.97-.44.97-.97-.44-.97-.97-.97Z"/>
    <path class="cls-3" d="m15.82,10c-.78,0-1.41-.63-1.41-1.42s.63-1.41,1.41-1.41,1.41.63,1.41,1.41-.63,1.42-1.41,1.42Zm0-2.38c-.54,0-.97.44-.97.97s.44.97.97.97.97-.44.97-.97-.44-.97-.97-.97Z"/>
    <path class="cls-3" d="m15.82,13.9c-.78,0-1.41-.64-1.41-1.42s.63-1.41,1.41-1.41,1.41.63,1.41,1.41-.63,1.42-1.41,1.42Zm0-2.39c-.54,0-.97.44-.97.97s.44.97.97.97.97-.44.97-.97-.44-.97-.97-.97Z"/>
    <path class="cls-3" d="m12.1,6.53c-.78,0-1.41-.63-1.41-1.42s.63-1.41,1.41-1.41,1.41.63,1.41,1.41-.63,1.42-1.41,1.42Zm0-2.39c-.54,0-.97.44-.97.97s.44.97.97.97.97-.44.97-.97-.44-.97-.97-.97Z"/>
    <path class="cls-3" d="m12.1,10.25c-.78,0-1.41-.64-1.41-1.42s.63-1.41,1.41-1.41,1.41.63,1.41,1.41-.63,1.42-1.41,1.42Zm0-2.39c-.54,0-.97.44-.97.97s.44.97.97.97.97-.44.97-.97-.44-.97-.97-.97Z"/>
    <path class="cls-3" d="m12.1,13.96c-.78,0-1.41-.63-1.41-1.42s.63-1.41,1.41-1.41,1.41.63,1.41,1.41-.63,1.42-1.41,1.42Zm0-2.38c-.54,0-.97.44-.97.97s.44.97.97.97.97-.44.97-.97-.44-.97-.97-.97Z"/>
    <path class="cls-3" d="m12.1,17.87c-.78,0-1.41-.63-1.41-1.42s.63-1.41,1.41-1.41,1.41.63,1.41,1.41-.63,1.42-1.41,1.42Zm0-2.39c-.54,0-.97.44-.97.97s.44.97.97.97.97-.44.97-.97-.44-.97-.97-.97Z"/>
    <path class="cls-3" d="m8.38,6.78c-.78,0-1.41-.63-1.41-1.42s.63-1.41,1.41-1.41,1.41.63,1.41,1.41-.63,1.42-1.41,1.42Zm0-2.38c-.53,0-.97.44-.97.97s.44.97.97.97.97-.44.97-.97-.44-.97-.97-.97Z"/>
    <path class="cls-3" d="m8.38,10.49c-.78,0-1.41-.63-1.41-1.42s.63-1.41,1.41-1.41,1.41.63,1.41,1.41-.63,1.42-1.41,1.42Zm0-2.38c-.53,0-.97.44-.97.97s.44.97.97.97.97-.44.97-.97-.44-.97-.97-.97Z"/>
    <path class="cls-3" d="m8.38,14.21c-.78,0-1.41-.63-1.41-1.42s.63-1.41,1.41-1.41,1.41.63,1.41,1.41-.63,1.42-1.41,1.42Zm0-2.39c-.53,0-.97.44-.97.97s.44.97.97.97.97-.44.97-.97-.44-.97-.97-.97Z"/>
    <path class="cls-3" d="m8.38,17.93c-.78,0-1.41-.64-1.41-1.42s.63-1.41,1.41-1.41,1.41.63,1.41,1.41-.63,1.42-1.41,1.42Zm0-2.39c-.53,0-.97.44-.97.97s.44.97.97.97.97-.44.97-.97-.44-.97-.97-.97Z"/>
    <path class="cls-3" d="m8.38,21.83c-.78,0-1.41-.63-1.41-1.42s.63-1.41,1.41-1.41,1.41.63,1.41,1.41-.63,1.42-1.41,1.42Zm0-2.38c-.53,0-.97.44-.97.97s.44.97.97.97.97-.44.97-.97-.44-.97-.97-.97Z"/>
    <path class="cls-3" d="m4.67,7.03c-.78,0-1.41-.64-1.41-1.42s.63-1.41,1.41-1.41,1.41.63,1.41,1.41-.63,1.42-1.41,1.42Zm0-2.39c-.54,0-.97.44-.97.97s.44.97.97.97.97-.44.97-.97-.44-.97-.97-.97Z"/>
    <path class="cls-3" d="m4.67,10.74c-.78,0-1.41-.63-1.41-1.42s.63-1.41,1.41-1.41,1.41.63,1.41,1.41-.63,1.42-1.41,1.42Zm0-2.38c-.54,0-.97.44-.97.97s.44.97.97.97.97-.44.97-.97-.44-.97-.97-.97Z"/>
    <path class="cls-3" d="m4.67,14.46c-.78,0-1.41-.63-1.41-1.42s.63-1.41,1.41-1.41,1.41.63,1.41,1.41-.63,1.42-1.41,1.42Zm0-2.38c-.54,0-.97.44-.97.97s.44.97.97.97.97-.44.97-.97-.44-.97-.97-.97Z"/>
    <path class="cls-3" d="m4.67,18.17c-.78,0-1.41-.63-1.41-1.42s.63-1.41,1.41-1.41,1.41.63,1.41,1.41-.63,1.42-1.41,1.42Zm0-2.38c-.54,0-.97.44-.97.97s.44.97.97.97.97-.44.97-.97-.44-.97-.97-.97Z"/>
    <path class="cls-3" d="m4.67,21.89c-.78,0-1.41-.63-1.41-1.42s.63-1.41,1.41-1.41,1.41.63,1.41,1.41-.63,1.42-1.41,1.42Zm0-2.39c-.54,0-.97.44-.97.97s.44.97.97.97.97-.44.97-.97-.44-.97-.97-.97Z"/>
    <path class="cls-3" d="m4.67,25.79c-.78,0-1.41-.63-1.41-1.42s.63-1.41,1.41-1.41,1.41.63,1.41,1.41-.63,1.42-1.41,1.42Zm0-2.38c-.54,0-.97.44-.97.97s.44.97.97.97.97-.44.97-.97-.44-.97-.97-.97Z"/>
    <path class="cls-3" d="m90.26,29.98c-.78,0-1.41-.63-1.41-1.42s.63-1.41,1.41-1.41,1.41.63,1.41,1.41-.63,1.42-1.41,1.42Zm0-2.38c-.54,0-.97.44-.97.97s.44.97.97.97.97-.44.97-.97-.44-.97-.97-.97Z"/>
    <path class="cls-3" d="m90.26,33.69c-.78,0-1.41-.63-1.41-1.42s.63-1.41,1.41-1.41,1.41.63,1.41,1.41-.63,1.42-1.41,1.42Zm0-2.39c-.54,0-.97.44-.97.97s.44.97.97.97.97-.44.97-.97-.44-.97-.97-.97Z"/>
    <path class="cls-3" d="m90.26,37.41c-.78,0-1.41-.64-1.41-1.42s.63-1.41,1.41-1.41,1.41.63,1.41,1.41-.63,1.42-1.41,1.42Zm0-2.39c-.54,0-.97.44-.97.97s.44.97.97.97.97-.44.97-.97-.44-.97-.97-.97Z"/>
    <path class="cls-3" d="m90.26,41.13c-.78,0-1.41-.63-1.41-1.42s.63-1.41,1.41-1.41,1.41.63,1.41,1.41-.63,1.42-1.41,1.42Zm0-2.38c-.54,0-.97.44-.97.97s.44.97.97.97.97-.44.97-.97-.44-.97-.97-.97Z"/>
    <path class="cls-3" d="m90.26,44.84c-.78,0-1.41-.63-1.41-1.42s.63-1.41,1.41-1.41,1.41.63,1.41,1.41-.63,1.42-1.41,1.42Zm0-2.38c-.54,0-.97.44-.97.97s.44.97.97.97.97-.44.97-.97-.44-.97-.97-.97Z"/>
    <path class="cls-3" d="m90.26,48.56c-.78,0-1.41-.63-1.41-1.42s.63-1.41,1.41-1.41,1.41.63,1.41,1.41-.63,1.42-1.41,1.42Zm0-2.39c-.54,0-.97.44-.97.97s.44.97.97.97.97-.44.97-.97-.44-.97-.97-.97Z"/>
    <path class="cls-3" d="m90.26,52.46c-.78,0-1.41-.63-1.41-1.42s.63-1.41,1.41-1.41,1.41.63,1.41,1.41-.63,1.42-1.41,1.42Zm0-2.38c-.54,0-.97.44-.97.97s.44.97.97.97.97-.44.97-.97-.44-.97-.97-.97Z"/>
    <path class="cls-3" d="m86.54,33.94c-.78,0-1.41-.63-1.41-1.42s.63-1.41,1.41-1.41,1.41.63,1.41,1.41-.63,1.42-1.41,1.42Zm0-2.38c-.54,0-.97.44-.97.97s.44.97.97.97.97-.44.97-.97-.44-.97-.97-.97Z"/>
    <path class="cls-3" d="m86.54,37.66c-.78,0-1.41-.63-1.41-1.42s.63-1.41,1.41-1.41,1.41.63,1.41,1.41-.63,1.42-1.41,1.42Zm0-2.38c-.54,0-.97.44-.97.97s.44.97.97.97.97-.44.97-.97-.44-.97-.97-.97Z"/>
    <path class="cls-3" d="m86.54,41.37c-.78,0-1.41-.63-1.41-1.42s.63-1.41,1.41-1.41,1.41.63,1.41,1.41-.63,1.42-1.41,1.42Zm0-2.39c-.54,0-.97.44-.97.97s.44.97.97.97.97-.44.97-.97-.44-.97-.97-.97Z"/>
    <path class="cls-3" d="m86.54,45.09c-.78,0-1.41-.64-1.41-1.42s.63-1.41,1.41-1.41,1.41.63,1.41,1.41-.63,1.42-1.41,1.42Zm0-2.39c-.54,0-.97.44-.97.97s.44.97.97.97.97-.44.97-.97-.44-.97-.97-.97Z"/>
    <path class="cls-3" d="m86.54,48.81c-.78,0-1.41-.63-1.41-1.42s.63-1.41,1.41-1.41,1.41.63,1.41,1.41-.63,1.42-1.41,1.42Zm0-2.38c-.54,0-.97.44-.97.97s.44.97.97.97.97-.44.97-.97-.44-.97-.97-.97Z"/>
    <path class="cls-3" d="m86.54,52.52c-.78,0-1.41-.63-1.41-1.42s.63-1.41,1.41-1.41,1.41.63,1.41,1.41-.63,1.42-1.41,1.42Zm0-2.39c-.54,0-.97.44-.97.97s.44.97.97.97.97-.44.97-.97-.44-.97-.97-.97Z"/>
    <path class="cls-3" d="m86.54,56.42c-.78,0-1.41-.63-1.41-1.42s.63-1.41,1.41-1.41,1.41.63,1.41,1.41-.63,1.42-1.41,1.42Zm0-2.38c-.54,0-.97.44-.97.97s.44.97.97.97.97-.44.97-.97-.44-.97-.97-.97Z"/>
    <path class="cls-3" d="m82.83,37.91c-.78,0-1.41-.63-1.41-1.42s.63-1.41,1.41-1.41,1.41.63,1.41,1.41-.63,1.42-1.41,1.42Zm0-2.38c-.53,0-.97.44-.97.97s.44.97.97.97.97-.44.97-.97-.44-.97-.97-.97Z"/>
    <path class="cls-3" d="m82.83,41.62c-.78,0-1.41-.63-1.41-1.42s.63-1.41,1.41-1.41,1.41.63,1.41,1.41-.63,1.42-1.41,1.42Zm0-2.38c-.53,0-.97.44-.97.97s.44.97.97.97.97-.44.97-.97-.44-.97-.97-.97Z"/>
    <path class="cls-3" d="m82.83,45.34c-.78,0-1.41-.63-1.41-1.42s.63-1.41,1.41-1.41,1.41.63,1.41,1.41-.63,1.42-1.41,1.42Zm0-2.39c-.53,0-.97.44-.97.97s.44.97.97.97.97-.44.97-.97-.44-.97-.97-.97Z"/>
    <path class="cls-3" d="m82.83,49.05c-.78,0-1.41-.64-1.41-1.42s.63-1.41,1.41-1.41,1.41.63,1.41,1.41-.63,1.42-1.41,1.42Zm0-2.39c-.53,0-.97.44-.97.97s.44.97.97.97.97-.44.97-.97-.44-.97-.97-.97Z"/>
    <path class="cls-3" d="m82.83,52.77c-.78,0-1.41-.63-1.41-1.42s.63-1.41,1.41-1.41,1.41.63,1.41,1.41-.63,1.42-1.41,1.42Zm0-2.38c-.53,0-.97.44-.97.97s.44.97.97.97.97-.44.97-.97-.44-.97-.97-.97Z"/>
    <path class="cls-3" d="m82.83,56.49c-.78,0-1.41-.63-1.41-1.42s.63-1.41,1.41-1.41,1.41.63,1.41,1.41-.63,1.42-1.41,1.42Zm0-2.38c-.53,0-.97.44-.97.97s.44.97.97.97.97-.44.97-.97-.44-.97-.97-.97Z"/>
    <path class="cls-3" d="m82.83,60.39c-.78,0-1.41-.64-1.41-1.42s.63-1.41,1.41-1.41,1.41.63,1.41,1.41-.63,1.42-1.41,1.42Zm0-2.39c-.53,0-.97.44-.97.97s.44.97.97.97.97-.44.97-.97-.44-.97-.97-.97Z"/>
    <path class="cls-3" d="m79.11,41.87c-.78,0-1.41-.64-1.41-1.42s.63-1.41,1.41-1.41,1.41.63,1.41,1.41-.63,1.42-1.41,1.42Zm0-2.39c-.54,0-.97.44-.97.97s.44.97.97.97.97-.44.97-.97-.44-.97-.97-.97Z"/>
    <path class="cls-3" d="m79.11,45.59c-.78,0-1.41-.63-1.41-1.42s.63-1.41,1.41-1.41,1.41.63,1.41,1.41-.63,1.42-1.41,1.42Zm0-2.38c-.54,0-.97.44-.97.97s.44.97.97.97.97-.44.97-.97-.44-.97-.97-.97Z"/>
    <path class="cls-3" d="m79.11,49.3c-.78,0-1.41-.63-1.41-1.42s.63-1.41,1.41-1.41,1.41.63,1.41,1.41-.63,1.42-1.41,1.42Zm0-2.38c-.54,0-.97.44-.97.97s.44.97.97.97.97-.44.97-.97-.44-.97-.97-.97Z"/>
    <path class="cls-3" d="m79.11,53.02c-.78,0-1.41-.64-1.41-1.42s.63-1.41,1.41-1.41,1.41.63,1.41,1.41-.63,1.42-1.41,1.42Zm0-2.39c-.54,0-.97.44-.97.97s.44.97.97.97.97-.44.97-.97-.44-.97-.97-.97Z"/>
    <path class="cls-3" d="m79.11,56.73c-.78,0-1.41-.63-1.41-1.42s.63-1.41,1.41-1.41,1.41.63,1.41,1.41-.63,1.42-1.41,1.42Zm0-2.38c-.54,0-.97.44-.97.97s.44.97.97.97.97-.44.97-.97-.44-.97-.97-.97Z"/>
    <path class="cls-3" d="m79.11,60.45c-.78,0-1.41-.63-1.41-1.42s.63-1.41,1.41-1.41,1.41.63,1.41,1.41-.63,1.42-1.41,1.42Zm0-2.38c-.54,0-.97.44-.97.97s.44.97.97.97.97-.44.97-.97-.44-.97-.97-.97Z"/>
    <path class="cls-3" d="m79.11,64.35c-.78,0-1.41-.63-1.41-1.42s.63-1.41,1.41-1.41,1.41.63,1.41,1.41-.63,1.42-1.41,1.42Zm0-2.39c-.54,0-.97.44-.97.97s.44.97.97.97.97-.44.97-.97-.44-.97-.97-.97Z"/>
    <path class="cls-3" d="m75.39,45.83c-.78,0-1.41-.64-1.41-1.42s.63-1.41,1.41-1.41,1.41.63,1.41,1.41-.63,1.42-1.41,1.42Zm0-2.39c-.53,0-.97.44-.97.97s.44.97.97.97.97-.44.97-.97-.44-.97-.97-.97Z"/>
    <path class="cls-3" d="m75.39,49.55c-.78,0-1.41-.63-1.41-1.42s.63-1.41,1.41-1.41,1.41.63,1.41,1.41-.63,1.42-1.41,1.42Zm0-2.38c-.53,0-.97.44-.97.97s.44.97.97.97.97-.44.97-.97-.44-.97-.97-.97Z"/>
    <path class="cls-3" d="m75.39,53.27c-.78,0-1.41-.63-1.41-1.42s.63-1.41,1.41-1.41,1.41.63,1.41,1.41-.63,1.42-1.41,1.42Zm0-2.38c-.53,0-.97.44-.97.97s.44.97.97.97.97-.44.97-.97-.44-.97-.97-.97Z"/>
    <path class="cls-3" d="m75.39,56.98c-.78,0-1.41-.63-1.41-1.42s.63-1.41,1.41-1.41,1.41.63,1.41,1.41-.63,1.42-1.41,1.42Zm0-2.39c-.53,0-.97.44-.97.97s.44.97.97.97.97-.44.97-.97-.44-.97-.97-.97Z"/>
    <path class="cls-3" d="m75.39,60.7c-.78,0-1.41-.64-1.41-1.42s.63-1.41,1.41-1.41,1.41.63,1.41,1.41-.63,1.42-1.41,1.42Zm0-2.39c-.53,0-.97.44-.97.97s.44.97.97.97.97-.44.97-.97-.44-.97-.97-.97Z"/>
    <path class="cls-3" d="m75.39,64.41c-.78,0-1.41-.63-1.41-1.42s.63-1.41,1.41-1.41,1.41.63,1.41,1.41-.63,1.42-1.41,1.42Zm0-2.38c-.53,0-.97.44-.97.97s.44.97.97.97.97-.44.97-.97-.44-.97-.97-.97Z"/>
    <path class="cls-3" d="m75.39,68.32c-.78,0-1.41-.63-1.41-1.42s.63-1.41,1.41-1.41,1.41.63,1.41,1.41-.63,1.42-1.41,1.42Zm0-2.39c-.53,0-.97.44-.97.97s.44.97.97.97.97-.44.97-.97-.44-.97-.97-.97Z"/>
    <path class="cls-3" d="m71.68,49.8c-.78,0-1.41-.63-1.41-1.42s.63-1.41,1.41-1.41,1.41.63,1.41,1.41-.63,1.42-1.41,1.42Zm0-2.39c-.53,0-.97.44-.97.97s.44.97.97.97.97-.44.97-.97-.44-.97-.97-.97Z"/>
    <path class="cls-3" d="m71.68,53.51c-.78,0-1.41-.64-1.41-1.42s.63-1.41,1.41-1.41,1.41.63,1.41,1.41-.63,1.42-1.41,1.42Zm0-2.39c-.53,0-.97.44-.97.97s.44.97.97.97.97-.44.97-.97-.44-.97-.97-.97Z"/>
    <path class="cls-3" d="m71.68,57.23c-.78,0-1.41-.63-1.41-1.42s.63-1.41,1.41-1.41,1.41.63,1.41,1.41-.63,1.42-1.41,1.42Zm0-2.38c-.53,0-.97.44-.97.97s.44.97.97.97.97-.44.97-.97-.44-.97-.97-.97Z"/>
    <path class="cls-3" d="m71.68,60.95c-.78,0-1.41-.63-1.41-1.42s.63-1.41,1.41-1.41,1.41.63,1.41,1.41-.63,1.42-1.41,1.42Zm0-2.38c-.53,0-.97.44-.97.97s.44.97.97.97.97-.44.97-.97-.44-.97-.97-.97Z"/>
    <path class="cls-3" d="m71.68,64.66c-.78,0-1.41-.63-1.41-1.42s.63-1.41,1.41-1.41,1.41.63,1.41,1.41-.63,1.42-1.41,1.42Zm0-2.39c-.53,0-.97.44-.97.97s.44.97.97.97.97-.44.97-.97-.44-.97-.97-.97Z"/>
    <path class="cls-3" d="m71.68,68.38c-.78,0-1.41-.64-1.41-1.42s.63-1.41,1.41-1.41,1.41.63,1.41,1.41-.63,1.42-1.41,1.42Zm0-2.39c-.53,0-.97.44-.97.97s.44.97.97.97.97-.44.97-.97-.44-.97-.97-.97Z"/>
    <path class="cls-3" d="m71.68,72.28c-.78,0-1.41-.63-1.41-1.42s.63-1.41,1.41-1.41,1.41.63,1.41,1.41-.63,1.42-1.41,1.42Zm0-2.39c-.53,0-.97.44-.97.97s.44.97.97.97.97-.44.97-.97-.44-.97-.97-.97Z"/>
    <path class="cls-3" d="m67.96,53.76c-.78,0-1.41-.63-1.41-1.42s.63-1.41,1.41-1.41,1.41.63,1.41,1.41-.63,1.42-1.41,1.42Zm0-2.39c-.54,0-.97.44-.97.97s.44.97.97.97.97-.44.97-.97-.44-.97-.97-.97Z"/>
    <path class="cls-3" d="m67.96,57.48c-.78,0-1.41-.63-1.41-1.42s.63-1.41,1.41-1.41,1.41.63,1.41,1.41-.63,1.42-1.41,1.42Zm0-2.39c-.54,0-.97.44-.97.97s.44.97.97.97.97-.44.97-.97-.44-.97-.97-.97Z"/>
    <path class="cls-3" d="m67.96,61.19c-.78,0-1.41-.63-1.41-1.42s.63-1.41,1.41-1.41,1.41.63,1.41,1.41-.63,1.42-1.41,1.42Zm0-2.38c-.54,0-.97.44-.97.97s.44.97.97.97.97-.44.97-.97-.44-.97-.97-.97Z"/>
    <path class="cls-3" d="m67.96,64.91c-.78,0-1.41-.63-1.41-1.42s.63-1.41,1.41-1.41,1.41.63,1.41,1.41-.63,1.42-1.41,1.42Zm0-2.38c-.54,0-.97.44-.97.97s.44.97.97.97.97-.44.97-.97-.44-.97-.97-.97Z"/>
    <path class="cls-3" d="m67.96,68.63c-.78,0-1.41-.63-1.41-1.42s.63-1.41,1.41-1.41,1.41.63,1.41,1.41-.63,1.42-1.41,1.42Zm0-2.39c-.54,0-.97.44-.97.97s.44.97.97.97.97-.44.97-.97-.44-.97-.97-.97Z"/>
    <path class="cls-3" d="m67.96,72.34c-.78,0-1.41-.63-1.41-1.42s.63-1.41,1.41-1.41,1.41.63,1.41,1.41-.63,1.42-1.41,1.42Zm0-2.38c-.54,0-.97.44-.97.97s.44.97.97.97.97-.44.97-.97-.44-.97-.97-.97Z"/>
    <path class="cls-3" d="m67.96,76.24c-.78,0-1.41-.63-1.41-1.42s.63-1.41,1.41-1.41,1.41.63,1.41,1.41-.63,1.42-1.41,1.42Zm0-2.39c-.54,0-.97.44-.97.97s.44.97.97.97.97-.44.97-.97-.44-.97-.97-.97Z"/>
    <path class="cls-3" d="m64.25,57.73c-.78,0-1.41-.63-1.41-1.42s.63-1.41,1.41-1.41,1.41.63,1.41,1.41-.63,1.42-1.41,1.42Zm0-2.38c-.53,0-.97.44-.97.97s.44.97.97.97.97-.44.97-.97-.44-.97-.97-.97Z"/>
    <path class="cls-3" d="m64.25,61.44c-.78,0-1.41-.63-1.41-1.42s.63-1.41,1.41-1.41,1.41.63,1.41,1.41-.63,1.42-1.41,1.42Zm0-2.39c-.53,0-.97.44-.97.97s.44.97.97.97.97-.44.97-.97-.44-.97-.97-.97Z"/>
    <path class="cls-3" d="m64.25,65.16c-.78,0-1.41-.63-1.41-1.42s.63-1.41,1.41-1.41,1.41.63,1.41,1.41-.63,1.42-1.41,1.42Zm0-2.38c-.53,0-.97.44-.97.97s.44.97.97.97.97-.44.97-.97-.44-.97-.97-.97Z"/>
    <path class="cls-3" d="m64.25,68.87c-.78,0-1.41-.63-1.41-1.42s.63-1.41,1.41-1.41,1.41.63,1.41,1.41-.63,1.42-1.41,1.42Zm0-2.38c-.53,0-.97.44-.97.97s.44.97.97.97.97-.44.97-.97-.44-.97-.97-.97Z"/>
    <path class="cls-3" d="m64.25,72.59c-.78,0-1.41-.63-1.41-1.42s.63-1.41,1.41-1.41,1.41.63,1.41,1.41-.63,1.42-1.41,1.42Zm0-2.39c-.53,0-.97.44-.97.97s.44.97.97.97.97-.44.97-.97-.44-.97-.97-.97Z"/>
    <path class="cls-3" d="m64.25,76.31c-.78,0-1.41-.64-1.41-1.42s.63-1.41,1.41-1.41,1.41.63,1.41,1.41-.63,1.42-1.41,1.42Zm0-2.39c-.53,0-.97.44-.97.97s.44.97.97.97.97-.44.97-.97-.44-.97-.97-.97Z"/>
    <path class="cls-3" d="m64.25,80.21c-.78,0-1.41-.63-1.41-1.42s.63-1.41,1.41-1.41,1.41.63,1.41,1.41-.63,1.42-1.41,1.42Zm0-2.38c-.53,0-.97.44-.97.97s.44.97.97.97.97-.44.97-.97-.44-.97-.97-.97Z"/>
    <path class="cls-3" d="m60.53,61.69c-.78,0-1.41-.63-1.41-1.42s.63-1.41,1.41-1.41,1.41.63,1.41,1.41-.63,1.42-1.41,1.42Zm0-2.38c-.54,0-.97.44-.97.97s.44.97.97.97.97-.44.97-.97-.44-.97-.97-.97Z"/>
    <path class="cls-3" d="m60.53,65.41c-.78,0-1.41-.63-1.41-1.42s.63-1.41,1.41-1.41,1.41.63,1.41,1.41-.63,1.42-1.41,1.42Zm0-2.39c-.54,0-.97.44-.97.97s.44.97.97.97.97-.44.97-.97-.44-.97-.97-.97Z"/>
    <path class="cls-3" d="m60.53,69.12c-.78,0-1.41-.64-1.41-1.42s.63-1.41,1.41-1.41,1.41.63,1.41,1.41-.63,1.42-1.41,1.42Zm0-2.39c-.54,0-.97.44-.97.97s.44.97.97.97.97-.44.97-.97-.44-.97-.97-.97Z"/>
    <path class="cls-3" d="m60.53,72.84c-.78,0-1.41-.63-1.41-1.42s.63-1.41,1.41-1.41,1.41.63,1.41,1.41-.63,1.42-1.41,1.42Zm0-2.38c-.54,0-.97.44-.97.97s.44.97.97.97.97-.44.97-.97-.44-.97-.97-.97Z"/>
    <path class="cls-3" d="m60.53,76.55c-.78,0-1.41-.63-1.41-1.42s.63-1.41,1.41-1.41,1.41.63,1.41,1.41-.63,1.42-1.41,1.42Zm0-2.38c-.54,0-.97.44-.97.97s.44.97.97.97.97-.44.97-.97-.44-.97-.97-.97Z"/>
    <path class="cls-3" d="m60.53,80.27c-.78,0-1.41-.63-1.41-1.42s.63-1.41,1.41-1.41,1.41.63,1.41,1.41-.63,1.42-1.41,1.42Zm0-2.39c-.54,0-.97.44-.97.97s.44.97.97.97.97-.44.97-.97-.44-.97-.97-.97Z"/>
    <path class="cls-3" d="m60.53,84.17c-.78,0-1.41-.63-1.41-1.42s.63-1.41,1.41-1.41,1.41.63,1.41,1.41-.63,1.42-1.41,1.42Zm0-2.38c-.54,0-.97.44-.97.97s.44.97.97.97.97-.44.97-.97-.44-.97-.97-.97Z"/>
    <path class="cls-3" d="m56.81,65.65c-.78,0-1.41-.63-1.41-1.42s.63-1.41,1.41-1.41,1.41.63,1.41,1.41-.63,1.42-1.41,1.42Zm0-2.38c-.54,0-.97.44-.97.97s.44.97.97.97.97-.44.97-.97-.44-.97-.97-.97Z"/>
    <path class="cls-3" d="m56.81,69.37c-.78,0-1.41-.63-1.41-1.42s.63-1.41,1.41-1.41,1.41.63,1.41,1.41-.63,1.42-1.41,1.42Zm0-2.39c-.54,0-.97.44-.97.97s.44.97.97.97.97-.44.97-.97-.44-.97-.97-.97Z"/>
    <path class="cls-3" d="m56.81,73.09c-.78,0-1.41-.64-1.41-1.42s.63-1.41,1.41-1.41,1.41.63,1.41,1.41-.63,1.42-1.41,1.42Zm0-2.39c-.54,0-.97.44-.97.97s.44.97.97.97.97-.44.97-.97-.44-.97-.97-.97Z"/>
    <path class="cls-3" d="m56.81,76.8c-.78,0-1.41-.64-1.41-1.42s.63-1.41,1.41-1.41,1.41.63,1.41,1.41-.63,1.42-1.41,1.42Zm0-2.39c-.54,0-.97.44-.97.97s.44.97.97.97.97-.44.97-.97-.44-.97-.97-.97Z"/>
    <path class="cls-3" d="m56.81,80.52c-.78,0-1.41-.63-1.41-1.42s.63-1.41,1.41-1.41,1.41.63,1.41,1.41-.63,1.42-1.41,1.42Zm0-2.38c-.54,0-.97.44-.97.97s.44.97.97.97.97-.44.97-.97-.44-.97-.97-.97Z"/>
    <path class="cls-3" d="m56.81,84.23c-.78,0-1.41-.63-1.41-1.42s.63-1.41,1.41-1.41,1.41.63,1.41,1.41-.63,1.42-1.41,1.42Zm0-2.38c-.54,0-.97.44-.97.97s.44.97.97.97.97-.44.97-.97-.44-.97-.97-.97Z"/>
    <path class="cls-3" d="m56.81,88.14c-.78,0-1.41-.63-1.41-1.42s.63-1.41,1.41-1.41,1.41.63,1.41,1.41-.63,1.42-1.41,1.42Zm0-2.38c-.54,0-.97.44-.97.97s.44.97.97.97.97-.44.97-.97-.44-.97-.97-.97Z"/>
    <path class="cls-3" d="m53.1,69.62c-.78,0-1.41-.63-1.41-1.42s.63-1.41,1.41-1.41,1.41.63,1.41,1.41-.63,1.42-1.41,1.42Zm0-2.38c-.53,0-.97.44-.97.97s.44.97.97.97.97-.44.97-.97-.44-.97-.97-.97Z"/>
    <path class="cls-3" d="m53.1,73.33c-.78,0-1.41-.63-1.41-1.42s.63-1.41,1.41-1.41,1.41.63,1.41,1.41-.63,1.42-1.41,1.42Zm0-2.38c-.53,0-.97.44-.97.97s.44.97.97.97.97-.44.97-.97-.44-.97-.97-.97Z"/>
    <path class="cls-3" d="m53.1,77.05c-.78,0-1.41-.63-1.41-1.42s.63-1.41,1.41-1.41,1.41.63,1.41,1.41-.63,1.42-1.41,1.42Zm0-2.38c-.53,0-.97.44-.97.97s.44.97.97.97.97-.44.97-.97-.44-.97-.97-.97Z"/>
    <path class="cls-3" d="m53.1,80.77c-.78,0-1.41-.64-1.41-1.42s.63-1.41,1.41-1.41,1.41.63,1.41,1.41-.63,1.42-1.41,1.42Zm0-2.39c-.53,0-.97.44-.97.97s.44.97.97.97.97-.44.97-.97-.44-.97-.97-.97Z"/>
    <path class="cls-3" d="m53.1,84.48c-.78,0-1.41-.63-1.41-1.42s.63-1.41,1.41-1.41,1.41.63,1.41,1.41-.63,1.42-1.41,1.42Zm0-2.38c-.53,0-.97.44-.97.97s.44.97.97.97.97-.44.97-.97-.44-.97-.97-.97Z"/>
    <path class="cls-3" d="m53.1,88.2c-.78,0-1.41-.63-1.41-1.42s.63-1.41,1.41-1.41,1.41.63,1.41,1.41-.63,1.42-1.41,1.42Zm0-2.38c-.53,0-.97.44-.97.97s.44.97.97.97.97-.44.97-.97-.44-.97-.97-.97Z"/>
    <path class="cls-3" d="m53.1,92.1c-.78,0-1.41-.63-1.41-1.42s.63-1.41,1.41-1.41,1.41.63,1.41,1.41-.63,1.42-1.41,1.42Zm0-2.38c-.53,0-.97.44-.97.97s.44.97.97.97.97-.44.97-.97-.44-.97-.97-.97Z"/>
    <path class="cls-3" d="m49.38,73.58c-.78,0-1.41-.64-1.41-1.42s.63-1.41,1.41-1.41,1.41.63,1.41,1.41-.63,1.42-1.41,1.42Zm0-2.39c-.54,0-.97.44-.97.97s.44.97.97.97.97-.44.97-.97-.44-.97-.97-.97Z"/>
    <path class="cls-3" d="m49.38,77.3c-.78,0-1.41-.63-1.41-1.42s.63-1.41,1.41-1.41,1.41.63,1.41,1.41-.63,1.42-1.41,1.42Zm0-2.38c-.54,0-.97.44-.97.97s.44.97.97.97.97-.44.97-.97-.44-.97-.97-.97Z"/>
    <path class="cls-3" d="m49.38,81.01c-.78,0-1.41-.63-1.41-1.42s.63-1.41,1.41-1.41,1.41.63,1.41,1.41-.63,1.42-1.41,1.42Zm0-2.38c-.54,0-.97.44-.97.97s.44.97.97.97.97-.44.97-.97-.44-.97-.97-.97Z"/>
    <path class="cls-3" d="m49.38,84.73c-.78,0-1.41-.63-1.41-1.42s.63-1.41,1.41-1.41,1.41.63,1.41,1.41-.63,1.42-1.41,1.42Zm0-2.39c-.54,0-.97.44-.97.97s.44.97.97.97.97-.44.97-.97-.44-.97-.97-.97Z"/>
    <path class="cls-3" d="m49.38,88.45c-.78,0-1.41-.64-1.41-1.42s.63-1.41,1.41-1.41,1.41.63,1.41,1.41-.63,1.42-1.41,1.42Zm0-2.39c-.54,0-.97.44-.97.97s.44.97.97.97.97-.44.97-.97-.44-.97-.97-.97Z"/>
    <path class="cls-3" d="m49.38,92.16c-.78,0-1.41-.63-1.41-1.42s.63-1.41,1.41-1.41,1.41.63,1.41,1.41-.63,1.42-1.41,1.42Zm0-2.38c-.54,0-.97.44-.97.97s.44.97.97.97.97-.44.97-.97-.44-.97-.97-.97Z"/>
    <path class="cls-3" d="m49.38,96.06c-.78,0-1.41-.64-1.41-1.42s.63-1.41,1.41-1.41,1.41.63,1.41,1.41-.63,1.42-1.41,1.42Zm0-2.39c-.54,0-.97.44-.97.97s.44.97.97.97.97-.44.97-.97-.44-.97-.97-.97Z"/>
    <path class="cls-3" d="m45.67,77.54c-.78,0-1.41-.64-1.41-1.42s.63-1.41,1.41-1.41,1.41.63,1.41,1.41-.63,1.42-1.41,1.42Zm0-2.39c-.54,0-.97.44-.97.97s.44.97.97.97.97-.44.97-.97-.44-.97-.97-.97Z"/>
    <path class="cls-3" d="m45.67,81.26c-.78,0-1.41-.63-1.41-1.42s.63-1.41,1.41-1.41,1.41.63,1.41,1.41-.63,1.42-1.41,1.42Zm0-2.38c-.54,0-.97.44-.97.97s.44.97.97.97.97-.44.97-.97-.44-.97-.97-.97Z"/>
    <path class="cls-3" d="m45.67,84.98c-.78,0-1.41-.63-1.41-1.42s.63-1.41,1.41-1.41,1.41.63,1.41,1.41-.63,1.42-1.41,1.42Zm0-2.38c-.54,0-.97.44-.97.97s.44.97.97.97.97-.44.97-.97-.44-.97-.97-.97Z"/>
    <path class="cls-3" d="m45.67,88.69c-.78,0-1.41-.63-1.41-1.42s.63-1.41,1.41-1.41,1.41.63,1.41,1.41-.63,1.42-1.41,1.42Zm0-2.39c-.54,0-.97.44-.97.97s.44.97.97.97.97-.44.97-.97-.44-.97-.97-.97Z"/>
    <path class="cls-3" d="m45.67,92.41c-.78,0-1.41-.64-1.41-1.42s.63-1.41,1.41-1.41,1.41.63,1.41,1.41-.63,1.42-1.41,1.42Zm0-2.39c-.54,0-.97.44-.97.97s.44.97.97.97.97-.44.97-.97-.44-.97-.97-.97Z"/>
    <path class="cls-3" d="m45.67,96.13c-.78,0-1.41-.63-1.41-1.42s.63-1.41,1.41-1.41,1.41.63,1.41,1.41-.63,1.42-1.41,1.42Zm0-2.38c-.54,0-.97.44-.97.97s.44.97.97.97.97-.44.97-.97-.44-.97-.97-.97Z"/>
    <path class="cls-3" d="m45.67,100.03c-.78,0-1.41-.63-1.41-1.42s.63-1.41,1.41-1.41,1.41.63,1.41,1.41-.63,1.42-1.41,1.42Zm0-2.39c-.54,0-.97.44-.97.97s.44.97.97.97.97-.44.97-.97-.44-.97-.97-.97Z"/>
    <path class="cls-3" d="m41.95,81.51c-.78,0-1.41-.63-1.41-1.42s.63-1.41,1.41-1.41,1.41.63,1.41,1.41-.63,1.42-1.41,1.42Zm0-2.39c-.53,0-.97.44-.97.97s.44.97.97.97.97-.44.97-.97-.44-.97-.97-.97Z"/>
    <path class="cls-3" d="m41.95,85.22c-.78,0-1.41-.63-1.41-1.42s.63-1.41,1.41-1.41,1.41.63,1.41,1.41-.63,1.42-1.41,1.42Zm0-2.38c-.53,0-.97.44-.97.97s.44.97.97.97.97-.44.97-.97-.44-.97-.97-.97Z"/>
    <path class="cls-3" d="m41.95,88.94c-.78,0-1.41-.63-1.41-1.42s.63-1.41,1.41-1.41,1.41.63,1.41,1.41-.63,1.42-1.41,1.42Zm0-2.38c-.53,0-.97.44-.97.97s.44.97.97.97.97-.44.97-.97-.44-.97-.97-.97Z"/>
    <path class="cls-3" d="m41.95,92.66c-.78,0-1.41-.63-1.41-1.42s.63-1.41,1.41-1.41,1.41.63,1.41,1.41-.63,1.42-1.41,1.42Zm0-2.39c-.53,0-.97.44-.97.97s.44.97.97.97.97-.44.97-.97-.44-.97-.97-.97Z"/>
    <path class="cls-3" d="m41.95,96.37c-.78,0-1.41-.63-1.41-1.42s.63-1.41,1.41-1.41,1.41.63,1.41,1.41-.63,1.42-1.41,1.42Zm0-2.39c-.53,0-.97.44-.97.97s.44.97.97.97.97-.44.97-.97-.44-.97-.97-.97Z"/>
    <path class="cls-3" d="m41.95,100.09c-.78,0-1.41-.64-1.41-1.42s.63-1.41,1.41-1.41,1.41.63,1.41,1.41-.63,1.42-1.41,1.42Zm0-2.39c-.53,0-.97.44-.97.97s.44.97.97.97.97-.44.97-.97-.44-.97-.97-.97Z"/>
    <path class="cls-3" d="m41.95,103.99c-.78,0-1.41-.63-1.41-1.42s.63-1.41,1.41-1.41,1.41.63,1.41,1.41-.63,1.42-1.41,1.42Zm0-2.39c-.53,0-.97.44-.97.97s.44.97.97.97.97-.44.97-.97-.44-.97-.97-.97Z"/>
    <path class="cls-3" d="m38.23,85.47c-.78,0-1.41-.63-1.41-1.42s.63-1.41,1.41-1.41,1.41.63,1.41,1.41-.63,1.42-1.41,1.42Zm0-2.39c-.54,0-.97.44-.97.97s.44.97.97.97.97-.44.97-.97-.44-.97-.97-.97Z"/>
    <path class="cls-3" d="m38.23,89.19c-.78,0-1.41-.64-1.41-1.42s.63-1.41,1.41-1.41,1.41.63,1.41,1.41-.63,1.42-1.41,1.42Zm0-2.39c-.54,0-.97.44-.97.97s.44.97.97.97.97-.44.97-.97-.44-.97-.97-.97Z"/>
    <path class="cls-3" d="m38.23,92.9c-.78,0-1.41-.63-1.41-1.42s.63-1.41,1.41-1.41,1.41.63,1.41,1.41-.63,1.42-1.41,1.42Zm0-2.38c-.54,0-.97.44-.97.97s.44.97.97.97.97-.44.97-.97-.44-.97-.97-.97Z"/>
    <path class="cls-3" d="m38.23,96.62c-.78,0-1.41-.63-1.41-1.42s.63-1.41,1.41-1.41,1.41.63,1.41,1.41-.63,1.42-1.41,1.42Zm0-2.38c-.54,0-.97.44-.97.97s.44.97.97.97.97-.44.97-.97-.44-.97-.97-.97Z"/>
    <path class="cls-3" d="m38.23,100.34c-.78,0-1.41-.63-1.41-1.42s.63-1.41,1.41-1.41,1.41.63,1.41,1.41-.63,1.42-1.41,1.42Zm0-2.39c-.54,0-.97.44-.97.97s.44.97.97.97.97-.44.97-.97-.44-.97-.97-.97Z"/>
    <path class="cls-3" d="m38.23,104.05c-.78,0-1.41-.64-1.41-1.42s.63-1.41,1.41-1.41,1.41.63,1.41,1.41-.63,1.42-1.41,1.42Zm0-2.39c-.54,0-.97.44-.97.97s.44.97.97.97.97-.44.97-.97-.44-.97-.97-.97Z"/>
    <path class="cls-3" d="m34.52,89.44c-.78,0-1.41-.63-1.41-1.42s.63-1.41,1.41-1.41,1.41.63,1.41,1.41-.63,1.42-1.41,1.42Zm0-2.39c-.53,0-.97.44-.97.97s.44.97.97.97.97-.44.97-.97-.44-.97-.97-.97Z"/>
    <path class="cls-3" d="m34.52,93.15c-.78,0-1.41-.63-1.41-1.42s.63-1.41,1.41-1.41,1.41.63,1.41,1.41-.63,1.42-1.41,1.42Zm0-2.39c-.53,0-.97.44-.97.97s.44.97.97.97.97-.44.97-.97-.44-.97-.97-.97Z"/>
    <path class="cls-3" d="m34.52,96.87c-.78,0-1.41-.64-1.41-1.42s.63-1.41,1.41-1.41,1.41.63,1.41,1.41-.63,1.42-1.41,1.42Zm0-2.39c-.53,0-.97.44-.97.97s.44.97.97.97.97-.44.97-.97-.44-.97-.97-.97Z"/>
    <path class="cls-3" d="m34.52,100.58c-.78,0-1.41-.63-1.41-1.42s.63-1.41,1.41-1.41,1.41.63,1.41,1.41-.63,1.42-1.41,1.42Zm0-2.38c-.53,0-.97.44-.97.97s.44.97.97.97.97-.44.97-.97-.44-.97-.97-.97Z"/>
    <path class="cls-3" d="m34.52,104.3c-.78,0-1.41-.63-1.41-1.42s.63-1.41,1.41-1.41,1.41.63,1.41,1.41-.63,1.42-1.41,1.42Zm0-2.39c-.53,0-.97.44-.97.97s.44.97.97.97.97-.44.97-.97-.44-.97-.97-.97Z"/>
    <path class="cls-3" d="m30.8,93.4c-.78,0-1.41-.63-1.41-1.42s.63-1.41,1.41-1.41,1.41.63,1.41,1.41-.63,1.42-1.41,1.42Zm0-2.38c-.54,0-.97.44-.97.97s.44.97.97.97.97-.44.97-.97-.44-.97-.97-.97Z"/>
    <path class="cls-3" d="m30.8,97.12c-.78,0-1.41-.63-1.41-1.42s.63-1.41,1.41-1.41,1.41.63,1.41,1.41-.63,1.42-1.41,1.42Zm0-2.39c-.54,0-.97.44-.97.97s.44.97.97.97.97-.44.97-.97-.44-.97-.97-.97Z"/>
    <path class="cls-3" d="m30.8,100.83c-.78,0-1.41-.64-1.41-1.42s.63-1.41,1.41-1.41,1.41.63,1.41,1.41-.63,1.42-1.41,1.42Zm0-2.39c-.54,0-.97.44-.97.97s.44.97.97.97.97-.44.97-.97-.44-.97-.97-.97Z"/>
    <path class="cls-3" d="m30.8,104.55c-.78,0-1.41-.63-1.41-1.42s.63-1.41,1.41-1.41,1.41.63,1.41,1.41-.63,1.42-1.41,1.42Zm0-2.38c-.54,0-.97.44-.97.97s.44.97.97.97.97-.44.97-.97-.44-.97-.97-.97Z"/>
    <path class="cls-3" d="m27.08,97.36c-.78,0-1.41-.63-1.41-1.42s.63-1.41,1.41-1.41,1.41.63,1.41,1.41-.63,1.42-1.41,1.42Zm0-2.38c-.54,0-.97.44-.97.97s.44.97.97.97.97-.44.97-.97-.44-.97-.97-.97Z"/>
    <path class="cls-3" d="m27.08,101.08c-.78,0-1.41-.63-1.41-1.42s.63-1.41,1.41-1.41,1.41.63,1.41,1.41-.63,1.42-1.41,1.42Zm0-2.38c-.54,0-.97.44-.97.97s.44.97.97.97.97-.44.97-.97-.44-.97-.97-.97Z"/>
    <path class="cls-3" d="m27.08,104.8c-.78,0-1.41-.63-1.41-1.42s.63-1.41,1.41-1.41,1.41.63,1.41,1.41-.63,1.42-1.41,1.42Zm0-2.39c-.54,0-.97.44-.97.97s.44.97.97.97.97-.44.97-.97-.44-.97-.97-.97Z"/>
    <path class="cls-3" d="m23.37,101.33c-.78,0-1.41-.63-1.41-1.42s.63-1.41,1.41-1.41,1.41.63,1.41,1.41-.63,1.42-1.41,1.42Zm0-2.38c-.53,0-.97.44-.97.97s.44.97.97.97.97-.44.97-.97-.44-.97-.97-.97Z"/>
    <path class="cls-3" d="m23.37,105.04c-.78,0-1.41-.63-1.41-1.42s.63-1.41,1.41-1.41,1.41.63,1.41,1.41-.63,1.42-1.41,1.42Zm0-2.38c-.53,0-.97.44-.97.97s.44.97.97.97.97-.44.97-.97-.44-.97-.97-.97Z"/>
    <path class="cls-3" d="m19.65,105.29c-.78,0-1.41-.63-1.41-1.42s.63-1.41,1.41-1.41,1.41.63,1.41,1.41-.63,1.42-1.41,1.42Zm0-2.38c-.54,0-.97.44-.97.97s.44.97.97.97.97-.44.97-.97-.44-.97-.97-.97Z"/>
    <path class="cls-3" d="m90.26,70.2c-.78,0-1.41-.64-1.41-1.42s.63-1.41,1.41-1.41,1.41.63,1.41,1.41-.63,1.42-1.41,1.42Zm0-2.39c-.54,0-.97.44-.97.97s.44.97.97.97.97-.44.97-.97-.44-.97-.97-.97Z"/>
    <path class="cls-3" d="m90.26,73.91c-.78,0-1.41-.63-1.41-1.42s.63-1.41,1.41-1.41,1.41.63,1.41,1.41-.63,1.42-1.41,1.42Zm0-2.38c-.54,0-.97.44-.97.97s.44.97.97.97.97-.44.97-.97-.44-.97-.97-.97Z"/>
    <path class="cls-3" d="m90.26,77.63c-.78,0-1.41-.63-1.41-1.42s.63-1.41,1.41-1.41,1.41.63,1.41,1.41-.63,1.42-1.41,1.42Zm0-2.38c-.54,0-.97.44-.97.97s.44.97.97.97.97-.44.97-.97-.44-.97-.97-.97Z"/>
    <path class="cls-3" d="m90.26,81.35c-.78,0-1.41-.63-1.41-1.42s.63-1.41,1.41-1.41,1.41.63,1.41,1.41-.63,1.42-1.41,1.42Zm0-2.39c-.54,0-.97.44-.97.97s.44.97.97.97.97-.44.97-.97-.44-.97-.97-.97Z"/>
    <path class="cls-3" d="m90.26,85.06c-.78,0-1.41-.64-1.41-1.42s.63-1.41,1.41-1.41,1.41.63,1.41,1.41-.63,1.42-1.41,1.42Zm0-2.39c-.54,0-.97.44-.97.97s.44.97.97.97.97-.44.97-.97-.44-.97-.97-.97Z"/>
    <path class="cls-3" d="m90.26,88.78c-.78,0-1.41-.63-1.41-1.42s.63-1.41,1.41-1.41,1.41.63,1.41,1.41-.63,1.42-1.41,1.42Zm0-2.38c-.54,0-.97.44-.97.97s.44.97.97.97.97-.44.97-.97-.44-.97-.97-.97Z"/>
    <path class="cls-3" d="m90.26,92.68c-.78,0-1.41-.63-1.41-1.42s.63-1.41,1.41-1.41,1.41.63,1.41,1.41-.63,1.42-1.41,1.42Zm0-2.39c-.54,0-.97.44-.97.97s.44.97.97.97.97-.44.97-.97-.44-.97-.97-.97Z"/>
    <path class="cls-3" d="m86.54,74.16c-.78,0-1.41-.64-1.41-1.42s.63-1.41,1.41-1.41,1.41.63,1.41,1.41-.63,1.42-1.41,1.42Zm0-2.39c-.54,0-.97.44-.97.97s.44.97.97.97.97-.44.97-.97-.44-.97-.97-.97Z"/>
    <path class="cls-3" d="m86.54,77.88c-.78,0-1.41-.63-1.41-1.42s.63-1.41,1.41-1.41,1.41.63,1.41,1.41-.63,1.42-1.41,1.42Zm0-2.38c-.54,0-.97.44-.97.97s.44.97.97.97.97-.44.97-.97-.44-.97-.97-.97Z"/>
    <path class="cls-3" d="m86.54,81.59c-.78,0-1.41-.63-1.41-1.42s.63-1.41,1.41-1.41,1.41.63,1.41,1.41-.63,1.42-1.41,1.42Zm0-2.38c-.54,0-.97.44-.97.97s.44.97.97.97.97-.44.97-.97-.44-.97-.97-.97Z"/>
    <path class="cls-3" d="m86.54,85.31c-.78,0-1.41-.63-1.41-1.42s.63-1.41,1.41-1.41,1.41.63,1.41,1.41-.63,1.42-1.41,1.42Zm0-2.39c-.54,0-.97.44-.97.97s.44.97.97.97.97-.44.97-.97-.44-.97-.97-.97Z"/>
    <path class="cls-3" d="m86.54,89.03c-.78,0-1.41-.64-1.41-1.42s.63-1.41,1.41-1.41,1.41.63,1.41,1.41-.63,1.42-1.41,1.42Zm0-2.39c-.54,0-.97.44-.97.97s.44.97.97.97.97-.44.97-.97-.44-.97-.97-.97Z"/>
    <path class="cls-3" d="m86.54,92.74c-.78,0-1.41-.64-1.41-1.42s.63-1.41,1.41-1.41,1.41.63,1.41,1.41-.63,1.42-1.41,1.42Zm0-2.39c-.54,0-.97.44-.97.97s.44.97.97.97.97-.44.97-.97-.44-.97-.97-.97Z"/>
    <path class="cls-3" d="m86.54,96.65c-.78,0-1.41-.63-1.41-1.42s.63-1.41,1.41-1.41,1.41.63,1.41,1.41-.63,1.42-1.41,1.42Zm0-2.39c-.54,0-.97.44-.97.97s.44.97.97.97.97-.44.97-.97-.44-.97-.97-.97Z"/>
    <path class="cls-3" d="m82.83,78.13c-.78,0-1.41-.63-1.41-1.42s.63-1.41,1.41-1.41,1.41.63,1.41,1.41-.63,1.42-1.41,1.42Zm0-2.39c-.53,0-.97.44-.97.97s.44.97.97.97.97-.44.97-.97-.44-.97-.97-.97Z"/>
    <path class="cls-3" d="m82.83,81.84c-.78,0-1.41-.64-1.41-1.42s.63-1.41,1.41-1.41,1.41.63,1.41,1.41-.63,1.42-1.41,1.42Zm0-2.39c-.53,0-.97.44-.97.97s.44.97.97.97.97-.44.97-.97-.44-.97-.97-.97Z"/>
    <path class="cls-3" d="m82.83,85.56c-.78,0-1.41-.63-1.41-1.42s.63-1.41,1.41-1.41,1.41.63,1.41,1.41-.63,1.42-1.41,1.42Zm0-2.38c-.53,0-.97.44-.97.97s.44.97.97.97.97-.44.97-.97-.44-.97-.97-.97Z"/>
    <path class="cls-3" d="m82.83,89.27c-.78,0-1.41-.63-1.41-1.42s.63-1.41,1.41-1.41,1.41.63,1.41,1.41-.63,1.42-1.41,1.42Zm0-2.38c-.53,0-.97.44-.97.97s.44.97.97.97.97-.44.97-.97-.44-.97-.97-.97Z"/>
    <path class="cls-3" d="m82.83,92.99c-.78,0-1.41-.63-1.41-1.42s.63-1.41,1.41-1.41,1.41.63,1.41,1.41-.63,1.42-1.41,1.42Zm0-2.39c-.53,0-.97.44-.97.97s.44.97.97.97.97-.44.97-.97-.44-.97-.97-.97Z"/>
    <path class="cls-3" d="m82.83,96.71c-.78,0-1.41-.64-1.41-1.42s.63-1.41,1.41-1.41,1.41.63,1.41,1.41-.63,1.42-1.41,1.42Zm0-2.39c-.53,0-.97.44-.97.97s.44.97.97.97.97-.44.97-.97-.44-.97-.97-.97Z"/>
    <path class="cls-3" d="m82.83,100.61c-.78,0-1.41-.63-1.41-1.42s.63-1.41,1.41-1.41,1.41.63,1.41,1.41-.63,1.42-1.41,1.42Zm0-2.38c-.53,0-.97.44-.97.97s.44.97.97.97.97-.44.97-.97-.44-.97-.97-.97Z"/>
    <path class="cls-3" d="m79.11,82.09c-.78,0-1.41-.63-1.41-1.42s.63-1.41,1.41-1.41,1.41.63,1.41,1.41-.63,1.42-1.41,1.42Zm0-2.39c-.54,0-.97.44-.97.97s.44.97.97.97.97-.44.97-.97-.44-.97-.97-.97Z"/>
    <path class="cls-3" d="m79.11,85.81c-.78,0-1.41-.64-1.41-1.42s.63-1.41,1.41-1.41,1.41.63,1.41,1.41-.63,1.42-1.41,1.42Zm0-2.39c-.54,0-.97.44-.97.97s.44.97.97.97.97-.44.97-.97-.44-.97-.97-.97Z"/>
    <path class="cls-3" d="m79.11,89.52c-.78,0-1.41-.64-1.41-1.42s.63-1.41,1.41-1.41,1.41.63,1.41,1.41-.63,1.42-1.41,1.42Zm0-2.39c-.54,0-.97.44-.97.97s.44.97.97.97.97-.44.97-.97-.44-.97-.97-.97Z"/>
    <path class="cls-3" d="m79.11,93.24c-.78,0-1.41-.63-1.41-1.42s.63-1.41,1.41-1.41,1.41.63,1.41,1.41-.63,1.42-1.41,1.42Zm0-2.38c-.54,0-.97.44-.97.97s.44.97.97.97.97-.44.97-.97-.44-.97-.97-.97Z"/>
    <path class="cls-3" d="m79.11,96.96c-.78,0-1.41-.63-1.41-1.42s.63-1.41,1.41-1.41,1.41.63,1.41,1.41-.63,1.42-1.41,1.42Zm0-2.39c-.54,0-.97.44-.97.97s.44.97.97.97.97-.44.97-.97-.44-.97-.97-.97Z"/>
    <path class="cls-3" d="m79.11,100.67c-.78,0-1.41-.64-1.41-1.42s.63-1.41,1.41-1.41,1.41.63,1.41,1.41-.63,1.42-1.41,1.42Zm0-2.39c-.54,0-.97.44-.97.97s.44.97.97.97.97-.44.97-.97-.44-.97-.97-.97Z"/>
    <path class="cls-3" d="m79.11,104.57c-.78,0-1.41-.63-1.41-1.42s.63-1.41,1.41-1.41,1.41.63,1.41,1.41-.63,1.42-1.41,1.42Zm0-2.38c-.54,0-.97.44-.97.97s.44.97.97.97.97-.44.97-.97-.44-.97-.97-.97Z"/>
    <path class="cls-3" d="m75.39,86.05c-.78,0-1.41-.63-1.41-1.42s.63-1.41,1.41-1.41,1.41.63,1.41,1.41-.63,1.42-1.41,1.42Zm0-2.38c-.53,0-.97.44-.97.97s.44.97.97.97.97-.44.97-.97-.44-.97-.97-.97Z"/>
    <path class="cls-3" d="m75.39,89.77c-.78,0-1.41-.63-1.41-1.42s.63-1.41,1.41-1.41,1.41.63,1.41,1.41-.63,1.42-1.41,1.42Zm0-2.39c-.53,0-.97.44-.97.97s.44.97.97.97.97-.44.97-.97-.44-.97-.97-.97Z"/>
    <path class="cls-3" d="m75.39,93.49c-.78,0-1.41-.64-1.41-1.42s.63-1.41,1.41-1.41,1.41.63,1.41,1.41-.63,1.42-1.41,1.42Zm0-2.39c-.53,0-.97.44-.97.97s.44.97.97.97.97-.44.97-.97-.44-.97-.97-.97Z"/>
    <path class="cls-3" d="m75.39,97.2c-.78,0-1.41-.63-1.41-1.42s.63-1.41,1.41-1.41,1.41.63,1.41,1.41-.63,1.42-1.41,1.42Zm0-2.38c-.53,0-.97.44-.97.97s.44.97.97.97.97-.44.97-.97-.44-.97-.97-.97Z"/>
    <path class="cls-3" d="m75.39,100.92c-.78,0-1.41-.63-1.41-1.42s.63-1.41,1.41-1.41,1.41.63,1.41,1.41-.63,1.42-1.41,1.42Zm0-2.38c-.53,0-.97.44-.97.97s.44.97.97.97.97-.44.97-.97-.44-.97-.97-.97Z"/>
    <path class="cls-3" d="m75.39,104.64c-.78,0-1.41-.63-1.41-1.42s.63-1.41,1.41-1.41,1.41.63,1.41,1.41-.63,1.42-1.41,1.42Zm0-2.39c-.53,0-.97.44-.97.97s.44.97.97.97.97-.44.97-.97-.44-.97-.97-.97Z"/>
    <path class="cls-3" d="m71.68,90.02c-.78,0-1.41-.63-1.41-1.42s.63-1.41,1.41-1.41,1.41.63,1.41,1.41-.63,1.42-1.41,1.42Zm0-2.38c-.53,0-.97.44-.97.97s.44.97.97.97.97-.44.97-.97-.44-.97-.97-.97Z"/>
    <path class="cls-3" d="m71.68,93.73c-.78,0-1.41-.63-1.41-1.42s.63-1.41,1.41-1.41,1.41.63,1.41,1.41-.63,1.42-1.41,1.42Zm0-2.38c-.53,0-.97.44-.97.97s.44.97.97.97.97-.44.97-.97-.44-.97-.97-.97Z"/>
    <path class="cls-3" d="m71.68,97.45c-.78,0-1.41-.64-1.41-1.42s.63-1.41,1.41-1.41,1.41.63,1.41,1.41-.63,1.42-1.41,1.42Zm0-2.39c-.53,0-.97.44-.97.97s.44.97.97.97.97-.44.97-.97-.44-.97-.97-.97Z"/>
    <path class="cls-3" d="m71.68,101.17c-.78,0-1.41-.63-1.41-1.42s.63-1.41,1.41-1.41,1.41.63,1.41,1.41-.63,1.42-1.41,1.42Zm0-2.38c-.53,0-.97.44-.97.97s.44.97.97.97.97-.44.97-.97-.44-.97-.97-.97Z"/>
    <path class="cls-3" d="m71.68,104.88c-.78,0-1.41-.63-1.41-1.42s.63-1.41,1.41-1.41,1.41.63,1.41,1.41-.63,1.42-1.41,1.42Zm0-2.38c-.53,0-.97.44-.97.97s.44.97.97.97.97-.44.97-.97-.44-.97-.97-.97Z"/>
    <path class="cls-3" d="m67.96,93.98c-.78,0-1.41-.63-1.41-1.42s.63-1.41,1.41-1.41,1.41.63,1.41,1.41-.63,1.42-1.41,1.42Zm0-2.38c-.54,0-.97.44-.97.97s.44.97.97.97.97-.44.97-.97-.44-.97-.97-.97Z"/>
    <path class="cls-3" d="m67.96,97.7c-.78,0-1.41-.63-1.41-1.42s.63-1.41,1.41-1.41,1.41.63,1.41,1.41-.63,1.42-1.41,1.42Zm0-2.38c-.54,0-.97.44-.97.97s.44.97.97.97.97-.44.97-.97-.44-.97-.97-.97Z"/>
    <path class="cls-3" d="m67.96,101.41c-.78,0-1.41-.63-1.41-1.42s.63-1.41,1.41-1.41,1.41.63,1.41,1.41-.63,1.42-1.41,1.42Zm0-2.39c-.54,0-.97.44-.97.97s.44.97.97.97.97-.44.97-.97-.44-.97-.97-.97Z"/>
    <path class="cls-3" d="m67.96,105.13c-.78,0-1.41-.64-1.41-1.42s.63-1.41,1.41-1.41,1.41.63,1.41,1.41-.63,1.42-1.41,1.42Zm0-2.39c-.54,0-.97.44-.97.97s.44.97.97.97.97-.44.97-.97-.44-.97-.97-.97Z"/>
    <path class="cls-3" d="m64.25,97.95c-.78,0-1.41-.63-1.41-1.42s.63-1.41,1.41-1.41,1.41.63,1.41,1.41-.63,1.42-1.41,1.42Zm0-2.38c-.53,0-.97.44-.97.97s.44.97.97.97.97-.44.97-.97-.44-.97-.97-.97Z"/>
    <path class="cls-3" d="m64.25,101.66c-.78,0-1.41-.63-1.41-1.42s.63-1.41,1.41-1.41,1.41.63,1.41,1.41-.63,1.42-1.41,1.42Zm0-2.38c-.53,0-.97.44-.97.97s.44.97.97.97.97-.44.97-.97-.44-.97-.97-.97Z"/>
    <path class="cls-3" d="m64.25,105.38c-.78,0-1.41-.63-1.41-1.42s.63-1.41,1.41-1.41,1.41.63,1.41,1.41-.63,1.42-1.41,1.42Zm0-2.39c-.53,0-.97.44-.97.97s.44.97.97.97.97-.44.97-.97-.44-.97-.97-.97Z"/>
    <path class="cls-3" d="m60.53,101.91c-.78,0-1.41-.64-1.41-1.42s.63-1.41,1.41-1.41,1.41.63,1.41,1.41-.63,1.42-1.41,1.42Zm0-2.39c-.54,0-.97.44-.97.97s.44.97.97.97.97-.44.97-.97-.44-.97-.97-.97Z"/>
    <path class="cls-3" d="m60.53,105.63c-.78,0-1.41-.63-1.41-1.42s.63-1.41,1.41-1.41,1.41.63,1.41,1.41-.63,1.42-1.41,1.42Zm0-2.38c-.54,0-.97.44-.97.97s.44.97.97.97.97-.44.97-.97-.44-.97-.97-.97Z"/>
    <path class="cls-3" d="m56.81,105.87c-.78,0-1.41-.63-1.41-1.42s.63-1.41,1.41-1.41,1.41.63,1.41,1.41-.63,1.42-1.41,1.42Zm0-2.39c-.54,0-.97.44-.97.97s.44.97.97.97.97-.44.97-.97-.44-.97-.97-.97Z"/>
  </g>
</svg>