<?xml version="1.0" encoding="UTF-8"?>
<svg id="_Слой_1" data-name="Слой 1" xmlns="http://www.w3.org/2000/svg" xmlns:xlink="http://www.w3.org/1999/xlink" viewBox="0 0 94.54 8.26">
  <defs>
    <style>
      .cls-1, .cls-2, .cls-3, .cls-4 {
        fill: none;
      }

      .cls-2 {
        stroke: #010101;
        stroke-miterlimit: 10;
        stroke-width: .25px;
      }

      .cls-3 {
        clip-path: url(#clippath);
      }

      .cls-4 {
        clip-path: url(#clippath-1);
      }

      .cls-5 {
        fill: #010101;
      }
    </style>
    <clipPath id="clippath">
      <path class="cls-1" d="m222.12,2.67h2.27V-.16h13.4v7.15h-94.37V-.16h13.24v2.83h2.91V-.16h13.29v2.83h2.85V-.16h13.29v2.83h2.86V-.16h13.29v2.83h3.1V-.16h13.23v2.83h.63Z"/>
    </clipPath>
    <clipPath id="clippath-1">
      <path class="cls-1" d="m87.28,0v3.02h-1.26V0h-7.64v3.02h-1.26V0h-7.45v3.02h-1.26V0h-7.45v3.02h-1.26V0h-7.45v3.02h-1.26V0h-7.18v3.02h-1.26V0h-7.72v3.02h-1.26V0h-7.45v3.02h-1.26V0h-7.45v3.02h-1.26V0h-7.45v3.02h-1.26V0H0v8.26h94.54V0h-7.26Z"/>
    </clipPath>
  </defs>
  <path class="cls-5" d="m86.02,3.65h1.89V.64h5.99v6.99H.63V.64h6.18v3.02h2.53V.64h6.18v3.02h2.53V.64h6.18v3.02h2.53V.64h6.18v3.02h2.53V.64h6.45v3.02h2.53V.64h5.92v3.02h2.53V.64h6.18v3.02h2.53V.64h6.18v3.02h2.53V.64h6.18v3.02h2.53V.64h6.37v3.02h.63Zm1.26-3.65v3.02h-1.26V0h-7.64v3.02h-1.26V0h-7.45v3.02h-1.26V0h-7.45v3.02h-1.26V0h-7.45v3.02h-1.26V0h-7.18v3.02h-1.26V0h-7.72v3.02h-1.26V0h-7.45v3.02h-1.26V0h-7.45v3.02h-1.26V0h-7.45v3.02h-1.26V0H0v8.26h94.54V0h-7.26Z"/>
  <g class="cls-3">
    <g>
      <line class="cls-2" x1="208.88" y1="-69.38" x2="82.11" y2="57.4"/>
      <line class="cls-2" x1="209.72" y1="-68.54" x2="82.95" y2="58.23"/>
      <line class="cls-2" x1="210.56" y1="-67.7" x2="83.79" y2="59.07"/>
      <line class="cls-2" x1="211.4" y1="-66.86" x2="84.63" y2="59.91"/>
      <line class="cls-2" x1="212.24" y1="-66.02" x2="85.46" y2="60.75"/>
      <line class="cls-2" x1="213.07" y1="-65.18" x2="86.3" y2="61.59"/>
      <line class="cls-2" x1="213.91" y1="-64.35" x2="87.14" y2="62.43"/>
      <line class="cls-2" x1="214.75" y1="-63.51" x2="87.98" y2="63.26"/>
      <line class="cls-2" x1="215.59" y1="-62.67" x2="88.82" y2="64.1"/>
      <line class="cls-2" x1="216.43" y1="-61.83" x2="89.65" y2="64.94"/>
      <line class="cls-2" x1="217.26" y1="-60.99" x2="90.49" y2="65.78"/>
      <line class="cls-2" x1="218.1" y1="-60.15" x2="91.33" y2="66.62"/>
      <line class="cls-2" x1="218.94" y1="-59.32" x2="92.17" y2="67.46"/>
      <line class="cls-2" x1="219.78" y1="-58.48" x2="93.01" y2="68.29"/>
      <line class="cls-2" x1="220.62" y1="-57.64" x2="93.85" y2="69.13"/>
    </g>
  </g>
  <g class="cls-4">
    <g>
      <line class="cls-2" x1="67.44" y1="-71.11" x2="-59.34" y2="55.66"/>
      <line class="cls-2" x1="68.27" y1="-70.28" x2="-58.5" y2="56.5"/>
      <line class="cls-2" x1="69.11" y1="-69.44" x2="-57.66" y2="57.33"/>
      <line class="cls-2" x1="69.95" y1="-68.6" x2="-56.82" y2="58.17"/>
      <line class="cls-2" x1="70.79" y1="-67.76" x2="-55.98" y2="59.01"/>
      <line class="cls-2" x1="71.63" y1="-66.92" x2="-55.15" y2="59.85"/>
      <line class="cls-2" x1="72.46" y1="-66.09" x2="-54.31" y2="60.69"/>
      <line class="cls-2" x1="73.3" y1="-65.25" x2="-53.47" y2="61.53"/>
      <line class="cls-2" x1="74.14" y1="-64.41" x2="-52.63" y2="62.36"/>
      <line class="cls-2" x1="74.98" y1="-63.57" x2="-51.79" y2="63.2"/>
      <line class="cls-2" x1="75.82" y1="-62.73" x2="-50.95" y2="64.04"/>
      <line class="cls-2" x1="76.66" y1="-61.89" x2="-50.12" y2="64.88"/>
      <line class="cls-2" x1="77.49" y1="-61.06" x2="-49.28" y2="65.72"/>
      <line class="cls-2" x1="78.33" y1="-60.22" x2="-48.44" y2="66.55"/>
      <line class="cls-2" x1="79.17" y1="-59.38" x2="-47.6" y2="67.39"/>
      <line class="cls-2" x1="80.01" y1="-58.54" x2="-46.76" y2="68.23"/>
      <line class="cls-2" x1="80.85" y1="-57.7" x2="-45.92" y2="69.07"/>
      <line class="cls-2" x1="81.69" y1="-56.86" x2="-45.09" y2="69.91"/>
      <line class="cls-2" x1="82.52" y1="-56.03" x2="-44.25" y2="70.75"/>
      <line class="cls-2" x1="83.36" y1="-55.19" x2="-43.41" y2="71.58"/>
      <line class="cls-2" x1="84.2" y1="-54.35" x2="-42.57" y2="72.42"/>
      <line class="cls-2" x1="85.04" y1="-53.51" x2="-41.73" y2="73.26"/>
      <line class="cls-2" x1="85.88" y1="-52.67" x2="-40.9" y2="74.1"/>
      <line class="cls-2" x1="86.71" y1="-51.84" x2="-40.06" y2="74.94"/>
      <line class="cls-2" x1="87.55" y1="-51" x2="-39.22" y2="75.78"/>
      <line class="cls-2" x1="88.39" y1="-50.16" x2="-38.38" y2="76.61"/>
      <line class="cls-2" x1="89.23" y1="-49.32" x2="-37.54" y2="77.45"/>
      <line class="cls-2" x1="90.07" y1="-48.48" x2="-36.7" y2="78.29"/>
      <line class="cls-2" x1="90.91" y1="-47.64" x2="-35.87" y2="79.13"/>
      <line class="cls-2" x1="91.74" y1="-46.81" x2="-35.03" y2="79.97"/>
      <line class="cls-2" x1="92.58" y1="-45.97" x2="-34.19" y2="80.8"/>
      <line class="cls-2" x1="93.42" y1="-45.13" x2="-33.35" y2="81.64"/>
      <line class="cls-2" x1="94.26" y1="-44.29" x2="-32.51" y2="82.48"/>
      <line class="cls-2" x1="95.1" y1="-43.45" x2="-31.67" y2="83.32"/>
      <line class="cls-2" x1="95.94" y1="-42.61" x2="-30.84" y2="84.16"/>
      <line class="cls-2" x1="96.77" y1="-41.78" x2="-30" y2="85"/>
      <line class="cls-2" x1="97.61" y1="-40.94" x2="-29.16" y2="85.83"/>
      <line class="cls-2" x1="98.45" y1="-40.1" x2="-28.32" y2="86.67"/>
      <line class="cls-2" x1="99.29" y1="-39.26" x2="-27.48" y2="87.51"/>
      <line class="cls-2" x1="100.13" y1="-38.42" x2="-26.65" y2="88.35"/>
      <line class="cls-2" x1="100.96" y1="-37.59" x2="-25.81" y2="89.19"/>
      <line class="cls-2" x1="101.8" y1="-36.75" x2="-24.97" y2="90.03"/>
      <line class="cls-2" x1="102.64" y1="-35.91" x2="-24.13" y2="90.86"/>
      <line class="cls-2" x1="103.48" y1="-35.07" x2="-23.29" y2="91.7"/>
      <line class="cls-2" x1="104.32" y1="-34.23" x2="-22.45" y2="92.54"/>
      <line class="cls-2" x1="105.16" y1="-33.39" x2="-21.62" y2="93.38"/>
      <line class="cls-2" x1="105.99" y1="-32.56" x2="-20.78" y2="94.22"/>
      <line class="cls-2" x1="106.83" y1="-31.72" x2="-19.94" y2="95.05"/>
      <line class="cls-2" x1="107.67" y1="-30.88" x2="-19.1" y2="95.89"/>
      <line class="cls-2" x1="108.51" y1="-30.04" x2="-18.26" y2="96.73"/>
      <line class="cls-2" x1="109.35" y1="-29.2" x2="-17.42" y2="97.57"/>
      <line class="cls-2" x1="110.19" y1="-28.36" x2="-16.59" y2="98.41"/>
      <line class="cls-2" x1="111.02" y1="-27.53" x2="-15.75" y2="99.25"/>
      <line class="cls-2" x1="111.86" y1="-26.69" x2="-14.91" y2="100.08"/>
      <line class="cls-2" x1="112.7" y1="-25.85" x2="-14.07" y2="100.92"/>
      <line class="cls-2" x1="113.54" y1="-25.01" x2="-13.23" y2="101.76"/>
      <line class="cls-2" x1="114.38" y1="-24.17" x2="-12.4" y2="102.6"/>
      <line class="cls-2" x1="115.21" y1="-23.34" x2="-11.56" y2="103.44"/>
      <line class="cls-2" x1="116.05" y1="-22.5" x2="-10.72" y2="104.28"/>
      <line class="cls-2" x1="116.89" y1="-21.66" x2="-9.88" y2="105.11"/>
      <line class="cls-2" x1="117.73" y1="-20.82" x2="-9.04" y2="105.95"/>
      <line class="cls-2" x1="118.57" y1="-19.98" x2="-8.2" y2="106.79"/>
      <line class="cls-2" x1="119.41" y1="-19.14" x2="-7.37" y2="107.63"/>
      <line class="cls-2" x1="120.24" y1="-18.31" x2="-6.53" y2="108.47"/>
      <line class="cls-2" x1="121.08" y1="-17.47" x2="-5.69" y2="109.3"/>
      <line class="cls-2" x1="121.92" y1="-16.63" x2="-4.85" y2="110.14"/>
      <line class="cls-2" x1="122.76" y1="-15.79" x2="-4.01" y2="110.98"/>
      <line class="cls-2" x1="123.6" y1="-14.95" x2="-3.17" y2="111.82"/>
      <line class="cls-2" x1="124.44" y1="-14.11" x2="-2.34" y2="112.66"/>
    </g>
  </g>
</svg>