<?xml version="1.0" encoding="UTF-8"?>
<svg id="_Слой_1" data-name="Слой 1" xmlns="http://www.w3.org/2000/svg" xmlns:xlink="http://www.w3.org/1999/xlink" viewBox="0 0 95.75 8.43">
  <defs>
    <style>
      .cls-1, .cls-2, .cls-3, .cls-4 {
        fill: none;
      }

      .cls-2 {
        stroke: #010101;
        stroke-miterlimit: 10;
        stroke-width: .25px;
      }

      .cls-3 {
        clip-path: url(#clippath);
      }

      .cls-4 {
        clip-path: url(#clippath-1);
      }

      .cls-5 {
        fill: #010101;
      }
    </style>
    <clipPath id="clippath">
      <path class="cls-1" d="m81.07,0v2.84h-1.26V0h-14.9v2.84h-1.26V0h-15.15v2.84h-1.26V0h-14.91v2.84h-1.26V0h-14.91v2.84h-1.26V0H0v8.43h95.75V0h-14.68Z"/>
    </clipPath>
    <clipPath id="clippath-1">
      <path class="cls-1" d="m231.2-.13v3.02h-1.26V-.13h-7.64v3.02h-1.26V-.13h-7.45v3.02h-1.26V-.13h-7.45v3.02h-1.26V-.13h-7.45v3.02h-1.26V-.13h-7.18v3.02h-1.26V-.13h-7.72v3.02h-1.26V-.13h-7.45v3.02h-1.26V-.13h-7.45v3.02h-1.26V-.13h-7.45v3.02h-1.26V-.13h-7.45v8.26h94.54V-.13h-7.26Z"/>
    </clipPath>
  </defs>
  <g class="cls-3">
    <g>
      <line class="cls-2" x1="67.18" y1="-70.04" x2="-59.59" y2="56.73"/>
      <line class="cls-2" x1="68.02" y1="-69.2" x2="-58.75" y2="57.57"/>
      <line class="cls-2" x1="68.86" y1="-68.37" x2="-57.91" y2="58.41"/>
      <line class="cls-2" x1="69.7" y1="-67.53" x2="-57.07" y2="59.24"/>
      <line class="cls-2" x1="70.54" y1="-66.69" x2="-56.24" y2="60.08"/>
      <line class="cls-2" x1="71.37" y1="-65.85" x2="-55.4" y2="60.92"/>
      <line class="cls-2" x1="72.21" y1="-65.01" x2="-54.56" y2="61.76"/>
      <line class="cls-2" x1="73.05" y1="-64.18" x2="-53.72" y2="62.6"/>
      <line class="cls-2" x1="73.89" y1="-63.34" x2="-52.88" y2="63.43"/>
      <line class="cls-2" x1="74.73" y1="-62.5" x2="-52.04" y2="64.27"/>
      <line class="cls-2" x1="75.57" y1="-61.66" x2="-51.21" y2="65.11"/>
      <line class="cls-2" x1="76.4" y1="-60.82" x2="-50.37" y2="65.95"/>
      <line class="cls-2" x1="77.24" y1="-59.98" x2="-49.53" y2="66.79"/>
      <line class="cls-2" x1="78.08" y1="-59.15" x2="-48.69" y2="67.63"/>
      <line class="cls-2" x1="78.92" y1="-58.31" x2="-47.85" y2="68.46"/>
      <line class="cls-2" x1="79.76" y1="-57.47" x2="-47.02" y2="69.3"/>
      <line class="cls-2" x1="80.59" y1="-56.63" x2="-46.18" y2="70.14"/>
      <line class="cls-2" x1="81.43" y1="-55.79" x2="-45.34" y2="70.98"/>
      <line class="cls-2" x1="82.27" y1="-54.95" x2="-44.5" y2="71.82"/>
      <line class="cls-2" x1="83.11" y1="-54.12" x2="-43.66" y2="72.66"/>
      <line class="cls-2" x1="83.95" y1="-53.28" x2="-42.82" y2="73.49"/>
      <line class="cls-2" x1="84.79" y1="-52.44" x2="-41.99" y2="74.33"/>
      <line class="cls-2" x1="85.62" y1="-51.6" x2="-41.15" y2="75.17"/>
      <line class="cls-2" x1="86.46" y1="-50.76" x2="-40.31" y2="76.01"/>
      <line class="cls-2" x1="87.3" y1="-49.93" x2="-39.47" y2="76.85"/>
      <line class="cls-2" x1="88.14" y1="-49.09" x2="-38.63" y2="77.68"/>
      <line class="cls-2" x1="88.98" y1="-48.25" x2="-37.79" y2="78.52"/>
      <line class="cls-2" x1="89.82" y1="-47.41" x2="-36.96" y2="79.36"/>
      <line class="cls-2" x1="90.65" y1="-46.57" x2="-36.12" y2="80.2"/>
      <line class="cls-2" x1="91.49" y1="-45.73" x2="-35.28" y2="81.04"/>
      <line class="cls-2" x1="92.33" y1="-44.9" x2="-34.44" y2="81.88"/>
      <line class="cls-2" x1="93.17" y1="-44.06" x2="-33.6" y2="82.71"/>
      <line class="cls-2" x1="94.01" y1="-43.22" x2="-32.77" y2="83.55"/>
      <line class="cls-2" x1="94.84" y1="-42.38" x2="-31.93" y2="84.39"/>
      <line class="cls-2" x1="95.68" y1="-41.54" x2="-31.09" y2="85.23"/>
      <line class="cls-2" x1="96.52" y1="-40.7" x2="-30.25" y2="86.07"/>
      <line class="cls-2" x1="97.36" y1="-39.87" x2="-29.41" y2="86.91"/>
      <line class="cls-2" x1="98.2" y1="-39.03" x2="-28.57" y2="87.74"/>
      <line class="cls-2" x1="99.04" y1="-38.19" x2="-27.74" y2="88.58"/>
      <line class="cls-2" x1="99.87" y1="-37.35" x2="-26.9" y2="89.42"/>
      <line class="cls-2" x1="100.71" y1="-36.51" x2="-26.06" y2="90.26"/>
      <line class="cls-2" x1="101.55" y1="-35.68" x2="-25.22" y2="91.1"/>
      <line class="cls-2" x1="102.39" y1="-34.84" x2="-24.38" y2="91.93"/>
      <line class="cls-2" x1="103.23" y1="-34" x2="-23.54" y2="92.77"/>
      <line class="cls-2" x1="104.07" y1="-33.16" x2="-22.71" y2="93.61"/>
      <line class="cls-2" x1="104.9" y1="-32.32" x2="-21.87" y2="94.45"/>
      <line class="cls-2" x1="105.74" y1="-31.48" x2="-21.03" y2="95.29"/>
      <line class="cls-2" x1="106.58" y1="-30.65" x2="-20.19" y2="96.13"/>
      <line class="cls-2" x1="107.42" y1="-29.81" x2="-19.35" y2="96.96"/>
      <line class="cls-2" x1="108.26" y1="-28.97" x2="-18.52" y2="97.8"/>
      <line class="cls-2" x1="109.09" y1="-28.13" x2="-17.68" y2="98.64"/>
      <line class="cls-2" x1="109.93" y1="-27.29" x2="-16.84" y2="99.48"/>
      <line class="cls-2" x1="110.77" y1="-26.45" x2="-16" y2="100.32"/>
      <line class="cls-2" x1="111.61" y1="-25.62" x2="-15.16" y2="101.16"/>
      <line class="cls-2" x1="112.45" y1="-24.78" x2="-14.32" y2="101.99"/>
      <line class="cls-2" x1="113.29" y1="-23.94" x2="-13.49" y2="102.83"/>
      <line class="cls-2" x1="114.12" y1="-23.1" x2="-12.65" y2="103.67"/>
      <line class="cls-2" x1="114.96" y1="-22.26" x2="-11.81" y2="104.51"/>
      <line class="cls-2" x1="115.8" y1="-21.43" x2="-10.97" y2="105.35"/>
      <line class="cls-2" x1="116.64" y1="-20.59" x2="-10.13" y2="106.18"/>
      <line class="cls-2" x1="117.48" y1="-19.75" x2="-9.29" y2="107.02"/>
      <line class="cls-2" x1="118.32" y1="-18.91" x2="-8.46" y2="107.86"/>
      <line class="cls-2" x1="119.15" y1="-18.07" x2="-7.62" y2="108.7"/>
      <line class="cls-2" x1="119.99" y1="-17.23" x2="-6.78" y2="109.54"/>
      <line class="cls-2" x1="120.83" y1="-16.4" x2="-5.94" y2="110.38"/>
      <line class="cls-2" x1="121.67" y1="-15.56" x2="-5.1" y2="111.21"/>
      <line class="cls-2" x1="122.51" y1="-14.72" x2="-4.27" y2="112.05"/>
      <line class="cls-2" x1="123.34" y1="-13.88" x2="-3.43" y2="112.89"/>
      <line class="cls-2" x1="124.18" y1="-13.04" x2="-2.59" y2="113.73"/>
    </g>
  </g>
  <path class="cls-5" d="m79.81,3.47h1.89V.64h13.41v7.16H.63V.64h13.64v2.84h2.53V.64h13.64v2.84h2.53V.64h13.64v2.84h2.53V.64h13.88v2.84h2.53V.64h13.63v2.84h.64Zm1.26-3.47v2.84h-1.26V0h-14.9v2.84h-1.26V0h-15.15v2.84h-1.26V0h-14.91v2.84h-1.26V0h-14.91v2.84h-1.26V0H0v8.43h95.75V0h-14.68Z"/>
  <g class="cls-4">
    <g>
      <line class="cls-2" x1="211.36" y1="-71.24" x2="84.58" y2="55.53"/>
      <line class="cls-2" x1="212.19" y1="-70.4" x2="85.42" y2="56.37"/>
      <line class="cls-2" x1="213.03" y1="-69.56" x2="86.26" y2="57.21"/>
      <line class="cls-2" x1="213.87" y1="-68.73" x2="87.1" y2="58.05"/>
      <line class="cls-2" x1="214.71" y1="-67.89" x2="87.94" y2="58.89"/>
      <line class="cls-2" x1="215.55" y1="-67.05" x2="88.78" y2="59.72"/>
      <line class="cls-2" x1="216.39" y1="-66.21" x2="89.61" y2="60.56"/>
      <line class="cls-2" x1="217.22" y1="-65.37" x2="90.45" y2="61.4"/>
      <line class="cls-2" x1="218.06" y1="-64.53" x2="91.29" y2="62.24"/>
      <line class="cls-2" x1="218.9" y1="-63.7" x2="92.13" y2="63.08"/>
      <line class="cls-2" x1="219.74" y1="-62.86" x2="92.97" y2="63.91"/>
      <line class="cls-2" x1="220.58" y1="-62.02" x2="93.81" y2="64.75"/>
      <line class="cls-2" x1="221.42" y1="-61.18" x2="94.64" y2="65.59"/>
      <line class="cls-2" x1="222.25" y1="-60.34" x2="95.48" y2="66.43"/>
    </g>
  </g>
</svg>