<?xml version="1.0" encoding="UTF-8"?>
<svg id="_Слой_1" data-name="Слой 1" xmlns="http://www.w3.org/2000/svg" xmlns:xlink="http://www.w3.org/1999/xlink" viewBox="0 0 94.55 93.78">
  <defs>
    <style>
      .cls-1 {
        clip-path: url(#clippath-2);
      }

      .cls-1, .cls-2, .cls-3, .cls-4, .cls-5 {
        fill: none;
      }

      .cls-3 {
        stroke: #010101;
        stroke-miterlimit: 10;
        stroke-width: .25px;
      }

      .cls-4 {
        clip-path: url(#clippath);
      }

      .cls-5 {
        clip-path: url(#clippath-1);
      }

      .cls-6 {
        fill: #010101;
      }
    </style>
    <clipPath id="clippath">
      <path class="cls-2" d="m4.5-67.41v2.39h-2.07v5.25H-2.32v-7.63h6.82Zm1.89,0v2.39h2.1v5.25h2.75v-5.25h1.97v-2.39h-6.82Zm8.72,0v2.39h2.2v5.25h2.46v-5.25h2.15v-2.39h-6.82Zm8.72,0v2.39h2.02v5.25h2.69v-5.25h2.11v-2.39h-6.82Zm8.72,0v2.39h2.06v5.25h2.93v-5.25h2.1v-2.39h-7.09Zm8.98,0v2.39h2.08v5.25h2.41v-5.25h2.07v-2.39h-6.56Zm8.45,0v2.39h2.11v5.25h2.63v-5.25h2.09v-2.39h-6.82Zm8.72,0v2.39h2.08v5.25h2.75v-5.25h1.99v-2.39h-6.82Zm8.72,0v2.39h2.18v5.25h2.6v-5.25h2.05v-2.39h-6.82Zm8.72,0v2.39h2.13v5.25h2.9v-5.25h1.98v-2.39h-7.01Zm8.91,0v2.39h2.19v5.25h4.45v-7.63h-6.63Z"/>
    </clipPath>
    <clipPath id="clippath-1">
      <path class="cls-2" d="m222.12,124.64h2.27v-2.83h13.4v7.15h-94.37v-7.15h13.24v2.83h2.91v-2.83h13.29v2.83h2.85v-2.83h13.29v2.83h2.86v-2.83h13.29v2.83h3.1v-2.83h13.23v2.83h.63Z"/>
    </clipPath>
    <clipPath id="clippath-2">
      <path class="cls-2" d="m87.28,121.96v3.02h-1.26v-3.02h-7.64v3.02h-1.26v-3.02h-7.45v3.02h-1.26v-3.02h-7.45v3.02h-1.26v-3.02h-7.45v3.02h-1.26v-3.02h-7.18v3.02h-1.26v-3.02h-7.72v3.02h-1.26v-3.02h-7.45v3.02h-1.26v-3.02h-7.45v3.02h-1.26v-3.02h-7.45v3.02h-1.26v-3.02H0v8.26h94.54v-8.26h-7.26Z"/>
    </clipPath>
  </defs>
  <path class="cls-6" d="m87.09,0H0v93.78h94.55V0h-7.45ZM.64,93.15V.63h6.18v92.51H.64Zm6.82,0V.63h1.26v92.51h-1.26Zm1.89,0V.63h6.18v92.51h-6.18Zm6.82,0V.63h1.26v92.51h-1.26Zm1.89,0V.63h6.18v92.51h-6.18Zm6.82,0V.63h1.26v92.51h-1.26Zm1.89,0V.63h6.18v92.51h-6.18Zm6.82,0V.63h1.26v92.51h-1.26Zm1.89,0V.63h6.18v92.51h-6.18Zm6.82,0V.63h1.26v92.51h-1.26Zm1.89,0V.63h6.18v92.51h-6.18Zm6.82,0V.63h1.26v92.51h-1.26Zm1.89,0V.63h6.18v92.51h-6.18Zm6.82,0V.63h1.26v92.51h-1.26Zm1.89,0V.63h6.18v92.51h-6.18Zm6.82,0V.63h1.26v92.51h-1.26Zm1.89,0V.63h6.18v92.51h-6.18Zm6.82,0V.63h1.26v92.51h-1.26Zm1.89,0V.63h6.18v92.51h-6.18Zm6.82,0V.63h1.26v92.51h-1.26Zm8.08,0h-6.18V.63h6.18v92.51Z"/>
  <g class="cls-4">
    <g>
      <line class="cls-3" x1="99.41" y1="-126.52" x2="-27.36" y2=".26"/>
      <line class="cls-3" x1="100.25" y1="-125.68" x2="-26.52" y2="1.09"/>
      <line class="cls-3" x1="101.09" y1="-124.84" x2="-25.69" y2="1.93"/>
      <line class="cls-3" x1="101.92" y1="-124" x2="-24.85" y2="2.77"/>
      <line class="cls-3" x1="102.76" y1="-123.16" x2="-24.01" y2="3.61"/>
      <line class="cls-3" x1="103.6" y1="-122.32" x2="-23.17" y2="4.45"/>
      <line class="cls-3" x1="104.44" y1="-121.49" x2="-22.33" y2="5.29"/>
      <line class="cls-3" x1="105.28" y1="-120.65" x2="-21.49" y2="6.12"/>
      <line class="cls-3" x1="106.12" y1="-119.81" x2="-20.66" y2="6.96"/>
      <line class="cls-3" x1="106.95" y1="-118.97" x2="-19.82" y2="7.8"/>
      <line class="cls-3" x1="107.79" y1="-118.13" x2="-18.98" y2="8.64"/>
      <line class="cls-3" x1="108.63" y1="-117.3" x2="-18.14" y2="9.48"/>
      <line class="cls-3" x1="109.47" y1="-116.46" x2="-17.3" y2="10.31"/>
      <line class="cls-3" x1="110.31" y1="-115.62" x2="-16.46" y2="11.15"/>
      <line class="cls-3" x1="111.15" y1="-114.78" x2="-15.63" y2="11.99"/>
      <line class="cls-3" x1="111.98" y1="-113.94" x2="-14.79" y2="12.83"/>
      <line class="cls-3" x1="112.82" y1="-113.1" x2="-13.95" y2="13.67"/>
      <line class="cls-3" x1="113.66" y1="-112.27" x2="-13.11" y2="14.51"/>
      <line class="cls-3" x1="114.5" y1="-111.43" x2="-12.27" y2="15.34"/>
      <line class="cls-3" x1="115.34" y1="-110.59" x2="-11.44" y2="16.18"/>
      <line class="cls-3" x1="116.17" y1="-109.75" x2="-10.6" y2="17.02"/>
      <line class="cls-3" x1="117.01" y1="-108.91" x2="-9.76" y2="17.86"/>
      <line class="cls-3" x1="117.85" y1="-108.07" x2="-8.92" y2="18.7"/>
      <line class="cls-3" x1="118.69" y1="-107.24" x2="-8.08" y2="19.54"/>
      <line class="cls-3" x1="119.53" y1="-106.4" x2="-7.24" y2="20.37"/>
      <line class="cls-3" x1="120.37" y1="-105.56" x2="-6.41" y2="21.21"/>
      <line class="cls-3" x1="121.2" y1="-104.72" x2="-5.57" y2="22.05"/>
      <line class="cls-3" x1="122.04" y1="-103.88" x2="-4.73" y2="22.89"/>
      <line class="cls-3" x1="122.88" y1="-103.05" x2="-3.89" y2="23.73"/>
      <line class="cls-3" x1="123.72" y1="-102.21" x2="-3.05" y2="24.56"/>
      <line class="cls-3" x1="124.56" y1="-101.37" x2="-2.21" y2="25.4"/>
      <line class="cls-3" x1="125.4" y1="-100.53" x2="-1.38" y2="26.24"/>
      <line class="cls-3" x1="126.23" y1="-99.69" x2="-.54" y2="27.08"/>
      <line class="cls-3" x1="127.07" y1="-98.85" x2=".3" y2="27.92"/>
      <line class="cls-3" x1="127.91" y1="-98.02" x2="1.14" y2="28.76"/>
      <line class="cls-3" x1="128.75" y1="-97.18" x2="1.98" y2="29.59"/>
      <line class="cls-3" x1="129.59" y1="-96.34" x2="2.81" y2="30.43"/>
      <line class="cls-3" x1="130.42" y1="-95.5" x2="3.65" y2="31.27"/>
    </g>
  </g>
  <g class="cls-5">
    <g>
      <line class="cls-3" x1="208.88" y1="52.59" x2="82.11" y2="179.36"/>
      <line class="cls-3" x1="209.72" y1="53.43" x2="82.95" y2="180.2"/>
      <line class="cls-3" x1="210.56" y1="54.27" x2="83.79" y2="181.04"/>
      <line class="cls-3" x1="211.4" y1="55.1" x2="84.63" y2="181.88"/>
      <line class="cls-3" x1="212.24" y1="55.94" x2="85.46" y2="182.71"/>
      <line class="cls-3" x1="213.07" y1="56.78" x2="86.3" y2="183.55"/>
      <line class="cls-3" x1="213.91" y1="57.62" x2="87.14" y2="184.39"/>
      <line class="cls-3" x1="214.75" y1="58.46" x2="87.98" y2="185.23"/>
      <line class="cls-3" x1="215.59" y1="59.3" x2="88.82" y2="186.07"/>
      <line class="cls-3" x1="216.43" y1="60.13" x2="89.66" y2="186.91"/>
      <line class="cls-3" x1="217.27" y1="60.97" x2="90.49" y2="187.74"/>
      <line class="cls-3" x1="218.1" y1="61.81" x2="91.33" y2="188.58"/>
      <line class="cls-3" x1="218.94" y1="62.65" x2="92.17" y2="189.42"/>
      <line class="cls-3" x1="219.78" y1="63.49" x2="93.01" y2="190.26"/>
      <line class="cls-3" x1="220.62" y1="64.32" x2="93.85" y2="191.1"/>
    </g>
  </g>
  <g class="cls-1">
    <g>
      <line class="cls-3" x1="67.44" y1="50.85" x2="-59.34" y2="177.62"/>
      <line class="cls-3" x1="68.27" y1="51.69" x2="-58.5" y2="178.46"/>
      <line class="cls-3" x1="69.11" y1="52.53" x2="-57.66" y2="179.3"/>
      <line class="cls-3" x1="69.95" y1="53.36" x2="-56.82" y2="180.14"/>
      <line class="cls-3" x1="70.79" y1="54.2" x2="-55.98" y2="180.98"/>
      <line class="cls-3" x1="71.63" y1="55.04" x2="-55.14" y2="181.81"/>
      <line class="cls-3" x1="72.47" y1="55.88" x2="-54.31" y2="182.65"/>
      <line class="cls-3" x1="73.3" y1="56.72" x2="-53.47" y2="183.49"/>
      <line class="cls-3" x1="74.14" y1="57.56" x2="-52.63" y2="184.33"/>
      <line class="cls-3" x1="74.98" y1="58.39" x2="-51.79" y2="185.17"/>
      <line class="cls-3" x1="75.82" y1="59.23" x2="-50.95" y2="186"/>
      <line class="cls-3" x1="76.66" y1="60.07" x2="-50.12" y2="186.84"/>
      <line class="cls-3" x1="77.49" y1="60.91" x2="-49.28" y2="187.68"/>
      <line class="cls-3" x1="78.33" y1="61.75" x2="-48.44" y2="188.52"/>
      <line class="cls-3" x1="79.17" y1="62.59" x2="-47.6" y2="189.36"/>
      <line class="cls-3" x1="80.01" y1="63.42" x2="-46.76" y2="190.2"/>
      <line class="cls-3" x1="80.85" y1="64.26" x2="-45.92" y2="191.03"/>
      <line class="cls-3" x1="81.69" y1="65.1" x2="-45.09" y2="191.87"/>
      <line class="cls-3" x1="82.52" y1="65.94" x2="-44.25" y2="192.71"/>
      <line class="cls-3" x1="83.36" y1="66.78" x2="-43.41" y2="193.55"/>
      <line class="cls-3" x1="84.2" y1="67.61" x2="-42.57" y2="194.39"/>
      <line class="cls-3" x1="85.04" y1="68.45" x2="-41.73" y2="195.23"/>
      <line class="cls-3" x1="85.88" y1="69.29" x2="-40.89" y2="196.06"/>
      <line class="cls-3" x1="86.72" y1="70.13" x2="-40.06" y2="196.9"/>
      <line class="cls-3" x1="87.55" y1="70.97" x2="-39.22" y2="197.74"/>
      <line class="cls-3" x1="88.39" y1="71.81" x2="-38.38" y2="198.58"/>
      <line class="cls-3" x1="89.23" y1="72.64" x2="-37.54" y2="199.42"/>
      <line class="cls-3" x1="90.07" y1="73.48" x2="-36.7" y2="200.25"/>
      <line class="cls-3" x1="90.91" y1="74.32" x2="-35.87" y2="201.09"/>
      <line class="cls-3" x1="91.74" y1="75.16" x2="-35.03" y2="201.93"/>
      <line class="cls-3" x1="92.58" y1="76" x2="-34.19" y2="202.77"/>
      <line class="cls-3" x1="93.42" y1="76.84" x2="-33.35" y2="203.61"/>
      <line class="cls-3" x1="94.26" y1="77.67" x2="-32.51" y2="204.45"/>
      <line class="cls-3" x1="95.1" y1="78.51" x2="-31.67" y2="205.28"/>
      <line class="cls-3" x1="95.94" y1="79.35" x2="-30.84" y2="206.12"/>
      <line class="cls-3" x1="96.77" y1="80.19" x2="-30" y2="206.96"/>
      <line class="cls-3" x1="97.61" y1="81.03" x2="-29.16" y2="207.8"/>
      <line class="cls-3" x1="98.45" y1="81.86" x2="-28.32" y2="208.64"/>
      <line class="cls-3" x1="99.29" y1="82.7" x2="-27.48" y2="209.48"/>
      <line class="cls-3" x1="100.13" y1="83.54" x2="-26.64" y2="210.31"/>
      <line class="cls-3" x1="100.97" y1="84.38" x2="-25.81" y2="211.15"/>
      <line class="cls-3" x1="101.8" y1="85.22" x2="-24.97" y2="211.99"/>
      <line class="cls-3" x1="102.64" y1="86.06" x2="-24.13" y2="212.83"/>
      <line class="cls-3" x1="103.48" y1="86.89" x2="-23.29" y2="213.67"/>
      <line class="cls-3" x1="104.32" y1="87.73" x2="-22.45" y2="214.5"/>
      <line class="cls-3" x1="105.16" y1="88.57" x2="-21.62" y2="215.34"/>
      <line class="cls-3" x1="105.99" y1="89.41" x2="-20.78" y2="216.18"/>
      <line class="cls-3" x1="106.83" y1="90.25" x2="-19.94" y2="217.02"/>
      <line class="cls-3" x1="107.67" y1="91.09" x2="-19.1" y2="217.86"/>
      <line class="cls-3" x1="108.51" y1="91.92" x2="-18.26" y2="218.7"/>
      <line class="cls-3" x1="109.35" y1="92.76" x2="-17.42" y2="219.53"/>
      <line class="cls-3" x1="110.19" y1="93.6" x2="-16.59" y2="220.37"/>
    </g>
  </g>
</svg>