<?xml version="1.0" encoding="UTF-8"?>
<svg id="_Слой_1" data-name="Слой 1" xmlns="http://www.w3.org/2000/svg" xmlns:xlink="http://www.w3.org/1999/xlink" viewBox="0 0 95.64 8.42">
  <defs>
    <style>
      .cls-1, .cls-2, .cls-3 {
        fill: none;
      }

      .cls-2 {
        stroke: #010101;
        stroke-miterlimit: 10;
        stroke-width: .25px;
      }

      .cls-3 {
        clip-path: url(#clippath);
      }

      .cls-4 {
        fill: #010101;
      }
    </style>
    <clipPath id="clippath">
      <path class="cls-1" d="m79.33,3.47h2.27V.63h13.4v7.15H.63V.63h13.24v2.83h2.91V.63h13.29v2.83h2.85V.63h13.29v2.83h2.86V.63h13.29v2.83h3.1V.63h13.23v2.83h.63Z"/>
    </clipPath>
  </defs>
  <path class="cls-4" d="m79.33,3.47h2.27V.63h13.4v7.15H.63V.63h13.24v2.83h2.91V.63h13.29v2.83h2.85V.63h13.29v2.83h2.86V.63h13.29v2.83h3.1V.63h13.23v2.83h.63Zm1.64-3.47v2.83h-1.64V0h-14.5v2.83h-1.83V0h-14.56v2.83h-1.59V0h-14.56v2.83h-1.59V0h-14.56v2.83h-1.64V0H0v8.42h95.64V0h-14.67Z"/>
  <g class="cls-3">
    <g>
      <line class="cls-2" x1="66.09" y1="-68.58" x2="-60.68" y2="58.19"/>
      <line class="cls-2" x1="66.93" y1="-67.74" x2="-59.84" y2="59.03"/>
      <line class="cls-2" x1="67.77" y1="-66.9" x2="-59.01" y2="59.87"/>
      <line class="cls-2" x1="68.6" y1="-66.07" x2="-58.17" y2="60.71"/>
      <line class="cls-2" x1="69.44" y1="-65.23" x2="-57.33" y2="61.54"/>
      <line class="cls-2" x1="70.28" y1="-64.39" x2="-56.49" y2="62.38"/>
      <line class="cls-2" x1="71.12" y1="-63.55" x2="-55.65" y2="63.22"/>
      <line class="cls-2" x1="71.96" y1="-62.71" x2="-54.81" y2="64.06"/>
      <line class="cls-2" x1="72.8" y1="-61.87" x2="-53.98" y2="64.9"/>
      <line class="cls-2" x1="73.63" y1="-61.04" x2="-53.14" y2="65.74"/>
      <line class="cls-2" x1="74.47" y1="-60.2" x2="-52.3" y2="66.57"/>
      <line class="cls-2" x1="75.31" y1="-59.36" x2="-51.46" y2="67.41"/>
      <line class="cls-2" x1="76.15" y1="-58.52" x2="-50.62" y2="68.25"/>
      <line class="cls-2" x1="76.99" y1="-57.68" x2="-49.79" y2="69.09"/>
      <line class="cls-2" x1="77.83" y1="-56.85" x2="-48.95" y2="69.93"/>
      <line class="cls-2" x1="78.66" y1="-56.01" x2="-48.11" y2="70.76"/>
      <line class="cls-2" x1="79.5" y1="-55.17" x2="-47.27" y2="71.6"/>
      <line class="cls-2" x1="80.34" y1="-54.33" x2="-46.43" y2="72.44"/>
      <line class="cls-2" x1="81.18" y1="-53.49" x2="-45.59" y2="73.28"/>
      <line class="cls-2" x1="82.02" y1="-52.65" x2="-44.76" y2="74.12"/>
      <line class="cls-2" x1="82.85" y1="-51.82" x2="-43.92" y2="74.96"/>
      <line class="cls-2" x1="83.69" y1="-50.98" x2="-43.08" y2="75.79"/>
      <line class="cls-2" x1="84.53" y1="-50.14" x2="-42.24" y2="76.63"/>
      <line class="cls-2" x1="85.37" y1="-49.3" x2="-41.4" y2="77.47"/>
      <line class="cls-2" x1="86.21" y1="-48.46" x2="-40.56" y2="78.31"/>
      <line class="cls-2" x1="87.05" y1="-47.62" x2="-39.73" y2="79.15"/>
      <line class="cls-2" x1="87.88" y1="-46.79" x2="-38.89" y2="79.99"/>
      <line class="cls-2" x1="88.72" y1="-45.95" x2="-38.05" y2="80.82"/>
      <line class="cls-2" x1="89.56" y1="-45.11" x2="-37.21" y2="81.66"/>
      <line class="cls-2" x1="90.4" y1="-44.27" x2="-36.37" y2="82.5"/>
      <line class="cls-2" x1="91.24" y1="-43.43" x2="-35.54" y2="83.34"/>
      <line class="cls-2" x1="92.08" y1="-42.6" x2="-34.7" y2="84.18"/>
      <line class="cls-2" x1="92.91" y1="-41.76" x2="-33.86" y2="85.01"/>
      <line class="cls-2" x1="93.75" y1="-40.92" x2="-33.02" y2="85.85"/>
      <line class="cls-2" x1="94.59" y1="-40.08" x2="-32.18" y2="86.69"/>
      <line class="cls-2" x1="95.43" y1="-39.24" x2="-31.34" y2="87.53"/>
      <line class="cls-2" x1="96.27" y1="-38.4" x2="-30.51" y2="88.37"/>
      <line class="cls-2" x1="97.1" y1="-37.57" x2="-29.67" y2="89.21"/>
      <line class="cls-2" x1="97.94" y1="-36.73" x2="-28.83" y2="90.04"/>
      <line class="cls-2" x1="98.78" y1="-35.89" x2="-27.99" y2="90.88"/>
      <line class="cls-2" x1="99.62" y1="-35.05" x2="-27.15" y2="91.72"/>
      <line class="cls-2" x1="100.46" y1="-34.21" x2="-26.31" y2="92.56"/>
      <line class="cls-2" x1="101.3" y1="-33.37" x2="-25.48" y2="93.4"/>
      <line class="cls-2" x1="102.13" y1="-32.54" x2="-24.64" y2="94.24"/>
      <line class="cls-2" x1="102.97" y1="-31.7" x2="-23.8" y2="95.07"/>
      <line class="cls-2" x1="103.81" y1="-30.86" x2="-22.96" y2="95.91"/>
      <line class="cls-2" x1="104.65" y1="-30.02" x2="-22.12" y2="96.75"/>
      <line class="cls-2" x1="105.49" y1="-29.18" x2="-21.29" y2="97.59"/>
      <line class="cls-2" x1="106.33" y1="-28.35" x2="-20.45" y2="98.43"/>
      <line class="cls-2" x1="107.16" y1="-27.51" x2="-19.61" y2="99.26"/>
      <line class="cls-2" x1="108" y1="-26.67" x2="-18.77" y2="100.1"/>
      <line class="cls-2" x1="108.84" y1="-25.83" x2="-17.93" y2="100.94"/>
      <line class="cls-2" x1="109.68" y1="-24.99" x2="-17.09" y2="101.78"/>
      <line class="cls-2" x1="110.52" y1="-24.15" x2="-16.26" y2="102.62"/>
      <line class="cls-2" x1="111.35" y1="-23.32" x2="-15.42" y2="103.46"/>
      <line class="cls-2" x1="112.19" y1="-22.48" x2="-14.58" y2="104.29"/>
      <line class="cls-2" x1="113.03" y1="-21.64" x2="-13.74" y2="105.13"/>
      <line class="cls-2" x1="113.87" y1="-20.8" x2="-12.9" y2="105.97"/>
      <line class="cls-2" x1="114.71" y1="-19.96" x2="-12.06" y2="106.81"/>
      <line class="cls-2" x1="115.55" y1="-19.12" x2="-11.23" y2="107.65"/>
      <line class="cls-2" x1="116.38" y1="-18.29" x2="-10.39" y2="108.49"/>
      <line class="cls-2" x1="117.22" y1="-17.45" x2="-9.55" y2="109.32"/>
      <line class="cls-2" x1="118.06" y1="-16.61" x2="-8.71" y2="110.16"/>
      <line class="cls-2" x1="118.9" y1="-15.77" x2="-7.87" y2="111"/>
      <line class="cls-2" x1="119.74" y1="-14.93" x2="-7.04" y2="111.84"/>
      <line class="cls-2" x1="120.58" y1="-14.1" x2="-6.2" y2="112.68"/>
      <line class="cls-2" x1="121.41" y1="-13.26" x2="-5.36" y2="113.51"/>
      <line class="cls-2" x1="122.25" y1="-12.42" x2="-4.52" y2="114.35"/>
      <line class="cls-2" x1="123.09" y1="-11.58" x2="-3.68" y2="115.19"/>
    </g>
  </g>
</svg>