<?xml version="1.0" encoding="UTF-8"?>
<svg id="_Слой_1" data-name="Слой 1" xmlns="http://www.w3.org/2000/svg" xmlns:xlink="http://www.w3.org/1999/xlink" viewBox="0 0 95.63 93.72">
  <defs>
    <style>
      .cls-1, .cls-2, .cls-3, .cls-4 {
        fill: none;
      }

      .cls-2 {
        stroke: #010101;
        stroke-miterlimit: 10;
        stroke-width: .25px;
      }

      .cls-3 {
        clip-path: url(#clippath);
      }

      .cls-4 {
        clip-path: url(#clippath-1);
      }

      .cls-5 {
        fill: #010101;
      }
    </style>
    <clipPath id="clippath">
      <path class="cls-1" d="m11.41-67.61v2.2h-1.97v5.59H-2.47v-7.79h13.88Zm2.28,0v2.2h1.82v5.59h10.18v-5.59h1.94v-2.2h-13.94Zm16.16,0v2.2h1.91v5.59h10.16v-5.59h1.87v-2.2h-13.94Zm16.16,0v2.2h1.98v5.59h10.2v-5.59h1.76v-2.2h-13.94Zm16.4,0v2.2h1.85v5.59h10.2v-5.59h1.83v-2.2h-13.87Zm16.15,0v2.2h1.97v5.59h12.07v-7.79h-14.04Z"/>
    </clipPath>
    <clipPath id="clippath-1">
      <path class="cls-1" d="m79.33,124.62h2.27v-2.83h13.4v7.15H.63v-7.15h13.24v2.83h2.91v-2.83h13.29v2.83h2.85v-2.83h13.29v2.83h2.86v-2.83h13.29v2.83h3.1v-2.83h13.23v2.83h.63Z"/>
    </clipPath>
  </defs>
  <path class="cls-5" d="m95.42,0H0v93.72h95.63V0h-.22ZM.63,93.08V.63h13.14v92.45H.63Zm13.77,0V.63h1.8v92.45h-1.8Zm2.43,0V.63h13.14v92.45h-13.14Zm13.77,0V.63h1.8v92.45h-1.8Zm2.43,0V.63h13.14v92.45h-13.14Zm13.77,0V.63h1.8v92.45h-1.8Zm2.43,0V.63h13.14v92.45h-13.14Zm13.77,0V.63h1.8v92.45h-1.8Zm2.43,0V.63h13.14v92.45h-13.14Zm13.77,0V.63h1.8v92.45h-1.8Zm2.43,0V.63h13.14v92.45h-13.14Z"/>
  <g class="cls-3">
    <g>
      <line class="cls-2" x1="116.08" y1="-126.8" x2="-10.69" y2="-.03"/>
      <line class="cls-2" x1="116.92" y1="-125.97" x2="-9.85" y2=".81"/>
      <line class="cls-2" x1="117.76" y1="-125.13" x2="-9.01" y2="1.64"/>
      <line class="cls-2" x1="118.6" y1="-124.29" x2="-8.18" y2="2.48"/>
      <line class="cls-2" x1="119.43" y1="-123.45" x2="-7.34" y2="3.32"/>
      <line class="cls-2" x1="120.27" y1="-122.61" x2="-6.5" y2="4.16"/>
      <line class="cls-2" x1="121.11" y1="-121.77" x2="-5.66" y2="5"/>
      <line class="cls-2" x1="121.95" y1="-120.94" x2="-4.82" y2="5.84"/>
      <line class="cls-2" x1="122.79" y1="-120.1" x2="-3.99" y2="6.67"/>
      <line class="cls-2" x1="123.62" y1="-119.26" x2="-3.15" y2="7.51"/>
      <line class="cls-2" x1="124.46" y1="-118.42" x2="-2.31" y2="8.35"/>
      <line class="cls-2" x1="125.3" y1="-117.58" x2="-1.47" y2="9.19"/>
      <line class="cls-2" x1="126.14" y1="-116.74" x2="-.63" y2="10.03"/>
      <line class="cls-2" x1="126.98" y1="-115.91" x2=".21" y2="10.87"/>
      <line class="cls-2" x1="127.82" y1="-115.07" x2="1.04" y2="11.7"/>
      <line class="cls-2" x1="128.65" y1="-114.23" x2="1.88" y2="12.54"/>
      <line class="cls-2" x1="129.49" y1="-113.39" x2="2.72" y2="13.38"/>
      <line class="cls-2" x1="130.33" y1="-112.55" x2="3.56" y2="14.22"/>
      <line class="cls-2" x1="131.17" y1="-111.72" x2="4.4" y2="15.06"/>
      <line class="cls-2" x1="132.01" y1="-110.88" x2="5.24" y2="15.89"/>
      <line class="cls-2" x1="132.85" y1="-110.04" x2="6.07" y2="16.73"/>
      <line class="cls-2" x1="133.68" y1="-109.2" x2="6.91" y2="17.57"/>
      <line class="cls-2" x1="134.52" y1="-108.36" x2="7.75" y2="18.41"/>
      <line class="cls-2" x1="135.36" y1="-107.52" x2="8.59" y2="19.25"/>
      <line class="cls-2" x1="136.2" y1="-106.69" x2="9.43" y2="20.09"/>
      <line class="cls-2" x1="137.04" y1="-105.85" x2="10.26" y2="20.92"/>
      <line class="cls-2" x1="137.87" y1="-105.01" x2="11.1" y2="21.76"/>
      <line class="cls-2" x1="138.71" y1="-104.17" x2="11.94" y2="22.6"/>
      <line class="cls-2" x1="139.55" y1="-103.33" x2="12.78" y2="23.44"/>
      <line class="cls-2" x1="140.39" y1="-102.49" x2="13.62" y2="24.28"/>
    </g>
  </g>
  <g class="cls-4">
    <g>
      <line class="cls-2" x1="66.09" y1="52.57" x2="-60.68" y2="179.34"/>
      <line class="cls-2" x1="66.93" y1="53.41" x2="-59.84" y2="180.18"/>
      <line class="cls-2" x1="67.77" y1="54.24" x2="-59.01" y2="181.02"/>
      <line class="cls-2" x1="68.6" y1="55.08" x2="-58.17" y2="181.86"/>
      <line class="cls-2" x1="69.44" y1="55.92" x2="-57.33" y2="182.69"/>
      <line class="cls-2" x1="70.28" y1="56.76" x2="-56.49" y2="183.53"/>
      <line class="cls-2" x1="71.12" y1="57.6" x2="-55.65" y2="184.37"/>
      <line class="cls-2" x1="71.96" y1="58.44" x2="-54.82" y2="185.21"/>
      <line class="cls-2" x1="72.79" y1="59.27" x2="-53.98" y2="186.05"/>
      <line class="cls-2" x1="73.63" y1="60.11" x2="-53.14" y2="186.88"/>
      <line class="cls-2" x1="74.47" y1="60.95" x2="-52.3" y2="187.72"/>
      <line class="cls-2" x1="75.31" y1="61.79" x2="-51.46" y2="188.56"/>
      <line class="cls-2" x1="76.15" y1="62.63" x2="-50.62" y2="189.4"/>
      <line class="cls-2" x1="76.99" y1="63.47" x2="-49.79" y2="190.24"/>
      <line class="cls-2" x1="77.82" y1="64.3" x2="-48.95" y2="191.08"/>
      <line class="cls-2" x1="78.66" y1="65.14" x2="-48.11" y2="191.91"/>
      <line class="cls-2" x1="79.5" y1="65.98" x2="-47.27" y2="192.75"/>
      <line class="cls-2" x1="80.34" y1="66.82" x2="-46.43" y2="193.59"/>
      <line class="cls-2" x1="81.18" y1="67.66" x2="-45.59" y2="194.43"/>
      <line class="cls-2" x1="82.02" y1="68.49" x2="-44.76" y2="195.27"/>
      <line class="cls-2" x1="82.85" y1="69.33" x2="-43.92" y2="196.11"/>
      <line class="cls-2" x1="83.69" y1="70.17" x2="-43.08" y2="196.94"/>
      <line class="cls-2" x1="84.53" y1="71.01" x2="-42.24" y2="197.78"/>
      <line class="cls-2" x1="85.37" y1="71.85" x2="-41.4" y2="198.62"/>
      <line class="cls-2" x1="86.21" y1="72.69" x2="-40.57" y2="199.46"/>
      <line class="cls-2" x1="87.04" y1="73.52" x2="-39.73" y2="200.3"/>
      <line class="cls-2" x1="87.88" y1="74.36" x2="-38.89" y2="201.13"/>
      <line class="cls-2" x1="88.72" y1="75.2" x2="-38.05" y2="201.97"/>
      <line class="cls-2" x1="89.56" y1="76.04" x2="-37.21" y2="202.81"/>
      <line class="cls-2" x1="90.4" y1="76.88" x2="-36.37" y2="203.65"/>
      <line class="cls-2" x1="91.24" y1="77.72" x2="-35.54" y2="204.49"/>
      <line class="cls-2" x1="92.07" y1="78.55" x2="-34.7" y2="205.33"/>
      <line class="cls-2" x1="92.91" y1="79.39" x2="-33.86" y2="206.16"/>
      <line class="cls-2" x1="93.75" y1="80.23" x2="-33.02" y2="207"/>
      <line class="cls-2" x1="94.59" y1="81.07" x2="-32.18" y2="207.84"/>
      <line class="cls-2" x1="95.43" y1="81.91" x2="-31.34" y2="208.68"/>
      <line class="cls-2" x1="96.27" y1="82.74" x2="-30.51" y2="209.52"/>
      <line class="cls-2" x1="97.1" y1="83.58" x2="-29.67" y2="210.36"/>
      <line class="cls-2" x1="97.94" y1="84.42" x2="-28.83" y2="211.19"/>
      <line class="cls-2" x1="98.78" y1="85.26" x2="-27.99" y2="212.03"/>
      <line class="cls-2" x1="99.62" y1="86.1" x2="-27.15" y2="212.87"/>
      <line class="cls-2" x1="100.46" y1="86.94" x2="-26.32" y2="213.71"/>
      <line class="cls-2" x1="101.29" y1="87.77" x2="-25.48" y2="214.55"/>
      <line class="cls-2" x1="102.13" y1="88.61" x2="-24.64" y2="215.38"/>
      <line class="cls-2" x1="102.97" y1="89.45" x2="-23.8" y2="216.22"/>
      <line class="cls-2" x1="103.81" y1="90.29" x2="-22.96" y2="217.06"/>
      <line class="cls-2" x1="104.65" y1="91.13" x2="-22.12" y2="217.9"/>
      <line class="cls-2" x1="105.49" y1="91.97" x2="-21.29" y2="218.74"/>
      <line class="cls-2" x1="106.32" y1="92.8" x2="-20.45" y2="219.58"/>
      <line class="cls-2" x1="107.16" y1="93.64" x2="-19.61" y2="220.41"/>
    </g>
  </g>
</svg>