<?xml version="1.0" encoding="UTF-8"?>
<svg id="_Слой_1" data-name="Слой 1" xmlns="http://www.w3.org/2000/svg" xmlns:xlink="http://www.w3.org/1999/xlink" viewBox="0 0 95.75 93.83">
  <defs>
    <style>
      .cls-1 {
        clip-path: url(#clippath-3);
      }

      .cls-1, .cls-2, .cls-3, .cls-4, .cls-5 {
        fill: none;
      }

      .cls-3 {
        stroke: #010101;
        stroke-miterlimit: 10;
        stroke-width: .25px;
      }

      .cls-4 {
        clip-path: url(#clippath);
      }

      .cls-5 {
        clip-path: url(#clippath-1);
      }

      .cls-6 {
        fill: #010101;
      }
    </style>
    <clipPath id="clippath">
      <path class="cls-2" d="m81.07,122.07v2.84h-1.26v-2.84h-14.9v2.84h-1.26v-2.84h-15.15v2.84h-1.26v-2.84h-14.91v2.84h-1.26v-2.84h-14.91v2.84h-1.26v-2.84H0v8.43h95.75v-8.43h-14.68Z"/>
    </clipPath>
    <clipPath id="clippath-1">
      <path class="cls-2" d="m-2.26-67.61h14.3v2.12h-2.27v5.68H-2.26v-7.8Zm16.19,2.12h2.15v5.68h9.97v-5.68h2.18v-2.12h-14.3v2.12Zm16.19,0h2.24v5.68h9.84v-5.68h2.21v-2.12h-14.3v2.12Zm16.19,0h2.21v5.68h10.22v-5.68h2.1v-2.12h-14.54v2.12Zm16.43,0h2.32v5.68h9.81v-5.68h2.15v-2.12h-14.28v2.12Zm16.18-2.12v2.12h2.27v5.68h11.8v-7.8h-14.07Z"/>
    </clipPath>
    <clipPath id="clippath-2">
      <path class="cls-2" d="m148.42-67.43v2.39h-2.07v5.25h-4.76v-7.63h6.82Zm1.89,0v2.39h2.1v5.25h2.75v-5.25h1.97v-2.39h-6.82Zm8.72,0v2.39h2.2v5.25h2.46v-5.25h2.15v-2.39h-6.82Zm8.72,0v2.39h2.02v5.25h2.69v-5.25h2.11v-2.39h-6.82Zm8.72,0v2.39h2.06v5.25h2.93v-5.25h2.1v-2.39h-7.09Zm8.98,0v2.39h2.08v5.25h2.41v-5.25h2.07v-2.39h-6.56Zm8.45,0v2.39h2.11v5.25h2.63v-5.25h2.09v-2.39h-6.82Zm8.72,0v2.39h2.08v5.25h2.75v-5.25h1.99v-2.39h-6.82Zm8.72,0v2.39h2.18v5.25h2.6v-5.25h2.05v-2.39h-6.82Zm8.72,0v2.39h2.13v5.25h2.9v-5.25h1.98v-2.39h-7.01Zm8.91,0v2.39h2.19v5.25h4.45v-7.63h-6.63Z"/>
    </clipPath>
    <clipPath id="clippath-3">
      <path class="cls-2" d="m231.2,121.94v3.02h-1.26v-3.02h-7.64v3.02h-1.26v-3.02h-7.45v3.02h-1.26v-3.02h-7.45v3.02h-1.26v-3.02h-7.45v3.02h-1.26v-3.02h-7.18v3.02h-1.26v-3.02h-7.72v3.02h-1.26v-3.02h-7.45v3.02h-1.26v-3.02h-7.45v3.02h-1.26v-3.02h-7.45v3.02h-1.26v-3.02h-7.45v8.26h94.54v-8.26h-7.26Z"/>
    </clipPath>
  </defs>
  <g class="cls-4">
    <g>
      <line class="cls-3" x1="67.18" y1="52.03" x2="-59.59" y2="178.8"/>
      <line class="cls-3" x1="68.02" y1="52.86" x2="-58.75" y2="179.64"/>
      <line class="cls-3" x1="68.86" y1="53.7" x2="-57.91" y2="180.47"/>
      <line class="cls-3" x1="69.7" y1="54.54" x2="-57.07" y2="181.31"/>
      <line class="cls-3" x1="70.54" y1="55.38" x2="-56.23" y2="182.15"/>
      <line class="cls-3" x1="71.38" y1="56.22" x2="-55.4" y2="182.99"/>
      <line class="cls-3" x1="72.21" y1="57.06" x2="-54.56" y2="183.83"/>
      <line class="cls-3" x1="73.05" y1="57.89" x2="-53.72" y2="184.67"/>
      <line class="cls-3" x1="73.89" y1="58.73" x2="-52.88" y2="185.5"/>
      <line class="cls-3" x1="74.73" y1="59.57" x2="-52.04" y2="186.34"/>
      <line class="cls-3" x1="75.57" y1="60.41" x2="-51.21" y2="187.18"/>
      <line class="cls-3" x1="76.4" y1="61.25" x2="-50.37" y2="188.02"/>
      <line class="cls-3" x1="77.24" y1="62.08" x2="-49.53" y2="188.86"/>
      <line class="cls-3" x1="78.08" y1="62.92" x2="-48.69" y2="189.69"/>
      <line class="cls-3" x1="78.92" y1="63.76" x2="-47.85" y2="190.53"/>
      <line class="cls-3" x1="79.76" y1="64.6" x2="-47.01" y2="191.37"/>
      <line class="cls-3" x1="80.6" y1="65.44" x2="-46.18" y2="192.21"/>
      <line class="cls-3" x1="81.43" y1="66.28" x2="-45.34" y2="193.05"/>
      <line class="cls-3" x1="82.27" y1="67.11" x2="-44.5" y2="193.89"/>
      <line class="cls-3" x1="83.11" y1="67.95" x2="-43.66" y2="194.72"/>
      <line class="cls-3" x1="83.95" y1="68.79" x2="-42.82" y2="195.56"/>
      <line class="cls-3" x1="84.79" y1="69.63" x2="-41.98" y2="196.4"/>
      <line class="cls-3" x1="85.63" y1="70.47" x2="-41.15" y2="197.24"/>
      <line class="cls-3" x1="86.46" y1="71.31" x2="-40.31" y2="198.08"/>
      <line class="cls-3" x1="87.3" y1="72.14" x2="-39.47" y2="198.92"/>
      <line class="cls-3" x1="88.14" y1="72.98" x2="-38.63" y2="199.75"/>
      <line class="cls-3" x1="88.98" y1="73.82" x2="-37.79" y2="200.59"/>
      <line class="cls-3" x1="89.82" y1="74.66" x2="-36.96" y2="201.43"/>
      <line class="cls-3" x1="90.65" y1="75.5" x2="-36.12" y2="202.27"/>
      <line class="cls-3" x1="91.49" y1="76.33" x2="-35.28" y2="203.11"/>
      <line class="cls-3" x1="92.33" y1="77.17" x2="-34.44" y2="203.94"/>
      <line class="cls-3" x1="93.17" y1="78.01" x2="-33.6" y2="204.78"/>
      <line class="cls-3" x1="94.01" y1="78.85" x2="-32.76" y2="205.62"/>
      <line class="cls-3" x1="94.85" y1="79.69" x2="-31.93" y2="206.46"/>
      <line class="cls-3" x1="95.68" y1="80.53" x2="-31.09" y2="207.3"/>
      <line class="cls-3" x1="96.52" y1="81.36" x2="-30.25" y2="208.14"/>
      <line class="cls-3" x1="97.36" y1="82.2" x2="-29.41" y2="208.97"/>
      <line class="cls-3" x1="98.2" y1="83.04" x2="-28.57" y2="209.81"/>
      <line class="cls-3" x1="99.04" y1="83.88" x2="-27.73" y2="210.65"/>
      <line class="cls-3" x1="99.88" y1="84.72" x2="-26.9" y2="211.49"/>
      <line class="cls-3" x1="100.71" y1="85.56" x2="-26.06" y2="212.33"/>
      <line class="cls-3" x1="101.55" y1="86.39" x2="-25.22" y2="213.17"/>
      <line class="cls-3" x1="102.39" y1="87.23" x2="-24.38" y2="214"/>
      <line class="cls-3" x1="103.23" y1="88.07" x2="-23.54" y2="214.84"/>
      <line class="cls-3" x1="104.07" y1="88.91" x2="-22.71" y2="215.68"/>
      <line class="cls-3" x1="104.9" y1="89.75" x2="-21.87" y2="216.52"/>
      <line class="cls-3" x1="105.74" y1="90.58" x2="-21.03" y2="217.36"/>
      <line class="cls-3" x1="106.58" y1="91.42" x2="-20.19" y2="218.19"/>
      <line class="cls-3" x1="107.42" y1="92.26" x2="-19.35" y2="219.03"/>
      <line class="cls-3" x1="108.26" y1="93.1" x2="-18.51" y2="219.87"/>
    </g>
  </g>
  <path class="cls-6" d="m80.84,0H0v93.83h95.75V0h-14.91ZM.64,93.2V.63h13.64v92.56H.64Zm14.27,0V.63h1.26v92.56h-1.26Zm1.89,0V.63h13.64v92.56h-13.64Zm14.27,0V.63h1.26v92.56h-1.26Zm1.9,0V.63h13.64v92.56h-13.64Zm14.27,0V.63h1.26v92.56h-1.26Zm1.89,0V.63h13.64v92.56h-13.64Zm14.27,0V.63h1.26v92.56h-1.26Zm1.9,0V.63h13.64v92.56h-13.64Zm14.27,0V.63h1.26v92.56h-1.26Zm15.53,0h-13.64V.63h13.64v92.56Z"/>
  <g class="cls-5">
    <g>
      <line class="cls-3" x1="108.75" y1="-126.45" x2="-18.02" y2=".32"/>
      <line class="cls-3" x1="109.59" y1="-125.62" x2="-17.18" y2="1.16"/>
      <line class="cls-3" x1="110.43" y1="-124.78" x2="-16.35" y2="2"/>
      <line class="cls-3" x1="111.27" y1="-123.94" x2="-15.51" y2="2.83"/>
      <line class="cls-3" x1="112.1" y1="-123.1" x2="-14.67" y2="3.67"/>
      <line class="cls-3" x1="112.94" y1="-122.26" x2="-13.83" y2="4.51"/>
      <line class="cls-3" x1="113.78" y1="-121.42" x2="-12.99" y2="5.35"/>
      <line class="cls-3" x1="114.62" y1="-120.59" x2="-12.15" y2="6.19"/>
      <line class="cls-3" x1="115.46" y1="-119.75" x2="-11.32" y2="7.02"/>
      <line class="cls-3" x1="116.29" y1="-118.91" x2="-10.48" y2="7.86"/>
      <line class="cls-3" x1="117.13" y1="-118.07" x2="-9.64" y2="8.7"/>
      <line class="cls-3" x1="117.97" y1="-117.23" x2="-8.8" y2="9.54"/>
      <line class="cls-3" x1="118.81" y1="-116.39" x2="-7.96" y2="10.38"/>
      <line class="cls-3" x1="119.65" y1="-115.56" x2="-7.12" y2="11.22"/>
      <line class="cls-3" x1="120.49" y1="-114.72" x2="-6.29" y2="12.05"/>
      <line class="cls-3" x1="121.32" y1="-113.88" x2="-5.45" y2="12.89"/>
      <line class="cls-3" x1="122.16" y1="-113.04" x2="-4.61" y2="13.73"/>
      <line class="cls-3" x1="123" y1="-112.2" x2="-3.77" y2="14.57"/>
      <line class="cls-3" x1="123.84" y1="-111.37" x2="-2.93" y2="15.41"/>
      <line class="cls-3" x1="124.68" y1="-110.53" x2="-2.1" y2="16.25"/>
      <line class="cls-3" x1="125.52" y1="-109.69" x2="-1.26" y2="17.08"/>
      <line class="cls-3" x1="126.35" y1="-108.85" x2="-.42" y2="17.92"/>
      <line class="cls-3" x1="127.19" y1="-108.01" x2=".42" y2="18.76"/>
      <line class="cls-3" x1="128.03" y1="-107.17" x2="1.26" y2="19.6"/>
      <line class="cls-3" x1="128.87" y1="-106.34" x2="2.1" y2="20.44"/>
      <line class="cls-3" x1="129.71" y1="-105.5" x2="2.93" y2="21.27"/>
      <line class="cls-3" x1="130.54" y1="-104.66" x2="3.77" y2="22.11"/>
      <line class="cls-3" x1="131.38" y1="-103.82" x2="4.61" y2="22.95"/>
      <line class="cls-3" x1="132.22" y1="-102.98" x2="5.45" y2="23.79"/>
      <line class="cls-3" x1="133.06" y1="-102.14" x2="6.29" y2="24.63"/>
      <line class="cls-3" x1="133.9" y1="-101.31" x2="7.13" y2="25.47"/>
      <line class="cls-3" x1="134.74" y1="-100.47" x2="7.96" y2="26.3"/>
      <line class="cls-3" x1="135.57" y1="-99.63" x2="8.8" y2="27.14"/>
      <line class="cls-3" x1="136.41" y1="-98.79" x2="9.64" y2="27.98"/>
      <line class="cls-3" x1="137.25" y1="-97.95" x2="10.48" y2="28.82"/>
      <line class="cls-3" x1="138.09" y1="-97.12" x2="11.32" y2="29.66"/>
      <line class="cls-3" x1="138.93" y1="-96.28" x2="12.15" y2="30.5"/>
    </g>
  </g>
  <g class="cls-1">
    <g>
      <line class="cls-3" x1="211.36" y1="50.83" x2="84.59" y2="177.6"/>
      <line class="cls-3" x1="212.2" y1="51.67" x2="85.42" y2="178.44"/>
      <line class="cls-3" x1="213.03" y1="52.51" x2="86.26" y2="179.28"/>
      <line class="cls-3" x1="213.87" y1="53.34" x2="87.1" y2="180.12"/>
      <line class="cls-3" x1="214.71" y1="54.18" x2="87.94" y2="180.95"/>
      <line class="cls-3" x1="215.55" y1="55.02" x2="88.78" y2="181.79"/>
      <line class="cls-3" x1="216.39" y1="55.86" x2="89.62" y2="182.63"/>
      <line class="cls-3" x1="217.23" y1="56.7" x2="90.45" y2="183.47"/>
      <line class="cls-3" x1="218.06" y1="57.54" x2="91.29" y2="184.31"/>
      <line class="cls-3" x1="218.9" y1="58.37" x2="92.13" y2="185.15"/>
      <line class="cls-3" x1="219.74" y1="59.21" x2="92.97" y2="185.98"/>
      <line class="cls-3" x1="220.58" y1="60.05" x2="93.81" y2="186.82"/>
      <line class="cls-3" x1="221.42" y1="60.89" x2="94.64" y2="187.66"/>
      <line class="cls-3" x1="222.25" y1="61.73" x2="95.48" y2="188.5"/>
    </g>
  </g>
</svg>