<?xml version="1.0" encoding="UTF-8"?>
<svg id="_Слой_1" data-name="Слой 1" xmlns="http://www.w3.org/2000/svg" xmlns:xlink="http://www.w3.org/1999/xlink" viewBox="0 0 94.9 108.71">
  <defs>
    <style>
      .cls-1, .cls-2 {
        fill: none;
      }

      .cls-2 {
        clip-path: url(#clippath);
      }

      .cls-3 {
        fill: #010101;
      }
    </style>
    <clipPath id="clippath">
      <rect class="cls-1" x="-2.44" y="-2.44" width="99.78" height="113.59"/>
    </clipPath>
  </defs>
  <path class="cls-3" d="m94.9,108.71H0V0h94.9v108.71Zm-94.46-.44h94.02V.44H.44v107.82Z"/>
  <path class="cls-3" d="m93.43,107.35H1.48V1.57h91.95v105.78Zm-91.51-.44h91.06V2.02H1.93v104.89Z"/>
  <g class="cls-2">
    <path class="cls-3" d="m88.55,105.11c-.78,0-1.41-.63-1.41-1.42s.63-1.41,1.41-1.41,1.41.63,1.41,1.41-.63,1.42-1.41,1.42Zm0-2.38c-.53,0-.97.44-.97.97s.44.97.97.97.97-.44.97-.97-.44-.97-.97-.97Z"/>
    <path class="cls-3" d="m81,105.11c-.78,0-1.41-.63-1.41-1.42s.63-1.41,1.41-1.41,1.41.63,1.41,1.41-.63,1.42-1.41,1.42Zm0-2.38c-.53,0-.97.44-.97.97s.44.97.97.97.97-.44.97-.97-.44-.97-.97-.97Z"/>
    <path class="cls-3" d="m73.46,105.11c-.78,0-1.41-.63-1.41-1.42s.63-1.41,1.41-1.41,1.41.63,1.41,1.41-.63,1.42-1.41,1.42Zm0-2.38c-.54,0-.97.44-.97.97s.44.97.97.97.97-.44.97-.97-.44-.97-.97-.97Z"/>
    <path class="cls-3" d="m65.91,105.11c-.78,0-1.41-.63-1.41-1.42s.63-1.41,1.41-1.41,1.41.63,1.41,1.41-.63,1.42-1.41,1.42Zm0-2.38c-.54,0-.97.44-.97.97s.44.97.97.97.97-.44.97-.97-.44-.97-.97-.97Z"/>
    <path class="cls-3" d="m58.37,105.11c-.78,0-1.41-.63-1.41-1.42s.63-1.41,1.41-1.41,1.41.63,1.41,1.41-.63,1.42-1.41,1.42Zm0-2.38c-.54,0-.97.44-.97.97s.44.97.97.97.97-.44.97-.97-.44-.97-.97-.97Z"/>
    <path class="cls-3" d="m50.82,105.11c-.78,0-1.41-.63-1.41-1.42s.63-1.41,1.41-1.41,1.41.63,1.41,1.41-.63,1.42-1.41,1.42Zm0-2.38c-.54,0-.97.44-.97.97s.44.97.97.97.97-.44.97-.97-.44-.97-.97-.97Z"/>
    <path class="cls-3" d="m43.28,105.11c-.78,0-1.41-.63-1.41-1.42s.63-1.41,1.41-1.41,1.41.63,1.41,1.41-.63,1.42-1.41,1.42Zm0-2.38c-.54,0-.97.44-.97.97s.44.97.97.97.97-.44.97-.97-.44-.97-.97-.97Z"/>
    <path class="cls-3" d="m35.73,105.11c-.78,0-1.41-.63-1.41-1.42s.63-1.41,1.41-1.41,1.41.63,1.41,1.41-.63,1.42-1.41,1.42Zm0-2.38c-.53,0-.97.44-.97.97s.44.97.97.97.97-.44.97-.97-.44-.97-.97-.97Z"/>
    <path class="cls-3" d="m28.19,105.11c-.78,0-1.41-.63-1.41-1.42s.63-1.41,1.41-1.41,1.41.63,1.41,1.41-.63,1.42-1.41,1.42Zm0-2.38c-.53,0-.97.44-.97.97s.44.97.97.97.97-.44.97-.97-.44-.97-.97-.97Z"/>
    <path class="cls-3" d="m20.64,105.11c-.78,0-1.41-.63-1.41-1.42s.63-1.41,1.41-1.41,1.41.63,1.41,1.41-.63,1.42-1.41,1.42Zm0-2.38c-.53,0-.97.44-.97.97s.44.97.97.97.97-.44.97-.97-.44-.97-.97-.97Z"/>
    <path class="cls-3" d="m13.1,105.11c-.78,0-1.41-.63-1.41-1.42s.63-1.41,1.41-1.41,1.41.63,1.41,1.41-.63,1.42-1.41,1.42Zm0-2.38c-.54,0-.97.44-.97.97s.44.97.97.97.97-.44.97-.97-.44-.97-.97-.97Z"/>
    <path class="cls-3" d="m5.56,105.11c-.78,0-1.41-.63-1.41-1.42s.63-1.41,1.41-1.41,1.41.63,1.41,1.41-.63,1.42-1.41,1.42Zm0-2.38c-.54,0-.97.44-.97.97s.44.97.97.97.97-.44.97-.97-.44-.97-.97-.97Z"/>
    <path class="cls-3" d="m88.55,97.56c-.78,0-1.41-.64-1.41-1.42s.63-1.41,1.41-1.41,1.41.63,1.41,1.41-.63,1.42-1.41,1.42Zm0-2.39c-.53,0-.97.44-.97.97s.44.97.97.97.97-.44.97-.97-.44-.97-.97-.97Z"/>
    <path class="cls-3" d="m81,97.56c-.78,0-1.41-.64-1.41-1.42s.63-1.41,1.41-1.41,1.41.63,1.41,1.41-.63,1.42-1.41,1.42Zm0-2.39c-.53,0-.97.44-.97.97s.44.97.97.97.97-.44.97-.97-.44-.97-.97-.97Z"/>
    <path class="cls-3" d="m73.46,97.56c-.78,0-1.41-.64-1.41-1.42s.63-1.41,1.41-1.41,1.41.63,1.41,1.41-.63,1.42-1.41,1.42Zm0-2.39c-.54,0-.97.44-.97.97s.44.97.97.97.97-.44.97-.97-.44-.97-.97-.97Z"/>
    <path class="cls-3" d="m65.91,97.56c-.78,0-1.41-.64-1.41-1.42s.63-1.41,1.41-1.41,1.41.63,1.41,1.41-.63,1.42-1.41,1.42Zm0-2.39c-.54,0-.97.44-.97.97s.44.97.97.97.97-.44.97-.97-.44-.97-.97-.97Z"/>
    <path class="cls-3" d="m58.37,97.56c-.78,0-1.41-.64-1.41-1.42s.63-1.41,1.41-1.41,1.41.63,1.41,1.41-.63,1.42-1.41,1.42Zm0-2.39c-.54,0-.97.44-.97.97s.44.97.97.97.97-.44.97-.97-.44-.97-.97-.97Z"/>
    <path class="cls-3" d="m50.82,97.56c-.78,0-1.41-.64-1.41-1.42s.63-1.41,1.41-1.41,1.41.63,1.41,1.41-.63,1.42-1.41,1.42Zm0-2.39c-.54,0-.97.44-.97.97s.44.97.97.97.97-.44.97-.97-.44-.97-.97-.97Z"/>
    <path class="cls-3" d="m43.28,97.56c-.78,0-1.41-.64-1.41-1.42s.63-1.41,1.41-1.41,1.41.63,1.41,1.41-.63,1.42-1.41,1.42Zm0-2.39c-.54,0-.97.44-.97.97s.44.97.97.97.97-.44.97-.97-.44-.97-.97-.97Z"/>
    <path class="cls-3" d="m35.73,97.56c-.78,0-1.41-.64-1.41-1.42s.63-1.41,1.41-1.41,1.41.63,1.41,1.41-.63,1.42-1.41,1.42Zm0-2.39c-.53,0-.97.44-.97.97s.44.97.97.97.97-.44.97-.97-.44-.97-.97-.97Z"/>
    <path class="cls-3" d="m28.19,97.56c-.78,0-1.41-.64-1.41-1.42s.63-1.41,1.41-1.41,1.41.63,1.41,1.41-.63,1.42-1.41,1.42Zm0-2.39c-.53,0-.97.44-.97.97s.44.97.97.97.97-.44.97-.97-.44-.97-.97-.97Z"/>
    <path class="cls-3" d="m20.64,97.56c-.78,0-1.41-.64-1.41-1.42s.63-1.41,1.41-1.41,1.41.63,1.41,1.41-.63,1.42-1.41,1.42Zm0-2.39c-.53,0-.97.44-.97.97s.44.97.97.97.97-.44.97-.97-.44-.97-.97-.97Z"/>
    <path class="cls-3" d="m13.1,97.56c-.78,0-1.41-.64-1.41-1.42s.63-1.41,1.41-1.41,1.41.63,1.41,1.41-.63,1.42-1.41,1.42Zm0-2.39c-.54,0-.97.44-.97.97s.44.97.97.97.97-.44.97-.97-.44-.97-.97-.97Z"/>
    <path class="cls-3" d="m5.56,97.56c-.78,0-1.41-.64-1.41-1.42s.63-1.41,1.41-1.41,1.41.63,1.41,1.41-.63,1.42-1.41,1.42Zm0-2.39c-.54,0-.97.44-.97.97s.44.97.97.97.97-.44.97-.97-.44-.97-.97-.97Z"/>
    <path class="cls-3" d="m88.55,90.02c-.78,0-1.41-.63-1.41-1.42s.63-1.41,1.41-1.41,1.41.63,1.41,1.41-.63,1.42-1.41,1.42Zm0-2.38c-.53,0-.97.44-.97.97s.44.97.97.97.97-.44.97-.97-.44-.97-.97-.97Z"/>
    <path class="cls-3" d="m81,90.02c-.78,0-1.41-.63-1.41-1.42s.63-1.41,1.41-1.41,1.41.63,1.41,1.41-.63,1.42-1.41,1.42Zm0-2.38c-.53,0-.97.44-.97.97s.44.97.97.97.97-.44.97-.97-.44-.97-.97-.97Z"/>
    <path class="cls-3" d="m73.46,90.02c-.78,0-1.41-.63-1.41-1.42s.63-1.41,1.41-1.41,1.41.63,1.41,1.41-.63,1.42-1.41,1.42Zm0-2.38c-.54,0-.97.44-.97.97s.44.97.97.97.97-.44.97-.97-.44-.97-.97-.97Z"/>
    <path class="cls-3" d="m65.91,90.02c-.78,0-1.41-.63-1.41-1.42s.63-1.41,1.41-1.41,1.41.63,1.41,1.41-.63,1.42-1.41,1.42Zm0-2.38c-.54,0-.97.44-.97.97s.44.97.97.97.97-.44.97-.97-.44-.97-.97-.97Z"/>
    <path class="cls-3" d="m58.37,90.02c-.78,0-1.41-.63-1.41-1.42s.63-1.41,1.41-1.41,1.41.63,1.41,1.41-.63,1.42-1.41,1.42Zm0-2.38c-.54,0-.97.44-.97.97s.44.97.97.97.97-.44.97-.97-.44-.97-.97-.97Z"/>
    <path class="cls-3" d="m50.82,90.02c-.78,0-1.41-.63-1.41-1.42s.63-1.41,1.41-1.41,1.41.63,1.41,1.41-.63,1.42-1.41,1.42Zm0-2.38c-.54,0-.97.44-.97.97s.44.97.97.97.97-.44.97-.97-.44-.97-.97-.97Z"/>
    <path class="cls-3" d="m43.28,90.02c-.78,0-1.41-.63-1.41-1.42s.63-1.41,1.41-1.41,1.41.63,1.41,1.41-.63,1.42-1.41,1.42Zm0-2.38c-.54,0-.97.44-.97.97s.44.97.97.97.97-.44.97-.97-.44-.97-.97-.97Z"/>
    <path class="cls-3" d="m35.73,90.02c-.78,0-1.41-.63-1.41-1.42s.63-1.41,1.41-1.41,1.41.63,1.41,1.41-.63,1.42-1.41,1.42Zm0-2.38c-.53,0-.97.44-.97.97s.44.97.97.97.97-.44.97-.97-.44-.97-.97-.97Z"/>
    <path class="cls-3" d="m28.19,90.02c-.78,0-1.41-.63-1.41-1.42s.63-1.41,1.41-1.41,1.41.63,1.41,1.41-.63,1.42-1.41,1.42Zm0-2.38c-.53,0-.97.44-.97.97s.44.97.97.97.97-.44.97-.97-.44-.97-.97-.97Z"/>
    <path class="cls-3" d="m20.64,90.02c-.78,0-1.41-.63-1.41-1.42s.63-1.41,1.41-1.41,1.41.63,1.41,1.41-.63,1.42-1.41,1.42Zm0-2.38c-.53,0-.97.44-.97.97s.44.97.97.97.97-.44.97-.97-.44-.97-.97-.97Z"/>
    <path class="cls-3" d="m13.1,90.02c-.78,0-1.41-.63-1.41-1.42s.63-1.41,1.41-1.41,1.41.63,1.41,1.41-.63,1.42-1.41,1.42Zm0-2.38c-.54,0-.97.44-.97.97s.44.97.97.97.97-.44.97-.97-.44-.97-.97-.97Z"/>
    <path class="cls-3" d="m5.56,90.02c-.78,0-1.41-.63-1.41-1.42s.63-1.41,1.41-1.41,1.41.63,1.41,1.41-.63,1.42-1.41,1.42Zm0-2.38c-.54,0-.97.44-.97.97s.44.97.97.97.97-.44.97-.97-.44-.97-.97-.97Z"/>
    <path class="cls-3" d="m88.55,82.47c-.78,0-1.41-.63-1.41-1.42s.63-1.41,1.41-1.41,1.41.63,1.41,1.41-.63,1.42-1.41,1.42Zm0-2.38c-.53,0-.97.44-.97.97s.44.97.97.97.97-.44.97-.97-.44-.97-.97-.97Z"/>
    <path class="cls-3" d="m81,82.47c-.78,0-1.41-.63-1.41-1.42s.63-1.41,1.41-1.41,1.41.63,1.41,1.41-.63,1.42-1.41,1.42Zm0-2.38c-.53,0-.97.44-.97.97s.44.97.97.97.97-.44.97-.97-.44-.97-.97-.97Z"/>
    <path class="cls-3" d="m73.46,82.47c-.78,0-1.41-.63-1.41-1.42s.63-1.41,1.41-1.41,1.41.63,1.41,1.41-.63,1.42-1.41,1.42Zm0-2.38c-.54,0-.97.44-.97.97s.44.97.97.97.97-.44.97-.97-.44-.97-.97-.97Z"/>
    <path class="cls-3" d="m65.91,82.47c-.78,0-1.41-.63-1.41-1.42s.63-1.41,1.41-1.41,1.41.63,1.41,1.41-.63,1.42-1.41,1.42Zm0-2.38c-.54,0-.97.44-.97.97s.44.97.97.97.97-.44.97-.97-.44-.97-.97-.97Z"/>
    <path class="cls-3" d="m58.37,82.47c-.78,0-1.41-.63-1.41-1.42s.63-1.41,1.41-1.41,1.41.63,1.41,1.41-.63,1.42-1.41,1.42Zm0-2.38c-.54,0-.97.44-.97.97s.44.97.97.97.97-.44.97-.97-.44-.97-.97-.97Z"/>
    <path class="cls-3" d="m50.82,82.47c-.78,0-1.41-.63-1.41-1.42s.63-1.41,1.41-1.41,1.41.63,1.41,1.41-.63,1.42-1.41,1.42Zm0-2.38c-.54,0-.97.44-.97.97s.44.97.97.97.97-.44.97-.97-.44-.97-.97-.97Z"/>
    <path class="cls-3" d="m43.28,82.47c-.78,0-1.41-.63-1.41-1.42s.63-1.41,1.41-1.41,1.41.63,1.41,1.41-.63,1.42-1.41,1.42Zm0-2.38c-.54,0-.97.44-.97.97s.44.97.97.97.97-.44.97-.97-.44-.97-.97-.97Z"/>
    <path class="cls-3" d="m35.73,82.47c-.78,0-1.41-.63-1.41-1.42s.63-1.41,1.41-1.41,1.41.63,1.41,1.41-.63,1.42-1.41,1.42Zm0-2.38c-.53,0-.97.44-.97.97s.44.97.97.97.97-.44.97-.97-.44-.97-.97-.97Z"/>
    <path class="cls-3" d="m28.19,82.47c-.78,0-1.41-.63-1.41-1.42s.63-1.41,1.41-1.41,1.41.63,1.41,1.41-.63,1.42-1.41,1.42Zm0-2.38c-.53,0-.97.44-.97.97s.44.97.97.97.97-.44.97-.97-.44-.97-.97-.97Z"/>
    <path class="cls-3" d="m20.64,82.47c-.78,0-1.41-.63-1.41-1.42s.63-1.41,1.41-1.41,1.41.63,1.41,1.41-.63,1.42-1.41,1.42Zm0-2.38c-.53,0-.97.44-.97.97s.44.97.97.97.97-.44.97-.97-.44-.97-.97-.97Z"/>
    <path class="cls-3" d="m13.1,82.47c-.78,0-1.41-.63-1.41-1.42s.63-1.41,1.41-1.41,1.41.63,1.41,1.41-.63,1.42-1.41,1.42Zm0-2.38c-.54,0-.97.44-.97.97s.44.97.97.97.97-.44.97-.97-.44-.97-.97-.97Z"/>
    <path class="cls-3" d="m5.56,82.47c-.78,0-1.41-.63-1.41-1.42s.63-1.41,1.41-1.41,1.41.63,1.41,1.41-.63,1.42-1.41,1.42Zm0-2.38c-.54,0-.97.44-.97.97s.44.97.97.97.97-.44.97-.97-.44-.97-.97-.97Z"/>
    <path class="cls-3" d="m88.55,74.93c-.78,0-1.41-.63-1.41-1.42s.63-1.41,1.41-1.41,1.41.63,1.41,1.41-.63,1.42-1.41,1.42Zm0-2.38c-.53,0-.97.44-.97.97s.44.97.97.97.97-.44.97-.97-.44-.97-.97-.97Z"/>
    <path class="cls-3" d="m81,74.93c-.78,0-1.41-.63-1.41-1.42s.63-1.41,1.41-1.41,1.41.63,1.41,1.41-.63,1.42-1.41,1.42Zm0-2.38c-.53,0-.97.44-.97.97s.44.97.97.97.97-.44.97-.97-.44-.97-.97-.97Z"/>
    <path class="cls-3" d="m73.46,74.93c-.78,0-1.41-.63-1.41-1.42s.63-1.41,1.41-1.41,1.41.63,1.41,1.41-.63,1.42-1.41,1.42Zm0-2.38c-.54,0-.97.44-.97.97s.44.97.97.97.97-.44.97-.97-.44-.97-.97-.97Z"/>
    <path class="cls-3" d="m65.91,74.93c-.78,0-1.41-.63-1.41-1.42s.63-1.41,1.41-1.41,1.41.63,1.41,1.41-.63,1.42-1.41,1.42Zm0-2.38c-.54,0-.97.44-.97.97s.44.97.97.97.97-.44.97-.97-.44-.97-.97-.97Z"/>
    <path class="cls-3" d="m58.37,74.93c-.78,0-1.41-.63-1.41-1.42s.63-1.41,1.41-1.41,1.41.63,1.41,1.41-.63,1.42-1.41,1.42Zm0-2.38c-.54,0-.97.44-.97.97s.44.97.97.97.97-.44.97-.97-.44-.97-.97-.97Z"/>
    <path class="cls-3" d="m50.82,74.93c-.78,0-1.41-.63-1.41-1.42s.63-1.41,1.41-1.41,1.41.63,1.41,1.41-.63,1.42-1.41,1.42Zm0-2.38c-.54,0-.97.44-.97.97s.44.97.97.97.97-.44.97-.97-.44-.97-.97-.97Z"/>
    <path class="cls-3" d="m43.28,74.93c-.78,0-1.41-.63-1.41-1.42s.63-1.41,1.41-1.41,1.41.63,1.41,1.41-.63,1.42-1.41,1.42Zm0-2.38c-.54,0-.97.44-.97.97s.44.97.97.97.97-.44.97-.97-.44-.97-.97-.97Z"/>
    <path class="cls-3" d="m35.73,74.93c-.78,0-1.41-.63-1.41-1.42s.63-1.41,1.41-1.41,1.41.63,1.41,1.41-.63,1.42-1.41,1.42Zm0-2.38c-.53,0-.97.44-.97.97s.44.97.97.97.97-.44.97-.97-.44-.97-.97-.97Z"/>
    <path class="cls-3" d="m28.19,74.93c-.78,0-1.41-.63-1.41-1.42s.63-1.41,1.41-1.41,1.41.63,1.41,1.41-.63,1.42-1.41,1.42Zm0-2.38c-.53,0-.97.44-.97.97s.44.97.97.97.97-.44.97-.97-.44-.97-.97-.97Z"/>
    <path class="cls-3" d="m20.64,74.93c-.78,0-1.41-.63-1.41-1.42s.63-1.41,1.41-1.41,1.41.63,1.41,1.41-.63,1.42-1.41,1.42Zm0-2.38c-.53,0-.97.44-.97.97s.44.97.97.97.97-.44.97-.97-.44-.97-.97-.97Z"/>
    <path class="cls-3" d="m13.1,74.93c-.78,0-1.41-.63-1.41-1.42s.63-1.41,1.41-1.41,1.41.63,1.41,1.41-.63,1.42-1.41,1.42Zm0-2.38c-.54,0-.97.44-.97.97s.44.97.97.97.97-.44.97-.97-.44-.97-.97-.97Z"/>
    <path class="cls-3" d="m5.56,74.93c-.78,0-1.41-.63-1.41-1.42s.63-1.41,1.41-1.41,1.41.63,1.41,1.41-.63,1.42-1.41,1.42Zm0-2.38c-.54,0-.97.44-.97.97s.44.97.97.97.97-.44.97-.97-.44-.97-.97-.97Z"/>
    <path class="cls-3" d="m88.55,67.38c-.78,0-1.41-.64-1.41-1.42s.63-1.41,1.41-1.41,1.41.63,1.41,1.41-.63,1.42-1.41,1.42Zm0-2.39c-.53,0-.97.44-.97.97s.44.97.97.97.97-.44.97-.97-.44-.97-.97-.97Z"/>
    <path class="cls-3" d="m81,67.38c-.78,0-1.41-.64-1.41-1.42s.63-1.41,1.41-1.41,1.41.63,1.41,1.41-.63,1.42-1.41,1.42Zm0-2.39c-.53,0-.97.44-.97.97s.44.97.97.97.97-.44.97-.97-.44-.97-.97-.97Z"/>
    <path class="cls-3" d="m73.46,67.38c-.78,0-1.41-.64-1.41-1.42s.63-1.41,1.41-1.41,1.41.63,1.41,1.41-.63,1.42-1.41,1.42Zm0-2.39c-.54,0-.97.44-.97.97s.44.97.97.97.97-.44.97-.97-.44-.97-.97-.97Z"/>
    <path class="cls-3" d="m65.91,67.38c-.78,0-1.41-.64-1.41-1.42s.63-1.41,1.41-1.41,1.41.63,1.41,1.41-.63,1.42-1.41,1.42Zm0-2.39c-.54,0-.97.44-.97.97s.44.97.97.97.97-.44.97-.97-.44-.97-.97-.97Z"/>
    <path class="cls-3" d="m58.37,67.38c-.78,0-1.41-.64-1.41-1.42s.63-1.41,1.41-1.41,1.41.63,1.41,1.41-.63,1.42-1.41,1.42Zm0-2.39c-.54,0-.97.44-.97.97s.44.97.97.97.97-.44.97-.97-.44-.97-.97-.97Z"/>
    <path class="cls-3" d="m50.82,67.38c-.78,0-1.41-.64-1.41-1.42s.63-1.41,1.41-1.41,1.41.63,1.41,1.41-.63,1.42-1.41,1.42Zm0-2.39c-.54,0-.97.44-.97.97s.44.97.97.97.97-.44.97-.97-.44-.97-.97-.97Z"/>
    <path class="cls-3" d="m43.28,67.38c-.78,0-1.41-.64-1.41-1.42s.63-1.41,1.41-1.41,1.41.63,1.41,1.41-.63,1.42-1.41,1.42Zm0-2.39c-.54,0-.97.44-.97.97s.44.97.97.97.97-.44.97-.97-.44-.97-.97-.97Z"/>
    <path class="cls-3" d="m35.73,67.38c-.78,0-1.41-.64-1.41-1.42s.63-1.41,1.41-1.41,1.41.63,1.41,1.41-.63,1.42-1.41,1.42Zm0-2.39c-.53,0-.97.44-.97.97s.44.97.97.97.97-.44.97-.97-.44-.97-.97-.97Z"/>
    <path class="cls-3" d="m28.19,67.38c-.78,0-1.41-.64-1.41-1.42s.63-1.41,1.41-1.41,1.41.63,1.41,1.41-.63,1.42-1.41,1.42Zm0-2.39c-.53,0-.97.44-.97.97s.44.97.97.97.97-.44.97-.97-.44-.97-.97-.97Z"/>
    <path class="cls-3" d="m20.64,67.38c-.78,0-1.41-.64-1.41-1.42s.63-1.41,1.41-1.41,1.41.63,1.41,1.41-.63,1.42-1.41,1.42Zm0-2.39c-.53,0-.97.44-.97.97s.44.97.97.97.97-.44.97-.97-.44-.97-.97-.97Z"/>
    <path class="cls-3" d="m13.1,67.38c-.78,0-1.41-.64-1.41-1.42s.63-1.41,1.41-1.41,1.41.63,1.41,1.41-.63,1.42-1.41,1.42Zm0-2.39c-.54,0-.97.44-.97.97s.44.97.97.97.97-.44.97-.97-.44-.97-.97-.97Z"/>
    <path class="cls-3" d="m5.56,67.38c-.78,0-1.41-.64-1.41-1.42s.63-1.41,1.41-1.41,1.41.63,1.41,1.41-.63,1.42-1.41,1.42Zm0-2.39c-.54,0-.97.44-.97.97s.44.97.97.97.97-.44.97-.97-.44-.97-.97-.97Z"/>
    <path class="cls-3" d="m88.55,59.84c-.78,0-1.41-.63-1.41-1.42s.63-1.41,1.41-1.41,1.41.63,1.41,1.41-.63,1.42-1.41,1.42Zm0-2.39c-.53,0-.97.44-.97.97s.44.97.97.97.97-.44.97-.97-.44-.97-.97-.97Z"/>
    <path class="cls-3" d="m81,59.84c-.78,0-1.41-.63-1.41-1.42s.63-1.41,1.41-1.41,1.41.63,1.41,1.41-.63,1.42-1.41,1.42Zm0-2.39c-.53,0-.97.44-.97.97s.44.97.97.97.97-.44.97-.97-.44-.97-.97-.97Z"/>
    <path class="cls-3" d="m73.46,59.84c-.78,0-1.41-.63-1.41-1.42s.63-1.41,1.41-1.41,1.41.63,1.41,1.41-.63,1.42-1.41,1.42Zm0-2.39c-.54,0-.97.44-.97.97s.44.97.97.97.97-.44.97-.97-.44-.97-.97-.97Z"/>
    <path class="cls-3" d="m65.91,59.84c-.78,0-1.41-.63-1.41-1.42s.63-1.41,1.41-1.41,1.41.63,1.41,1.41-.63,1.42-1.41,1.42Zm0-2.39c-.54,0-.97.44-.97.97s.44.97.97.97.97-.44.97-.97-.44-.97-.97-.97Z"/>
    <path class="cls-3" d="m58.37,59.84c-.78,0-1.41-.63-1.41-1.42s.63-1.41,1.41-1.41,1.41.63,1.41,1.41-.63,1.42-1.41,1.42Zm0-2.39c-.54,0-.97.44-.97.97s.44.97.97.97.97-.44.97-.97-.44-.97-.97-.97Z"/>
    <path class="cls-3" d="m50.82,59.84c-.78,0-1.41-.63-1.41-1.42s.63-1.41,1.41-1.41,1.41.63,1.41,1.41-.63,1.42-1.41,1.42Zm0-2.39c-.54,0-.97.44-.97.97s.44.97.97.97.97-.44.97-.97-.44-.97-.97-.97Z"/>
    <path class="cls-3" d="m43.28,59.84c-.78,0-1.41-.63-1.41-1.42s.63-1.41,1.41-1.41,1.41.63,1.41,1.41-.63,1.42-1.41,1.42Zm0-2.39c-.54,0-.97.44-.97.97s.44.97.97.97.97-.44.97-.97-.44-.97-.97-.97Z"/>
    <path class="cls-3" d="m35.73,59.84c-.78,0-1.41-.63-1.41-1.42s.63-1.41,1.41-1.41,1.41.63,1.41,1.41-.63,1.42-1.41,1.42Zm0-2.39c-.53,0-.97.44-.97.97s.44.97.97.97.97-.44.97-.97-.44-.97-.97-.97Z"/>
    <path class="cls-3" d="m28.19,59.84c-.78,0-1.41-.63-1.41-1.42s.63-1.41,1.41-1.41,1.41.63,1.41,1.41-.63,1.42-1.41,1.42Zm0-2.39c-.53,0-.97.44-.97.97s.44.97.97.97.97-.44.97-.97-.44-.97-.97-.97Z"/>
    <path class="cls-3" d="m20.64,59.84c-.78,0-1.41-.63-1.41-1.42s.63-1.41,1.41-1.41,1.41.63,1.41,1.41-.63,1.42-1.41,1.42Zm0-2.39c-.53,0-.97.44-.97.97s.44.97.97.97.97-.44.97-.97-.44-.97-.97-.97Z"/>
    <path class="cls-3" d="m13.1,59.84c-.78,0-1.41-.63-1.41-1.42s.63-1.41,1.41-1.41,1.41.63,1.41,1.41-.63,1.42-1.41,1.42Zm0-2.39c-.54,0-.97.44-.97.97s.44.97.97.97.97-.44.97-.97-.44-.97-.97-.97Z"/>
    <path class="cls-3" d="m5.56,59.84c-.78,0-1.41-.63-1.41-1.42s.63-1.41,1.41-1.41,1.41.63,1.41,1.41-.63,1.42-1.41,1.42Zm0-2.39c-.54,0-.97.44-.97.97s.44.97.97.97.97-.44.97-.97-.44-.97-.97-.97Z"/>
    <path class="cls-3" d="m88.55,52.29c-.78,0-1.41-.63-1.41-1.42s.63-1.41,1.41-1.41,1.41.63,1.41,1.41-.63,1.42-1.41,1.42Zm0-2.38c-.53,0-.97.44-.97.97s.44.97.97.97.97-.44.97-.97-.44-.97-.97-.97Z"/>
    <path class="cls-3" d="m81,52.29c-.78,0-1.41-.63-1.41-1.42s.63-1.41,1.41-1.41,1.41.63,1.41,1.41-.63,1.42-1.41,1.42Zm0-2.38c-.53,0-.97.44-.97.97s.44.97.97.97.97-.44.97-.97-.44-.97-.97-.97Z"/>
    <path class="cls-3" d="m73.46,52.29c-.78,0-1.41-.63-1.41-1.42s.63-1.41,1.41-1.41,1.41.63,1.41,1.41-.63,1.42-1.41,1.42Zm0-2.38c-.54,0-.97.44-.97.97s.44.97.97.97.97-.44.97-.97-.44-.97-.97-.97Z"/>
    <path class="cls-3" d="m65.91,52.29c-.78,0-1.41-.63-1.41-1.42s.63-1.41,1.41-1.41,1.41.63,1.41,1.41-.63,1.42-1.41,1.42Zm0-2.38c-.54,0-.97.44-.97.97s.44.97.97.97.97-.44.97-.97-.44-.97-.97-.97Z"/>
    <path class="cls-3" d="m58.37,52.29c-.78,0-1.41-.63-1.41-1.42s.63-1.41,1.41-1.41,1.41.63,1.41,1.41-.63,1.42-1.41,1.42Zm0-2.38c-.54,0-.97.44-.97.97s.44.97.97.97.97-.44.97-.97-.44-.97-.97-.97Z"/>
    <path class="cls-3" d="m50.82,52.29c-.78,0-1.41-.63-1.41-1.42s.63-1.41,1.41-1.41,1.41.63,1.41,1.41-.63,1.42-1.41,1.42Zm0-2.38c-.54,0-.97.44-.97.97s.44.97.97.97.97-.44.97-.97-.44-.97-.97-.97Z"/>
    <path class="cls-3" d="m43.28,52.29c-.78,0-1.41-.63-1.41-1.42s.63-1.41,1.41-1.41,1.41.63,1.41,1.41-.63,1.42-1.41,1.42Zm0-2.38c-.54,0-.97.44-.97.97s.44.97.97.97.97-.44.97-.97-.44-.97-.97-.97Z"/>
    <path class="cls-3" d="m35.73,52.29c-.78,0-1.41-.63-1.41-1.42s.63-1.41,1.41-1.41,1.41.63,1.41,1.41-.63,1.42-1.41,1.42Zm0-2.38c-.53,0-.97.44-.97.97s.44.97.97.97.97-.44.97-.97-.44-.97-.97-.97Z"/>
    <path class="cls-3" d="m28.19,52.29c-.78,0-1.41-.63-1.41-1.42s.63-1.41,1.41-1.41,1.41.63,1.41,1.41-.63,1.42-1.41,1.42Zm0-2.38c-.53,0-.97.44-.97.97s.44.97.97.97.97-.44.97-.97-.44-.97-.97-.97Z"/>
    <path class="cls-3" d="m20.64,52.29c-.78,0-1.41-.63-1.41-1.42s.63-1.41,1.41-1.41,1.41.63,1.41,1.41-.63,1.42-1.41,1.42Zm0-2.38c-.53,0-.97.44-.97.97s.44.97.97.97.97-.44.97-.97-.44-.97-.97-.97Z"/>
    <path class="cls-3" d="m13.1,52.29c-.78,0-1.41-.63-1.41-1.42s.63-1.41,1.41-1.41,1.41.63,1.41,1.41-.63,1.42-1.41,1.42Zm0-2.38c-.54,0-.97.44-.97.97s.44.97.97.97.97-.44.97-.97-.44-.97-.97-.97Z"/>
    <path class="cls-3" d="m5.56,52.29c-.78,0-1.41-.63-1.41-1.42s.63-1.41,1.41-1.41,1.41.63,1.41,1.41-.63,1.42-1.41,1.42Zm0-2.38c-.54,0-.97.44-.97.97s.44.97.97.97.97-.44.97-.97-.44-.97-.97-.97Z"/>
    <path class="cls-3" d="m88.55,44.75c-.78,0-1.41-.63-1.41-1.42s.63-1.41,1.41-1.41,1.41.63,1.41,1.41-.63,1.42-1.41,1.42Zm0-2.38c-.53,0-.97.44-.97.97s.44.97.97.97.97-.44.97-.97-.44-.97-.97-.97Z"/>
    <path class="cls-3" d="m81,44.75c-.78,0-1.41-.63-1.41-1.42s.63-1.41,1.41-1.41,1.41.63,1.41,1.41-.63,1.42-1.41,1.42Zm0-2.38c-.53,0-.97.44-.97.97s.44.97.97.97.97-.44.97-.97-.44-.97-.97-.97Z"/>
    <path class="cls-3" d="m73.46,44.75c-.78,0-1.41-.63-1.41-1.42s.63-1.41,1.41-1.41,1.41.63,1.41,1.41-.63,1.42-1.41,1.42Zm0-2.38c-.54,0-.97.44-.97.97s.44.97.97.97.97-.44.97-.97-.44-.97-.97-.97Z"/>
    <path class="cls-3" d="m65.91,44.75c-.78,0-1.41-.63-1.41-1.42s.63-1.41,1.41-1.41,1.41.63,1.41,1.41-.63,1.42-1.41,1.42Zm0-2.38c-.54,0-.97.44-.97.97s.44.97.97.97.97-.44.97-.97-.44-.97-.97-.97Z"/>
    <path class="cls-3" d="m58.37,44.75c-.78,0-1.41-.63-1.41-1.42s.63-1.41,1.41-1.41,1.41.63,1.41,1.41-.63,1.42-1.41,1.42Zm0-2.38c-.54,0-.97.44-.97.97s.44.97.97.97.97-.44.97-.97-.44-.97-.97-.97Z"/>
    <path class="cls-3" d="m50.82,44.75c-.78,0-1.41-.63-1.41-1.42s.63-1.41,1.41-1.41,1.41.63,1.41,1.41-.63,1.42-1.41,1.42Zm0-2.38c-.54,0-.97.44-.97.97s.44.97.97.97.97-.44.97-.97-.44-.97-.97-.97Z"/>
    <path class="cls-3" d="m43.28,44.75c-.78,0-1.41-.63-1.41-1.42s.63-1.41,1.41-1.41,1.41.63,1.41,1.41-.63,1.42-1.41,1.42Zm0-2.38c-.54,0-.97.44-.97.97s.44.97.97.97.97-.44.97-.97-.44-.97-.97-.97Z"/>
    <path class="cls-3" d="m35.73,44.75c-.78,0-1.41-.63-1.41-1.42s.63-1.41,1.41-1.41,1.41.63,1.41,1.41-.63,1.42-1.41,1.42Zm0-2.38c-.53,0-.97.44-.97.97s.44.97.97.97.97-.44.97-.97-.44-.97-.97-.97Z"/>
    <path class="cls-3" d="m28.19,44.75c-.78,0-1.41-.63-1.41-1.42s.63-1.41,1.41-1.41,1.41.63,1.41,1.41-.63,1.42-1.41,1.42Zm0-2.38c-.53,0-.97.44-.97.97s.44.97.97.97.97-.44.97-.97-.44-.97-.97-.97Z"/>
    <path class="cls-3" d="m20.64,44.75c-.78,0-1.41-.63-1.41-1.42s.63-1.41,1.41-1.41,1.41.63,1.41,1.41-.63,1.42-1.41,1.42Zm0-2.38c-.53,0-.97.44-.97.97s.44.97.97.97.97-.44.97-.97-.44-.97-.97-.97Z"/>
    <path class="cls-3" d="m13.1,44.75c-.78,0-1.41-.63-1.41-1.42s.63-1.41,1.41-1.41,1.41.63,1.41,1.41-.63,1.42-1.41,1.42Zm0-2.38c-.54,0-.97.44-.97.97s.44.97.97.97.97-.44.97-.97-.44-.97-.97-.97Z"/>
    <path class="cls-3" d="m5.56,44.75c-.78,0-1.41-.63-1.41-1.42s.63-1.41,1.41-1.41,1.41.63,1.41,1.41-.63,1.42-1.41,1.42Zm0-2.38c-.54,0-.97.44-.97.97s.44.97.97.97.97-.44.97-.97-.44-.97-.97-.97Z"/>
    <path class="cls-3" d="m88.55,37.21c-.78,0-1.41-.64-1.41-1.42s.63-1.41,1.41-1.41,1.41.63,1.41,1.41-.63,1.42-1.41,1.42Zm0-2.39c-.53,0-.97.44-.97.97s.44.97.97.97.97-.44.97-.97-.44-.97-.97-.97Z"/>
    <path class="cls-3" d="m81,37.21c-.78,0-1.41-.64-1.41-1.42s.63-1.41,1.41-1.41,1.41.63,1.41,1.41-.63,1.42-1.41,1.42Zm0-2.39c-.53,0-.97.44-.97.97s.44.97.97.97.97-.44.97-.97-.44-.97-.97-.97Z"/>
    <path class="cls-3" d="m73.46,37.21c-.78,0-1.41-.64-1.41-1.42s.63-1.41,1.41-1.41,1.41.63,1.41,1.41-.63,1.42-1.41,1.42Zm0-2.39c-.54,0-.97.44-.97.97s.44.97.97.97.97-.44.97-.97-.44-.97-.97-.97Z"/>
    <path class="cls-3" d="m65.91,37.21c-.78,0-1.41-.64-1.41-1.42s.63-1.41,1.41-1.41,1.41.63,1.41,1.41-.63,1.42-1.41,1.42Zm0-2.39c-.54,0-.97.44-.97.97s.44.97.97.97.97-.44.97-.97-.44-.97-.97-.97Z"/>
    <path class="cls-3" d="m58.37,37.21c-.78,0-1.41-.64-1.41-1.42s.63-1.41,1.41-1.41,1.41.63,1.41,1.41-.63,1.42-1.41,1.42Zm0-2.39c-.54,0-.97.44-.97.97s.44.97.97.97.97-.44.97-.97-.44-.97-.97-.97Z"/>
    <path class="cls-3" d="m50.82,37.21c-.78,0-1.41-.64-1.41-1.42s.63-1.41,1.41-1.41,1.41.63,1.41,1.41-.63,1.42-1.41,1.42Zm0-2.39c-.54,0-.97.44-.97.97s.44.97.97.97.97-.44.97-.97-.44-.97-.97-.97Z"/>
    <path class="cls-3" d="m43.28,37.21c-.78,0-1.41-.64-1.41-1.42s.63-1.41,1.41-1.41,1.41.63,1.41,1.41-.63,1.42-1.41,1.42Zm0-2.39c-.54,0-.97.44-.97.97s.44.97.97.97.97-.44.97-.97-.44-.97-.97-.97Z"/>
    <path class="cls-3" d="m35.73,37.21c-.78,0-1.41-.64-1.41-1.42s.63-1.41,1.41-1.41,1.41.63,1.41,1.41-.63,1.42-1.41,1.42Zm0-2.39c-.53,0-.97.44-.97.97s.44.97.97.97.97-.44.97-.97-.44-.97-.97-.97Z"/>
    <path class="cls-3" d="m28.19,37.21c-.78,0-1.41-.64-1.41-1.42s.63-1.41,1.41-1.41,1.41.63,1.41,1.41-.63,1.42-1.41,1.42Zm0-2.39c-.53,0-.97.44-.97.97s.44.97.97.97.97-.44.97-.97-.44-.97-.97-.97Z"/>
    <path class="cls-3" d="m20.64,37.21c-.78,0-1.41-.64-1.41-1.42s.63-1.41,1.41-1.41,1.41.63,1.41,1.41-.63,1.42-1.41,1.42Zm0-2.39c-.53,0-.97.44-.97.97s.44.97.97.97.97-.44.97-.97-.44-.97-.97-.97Z"/>
    <path class="cls-3" d="m13.1,37.21c-.78,0-1.41-.64-1.41-1.42s.63-1.41,1.41-1.41,1.41.63,1.41,1.41-.63,1.42-1.41,1.42Zm0-2.39c-.54,0-.97.44-.97.97s.44.97.97.97.97-.44.97-.97-.44-.97-.97-.97Z"/>
    <path class="cls-3" d="m5.56,37.21c-.78,0-1.41-.64-1.41-1.42s.63-1.41,1.41-1.41,1.41.63,1.41,1.41-.63,1.42-1.41,1.42Zm0-2.39c-.54,0-.97.44-.97.97s.44.97.97.97.97-.44.97-.97-.44-.97-.97-.97Z"/>
    <path class="cls-3" d="m88.55,29.66c-.78,0-1.41-.63-1.41-1.42s.63-1.41,1.41-1.41,1.41.63,1.41,1.41-.63,1.42-1.41,1.42Zm0-2.39c-.53,0-.97.44-.97.97s.44.97.97.97.97-.44.97-.97-.44-.97-.97-.97Z"/>
    <path class="cls-3" d="m81,29.66c-.78,0-1.41-.63-1.41-1.42s.63-1.41,1.41-1.41,1.41.63,1.41,1.41-.63,1.42-1.41,1.42Zm0-2.39c-.53,0-.97.44-.97.97s.44.97.97.97.97-.44.97-.97-.44-.97-.97-.97Z"/>
    <path class="cls-3" d="m73.46,29.66c-.78,0-1.41-.63-1.41-1.42s.63-1.41,1.41-1.41,1.41.63,1.41,1.41-.63,1.42-1.41,1.42Zm0-2.39c-.54,0-.97.44-.97.97s.44.97.97.97.97-.44.97-.97-.44-.97-.97-.97Z"/>
    <path class="cls-3" d="m65.91,29.66c-.78,0-1.41-.63-1.41-1.42s.63-1.41,1.41-1.41,1.41.63,1.41,1.41-.63,1.42-1.41,1.42Zm0-2.39c-.54,0-.97.44-.97.97s.44.97.97.97.97-.44.97-.97-.44-.97-.97-.97Z"/>
    <path class="cls-3" d="m58.37,29.66c-.78,0-1.41-.63-1.41-1.42s.63-1.41,1.41-1.41,1.41.63,1.41,1.41-.63,1.42-1.41,1.42Zm0-2.39c-.54,0-.97.44-.97.97s.44.97.97.97.97-.44.97-.97-.44-.97-.97-.97Z"/>
    <path class="cls-3" d="m50.82,29.66c-.78,0-1.41-.63-1.41-1.42s.63-1.41,1.41-1.41,1.41.63,1.41,1.41-.63,1.42-1.41,1.42Zm0-2.39c-.54,0-.97.44-.97.97s.44.97.97.97.97-.44.97-.97-.44-.97-.97-.97Z"/>
    <path class="cls-3" d="m43.28,29.66c-.78,0-1.41-.63-1.41-1.42s.63-1.41,1.41-1.41,1.41.63,1.41,1.41-.63,1.42-1.41,1.42Zm0-2.39c-.54,0-.97.44-.97.97s.44.97.97.97.97-.44.97-.97-.44-.97-.97-.97Z"/>
    <path class="cls-3" d="m35.73,29.66c-.78,0-1.41-.63-1.41-1.42s.63-1.41,1.41-1.41,1.41.63,1.41,1.41-.63,1.42-1.41,1.42Zm0-2.39c-.53,0-.97.44-.97.97s.44.97.97.97.97-.44.97-.97-.44-.97-.97-.97Z"/>
    <path class="cls-3" d="m28.19,29.66c-.78,0-1.41-.63-1.41-1.42s.63-1.41,1.41-1.41,1.41.63,1.41,1.41-.63,1.42-1.41,1.42Zm0-2.39c-.53,0-.97.44-.97.97s.44.97.97.97.97-.44.97-.97-.44-.97-.97-.97Z"/>
    <path class="cls-3" d="m20.64,29.66c-.78,0-1.41-.63-1.41-1.42s.63-1.41,1.41-1.41,1.41.63,1.41,1.41-.63,1.42-1.41,1.42Zm0-2.39c-.53,0-.97.44-.97.97s.44.97.97.97.97-.44.97-.97-.44-.97-.97-.97Z"/>
    <path class="cls-3" d="m13.1,29.66c-.78,0-1.41-.63-1.41-1.42s.63-1.41,1.41-1.41,1.41.63,1.41,1.41-.63,1.42-1.41,1.42Zm0-2.39c-.54,0-.97.44-.97.97s.44.97.97.97.97-.44.97-.97-.44-.97-.97-.97Z"/>
    <path class="cls-3" d="m5.56,29.66c-.78,0-1.41-.63-1.41-1.42s.63-1.41,1.41-1.41,1.41.63,1.41,1.41-.63,1.42-1.41,1.42Zm0-2.39c-.54,0-.97.44-.97.97s.44.97.97.97.97-.44.97-.97-.44-.97-.97-.97Z"/>
    <path class="cls-3" d="m88.55,22.12c-.78,0-1.41-.63-1.41-1.42s.63-1.41,1.41-1.41,1.41.63,1.41,1.41-.63,1.42-1.41,1.42Zm0-2.38c-.53,0-.97.44-.97.97s.44.97.97.97.97-.44.97-.97-.44-.97-.97-.97Z"/>
    <path class="cls-3" d="m81,22.12c-.78,0-1.41-.63-1.41-1.42s.63-1.41,1.41-1.41,1.41.63,1.41,1.41-.63,1.42-1.41,1.42Zm0-2.38c-.53,0-.97.44-.97.97s.44.97.97.97.97-.44.97-.97-.44-.97-.97-.97Z"/>
    <path class="cls-3" d="m73.46,22.12c-.78,0-1.41-.63-1.41-1.42s.63-1.41,1.41-1.41,1.41.63,1.41,1.41-.63,1.42-1.41,1.42Zm0-2.38c-.54,0-.97.44-.97.97s.44.97.97.97.97-.44.97-.97-.44-.97-.97-.97Z"/>
    <path class="cls-3" d="m65.91,22.12c-.78,0-1.41-.63-1.41-1.42s.63-1.41,1.41-1.41,1.41.63,1.41,1.41-.63,1.42-1.41,1.42Zm0-2.38c-.54,0-.97.44-.97.97s.44.97.97.97.97-.44.97-.97-.44-.97-.97-.97Z"/>
    <path class="cls-3" d="m58.37,22.12c-.78,0-1.41-.63-1.41-1.42s.63-1.41,1.41-1.41,1.41.63,1.41,1.41-.63,1.42-1.41,1.42Zm0-2.38c-.54,0-.97.44-.97.97s.44.97.97.97.97-.44.97-.97-.44-.97-.97-.97Z"/>
    <path class="cls-3" d="m50.82,22.12c-.78,0-1.41-.63-1.41-1.42s.63-1.41,1.41-1.41,1.41.63,1.41,1.41-.63,1.42-1.41,1.42Zm0-2.38c-.54,0-.97.44-.97.97s.44.97.97.97.97-.44.97-.97-.44-.97-.97-.97Z"/>
    <path class="cls-3" d="m43.28,22.12c-.78,0-1.41-.63-1.41-1.42s.63-1.41,1.41-1.41,1.41.63,1.41,1.41-.63,1.42-1.41,1.42Zm0-2.38c-.54,0-.97.44-.97.97s.44.97.97.97.97-.44.97-.97-.44-.97-.97-.97Z"/>
    <path class="cls-3" d="m35.73,22.12c-.78,0-1.41-.63-1.41-1.42s.63-1.41,1.41-1.41,1.41.63,1.41,1.41-.63,1.42-1.41,1.42Zm0-2.38c-.53,0-.97.44-.97.97s.44.97.97.97.97-.44.97-.97-.44-.97-.97-.97Z"/>
    <path class="cls-3" d="m28.19,22.12c-.78,0-1.41-.63-1.41-1.42s.63-1.41,1.41-1.41,1.41.63,1.41,1.41-.63,1.42-1.41,1.42Zm0-2.38c-.53,0-.97.44-.97.97s.44.97.97.97.97-.44.97-.97-.44-.97-.97-.97Z"/>
    <path class="cls-3" d="m20.64,22.12c-.78,0-1.41-.63-1.41-1.42s.63-1.41,1.41-1.41,1.41.63,1.41,1.41-.63,1.42-1.41,1.42Zm0-2.38c-.53,0-.97.44-.97.97s.44.97.97.97.97-.44.97-.97-.44-.97-.97-.97Z"/>
    <path class="cls-3" d="m13.1,22.12c-.78,0-1.41-.63-1.41-1.42s.63-1.41,1.41-1.41,1.41.63,1.41,1.41-.63,1.42-1.41,1.42Zm0-2.38c-.54,0-.97.44-.97.97s.44.97.97.97.97-.44.97-.97-.44-.97-.97-.97Z"/>
    <path class="cls-3" d="m5.56,22.12c-.78,0-1.41-.63-1.41-1.42s.63-1.41,1.41-1.41,1.41.63,1.41,1.41-.63,1.42-1.41,1.42Zm0-2.38c-.54,0-.97.44-.97.97s.44.97.97.97.97-.44.97-.97-.44-.97-.97-.97Z"/>
    <path class="cls-3" d="m88.55,14.57c-.78,0-1.41-.63-1.41-1.42s.63-1.41,1.41-1.41,1.41.63,1.41,1.41-.63,1.42-1.41,1.42Zm0-2.38c-.53,0-.97.44-.97.97s.44.97.97.97.97-.44.97-.97-.44-.97-.97-.97Z"/>
    <path class="cls-3" d="m81,14.57c-.78,0-1.41-.63-1.41-1.42s.63-1.41,1.41-1.41,1.41.63,1.41,1.41-.63,1.42-1.41,1.42Zm0-2.38c-.53,0-.97.44-.97.97s.44.97.97.97.97-.44.97-.97-.44-.97-.97-.97Z"/>
    <path class="cls-3" d="m73.46,14.57c-.78,0-1.41-.63-1.41-1.42s.63-1.41,1.41-1.41,1.41.63,1.41,1.41-.63,1.42-1.41,1.42Zm0-2.38c-.54,0-.97.44-.97.97s.44.97.97.97.97-.44.97-.97-.44-.97-.97-.97Z"/>
    <path class="cls-3" d="m65.91,14.57c-.78,0-1.41-.63-1.41-1.42s.63-1.41,1.41-1.41,1.41.63,1.41,1.41-.63,1.42-1.41,1.42Zm0-2.38c-.54,0-.97.44-.97.97s.44.97.97.97.97-.44.97-.97-.44-.97-.97-.97Z"/>
    <path class="cls-3" d="m58.37,14.57c-.78,0-1.41-.63-1.41-1.42s.63-1.41,1.41-1.41,1.41.63,1.41,1.41-.63,1.42-1.41,1.42Zm0-2.38c-.54,0-.97.44-.97.97s.44.97.97.97.97-.44.97-.97-.44-.97-.97-.97Z"/>
    <path class="cls-3" d="m50.82,14.57c-.78,0-1.41-.63-1.41-1.42s.63-1.41,1.41-1.41,1.41.63,1.41,1.41-.63,1.42-1.41,1.42Zm0-2.38c-.54,0-.97.44-.97.97s.44.97.97.97.97-.44.97-.97-.44-.97-.97-.97Z"/>
    <path class="cls-3" d="m43.28,14.57c-.78,0-1.41-.63-1.41-1.42s.63-1.41,1.41-1.41,1.41.63,1.41,1.41-.63,1.42-1.41,1.42Zm0-2.38c-.54,0-.97.44-.97.97s.44.97.97.97.97-.44.97-.97-.44-.97-.97-.97Z"/>
    <path class="cls-3" d="m35.73,14.57c-.78,0-1.41-.63-1.41-1.42s.63-1.41,1.41-1.41,1.41.63,1.41,1.41-.63,1.42-1.41,1.42Zm0-2.38c-.53,0-.97.44-.97.97s.44.97.97.97.97-.44.97-.97-.44-.97-.97-.97Z"/>
    <path class="cls-3" d="m28.19,14.57c-.78,0-1.41-.63-1.41-1.42s.63-1.41,1.41-1.41,1.41.63,1.41,1.41-.63,1.42-1.41,1.42Zm0-2.38c-.53,0-.97.44-.97.97s.44.97.97.97.97-.44.97-.97-.44-.97-.97-.97Z"/>
    <path class="cls-3" d="m20.64,14.57c-.78,0-1.41-.63-1.41-1.42s.63-1.41,1.41-1.41,1.41.63,1.41,1.41-.63,1.42-1.41,1.42Zm0-2.38c-.53,0-.97.44-.97.97s.44.97.97.97.97-.44.97-.97-.44-.97-.97-.97Z"/>
    <path class="cls-3" d="m13.1,14.57c-.78,0-1.41-.63-1.41-1.42s.63-1.41,1.41-1.41,1.41.63,1.41,1.41-.63,1.42-1.41,1.42Zm0-2.38c-.54,0-.97.44-.97.97s.44.97.97.97.97-.44.97-.97-.44-.97-.97-.97Z"/>
    <path class="cls-3" d="m5.56,14.57c-.78,0-1.41-.63-1.41-1.42s.63-1.41,1.41-1.41,1.41.63,1.41,1.41-.63,1.42-1.41,1.42Zm0-2.38c-.54,0-.97.44-.97.97s.44.97.97.97.97-.44.97-.97-.44-.97-.97-.97Z"/>
    <path class="cls-3" d="m88.55,7.03c-.78,0-1.41-.64-1.41-1.42s.63-1.41,1.41-1.41,1.41.63,1.41,1.41-.63,1.42-1.41,1.42Zm0-2.39c-.53,0-.97.44-.97.97s.44.97.97.97.97-.44.97-.97-.44-.97-.97-.97Z"/>
    <path class="cls-3" d="m81,7.03c-.78,0-1.41-.64-1.41-1.42s.63-1.41,1.41-1.41,1.41.63,1.41,1.41-.63,1.42-1.41,1.42Zm0-2.39c-.53,0-.97.44-.97.97s.44.97.97.97.97-.44.97-.97-.44-.97-.97-.97Z"/>
    <path class="cls-3" d="m73.46,7.03c-.78,0-1.41-.64-1.41-1.42s.63-1.41,1.41-1.41,1.41.63,1.41,1.41-.63,1.42-1.41,1.42Zm0-2.39c-.54,0-.97.44-.97.97s.44.97.97.97.97-.44.97-.97-.44-.97-.97-.97Z"/>
    <path class="cls-3" d="m65.91,7.03c-.78,0-1.41-.64-1.41-1.42s.63-1.41,1.41-1.41,1.41.63,1.41,1.41-.63,1.42-1.41,1.42Zm0-2.39c-.54,0-.97.44-.97.97s.44.97.97.97.97-.44.97-.97-.44-.97-.97-.97Z"/>
    <path class="cls-3" d="m58.37,7.03c-.78,0-1.41-.64-1.41-1.42s.63-1.41,1.41-1.41,1.41.63,1.41,1.41-.63,1.42-1.41,1.42Zm0-2.39c-.54,0-.97.44-.97.97s.44.97.97.97.97-.44.97-.97-.44-.97-.97-.97Z"/>
    <path class="cls-3" d="m50.82,7.03c-.78,0-1.41-.64-1.41-1.42s.63-1.41,1.41-1.41,1.41.63,1.41,1.41-.63,1.42-1.41,1.42Zm0-2.39c-.54,0-.97.44-.97.97s.44.97.97.97.97-.44.97-.97-.44-.97-.97-.97Z"/>
    <path class="cls-3" d="m43.28,7.03c-.78,0-1.41-.64-1.41-1.42s.63-1.41,1.41-1.41,1.41.63,1.41,1.41-.63,1.42-1.41,1.42Zm0-2.39c-.54,0-.97.44-.97.97s.44.97.97.97.97-.44.97-.97-.44-.97-.97-.97Z"/>
    <path class="cls-3" d="m35.73,7.03c-.78,0-1.41-.64-1.41-1.42s.63-1.41,1.41-1.41,1.41.63,1.41,1.41-.63,1.42-1.41,1.42Zm0-2.39c-.53,0-.97.44-.97.97s.44.97.97.97.97-.44.97-.97-.44-.97-.97-.97Z"/>
    <path class="cls-3" d="m28.19,7.03c-.78,0-1.41-.64-1.41-1.42s.63-1.41,1.41-1.41,1.41.63,1.41,1.41-.63,1.42-1.41,1.42Zm0-2.39c-.53,0-.97.44-.97.97s.44.97.97.97.97-.44.97-.97-.44-.97-.97-.97Z"/>
    <path class="cls-3" d="m20.64,7.03c-.78,0-1.41-.64-1.41-1.42s.63-1.41,1.41-1.41,1.41.63,1.41,1.41-.63,1.42-1.41,1.42Zm0-2.39c-.53,0-.97.44-.97.97s.44.97.97.97.97-.44.97-.97-.44-.97-.97-.97Z"/>
    <path class="cls-3" d="m13.1,7.03c-.78,0-1.41-.64-1.41-1.42s.63-1.41,1.41-1.41,1.41.63,1.41,1.41-.63,1.42-1.41,1.42Zm0-2.39c-.54,0-.97.44-.97.97s.44.97.97.97.97-.44.97-.97-.44-.97-.97-.97Z"/>
    <path class="cls-3" d="m5.56,7.03c-.78,0-1.41-.64-1.41-1.42s.63-1.41,1.41-1.41,1.41.63,1.41,1.41-.63,1.42-1.41,1.42Zm0-2.39c-.54,0-.97.44-.97.97s.44.97.97.97.97-.44.97-.97-.44-.97-.97-.97Z"/>
    <path class="cls-3" d="m84.76,85.85c-.45,0-.82-.37-.82-.82s.37-.82.82-.82.82.37.82.82-.37.82-.82.82Zm0-1.19c-.21,0-.37.17-.37.37s.17.37.37.37.37-.17.37-.37-.17-.37-.37-.37Z"/>
    <path class="cls-3" d="m69.67,85.85c-.45,0-.82-.37-.82-.82s.37-.82.82-.82.82.37.82.82-.37.82-.82.82Zm0-1.19c-.21,0-.37.17-.37.37s.17.37.37.37.37-.17.37-.37-.17-.37-.37-.37Z"/>
    <path class="cls-3" d="m54.58,85.85c-.45,0-.82-.37-.82-.82s.37-.82.82-.82.82.37.82.82-.37.82-.82.82Zm0-1.19c-.21,0-.37.17-.37.37s.17.37.37.37.37-.17.37-.37-.17-.37-.37-.37Z"/>
    <path class="cls-3" d="m39.49,85.85c-.45,0-.82-.37-.82-.82s.37-.82.82-.82.82.37.82.82-.37.82-.82.82Zm0-1.19c-.21,0-.37.17-.37.37s.17.37.37.37.37-.17.37-.37-.17-.37-.37-.37Z"/>
    <path class="cls-3" d="m24.4,85.85c-.45,0-.82-.37-.82-.82s.37-.82.82-.82.82.37.82.82-.37.82-.82.82Zm0-1.19c-.21,0-.37.17-.37.37s.17.37.37.37.37-.17.37-.37-.17-.37-.37-.37Z"/>
    <path class="cls-3" d="m9.31,85.85c-.45,0-.82-.37-.82-.82s.37-.82.82-.82.82.37.82.82-.37.82-.82.82Zm0-1.19c-.21,0-.37.17-.37.37s.17.37.37.37.37-.17.37-.37-.17-.37-.37-.37Z"/>
    <path class="cls-3" d="m84.76,70.76c-.45,0-.82-.37-.82-.82s.37-.82.82-.82.82.37.82.82-.37.82-.82.82Zm0-1.19c-.21,0-.37.17-.37.37s.17.37.37.37.37-.17.37-.37-.17-.37-.37-.37Z"/>
    <path class="cls-3" d="m69.67,70.76c-.45,0-.82-.37-.82-.82s.37-.82.82-.82.82.37.82.82-.37.82-.82.82Zm0-1.19c-.21,0-.37.17-.37.37s.17.37.37.37.37-.17.37-.37-.17-.37-.37-.37Z"/>
    <path class="cls-3" d="m54.58,70.76c-.45,0-.82-.37-.82-.82s.37-.82.82-.82.82.37.82.82-.37.82-.82.82Zm0-1.19c-.21,0-.37.17-.37.37s.17.37.37.37.37-.17.37-.37-.17-.37-.37-.37Z"/>
    <path class="cls-3" d="m39.49,70.76c-.45,0-.82-.37-.82-.82s.37-.82.82-.82.82.37.82.82-.37.82-.82.82Zm0-1.19c-.21,0-.37.17-.37.37s.17.37.37.37.37-.17.37-.37-.17-.37-.37-.37Z"/>
    <path class="cls-3" d="m24.4,70.76c-.45,0-.82-.37-.82-.82s.37-.82.82-.82.82.37.82.82-.37.82-.82.82Zm0-1.19c-.21,0-.37.17-.37.37s.17.37.37.37.37-.17.37-.37-.17-.37-.37-.37Z"/>
    <path class="cls-3" d="m9.31,70.76c-.45,0-.82-.37-.82-.82s.37-.82.82-.82.82.37.82.82-.37.82-.82.82Zm0-1.19c-.21,0-.37.17-.37.37s.17.37.37.37.37-.17.37-.37-.17-.37-.37-.37Z"/>
    <path class="cls-3" d="m84.76,55.67c-.45,0-.82-.37-.82-.82s.37-.82.82-.82.82.37.82.82-.37.82-.82.82Zm0-1.19c-.21,0-.37.17-.37.37s.17.37.37.37.37-.17.37-.37-.17-.37-.37-.37Z"/>
    <path class="cls-3" d="m69.67,55.67c-.45,0-.82-.37-.82-.82s.37-.82.82-.82.82.37.82.82-.37.82-.82.82Zm0-1.19c-.21,0-.37.17-.37.37s.17.37.37.37.37-.17.37-.37-.17-.37-.37-.37Z"/>
    <path class="cls-3" d="m54.58,55.67c-.45,0-.82-.37-.82-.82s.37-.82.82-.82.82.37.82.82-.37.82-.82.82Zm0-1.19c-.21,0-.37.17-.37.37s.17.37.37.37.37-.17.37-.37-.17-.37-.37-.37Z"/>
    <path class="cls-3" d="m39.49,55.67c-.45,0-.82-.37-.82-.82s.37-.82.82-.82.82.37.82.82-.37.82-.82.82Zm0-1.19c-.21,0-.37.17-.37.37s.17.37.37.37.37-.17.37-.37-.17-.37-.37-.37Z"/>
    <path class="cls-3" d="m24.4,55.67c-.45,0-.82-.37-.82-.82s.37-.82.82-.82.82.37.82.82-.37.82-.82.82Zm0-1.19c-.21,0-.37.17-.37.37s.17.37.37.37.37-.17.37-.37-.17-.37-.37-.37Z"/>
    <path class="cls-3" d="m9.31,55.67c-.45,0-.82-.37-.82-.82s.37-.82.82-.82.82.37.82.82-.37.82-.82.82Zm0-1.19c-.21,0-.37.17-.37.37s.17.37.37.37.37-.17.37-.37-.17-.37-.37-.37Z"/>
    <path class="cls-3" d="m84.76,40.58c-.45,0-.82-.37-.82-.82s.37-.82.82-.82.82.37.82.82-.37.82-.82.82Zm0-1.19c-.21,0-.37.17-.37.37s.17.37.37.37.37-.17.37-.37-.17-.37-.37-.37Z"/>
    <path class="cls-3" d="m69.67,40.58c-.45,0-.82-.37-.82-.82s.37-.82.82-.82.82.37.82.82-.37.82-.82.82Zm0-1.19c-.21,0-.37.17-.37.37s.17.37.37.37.37-.17.37-.37-.17-.37-.37-.37Z"/>
    <path class="cls-3" d="m54.58,40.58c-.45,0-.82-.37-.82-.82s.37-.82.82-.82.82.37.82.82-.37.82-.82.82Zm0-1.19c-.21,0-.37.17-.37.37s.17.37.37.37.37-.17.37-.37-.17-.37-.37-.37Z"/>
    <path class="cls-3" d="m39.49,40.58c-.45,0-.82-.37-.82-.82s.37-.82.82-.82.82.37.82.82-.37.82-.82.82Zm0-1.19c-.21,0-.37.17-.37.37s.17.37.37.37.37-.17.37-.37-.17-.37-.37-.37Z"/>
    <path class="cls-3" d="m24.4,40.58c-.45,0-.82-.37-.82-.82s.37-.82.82-.82.82.37.82.82-.37.82-.82.82Zm0-1.19c-.21,0-.37.17-.37.37s.17.37.37.37.37-.17.37-.37-.17-.37-.37-.37Z"/>
    <path class="cls-3" d="m9.31,40.58c-.45,0-.82-.37-.82-.82s.37-.82.82-.82.82.37.82.82-.37.82-.82.82Zm0-1.19c-.21,0-.37.17-.37.37s.17.37.37.37.37-.17.37-.37-.17-.37-.37-.37Z"/>
    <path class="cls-3" d="m84.76,25.49c-.45,0-.82-.37-.82-.82s.37-.82.82-.82.82.37.82.82-.37.82-.82.82Zm0-1.19c-.21,0-.37.17-.37.37s.17.37.37.37.37-.17.37-.37-.17-.37-.37-.37Z"/>
    <path class="cls-3" d="m69.67,25.49c-.45,0-.82-.37-.82-.82s.37-.82.82-.82.82.37.82.82-.37.82-.82.82Zm0-1.19c-.21,0-.37.17-.37.37s.17.37.37.37.37-.17.37-.37-.17-.37-.37-.37Z"/>
    <path class="cls-3" d="m54.58,25.49c-.45,0-.82-.37-.82-.82s.37-.82.82-.82.82.37.82.82-.37.82-.82.82Zm0-1.19c-.21,0-.37.17-.37.37s.17.37.37.37.37-.17.37-.37-.17-.37-.37-.37Z"/>
    <path class="cls-3" d="m39.49,25.49c-.45,0-.82-.37-.82-.82s.37-.82.82-.82.82.37.82.82-.37.82-.82.82Zm0-1.19c-.21,0-.37.17-.37.37s.17.37.37.37.37-.17.37-.37-.17-.37-.37-.37Z"/>
    <path class="cls-3" d="m24.4,25.49c-.45,0-.82-.37-.82-.82s.37-.82.82-.82.82.37.82.82-.37.82-.82.82Zm0-1.19c-.21,0-.37.17-.37.37s.17.37.37.37.37-.17.37-.37-.17-.37-.37-.37Z"/>
    <path class="cls-3" d="m9.31,25.49c-.45,0-.82-.37-.82-.82s.37-.82.82-.82.82.37.82.82-.37.82-.82.82Zm0-1.19c-.21,0-.37.17-.37.37s.17.37.37.37.37-.17.37-.37-.17-.37-.37-.37Z"/>
    <path class="cls-3" d="m84.76,10.4c-.45,0-.82-.37-.82-.82s.37-.82.82-.82.82.37.82.82-.37.82-.82.82Zm0-1.19c-.21,0-.37.17-.37.37s.17.37.37.37.37-.17.37-.37-.17-.37-.37-.37Z"/>
    <path class="cls-3" d="m69.67,10.4c-.45,0-.82-.37-.82-.82s.37-.82.82-.82.82.37.82.82-.37.82-.82.82Zm0-1.19c-.21,0-.37.17-.37.37s.17.37.37.37.37-.17.37-.37-.17-.37-.37-.37Z"/>
    <path class="cls-3" d="m54.58,10.4c-.45,0-.82-.37-.82-.82s.37-.82.82-.82.82.37.82.82-.37.82-.82.82Zm0-1.19c-.21,0-.37.17-.37.37s.17.37.37.37.37-.17.37-.37-.17-.37-.37-.37Z"/>
    <path class="cls-3" d="m39.49,10.4c-.45,0-.82-.37-.82-.82s.37-.82.82-.82.82.37.82.82-.37.82-.82.82Zm0-1.19c-.21,0-.37.17-.37.37s.17.37.37.37.37-.17.37-.37-.17-.37-.37-.37Z"/>
    <path class="cls-3" d="m24.4,10.4c-.45,0-.82-.37-.82-.82s.37-.82.82-.82.82.37.82.82-.37.82-.82.82Zm0-1.19c-.21,0-.37.17-.37.37s.17.37.37.37.37-.17.37-.37-.17-.37-.37-.37Z"/>
    <path class="cls-3" d="m9.31,10.4c-.45,0-.82-.37-.82-.82s.37-.82.82-.82.82.37.82.82-.37.82-.82.82Zm0-1.19c-.21,0-.37.17-.37.37s.17.37.37.37.37-.17.37-.37-.17-.37-.37-.37Z"/>
    <path class="cls-3" d="m77.37,102.06c-1.22,0-2.21-.99-2.21-2.21s.99-2.21,2.21-2.21,2.21.99,2.21,2.21-.99,2.21-2.21,2.21Zm0-3.98c-.97,0-1.77.79-1.77,1.77s.79,1.77,1.77,1.77,1.77-.79,1.77-1.77-.79-1.77-1.77-1.77Z"/>
    <path class="cls-3" d="m47.19,102.06c-1.22,0-2.21-.99-2.21-2.21s.99-2.21,2.21-2.21,2.21.99,2.21,2.21-.99,2.21-2.21,2.21Zm0-3.98c-.97,0-1.77.79-1.77,1.77s.79,1.77,1.77,1.77,1.77-.79,1.77-1.77-.79-1.77-1.77-1.77Z"/>
    <path class="cls-3" d="m17.01,102.06c-1.22,0-2.21-.99-2.21-2.21s.99-2.21,2.21-2.21,2.21.99,2.21,2.21-.99,2.21-2.21,2.21Zm0-3.98c-.97,0-1.77.79-1.77,1.77s.79,1.77,1.77,1.77,1.77-.79,1.77-1.77-.79-1.77-1.77-1.77Z"/>
    <path class="cls-3" d="m77.37,86.97c-1.22,0-2.21-.99-2.21-2.21s.99-2.21,2.21-2.21,2.21.99,2.21,2.21-.99,2.21-2.21,2.21Zm0-3.98c-.97,0-1.77.79-1.77,1.77s.79,1.77,1.77,1.77,1.77-.79,1.77-1.77-.79-1.77-1.77-1.77Z"/>
    <path class="cls-3" d="m47.19,86.97c-1.22,0-2.21-.99-2.21-2.21s.99-2.21,2.21-2.21,2.21.99,2.21,2.21-.99,2.21-2.21,2.21Zm0-3.98c-.97,0-1.77.79-1.77,1.77s.79,1.77,1.77,1.77,1.77-.79,1.77-1.77-.79-1.77-1.77-1.77Z"/>
    <path class="cls-3" d="m17.01,86.97c-1.22,0-2.21-.99-2.21-2.21s.99-2.21,2.21-2.21,2.21.99,2.21,2.21-.99,2.21-2.21,2.21Zm0-3.98c-.97,0-1.77.79-1.77,1.77s.79,1.77,1.77,1.77,1.77-.79,1.77-1.77-.79-1.77-1.77-1.77Z"/>
    <path class="cls-3" d="m77.37,71.88c-1.22,0-2.21-.99-2.21-2.21s.99-2.21,2.21-2.21,2.21.99,2.21,2.21-.99,2.21-2.21,2.21Zm0-3.98c-.97,0-1.77.79-1.77,1.77s.79,1.77,1.77,1.77,1.77-.79,1.77-1.77-.79-1.77-1.77-1.77Z"/>
    <path class="cls-3" d="m47.19,71.88c-1.22,0-2.21-.99-2.21-2.21s.99-2.21,2.21-2.21,2.21.99,2.21,2.21-.99,2.21-2.21,2.21Zm0-3.98c-.97,0-1.77.79-1.77,1.77s.79,1.77,1.77,1.77,1.77-.79,1.77-1.77-.79-1.77-1.77-1.77Z"/>
    <path class="cls-3" d="m17.01,71.88c-1.22,0-2.21-.99-2.21-2.21s.99-2.21,2.21-2.21,2.21.99,2.21,2.21-.99,2.21-2.21,2.21Zm0-3.98c-.97,0-1.77.79-1.77,1.77s.79,1.77,1.77,1.77,1.77-.79,1.77-1.77-.79-1.77-1.77-1.77Z"/>
    <path class="cls-3" d="m77.37,56.79c-1.22,0-2.21-.99-2.21-2.21s.99-2.21,2.21-2.21,2.21.99,2.21,2.21-.99,2.21-2.21,2.21Zm0-3.98c-.97,0-1.77.79-1.77,1.77s.79,1.77,1.77,1.77,1.77-.79,1.77-1.77-.79-1.77-1.77-1.77Z"/>
    <path class="cls-3" d="m47.19,56.79c-1.22,0-2.21-.99-2.21-2.21s.99-2.21,2.21-2.21,2.21.99,2.21,2.21-.99,2.21-2.21,2.21Zm0-3.98c-.97,0-1.77.79-1.77,1.77s.79,1.77,1.77,1.77,1.77-.79,1.77-1.77-.79-1.77-1.77-1.77Z"/>
    <path class="cls-3" d="m17.01,56.79c-1.22,0-2.21-.99-2.21-2.21s.99-2.21,2.21-2.21,2.21.99,2.21,2.21-.99,2.21-2.21,2.21Zm0-3.98c-.97,0-1.77.79-1.77,1.77s.79,1.77,1.77,1.77,1.77-.79,1.77-1.77-.79-1.77-1.77-1.77Z"/>
    <path class="cls-3" d="m77.37,41.7c-1.22,0-2.21-.99-2.21-2.21s.99-2.21,2.21-2.21,2.21.99,2.21,2.21-.99,2.21-2.21,2.21Zm0-3.98c-.97,0-1.77.79-1.77,1.77s.79,1.77,1.77,1.77,1.77-.79,1.77-1.77-.79-1.77-1.77-1.77Z"/>
    <path class="cls-3" d="m47.19,41.7c-1.22,0-2.21-.99-2.21-2.21s.99-2.21,2.21-2.21,2.21.99,2.21,2.21-.99,2.21-2.21,2.21Zm0-3.98c-.97,0-1.77.79-1.77,1.77s.79,1.77,1.77,1.77,1.77-.79,1.77-1.77-.79-1.77-1.77-1.77Z"/>
    <path class="cls-3" d="m17.01,41.7c-1.22,0-2.21-.99-2.21-2.21s.99-2.21,2.21-2.21,2.21.99,2.21,2.21-.99,2.21-2.21,2.21Zm0-3.98c-.97,0-1.77.79-1.77,1.77s.79,1.77,1.77,1.77,1.77-.79,1.77-1.77-.79-1.77-1.77-1.77Z"/>
    <path class="cls-3" d="m77.37,26.61c-1.22,0-2.21-.99-2.21-2.21s.99-2.21,2.21-2.21,2.21.99,2.21,2.21-.99,2.21-2.21,2.21Zm0-3.98c-.97,0-1.77.79-1.77,1.77s.79,1.77,1.77,1.77,1.77-.79,1.77-1.77-.79-1.77-1.77-1.77Z"/>
    <path class="cls-3" d="m47.19,26.61c-1.22,0-2.21-.99-2.21-2.21s.99-2.21,2.21-2.21,2.21.99,2.21,2.21-.99,2.21-2.21,2.21Zm0-3.98c-.97,0-1.77.79-1.77,1.77s.79,1.77,1.77,1.77,1.77-.79,1.77-1.77-.79-1.77-1.77-1.77Z"/>
    <path class="cls-3" d="m17.01,26.61c-1.22,0-2.21-.99-2.21-2.21s.99-2.21,2.21-2.21,2.21.99,2.21,2.21-.99,2.21-2.21,2.21Zm0-3.98c-.97,0-1.77.79-1.77,1.77s.79,1.77,1.77,1.77,1.77-.79,1.77-1.77-.79-1.77-1.77-1.77Z"/>
    <path class="cls-3" d="m77.37,11.52c-1.22,0-2.21-.99-2.21-2.21s.99-2.21,2.21-2.21,2.21.99,2.21,2.21-.99,2.21-2.21,2.21Zm0-3.98c-.97,0-1.77.79-1.77,1.77s.79,1.77,1.77,1.77,1.77-.79,1.77-1.77-.79-1.77-1.77-1.77Z"/>
    <path class="cls-3" d="m47.19,11.52c-1.22,0-2.21-.99-2.21-2.21s.99-2.21,2.21-2.21,2.21.99,2.21,2.21-.99,2.21-2.21,2.21Zm0-3.98c-.97,0-1.77.79-1.77,1.77s.79,1.77,1.77,1.77,1.77-.79,1.77-1.77-.79-1.77-1.77-1.77Z"/>
    <path class="cls-3" d="m17.01,11.52c-1.22,0-2.21-.99-2.21-2.21s.99-2.21,2.21-2.21,2.21.99,2.21,2.21-.99,2.21-2.21,2.21Zm0-3.98c-.97,0-1.77.79-1.77,1.77s.79,1.77,1.77,1.77,1.77-.79,1.77-1.77-.79-1.77-1.77-1.77Z"/>
    <path class="cls-3" d="m62,102.06c-1.22,0-2.21-.99-2.21-2.21s.99-2.21,2.21-2.21,2.21.99,2.21,2.21-.99,2.21-2.21,2.21Zm0-3.98c-.97,0-1.77.79-1.77,1.77s.79,1.77,1.77,1.77,1.77-.79,1.77-1.77-.79-1.77-1.77-1.77Z"/>
    <path class="cls-3" d="m31.82,102.06c-1.22,0-2.21-.99-2.21-2.21s.99-2.21,2.21-2.21,2.21.99,2.21,2.21-.99,2.21-2.21,2.21Zm0-3.98c-.97,0-1.77.79-1.77,1.77s.79,1.77,1.77,1.77,1.77-.79,1.77-1.77-.79-1.77-1.77-1.77Z"/>
    <path class="cls-3" d="m62,86.97c-1.22,0-2.21-.99-2.21-2.21s.99-2.21,2.21-2.21,2.21.99,2.21,2.21-.99,2.21-2.21,2.21Zm0-3.98c-.97,0-1.77.79-1.77,1.77s.79,1.77,1.77,1.77,1.77-.79,1.77-1.77-.79-1.77-1.77-1.77Z"/>
    <path class="cls-3" d="m31.82,86.97c-1.22,0-2.21-.99-2.21-2.21s.99-2.21,2.21-2.21,2.21.99,2.21,2.21-.99,2.21-2.21,2.21Zm0-3.98c-.97,0-1.77.79-1.77,1.77s.79,1.77,1.77,1.77,1.77-.79,1.77-1.77-.79-1.77-1.77-1.77Z"/>
    <path class="cls-3" d="m62,71.88c-1.22,0-2.21-.99-2.21-2.21s.99-2.21,2.21-2.21,2.21.99,2.21,2.21-.99,2.21-2.21,2.21Zm0-3.98c-.97,0-1.77.79-1.77,1.77s.79,1.77,1.77,1.77,1.77-.79,1.77-1.77-.79-1.77-1.77-1.77Z"/>
    <path class="cls-3" d="m31.82,71.88c-1.22,0-2.21-.99-2.21-2.21s.99-2.21,2.21-2.21,2.21.99,2.21,2.21-.99,2.21-2.21,2.21Zm0-3.98c-.97,0-1.77.79-1.77,1.77s.79,1.77,1.77,1.77,1.77-.79,1.77-1.77-.79-1.77-1.77-1.77Z"/>
    <path class="cls-3" d="m62,56.79c-1.22,0-2.21-.99-2.21-2.21s.99-2.21,2.21-2.21,2.21.99,2.21,2.21-.99,2.21-2.21,2.21Zm0-3.98c-.97,0-1.77.79-1.77,1.77s.79,1.77,1.77,1.77,1.77-.79,1.77-1.77-.79-1.77-1.77-1.77Z"/>
    <path class="cls-3" d="m31.82,56.79c-1.22,0-2.21-.99-2.21-2.21s.99-2.21,2.21-2.21,2.21.99,2.21,2.21-.99,2.21-2.21,2.21Zm0-3.98c-.97,0-1.77.79-1.77,1.77s.79,1.77,1.77,1.77,1.77-.79,1.77-1.77-.79-1.77-1.77-1.77Z"/>
    <path class="cls-3" d="m62,41.7c-1.22,0-2.21-.99-2.21-2.21s.99-2.21,2.21-2.21,2.21.99,2.21,2.21-.99,2.21-2.21,2.21Zm0-3.98c-.97,0-1.77.79-1.77,1.77s.79,1.77,1.77,1.77,1.77-.79,1.77-1.77-.79-1.77-1.77-1.77Z"/>
    <path class="cls-3" d="m31.82,41.7c-1.22,0-2.21-.99-2.21-2.21s.99-2.21,2.21-2.21,2.21.99,2.21,2.21-.99,2.21-2.21,2.21Zm0-3.98c-.97,0-1.77.79-1.77,1.77s.79,1.77,1.77,1.77,1.77-.79,1.77-1.77-.79-1.77-1.77-1.77Z"/>
    <path class="cls-3" d="m62,26.61c-1.22,0-2.21-.99-2.21-2.21s.99-2.21,2.21-2.21,2.21.99,2.21,2.21-.99,2.21-2.21,2.21Zm0-3.98c-.97,0-1.77.79-1.77,1.77s.79,1.77,1.77,1.77,1.77-.79,1.77-1.77-.79-1.77-1.77-1.77Z"/>
    <path class="cls-3" d="m31.82,26.61c-1.22,0-2.21-.99-2.21-2.21s.99-2.21,2.21-2.21,2.21.99,2.21,2.21-.99,2.21-2.21,2.21Zm0-3.98c-.97,0-1.77.79-1.77,1.77s.79,1.77,1.77,1.77,1.77-.79,1.77-1.77-.79-1.77-1.77-1.77Z"/>
    <path class="cls-3" d="m62,11.52c-1.22,0-2.21-.99-2.21-2.21s.99-2.21,2.21-2.21,2.21.99,2.21,2.21-.99,2.21-2.21,2.21Zm0-3.98c-.97,0-1.77.79-1.77,1.77s.79,1.77,1.77,1.77,1.77-.79,1.77-1.77-.79-1.77-1.77-1.77Z"/>
    <path class="cls-3" d="m31.82,11.52c-1.22,0-2.21-.99-2.21-2.21s.99-2.21,2.21-2.21,2.21.99,2.21,2.21-.99,2.21-2.21,2.21Zm0-3.98c-.97,0-1.77.79-1.77,1.77s.79,1.77,1.77,1.77,1.77-.79,1.77-1.77-.79-1.77-1.77-1.77Z"/>
    <path class="cls-3" d="m92.46,93.29c-.45,0-.82-.37-.82-.82s.37-.82.82-.82.82.37.82.82-.37.82-.82.82Zm0-1.19c-.21,0-.37.17-.37.37s.17.37.37.37.37-.17.37-.37-.17-.37-.37-.37Z"/>
    <path class="cls-3" d="m77.37,93.29c-.45,0-.82-.37-.82-.82s.37-.82.82-.82.82.37.82.82-.37.82-.82.82Zm0-1.19c-.21,0-.37.17-.37.37s.17.37.37.37.37-.17.37-.37-.17-.37-.37-.37Z"/>
    <path class="cls-3" d="m62.28,93.29c-.45,0-.82-.37-.82-.82s.37-.82.82-.82.82.37.82.82-.37.82-.82.82Zm0-1.19c-.21,0-.37.17-.37.37s.17.37.37.37.37-.17.37-.37-.17-.37-.37-.37Z"/>
    <path class="cls-3" d="m47.19,93.29c-.45,0-.82-.37-.82-.82s.37-.82.82-.82.82.37.82.82-.37.82-.82.82Zm0-1.19c-.21,0-.37.17-.37.37s.17.37.37.37.37-.17.37-.37-.17-.37-.37-.37Z"/>
    <path class="cls-3" d="m32.1,93.29c-.45,0-.82-.37-.82-.82s.37-.82.82-.82.82.37.82.82-.37.82-.82.82Zm0-1.19c-.21,0-.37.17-.37.37s.17.37.37.37.37-.17.37-.37-.17-.37-.37-.37Z"/>
    <path class="cls-3" d="m17.01,93.29c-.45,0-.82-.37-.82-.82s.37-.82.82-.82.82.37.82.82-.37.82-.82.82Zm0-1.19c-.21,0-.37.17-.37.37s.17.37.37.37.37-.17.37-.37-.17-.37-.37-.37Z"/>
    <path class="cls-3" d="m92.46,78.2c-.45,0-.82-.37-.82-.82s.37-.82.82-.82.82.37.82.82-.37.82-.82.82Zm0-1.19c-.21,0-.37.17-.37.37s.17.37.37.37.37-.17.37-.37-.17-.37-.37-.37Z"/>
    <path class="cls-3" d="m77.37,78.2c-.45,0-.82-.37-.82-.82s.37-.82.82-.82.82.37.82.82-.37.82-.82.82Zm0-1.19c-.21,0-.37.17-.37.37s.17.37.37.37.37-.17.37-.37-.17-.37-.37-.37Z"/>
    <path class="cls-3" d="m62.28,78.2c-.45,0-.82-.37-.82-.82s.37-.82.82-.82.82.37.82.82-.37.82-.82.82Zm0-1.19c-.21,0-.37.17-.37.37s.17.37.37.37.37-.17.37-.37-.17-.37-.37-.37Z"/>
    <path class="cls-3" d="m47.19,78.2c-.45,0-.82-.37-.82-.82s.37-.82.82-.82.82.37.82.82-.37.82-.82.82Zm0-1.19c-.21,0-.37.17-.37.37s.17.37.37.37.37-.17.37-.37-.17-.37-.37-.37Z"/>
    <path class="cls-3" d="m32.1,78.2c-.45,0-.82-.37-.82-.82s.37-.82.82-.82.82.37.82.82-.37.82-.82.82Zm0-1.19c-.21,0-.37.17-.37.37s.17.37.37.37.37-.17.37-.37-.17-.37-.37-.37Z"/>
    <path class="cls-3" d="m17.01,78.2c-.45,0-.82-.37-.82-.82s.37-.82.82-.82.82.37.82.82-.37.82-.82.82Zm0-1.19c-.21,0-.37.17-.37.37s.17.37.37.37.37-.17.37-.37-.17-.37-.37-.37Z"/>
    <path class="cls-3" d="m92.46,63.11c-.45,0-.82-.37-.82-.82s.37-.82.82-.82.82.37.82.82-.37.82-.82.82Zm0-1.19c-.21,0-.37.17-.37.37s.17.37.37.37.37-.17.37-.37-.17-.37-.37-.37Z"/>
    <path class="cls-3" d="m77.37,63.11c-.45,0-.82-.37-.82-.82s.37-.82.82-.82.82.37.82.82-.37.82-.82.82Zm0-1.19c-.21,0-.37.17-.37.37s.17.37.37.37.37-.17.37-.37-.17-.37-.37-.37Z"/>
    <path class="cls-3" d="m62.28,63.11c-.45,0-.82-.37-.82-.82s.37-.82.82-.82.82.37.82.82-.37.82-.82.82Zm0-1.19c-.21,0-.37.17-.37.37s.17.37.37.37.37-.17.37-.37-.17-.37-.37-.37Z"/>
    <path class="cls-3" d="m47.19,63.11c-.45,0-.82-.37-.82-.82s.37-.82.82-.82.82.37.82.82-.37.82-.82.82Zm0-1.19c-.21,0-.37.17-.37.37s.17.37.37.37.37-.17.37-.37-.17-.37-.37-.37Z"/>
    <path class="cls-3" d="m32.1,63.11c-.45,0-.82-.37-.82-.82s.37-.82.82-.82.82.37.82.82-.37.82-.82.82Zm0-1.19c-.21,0-.37.17-.37.37s.17.37.37.37.37-.17.37-.37-.17-.37-.37-.37Z"/>
    <path class="cls-3" d="m17.01,63.11c-.45,0-.82-.37-.82-.82s.37-.82.82-.82.82.37.82.82-.37.82-.82.82Zm0-1.19c-.21,0-.37.17-.37.37s.17.37.37.37.37-.17.37-.37-.17-.37-.37-.37Z"/>
    <path class="cls-3" d="m92.46,48.02c-.45,0-.82-.37-.82-.82s.37-.82.82-.82.82.37.82.82-.37.82-.82.82Zm0-1.19c-.21,0-.37.17-.37.37s.17.37.37.37.37-.17.37-.37-.17-.37-.37-.37Z"/>
    <path class="cls-3" d="m77.37,48.02c-.45,0-.82-.37-.82-.82s.37-.82.82-.82.82.37.82.82-.37.82-.82.82Zm0-1.19c-.21,0-.37.17-.37.37s.17.37.37.37.37-.17.37-.37-.17-.37-.37-.37Z"/>
    <path class="cls-3" d="m62.28,48.02c-.45,0-.82-.37-.82-.82s.37-.82.82-.82.82.37.82.82-.37.82-.82.82Zm0-1.19c-.21,0-.37.17-.37.37s.17.37.37.37.37-.17.37-.37-.17-.37-.37-.37Z"/>
    <path class="cls-3" d="m47.19,48.02c-.45,0-.82-.37-.82-.82s.37-.82.82-.82.82.37.82.82-.37.82-.82.82Zm0-1.19c-.21,0-.37.17-.37.37s.17.37.37.37.37-.17.37-.37-.17-.37-.37-.37Z"/>
    <path class="cls-3" d="m32.1,48.02c-.45,0-.82-.37-.82-.82s.37-.82.82-.82.82.37.82.82-.37.82-.82.82Zm0-1.19c-.21,0-.37.17-.37.37s.17.37.37.37.37-.17.37-.37-.17-.37-.37-.37Z"/>
    <path class="cls-3" d="m17.01,48.02c-.45,0-.82-.37-.82-.82s.37-.82.82-.82.82.37.82.82-.37.82-.82.82Zm0-1.19c-.21,0-.37.17-.37.37s.17.37.37.37.37-.17.37-.37-.17-.37-.37-.37Z"/>
    <path class="cls-3" d="m92.46,32.93c-.45,0-.82-.37-.82-.82s.37-.82.82-.82.82.37.82.82-.37.82-.82.82Zm0-1.19c-.21,0-.37.17-.37.37s.17.37.37.37.37-.17.37-.37-.17-.37-.37-.37Z"/>
    <path class="cls-3" d="m77.37,32.93c-.45,0-.82-.37-.82-.82s.37-.82.82-.82.82.37.82.82-.37.82-.82.82Zm0-1.19c-.21,0-.37.17-.37.37s.17.37.37.37.37-.17.37-.37-.17-.37-.37-.37Z"/>
    <path class="cls-3" d="m62.28,32.93c-.45,0-.82-.37-.82-.82s.37-.82.82-.82.82.37.82.82-.37.82-.82.82Zm0-1.19c-.21,0-.37.17-.37.37s.17.37.37.37.37-.17.37-.37-.17-.37-.37-.37Z"/>
    <path class="cls-3" d="m47.19,32.93c-.45,0-.82-.37-.82-.82s.37-.82.82-.82.82.37.82.82-.37.82-.82.82Zm0-1.19c-.21,0-.37.17-.37.37s.17.37.37.37.37-.17.37-.37-.17-.37-.37-.37Z"/>
    <path class="cls-3" d="m32.1,32.93c-.45,0-.82-.37-.82-.82s.37-.82.82-.82.82.37.82.82-.37.82-.82.82Zm0-1.19c-.21,0-.37.17-.37.37s.17.37.37.37.37-.17.37-.37-.17-.37-.37-.37Z"/>
    <path class="cls-3" d="m17.01,32.93c-.45,0-.82-.37-.82-.82s.37-.82.82-.82.82.37.82.82-.37.82-.82.82Zm0-1.19c-.21,0-.37.17-.37.37s.17.37.37.37.37-.17.37-.37-.17-.37-.37-.37Z"/>
    <path class="cls-3" d="m92.46,17.84c-.45,0-.82-.37-.82-.82s.37-.82.82-.82.82.37.82.82-.37.82-.82.82Zm0-1.19c-.21,0-.37.17-.37.37s.17.37.37.37.37-.17.37-.37-.17-.37-.37-.37Z"/>
    <path class="cls-3" d="m77.37,17.84c-.45,0-.82-.37-.82-.82s.37-.82.82-.82.82.37.82.82-.37.82-.82.82Zm0-1.19c-.21,0-.37.17-.37.37s.17.37.37.37.37-.17.37-.37-.17-.37-.37-.37Z"/>
    <path class="cls-3" d="m62.28,17.84c-.45,0-.82-.37-.82-.82s.37-.82.82-.82.82.37.82.82-.37.82-.82.82Zm0-1.19c-.21,0-.37.17-.37.37s.17.37.37.37.37-.17.37-.37-.17-.37-.37-.37Z"/>
    <path class="cls-3" d="m47.19,17.84c-.45,0-.82-.37-.82-.82s.37-.82.82-.82.82.37.82.82-.37.82-.82.82Zm0-1.19c-.21,0-.37.17-.37.37s.17.37.37.37.37-.17.37-.37-.17-.37-.37-.37Z"/>
    <path class="cls-3" d="m32.1,17.84c-.45,0-.82-.37-.82-.82s.37-.82.82-.82.82.37.82.82-.37.82-.82.82Zm0-1.19c-.21,0-.37.17-.37.37s.17.37.37.37.37-.17.37-.37-.17-.37-.37-.37Z"/>
    <path class="cls-3" d="m17.01,17.84c-.45,0-.82-.37-.82-.82s.37-.82.82-.82.82.37.82.82-.37.82-.82.82Zm0-1.19c-.21,0-.37.17-.37.37s.17.37.37.37.37-.17.37-.37-.17-.37-.37-.37Z"/>
  </g>
</svg>