<?xml version="1.0" encoding="UTF-8"?>
<svg id="_Слой_1" data-name="Слой 1" xmlns="http://www.w3.org/2000/svg" xmlns:xlink="http://www.w3.org/1999/xlink" viewBox="0 0 94.9 108.71">
  <defs>
    <style>
      .cls-1, .cls-2 {
        fill: none;
      }

      .cls-2 {
        clip-path: url(#clippath);
      }

      .cls-3 {
        fill: #010101;
      }
    </style>
    <clipPath id="clippath">
      <rect class="cls-1" x="-2.44" y="-2.44" width="99.78" height="113.59"/>
    </clipPath>
  </defs>
  <path class="cls-3" d="m94.9,108.71H0V0h94.9v108.71Zm-94.46-.44h94.02V.44H.44v107.82Z"/>
  <g class="cls-2">
    <path class="cls-3" d="m16.62,24.98c-.79,0-1.43-.64-1.43-1.43s.64-1.43,1.43-1.43,1.43.64,1.43,1.43-.64,1.43-1.43,1.43Zm0-2.42c-.54,0-.99.44-.99.99s.44.99.99.99.99-.44.99-.99-.44-.99-.99-.99Z"/>
    <path class="cls-3" d="m16.62,28.75c-.79,0-1.43-.64-1.43-1.43s.64-1.43,1.43-1.43,1.43.64,1.43,1.43-.64,1.43-1.43,1.43Zm0-2.42c-.54,0-.99.44-.99.99s.44.99.99.99.99-.44.99-.99-.44-.99-.99-.99Z"/>
    <path class="cls-3" d="m16.62,32.52c-.79,0-1.43-.64-1.43-1.43s.64-1.43,1.43-1.43,1.43.64,1.43,1.43-.64,1.43-1.43,1.43Zm0-2.42c-.54,0-.99.44-.99.99s.44.99.99.99.99-.44.99-.99-.44-.99-.99-.99Z"/>
    <path class="cls-3" d="m16.62,36.29c-.79,0-1.43-.64-1.43-1.43s.64-1.43,1.43-1.43,1.43.64,1.43,1.43-.64,1.43-1.43,1.43Zm0-2.42c-.54,0-.99.44-.99.99s.44.99.99.99.99-.44.99-.99-.44-.99-.99-.99Z"/>
    <path class="cls-3" d="m16.62,40.07c-.79,0-1.43-.64-1.43-1.43s.64-1.43,1.43-1.43,1.43.64,1.43,1.43-.64,1.43-1.43,1.43Zm0-2.42c-.54,0-.99.44-.99.99s.44.99.99.99.99-.44.99-.99-.44-.99-.99-.99Z"/>
    <path class="cls-3" d="m16.62,43.84c-.79,0-1.43-.64-1.43-1.43s.64-1.43,1.43-1.43,1.43.64,1.43,1.43-.64,1.43-1.43,1.43Zm0-2.42c-.54,0-.99.44-.99.99s.44.99.99.99.99-.44.99-.99-.44-.99-.99-.99Z"/>
    <path class="cls-3" d="m20.19,21.19c-.79,0-1.43-.64-1.43-1.43s.64-1.43,1.43-1.43,1.43.64,1.43,1.43-.64,1.43-1.43,1.43Zm0-2.42c-.54,0-.99.44-.99.99s.44.99.99.99.99-.44.99-.99-.44-.99-.99-.99Z"/>
    <path class="cls-3" d="m20.19,24.96c-.79,0-1.43-.64-1.43-1.43s.64-1.43,1.43-1.43,1.43.64,1.43,1.43-.64,1.43-1.43,1.43Zm0-2.42c-.54,0-.99.44-.99.99s.44.99.99.99.99-.44.99-.99-.44-.99-.99-.99Z"/>
    <path class="cls-3" d="m20.19,28.74c-.79,0-1.43-.64-1.43-1.43s.64-1.43,1.43-1.43,1.43.64,1.43,1.43-.64,1.43-1.43,1.43Zm0-2.42c-.54,0-.99.44-.99.99s.44.99.99.99.99-.44.99-.99-.44-.99-.99-.99Z"/>
    <path class="cls-3" d="m20.19,32.51c-.79,0-1.43-.64-1.43-1.43s.64-1.43,1.43-1.43,1.43.64,1.43,1.43-.64,1.43-1.43,1.43Zm0-2.42c-.54,0-.99.44-.99.99s.44.99.99.99.99-.44.99-.99-.44-.99-.99-.99Z"/>
    <path class="cls-3" d="m20.19,36.28c-.79,0-1.43-.64-1.43-1.43s.64-1.43,1.43-1.43,1.43.64,1.43,1.43-.64,1.43-1.43,1.43Zm0-2.42c-.54,0-.99.44-.99.99s.44.99.99.99.99-.44.99-.99-.44-.99-.99-.99Z"/>
    <path class="cls-3" d="m20.19,40.05c-.79,0-1.43-.64-1.43-1.43s.64-1.43,1.43-1.43,1.43.64,1.43,1.43-.64,1.43-1.43,1.43Zm0-2.42c-.54,0-.99.44-.99.99s.44.99.99.99.99-.44.99-.99-.44-.99-.99-.99Z"/>
    <path class="cls-3" d="m23.83,17.47c-.79,0-1.43-.64-1.43-1.43s.64-1.43,1.43-1.43,1.43.64,1.43,1.43-.64,1.43-1.43,1.43Zm0-2.42c-.54,0-.99.44-.99.99s.44.99.99.99.99-.44.99-.99-.44-.99-.99-.99Z"/>
    <path class="cls-3" d="m23.83,21.24c-.79,0-1.43-.64-1.43-1.43s.64-1.43,1.43-1.43,1.43.64,1.43,1.43-.64,1.43-1.43,1.43Zm0-2.42c-.54,0-.99.44-.99.99s.44.99.99.99.99-.44.99-.99-.44-.99-.99-.99Z"/>
    <path class="cls-3" d="m23.83,25.02c-.79,0-1.43-.64-1.43-1.43s.64-1.43,1.43-1.43,1.43.64,1.43,1.43-.64,1.43-1.43,1.43Zm0-2.42c-.54,0-.99.44-.99.99s.44.99.99.99.99-.44.99-.99-.44-.99-.99-.99Z"/>
    <path class="cls-3" d="m23.83,28.79c-.79,0-1.43-.64-1.43-1.43s.64-1.43,1.43-1.43,1.43.64,1.43,1.43-.64,1.43-1.43,1.43Zm0-2.42c-.54,0-.99.44-.99.99s.44.99.99.99.99-.44.99-.99-.44-.99-.99-.99Z"/>
    <path class="cls-3" d="m23.83,32.56c-.79,0-1.43-.64-1.43-1.43s.64-1.43,1.43-1.43,1.43.64,1.43,1.43-.64,1.43-1.43,1.43Zm0-2.42c-.54,0-.99.44-.99.99s.44.99.99.99.99-.44.99-.99-.44-.99-.99-.99Z"/>
    <path class="cls-3" d="m23.83,36.33c-.79,0-1.43-.64-1.43-1.43s.64-1.43,1.43-1.43,1.43.64,1.43,1.43-.64,1.43-1.43,1.43Zm0-2.42c-.54,0-.99.44-.99.99s.44.99.99.99.99-.44.99-.99-.44-.99-.99-.99Z"/>
    <path class="cls-3" d="m13.05,28.68c-.79,0-1.43-.64-1.43-1.43s.64-1.43,1.43-1.43,1.43.64,1.43,1.43-.64,1.43-1.43,1.43Zm0-2.42c-.54,0-.99.44-.99.99s.44.99.99.99.99-.44.99-.99-.44-.99-.99-.99Z"/>
    <path class="cls-3" d="m13.05,32.45c-.79,0-1.43-.64-1.43-1.43s.64-1.43,1.43-1.43,1.43.64,1.43,1.43-.64,1.43-1.43,1.43Zm0-2.42c-.54,0-.99.44-.99.99s.44.99.99.99.99-.44.99-.99-.44-.99-.99-.99Z"/>
    <path class="cls-3" d="m13.05,36.22c-.79,0-1.43-.64-1.43-1.43s.64-1.43,1.43-1.43,1.43.64,1.43,1.43-.64,1.43-1.43,1.43Zm0-2.42c-.54,0-.99.44-.99.99s.44.99.99.99.99-.44.99-.99-.44-.99-.99-.99Z"/>
    <path class="cls-3" d="m13.05,39.99c-.79,0-1.43-.64-1.43-1.43s.64-1.43,1.43-1.43,1.43.64,1.43,1.43-.64,1.43-1.43,1.43Zm0-2.42c-.54,0-.99.44-.99.99s.44.99.99.99.99-.44.99-.99-.44-.99-.99-.99Z"/>
    <path class="cls-3" d="m13.05,43.77c-.79,0-1.43-.64-1.43-1.43s.64-1.43,1.43-1.43,1.43.64,1.43,1.43-.64,1.43-1.43,1.43Zm0-2.42c-.54,0-.99.44-.99.99s.44.99.99.99.99-.44.99-.99-.44-.99-.99-.99Z"/>
    <path class="cls-3" d="m13.05,47.54c-.79,0-1.43-.64-1.43-1.43s.64-1.43,1.43-1.43,1.43.64,1.43,1.43-.64,1.43-1.43,1.43Zm0-2.42c-.54,0-.99.44-.99.99s.44.99.99.99.99-.44.99-.99-.44-.99-.99-.99Z"/>
    <path class="cls-3" d="m30.88,24.98c-.79,0-1.43-.64-1.43-1.43s.64-1.43,1.43-1.43,1.43.64,1.43,1.43-.64,1.43-1.43,1.43Zm0-2.42c-.54,0-.99.44-.99.99s.44.99.99.99.99-.44.99-.99-.44-.99-.99-.99Z"/>
    <path class="cls-3" d="m30.88,28.75c-.79,0-1.43-.64-1.43-1.43s.64-1.43,1.43-1.43,1.43.64,1.43,1.43-.64,1.43-1.43,1.43Zm0-2.42c-.54,0-.99.44-.99.99s.44.99.99.99.99-.44.99-.99-.44-.99-.99-.99Z"/>
    <path class="cls-3" d="m30.88,32.52c-.79,0-1.43-.64-1.43-1.43s.64-1.43,1.43-1.43,1.43.64,1.43,1.43-.64,1.43-1.43,1.43Zm0-2.42c-.54,0-.99.44-.99.99s.44.99.99.99.99-.44.99-.99-.44-.99-.99-.99Z"/>
    <path class="cls-3" d="m30.88,36.29c-.79,0-1.43-.64-1.43-1.43s.64-1.43,1.43-1.43,1.43.64,1.43,1.43-.64,1.43-1.43,1.43Zm0-2.42c-.54,0-.99.44-.99.99s.44.99.99.99.99-.44.99-.99-.44-.99-.99-.99Z"/>
    <path class="cls-3" d="m30.88,40.07c-.79,0-1.43-.64-1.43-1.43s.64-1.43,1.43-1.43,1.43.64,1.43,1.43-.64,1.43-1.43,1.43Zm0-2.42c-.54,0-.99.44-.99.99s.44.99.99.99.99-.44.99-.99-.44-.99-.99-.99Z"/>
    <path class="cls-3" d="m30.88,43.84c-.79,0-1.43-.64-1.43-1.43s.64-1.43,1.43-1.43,1.43.64,1.43,1.43-.64,1.43-1.43,1.43Zm0-2.42c-.54,0-.99.44-.99.99s.44.99.99.99.99-.44.99-.99-.44-.99-.99-.99Z"/>
    <path class="cls-3" d="m34.45,21.19c-.79,0-1.43-.64-1.43-1.43s.64-1.43,1.43-1.43,1.43.64,1.43,1.43-.64,1.43-1.43,1.43Zm0-2.42c-.54,0-.99.44-.99.99s.44.99.99.99.99-.44.99-.99-.44-.99-.99-.99Z"/>
    <path class="cls-3" d="m34.45,24.96c-.79,0-1.43-.64-1.43-1.43s.64-1.43,1.43-1.43,1.43.64,1.43,1.43-.64,1.43-1.43,1.43Zm0-2.42c-.54,0-.99.44-.99.99s.44.99.99.99.99-.44.99-.99-.44-.99-.99-.99Z"/>
    <path class="cls-3" d="m34.45,28.74c-.79,0-1.43-.64-1.43-1.43s.64-1.43,1.43-1.43,1.43.64,1.43,1.43-.64,1.43-1.43,1.43Zm0-2.42c-.54,0-.99.44-.99.99s.44.99.99.99.99-.44.99-.99-.44-.99-.99-.99Z"/>
    <path class="cls-3" d="m34.45,32.51c-.79,0-1.43-.64-1.43-1.43s.64-1.43,1.43-1.43,1.43.64,1.43,1.43-.64,1.43-1.43,1.43Zm0-2.42c-.54,0-.99.44-.99.99s.44.99.99.99.99-.44.99-.99-.44-.99-.99-.99Z"/>
    <path class="cls-3" d="m34.45,36.28c-.79,0-1.43-.64-1.43-1.43s.64-1.43,1.43-1.43,1.43.64,1.43,1.43-.64,1.43-1.43,1.43Zm0-2.42c-.54,0-.99.44-.99.99s.44.99.99.99.99-.44.99-.99-.44-.99-.99-.99Z"/>
    <path class="cls-3" d="m34.45,40.05c-.79,0-1.43-.64-1.43-1.43s.64-1.43,1.43-1.43,1.43.64,1.43,1.43-.64,1.43-1.43,1.43Zm0-2.42c-.54,0-.99.44-.99.99s.44.99.99.99.99-.44.99-.99-.44-.99-.99-.99Z"/>
    <path class="cls-3" d="m38.09,17.47c-.79,0-1.43-.64-1.43-1.43s.64-1.43,1.43-1.43,1.43.64,1.43,1.43-.64,1.43-1.43,1.43Zm0-2.42c-.54,0-.99.44-.99.99s.44.99.99.99.99-.44.99-.99-.44-.99-.99-.99Z"/>
    <path class="cls-3" d="m38.09,21.24c-.79,0-1.43-.64-1.43-1.43s.64-1.43,1.43-1.43,1.43.64,1.43,1.43-.64,1.43-1.43,1.43Zm0-2.42c-.54,0-.99.44-.99.99s.44.99.99.99.99-.44.99-.99-.44-.99-.99-.99Z"/>
    <path class="cls-3" d="m38.09,25.02c-.79,0-1.43-.64-1.43-1.43s.64-1.43,1.43-1.43,1.43.64,1.43,1.43-.64,1.43-1.43,1.43Zm0-2.42c-.54,0-.99.44-.99.99s.44.99.99.99.99-.44.99-.99-.44-.99-.99-.99Z"/>
    <path class="cls-3" d="m38.09,28.79c-.79,0-1.43-.64-1.43-1.43s.64-1.43,1.43-1.43,1.43.64,1.43,1.43-.64,1.43-1.43,1.43Zm0-2.42c-.54,0-.99.44-.99.99s.44.99.99.99.99-.44.99-.99-.44-.99-.99-.99Z"/>
    <path class="cls-3" d="m38.09,32.56c-.79,0-1.43-.64-1.43-1.43s.64-1.43,1.43-1.43,1.43.64,1.43,1.43-.64,1.43-1.43,1.43Zm0-2.42c-.54,0-.99.44-.99.99s.44.99.99.99.99-.44.99-.99-.44-.99-.99-.99Z"/>
    <path class="cls-3" d="m38.09,36.33c-.79,0-1.43-.64-1.43-1.43s.64-1.43,1.43-1.43,1.43.64,1.43,1.43-.64,1.43-1.43,1.43Zm0-2.42c-.54,0-.99.44-.99.99s.44.99.99.99.99-.44.99-.99-.44-.99-.99-.99Z"/>
    <path class="cls-3" d="m27.31,28.68c-.79,0-1.43-.64-1.43-1.43s.64-1.43,1.43-1.43,1.43.64,1.43,1.43-.64,1.43-1.43,1.43Zm0-2.42c-.54,0-.99.44-.99.99s.44.99.99.99.99-.44.99-.99-.44-.99-.99-.99Z"/>
    <path class="cls-3" d="m27.31,32.45c-.79,0-1.43-.64-1.43-1.43s.64-1.43,1.43-1.43,1.43.64,1.43,1.43-.64,1.43-1.43,1.43Zm0-2.42c-.54,0-.99.44-.99.99s.44.99.99.99.99-.44.99-.99-.44-.99-.99-.99Z"/>
    <path class="cls-3" d="m27.31,36.22c-.79,0-1.43-.64-1.43-1.43s.64-1.43,1.43-1.43,1.43.64,1.43,1.43-.64,1.43-1.43,1.43Zm0-2.42c-.54,0-.99.44-.99.99s.44.99.99.99.99-.44.99-.99-.44-.99-.99-.99Z"/>
    <path class="cls-3" d="m27.31,39.99c-.79,0-1.43-.64-1.43-1.43s.64-1.43,1.43-1.43,1.43.64,1.43,1.43-.64,1.43-1.43,1.43Zm0-2.42c-.54,0-.99.44-.99.99s.44.99.99.99.99-.44.99-.99-.44-.99-.99-.99Z"/>
    <path class="cls-3" d="m27.31,43.77c-.79,0-1.43-.64-1.43-1.43s.64-1.43,1.43-1.43,1.43.64,1.43,1.43-.64,1.43-1.43,1.43Zm0-2.42c-.54,0-.99.44-.99.99s.44.99.99.99.99-.44.99-.99-.44-.99-.99-.99Z"/>
    <path class="cls-3" d="m27.31,47.54c-.79,0-1.43-.64-1.43-1.43s.64-1.43,1.43-1.43,1.43.64,1.43,1.43-.64,1.43-1.43,1.43Zm0-2.42c-.54,0-.99.44-.99.99s.44.99.99.99.99-.44.99-.99-.44-.99-.99-.99Z"/>
    <path class="cls-3" d="m60.38,24.98c-.79,0-1.43-.64-1.43-1.43s.64-1.43,1.43-1.43,1.43.64,1.43,1.43-.64,1.43-1.43,1.43Zm0-2.42c-.54,0-.99.44-.99.99s.44.99.99.99.99-.44.99-.99-.44-.99-.99-.99Z"/>
    <path class="cls-3" d="m60.38,28.75c-.79,0-1.43-.64-1.43-1.43s.64-1.43,1.43-1.43,1.43.64,1.43,1.43-.64,1.43-1.43,1.43Zm0-2.42c-.54,0-.99.44-.99.99s.44.99.99.99.99-.44.99-.99-.44-.99-.99-.99Z"/>
    <path class="cls-3" d="m60.38,32.52c-.79,0-1.43-.64-1.43-1.43s.64-1.43,1.43-1.43,1.43.64,1.43,1.43-.64,1.43-1.43,1.43Zm0-2.42c-.54,0-.99.44-.99.99s.44.99.99.99.99-.44.99-.99-.44-.99-.99-.99Z"/>
    <path class="cls-3" d="m60.38,36.29c-.79,0-1.43-.64-1.43-1.43s.64-1.43,1.43-1.43,1.43.64,1.43,1.43-.64,1.43-1.43,1.43Zm0-2.42c-.54,0-.99.44-.99.99s.44.99.99.99.99-.44.99-.99-.44-.99-.99-.99Z"/>
    <path class="cls-3" d="m60.38,40.07c-.79,0-1.43-.64-1.43-1.43s.64-1.43,1.43-1.43,1.43.64,1.43,1.43-.64,1.43-1.43,1.43Zm0-2.42c-.54,0-.99.44-.99.99s.44.99.99.99.99-.44.99-.99-.44-.99-.99-.99Z"/>
    <path class="cls-3" d="m60.38,43.84c-.79,0-1.43-.64-1.43-1.43s.64-1.43,1.43-1.43,1.43.64,1.43,1.43-.64,1.43-1.43,1.43Zm0-2.42c-.54,0-.99.44-.99.99s.44.99.99.99.99-.44.99-.99-.44-.99-.99-.99Z"/>
    <path class="cls-3" d="m63.95,21.19c-.79,0-1.43-.64-1.43-1.43s.64-1.43,1.43-1.43,1.43.64,1.43,1.43-.64,1.43-1.43,1.43Zm0-2.42c-.54,0-.99.44-.99.99s.44.99.99.99.99-.44.99-.99-.44-.99-.99-.99Z"/>
    <path class="cls-3" d="m63.95,24.96c-.79,0-1.43-.64-1.43-1.43s.64-1.43,1.43-1.43,1.43.64,1.43,1.43-.64,1.43-1.43,1.43Zm0-2.42c-.54,0-.99.44-.99.99s.44.99.99.99.99-.44.99-.99-.44-.99-.99-.99Z"/>
    <path class="cls-3" d="m63.95,28.74c-.79,0-1.43-.64-1.43-1.43s.64-1.43,1.43-1.43,1.43.64,1.43,1.43-.64,1.43-1.43,1.43Zm0-2.42c-.54,0-.99.44-.99.99s.44.99.99.99.99-.44.99-.99-.44-.99-.99-.99Z"/>
    <path class="cls-3" d="m63.95,32.51c-.79,0-1.43-.64-1.43-1.43s.64-1.43,1.43-1.43,1.43.64,1.43,1.43-.64,1.43-1.43,1.43Zm0-2.42c-.54,0-.99.44-.99.99s.44.99.99.99.99-.44.99-.99-.44-.99-.99-.99Z"/>
    <path class="cls-3" d="m63.95,36.28c-.79,0-1.43-.64-1.43-1.43s.64-1.43,1.43-1.43,1.43.64,1.43,1.43-.64,1.43-1.43,1.43Zm0-2.42c-.54,0-.99.44-.99.99s.44.99.99.99.99-.44.99-.99-.44-.99-.99-.99Z"/>
    <path class="cls-3" d="m63.95,40.05c-.79,0-1.43-.64-1.43-1.43s.64-1.43,1.43-1.43,1.43.64,1.43,1.43-.64,1.43-1.43,1.43Zm0-2.42c-.54,0-.99.44-.99.99s.44.99.99.99.99-.44.99-.99-.44-.99-.99-.99Z"/>
    <path class="cls-3" d="m67.59,17.47c-.79,0-1.43-.64-1.43-1.43s.64-1.43,1.43-1.43,1.43.64,1.43,1.43-.64,1.43-1.43,1.43Zm0-2.42c-.54,0-.99.44-.99.99s.44.99.99.99.99-.44.99-.99-.44-.99-.99-.99Z"/>
    <path class="cls-3" d="m67.59,21.24c-.79,0-1.43-.64-1.43-1.43s.64-1.43,1.43-1.43,1.43.64,1.43,1.43-.64,1.43-1.43,1.43Zm0-2.42c-.54,0-.99.44-.99.99s.44.99.99.99.99-.44.99-.99-.44-.99-.99-.99Z"/>
    <path class="cls-3" d="m67.59,25.02c-.79,0-1.43-.64-1.43-1.43s.64-1.43,1.43-1.43,1.43.64,1.43,1.43-.64,1.43-1.43,1.43Zm0-2.42c-.54,0-.99.44-.99.99s.44.99.99.99.99-.44.99-.99-.44-.99-.99-.99Z"/>
    <path class="cls-3" d="m67.59,28.79c-.79,0-1.43-.64-1.43-1.43s.64-1.43,1.43-1.43,1.43.64,1.43,1.43-.64,1.43-1.43,1.43Zm0-2.42c-.54,0-.99.44-.99.99s.44.99.99.99.99-.44.99-.99-.44-.99-.99-.99Z"/>
    <path class="cls-3" d="m67.59,32.56c-.79,0-1.43-.64-1.43-1.43s.64-1.43,1.43-1.43,1.43.64,1.43,1.43-.64,1.43-1.43,1.43Zm0-2.42c-.54,0-.99.44-.99.99s.44.99.99.99.99-.44.99-.99-.44-.99-.99-.99Z"/>
    <path class="cls-3" d="m67.59,36.33c-.79,0-1.43-.64-1.43-1.43s.64-1.43,1.43-1.43,1.43.64,1.43,1.43-.64,1.43-1.43,1.43Zm0-2.42c-.54,0-.99.44-.99.99s.44.99.99.99.99-.44.99-.99-.44-.99-.99-.99Z"/>
    <path class="cls-3" d="m56.82,28.68c-.79,0-1.43-.64-1.43-1.43s.64-1.43,1.43-1.43,1.43.64,1.43,1.43-.64,1.43-1.43,1.43Zm0-2.42c-.54,0-.99.44-.99.99s.44.99.99.99.99-.44.99-.99-.44-.99-.99-.99Z"/>
    <path class="cls-3" d="m56.82,32.45c-.79,0-1.43-.64-1.43-1.43s.64-1.43,1.43-1.43,1.43.64,1.43,1.43-.64,1.43-1.43,1.43Zm0-2.42c-.54,0-.99.44-.99.99s.44.99.99.99.99-.44.99-.99-.44-.99-.99-.99Z"/>
    <path class="cls-3" d="m56.82,36.22c-.79,0-1.43-.64-1.43-1.43s.64-1.43,1.43-1.43,1.43.64,1.43,1.43-.64,1.43-1.43,1.43Zm0-2.42c-.54,0-.99.44-.99.99s.44.99.99.99.99-.44.99-.99-.44-.99-.99-.99Z"/>
    <path class="cls-3" d="m56.82,39.99c-.79,0-1.43-.64-1.43-1.43s.64-1.43,1.43-1.43,1.43.64,1.43,1.43-.64,1.43-1.43,1.43Zm0-2.42c-.54,0-.99.44-.99.99s.44.99.99.99.99-.44.99-.99-.44-.99-.99-.99Z"/>
    <path class="cls-3" d="m56.82,43.77c-.79,0-1.43-.64-1.43-1.43s.64-1.43,1.43-1.43,1.43.64,1.43,1.43-.64,1.43-1.43,1.43Zm0-2.42c-.54,0-.99.44-.99.99s.44.99.99.99.99-.44.99-.99-.44-.99-.99-.99Z"/>
    <path class="cls-3" d="m56.82,47.54c-.79,0-1.43-.64-1.43-1.43s.64-1.43,1.43-1.43,1.43.64,1.43,1.43-.64,1.43-1.43,1.43Zm0-2.42c-.54,0-.99.44-.99.99s.44.99.99.99.99-.44.99-.99-.44-.99-.99-.99Z"/>
    <path class="cls-3" d="m74.64,24.98c-.79,0-1.43-.64-1.43-1.43s.64-1.43,1.43-1.43,1.43.64,1.43,1.43-.64,1.43-1.43,1.43Zm0-2.42c-.54,0-.99.44-.99.99s.44.99.99.99.99-.44.99-.99-.44-.99-.99-.99Z"/>
    <path class="cls-3" d="m74.64,28.75c-.79,0-1.43-.64-1.43-1.43s.64-1.43,1.43-1.43,1.43.64,1.43,1.43-.64,1.43-1.43,1.43Zm0-2.42c-.54,0-.99.44-.99.99s.44.99.99.99.99-.44.99-.99-.44-.99-.99-.99Z"/>
    <path class="cls-3" d="m74.64,32.52c-.79,0-1.43-.64-1.43-1.43s.64-1.43,1.43-1.43,1.43.64,1.43,1.43-.64,1.43-1.43,1.43Zm0-2.42c-.54,0-.99.44-.99.99s.44.99.99.99.99-.44.99-.99-.44-.99-.99-.99Z"/>
    <path class="cls-3" d="m74.64,36.29c-.79,0-1.43-.64-1.43-1.43s.64-1.43,1.43-1.43,1.43.64,1.43,1.43-.64,1.43-1.43,1.43Zm0-2.42c-.54,0-.99.44-.99.99s.44.99.99.99.99-.44.99-.99-.44-.99-.99-.99Z"/>
    <path class="cls-3" d="m74.64,40.07c-.79,0-1.43-.64-1.43-1.43s.64-1.43,1.43-1.43,1.43.64,1.43,1.43-.64,1.43-1.43,1.43Zm0-2.42c-.54,0-.99.44-.99.99s.44.99.99.99.99-.44.99-.99-.44-.99-.99-.99Z"/>
    <path class="cls-3" d="m74.64,43.84c-.79,0-1.43-.64-1.43-1.43s.64-1.43,1.43-1.43,1.43.64,1.43,1.43-.64,1.43-1.43,1.43Zm0-2.42c-.54,0-.99.44-.99.99s.44.99.99.99.99-.44.99-.99-.44-.99-.99-.99Z"/>
    <path class="cls-3" d="m78.21,21.19c-.79,0-1.43-.64-1.43-1.43s.64-1.43,1.43-1.43,1.43.64,1.43,1.43-.64,1.43-1.43,1.43Zm0-2.42c-.54,0-.99.44-.99.99s.44.99.99.99.99-.44.99-.99-.44-.99-.99-.99Z"/>
    <path class="cls-3" d="m78.21,24.96c-.79,0-1.43-.64-1.43-1.43s.64-1.43,1.43-1.43,1.43.64,1.43,1.43-.64,1.43-1.43,1.43Zm0-2.42c-.54,0-.99.44-.99.99s.44.99.99.99.99-.44.99-.99-.44-.99-.99-.99Z"/>
    <path class="cls-3" d="m78.21,28.74c-.79,0-1.43-.64-1.43-1.43s.64-1.43,1.43-1.43,1.43.64,1.43,1.43-.64,1.43-1.43,1.43Zm0-2.42c-.54,0-.99.44-.99.99s.44.99.99.99.99-.44.99-.99-.44-.99-.99-.99Z"/>
    <path class="cls-3" d="m78.21,32.51c-.79,0-1.43-.64-1.43-1.43s.64-1.43,1.43-1.43,1.43.64,1.43,1.43-.64,1.43-1.43,1.43Zm0-2.42c-.54,0-.99.44-.99.99s.44.99.99.99.99-.44.99-.99-.44-.99-.99-.99Z"/>
    <path class="cls-3" d="m78.21,36.28c-.79,0-1.43-.64-1.43-1.43s.64-1.43,1.43-1.43,1.43.64,1.43,1.43-.64,1.43-1.43,1.43Zm0-2.42c-.54,0-.99.44-.99.99s.44.99.99.99.99-.44.99-.99-.44-.99-.99-.99Z"/>
    <path class="cls-3" d="m78.21,40.05c-.79,0-1.43-.64-1.43-1.43s.64-1.43,1.43-1.43,1.43.64,1.43,1.43-.64,1.43-1.43,1.43Zm0-2.42c-.54,0-.99.44-.99.99s.44.99.99.99.99-.44.99-.99-.44-.99-.99-.99Z"/>
    <path class="cls-3" d="m81.85,17.47c-.79,0-1.43-.64-1.43-1.43s.64-1.43,1.43-1.43,1.43.64,1.43,1.43-.64,1.43-1.43,1.43Zm0-2.42c-.54,0-.99.44-.99.99s.44.99.99.99.99-.44.99-.99-.44-.99-.99-.99Z"/>
    <path class="cls-3" d="m81.85,21.24c-.79,0-1.43-.64-1.43-1.43s.64-1.43,1.43-1.43,1.43.64,1.43,1.43-.64,1.43-1.43,1.43Zm0-2.42c-.54,0-.99.44-.99.99s.44.99.99.99.99-.44.99-.99-.44-.99-.99-.99Z"/>
    <path class="cls-3" d="m81.85,25.02c-.79,0-1.43-.64-1.43-1.43s.64-1.43,1.43-1.43,1.43.64,1.43,1.43-.64,1.43-1.43,1.43Zm0-2.42c-.54,0-.99.44-.99.99s.44.99.99.99.99-.44.99-.99-.44-.99-.99-.99Z"/>
    <path class="cls-3" d="m81.85,28.79c-.79,0-1.43-.64-1.43-1.43s.64-1.43,1.43-1.43,1.43.64,1.43,1.43-.64,1.43-1.43,1.43Zm0-2.42c-.54,0-.99.44-.99.99s.44.99.99.99.99-.44.99-.99-.44-.99-.99-.99Z"/>
    <path class="cls-3" d="m81.85,32.56c-.79,0-1.43-.64-1.43-1.43s.64-1.43,1.43-1.43,1.43.64,1.43,1.43-.64,1.43-1.43,1.43Zm0-2.42c-.54,0-.99.44-.99.99s.44.99.99.99.99-.44.99-.99-.44-.99-.99-.99Z"/>
    <path class="cls-3" d="m81.85,36.33c-.79,0-1.43-.64-1.43-1.43s.64-1.43,1.43-1.43,1.43.64,1.43,1.43-.64,1.43-1.43,1.43Zm0-2.42c-.54,0-.99.44-.99.99s.44.99.99.99.99-.44.99-.99-.44-.99-.99-.99Z"/>
    <path class="cls-3" d="m71.08,28.68c-.79,0-1.43-.64-1.43-1.43s.64-1.43,1.43-1.43,1.43.64,1.43,1.43-.64,1.43-1.43,1.43Zm0-2.42c-.54,0-.99.44-.99.99s.44.99.99.99.99-.44.99-.99-.44-.99-.99-.99Z"/>
    <path class="cls-3" d="m71.08,32.45c-.79,0-1.43-.64-1.43-1.43s.64-1.43,1.43-1.43,1.43.64,1.43,1.43-.64,1.43-1.43,1.43Zm0-2.42c-.54,0-.99.44-.99.99s.44.99.99.99.99-.44.99-.99-.44-.99-.99-.99Z"/>
    <path class="cls-3" d="m71.08,36.22c-.79,0-1.43-.64-1.43-1.43s.64-1.43,1.43-1.43,1.43.64,1.43,1.43-.64,1.43-1.43,1.43Zm0-2.42c-.54,0-.99.44-.99.99s.44.99.99.99.99-.44.99-.99-.44-.99-.99-.99Z"/>
    <path class="cls-3" d="m71.08,39.99c-.79,0-1.43-.64-1.43-1.43s.64-1.43,1.43-1.43,1.43.64,1.43,1.43-.64,1.43-1.43,1.43Zm0-2.42c-.54,0-.99.44-.99.99s.44.99.99.99.99-.44.99-.99-.44-.99-.99-.99Z"/>
    <path class="cls-3" d="m71.08,43.77c-.79,0-1.43-.64-1.43-1.43s.64-1.43,1.43-1.43,1.43.64,1.43,1.43-.64,1.43-1.43,1.43Zm0-2.42c-.54,0-.99.44-.99.99s.44.99.99.99.99-.44.99-.99-.44-.99-.99-.99Z"/>
    <path class="cls-3" d="m71.08,47.54c-.79,0-1.43-.64-1.43-1.43s.64-1.43,1.43-1.43,1.43.64,1.43,1.43-.64,1.43-1.43,1.43Zm0-2.42c-.54,0-.99.44-.99.99s.44.99.99.99.99-.44.99-.99-.44-.99-.99-.99Z"/>
    <path class="cls-3" d="m16.62,71.54c-.79,0-1.43-.64-1.43-1.43s.64-1.43,1.43-1.43,1.43.64,1.43,1.43-.64,1.43-1.43,1.43Zm0-2.42c-.54,0-.99.44-.99.99s.44.99.99.99.99-.44.99-.99-.44-.99-.99-.99Z"/>
    <path class="cls-3" d="m16.62,75.31c-.79,0-1.43-.64-1.43-1.43s.64-1.43,1.43-1.43,1.43.64,1.43,1.43-.64,1.43-1.43,1.43Zm0-2.42c-.54,0-.99.44-.99.99s.44.99.99.99.99-.44.99-.99-.44-.99-.99-.99Z"/>
    <path class="cls-3" d="m16.62,79.09c-.79,0-1.43-.64-1.43-1.43s.64-1.43,1.43-1.43,1.43.64,1.43,1.43-.64,1.43-1.43,1.43Zm0-2.42c-.54,0-.99.44-.99.99s.44.99.99.99.99-.44.99-.99-.44-.99-.99-.99Z"/>
    <path class="cls-3" d="m16.62,82.86c-.79,0-1.43-.64-1.43-1.43s.64-1.43,1.43-1.43,1.43.64,1.43,1.43-.64,1.43-1.43,1.43Zm0-2.42c-.54,0-.99.44-.99.99s.44.99.99.99.99-.44.99-.99-.44-.99-.99-.99Z"/>
    <path class="cls-3" d="m16.62,86.63c-.79,0-1.43-.64-1.43-1.43s.64-1.43,1.43-1.43,1.43.64,1.43,1.43-.64,1.43-1.43,1.43Zm0-2.42c-.54,0-.99.44-.99.99s.44.99.99.99.99-.44.99-.99-.44-.99-.99-.99Z"/>
    <path class="cls-3" d="m16.62,90.4c-.79,0-1.43-.64-1.43-1.43s.64-1.43,1.43-1.43,1.43.64,1.43,1.43-.64,1.43-1.43,1.43Zm0-2.42c-.54,0-.99.44-.99.99s.44.99.99.99.99-.44.99-.99-.44-.99-.99-.99Z"/>
    <path class="cls-3" d="m20.19,67.76c-.79,0-1.43-.64-1.43-1.43s.64-1.43,1.43-1.43,1.43.64,1.43,1.43-.64,1.43-1.43,1.43Zm0-2.42c-.54,0-.99.44-.99.99s.44.99.99.99.99-.44.99-.99-.44-.99-.99-.99Z"/>
    <path class="cls-3" d="m20.19,71.53c-.79,0-1.43-.64-1.43-1.43s.64-1.43,1.43-1.43,1.43.64,1.43,1.43-.64,1.43-1.43,1.43Zm0-2.42c-.54,0-.99.44-.99.99s.44.99.99.99.99-.44.99-.99-.44-.99-.99-.99Z"/>
    <path class="cls-3" d="m20.19,75.3c-.79,0-1.43-.64-1.43-1.43s.64-1.43,1.43-1.43,1.43.64,1.43,1.43-.64,1.43-1.43,1.43Zm0-2.42c-.54,0-.99.44-.99.99s.44.99.99.99.99-.44.99-.99-.44-.99-.99-.99Z"/>
    <path class="cls-3" d="m20.19,79.07c-.79,0-1.43-.64-1.43-1.43s.64-1.43,1.43-1.43,1.43.64,1.43,1.43-.64,1.43-1.43,1.43Zm0-2.42c-.54,0-.99.44-.99.99s.44.99.99.99.99-.44.99-.99-.44-.99-.99-.99Z"/>
    <path class="cls-3" d="m20.19,82.85c-.79,0-1.43-.64-1.43-1.43s.64-1.43,1.43-1.43,1.43.64,1.43,1.43-.64,1.43-1.43,1.43Zm0-2.42c-.54,0-.99.44-.99.99s.44.99.99.99.99-.44.99-.99-.44-.99-.99-.99Z"/>
    <path class="cls-3" d="m20.19,86.62c-.79,0-1.43-.64-1.43-1.43s.64-1.43,1.43-1.43,1.43.64,1.43,1.43-.64,1.43-1.43,1.43Zm0-2.42c-.54,0-.99.44-.99.99s.44.99.99.99.99-.44.99-.99-.44-.99-.99-.99Z"/>
    <path class="cls-3" d="m23.83,64.04c-.79,0-1.43-.64-1.43-1.43s.64-1.43,1.43-1.43,1.43.64,1.43,1.43-.64,1.43-1.43,1.43Zm0-2.42c-.54,0-.99.44-.99.99s.44.99.99.99.99-.44.99-.99-.44-.99-.99-.99Z"/>
    <path class="cls-3" d="m23.83,67.81c-.79,0-1.43-.64-1.43-1.43s.64-1.43,1.43-1.43,1.43.64,1.43,1.43-.64,1.43-1.43,1.43Zm0-2.42c-.54,0-.99.44-.99.99s.44.99.99.99.99-.44.99-.99-.44-.99-.99-.99Z"/>
    <path class="cls-3" d="m23.83,71.58c-.79,0-1.43-.64-1.43-1.43s.64-1.43,1.43-1.43,1.43.64,1.43,1.43-.64,1.43-1.43,1.43Zm0-2.42c-.54,0-.99.44-.99.99s.44.99.99.99.99-.44.99-.99-.44-.99-.99-.99Z"/>
    <path class="cls-3" d="m23.83,75.35c-.79,0-1.43-.64-1.43-1.43s.64-1.43,1.43-1.43,1.43.64,1.43,1.43-.64,1.43-1.43,1.43Zm0-2.42c-.54,0-.99.44-.99.99s.44.99.99.99.99-.44.99-.99-.44-.99-.99-.99Z"/>
    <path class="cls-3" d="m23.83,79.13c-.79,0-1.43-.64-1.43-1.43s.64-1.43,1.43-1.43,1.43.64,1.43,1.43-.64,1.43-1.43,1.43Zm0-2.42c-.54,0-.99.44-.99.99s.44.99.99.99.99-.44.99-.99-.44-.99-.99-.99Z"/>
    <path class="cls-3" d="m23.83,82.9c-.79,0-1.43-.64-1.43-1.43s.64-1.43,1.43-1.43,1.43.64,1.43,1.43-.64,1.43-1.43,1.43Zm0-2.42c-.54,0-.99.44-.99.99s.44.99.99.99.99-.44.99-.99-.44-.99-.99-.99Z"/>
    <path class="cls-3" d="m13.05,75.24c-.79,0-1.43-.64-1.43-1.43s.64-1.43,1.43-1.43,1.43.64,1.43,1.43-.64,1.43-1.43,1.43Zm0-2.42c-.54,0-.99.44-.99.99s.44.99.99.99.99-.44.99-.99-.44-.99-.99-.99Z"/>
    <path class="cls-3" d="m13.05,79.01c-.79,0-1.43-.64-1.43-1.43s.64-1.43,1.43-1.43,1.43.64,1.43,1.43-.64,1.43-1.43,1.43Zm0-2.42c-.54,0-.99.44-.99.99s.44.99.99.99.99-.44.99-.99-.44-.99-.99-.99Z"/>
    <path class="cls-3" d="m13.05,82.79c-.79,0-1.43-.64-1.43-1.43s.64-1.43,1.43-1.43,1.43.64,1.43,1.43-.64,1.43-1.43,1.43Zm0-2.42c-.54,0-.99.44-.99.99s.44.99.99.99.99-.44.99-.99-.44-.99-.99-.99Z"/>
    <path class="cls-3" d="m13.05,86.56c-.79,0-1.43-.64-1.43-1.43s.64-1.43,1.43-1.43,1.43.64,1.43,1.43-.64,1.43-1.43,1.43Zm0-2.42c-.54,0-.99.44-.99.99s.44.99.99.99.99-.44.99-.99-.44-.99-.99-.99Z"/>
    <path class="cls-3" d="m13.05,90.33c-.79,0-1.43-.64-1.43-1.43s.64-1.43,1.43-1.43,1.43.64,1.43,1.43-.64,1.43-1.43,1.43Zm0-2.42c-.54,0-.99.44-.99.99s.44.99.99.99.99-.44.99-.99-.44-.99-.99-.99Z"/>
    <path class="cls-3" d="m13.05,94.1c-.79,0-1.43-.64-1.43-1.43s.64-1.43,1.43-1.43,1.43.64,1.43,1.43-.64,1.43-1.43,1.43Zm0-2.42c-.54,0-.99.44-.99.99s.44.99.99.99.99-.44.99-.99-.44-.99-.99-.99Z"/>
    <path class="cls-3" d="m30.88,71.54c-.79,0-1.43-.64-1.43-1.43s.64-1.43,1.43-1.43,1.43.64,1.43,1.43-.64,1.43-1.43,1.43Zm0-2.42c-.54,0-.99.44-.99.99s.44.99.99.99.99-.44.99-.99-.44-.99-.99-.99Z"/>
    <path class="cls-3" d="m30.88,75.31c-.79,0-1.43-.64-1.43-1.43s.64-1.43,1.43-1.43,1.43.64,1.43,1.43-.64,1.43-1.43,1.43Zm0-2.42c-.54,0-.99.44-.99.99s.44.99.99.99.99-.44.99-.99-.44-.99-.99-.99Z"/>
    <path class="cls-3" d="m30.88,79.09c-.79,0-1.43-.64-1.43-1.43s.64-1.43,1.43-1.43,1.43.64,1.43,1.43-.64,1.43-1.43,1.43Zm0-2.42c-.54,0-.99.44-.99.99s.44.99.99.99.99-.44.99-.99-.44-.99-.99-.99Z"/>
    <path class="cls-3" d="m30.88,82.86c-.79,0-1.43-.64-1.43-1.43s.64-1.43,1.43-1.43,1.43.64,1.43,1.43-.64,1.43-1.43,1.43Zm0-2.42c-.54,0-.99.44-.99.99s.44.99.99.99.99-.44.99-.99-.44-.99-.99-.99Z"/>
    <path class="cls-3" d="m30.88,86.63c-.79,0-1.43-.64-1.43-1.43s.64-1.43,1.43-1.43,1.43.64,1.43,1.43-.64,1.43-1.43,1.43Zm0-2.42c-.54,0-.99.44-.99.99s.44.99.99.99.99-.44.99-.99-.44-.99-.99-.99Z"/>
    <path class="cls-3" d="m30.88,90.4c-.79,0-1.43-.64-1.43-1.43s.64-1.43,1.43-1.43,1.43.64,1.43,1.43-.64,1.43-1.43,1.43Zm0-2.42c-.54,0-.99.44-.99.99s.44.99.99.99.99-.44.99-.99-.44-.99-.99-.99Z"/>
    <path class="cls-3" d="m34.45,67.76c-.79,0-1.43-.64-1.43-1.43s.64-1.43,1.43-1.43,1.43.64,1.43,1.43-.64,1.43-1.43,1.43Zm0-2.42c-.54,0-.99.44-.99.99s.44.99.99.99.99-.44.99-.99-.44-.99-.99-.99Z"/>
    <path class="cls-3" d="m34.45,71.53c-.79,0-1.43-.64-1.43-1.43s.64-1.43,1.43-1.43,1.43.64,1.43,1.43-.64,1.43-1.43,1.43Zm0-2.42c-.54,0-.99.44-.99.99s.44.99.99.99.99-.44.99-.99-.44-.99-.99-.99Z"/>
    <path class="cls-3" d="m34.45,75.3c-.79,0-1.43-.64-1.43-1.43s.64-1.43,1.43-1.43,1.43.64,1.43,1.43-.64,1.43-1.43,1.43Zm0-2.42c-.54,0-.99.44-.99.99s.44.99.99.99.99-.44.99-.99-.44-.99-.99-.99Z"/>
    <path class="cls-3" d="m34.45,79.07c-.79,0-1.43-.64-1.43-1.43s.64-1.43,1.43-1.43,1.43.64,1.43,1.43-.64,1.43-1.43,1.43Zm0-2.42c-.54,0-.99.44-.99.99s.44.99.99.99.99-.44.99-.99-.44-.99-.99-.99Z"/>
    <path class="cls-3" d="m34.45,82.85c-.79,0-1.43-.64-1.43-1.43s.64-1.43,1.43-1.43,1.43.64,1.43,1.43-.64,1.43-1.43,1.43Zm0-2.42c-.54,0-.99.44-.99.99s.44.99.99.99.99-.44.99-.99-.44-.99-.99-.99Z"/>
    <path class="cls-3" d="m34.45,86.62c-.79,0-1.43-.64-1.43-1.43s.64-1.43,1.43-1.43,1.43.64,1.43,1.43-.64,1.43-1.43,1.43Zm0-2.42c-.54,0-.99.44-.99.99s.44.99.99.99.99-.44.99-.99-.44-.99-.99-.99Z"/>
    <path class="cls-3" d="m38.09,64.04c-.79,0-1.43-.64-1.43-1.43s.64-1.43,1.43-1.43,1.43.64,1.43,1.43-.64,1.43-1.43,1.43Zm0-2.42c-.54,0-.99.44-.99.99s.44.99.99.99.99-.44.99-.99-.44-.99-.99-.99Z"/>
    <path class="cls-3" d="m38.09,67.81c-.79,0-1.43-.64-1.43-1.43s.64-1.43,1.43-1.43,1.43.64,1.43,1.43-.64,1.43-1.43,1.43Zm0-2.42c-.54,0-.99.44-.99.99s.44.99.99.99.99-.44.99-.99-.44-.99-.99-.99Z"/>
    <path class="cls-3" d="m38.09,71.58c-.79,0-1.43-.64-1.43-1.43s.64-1.43,1.43-1.43,1.43.64,1.43,1.43-.64,1.43-1.43,1.43Zm0-2.42c-.54,0-.99.44-.99.99s.44.99.99.99.99-.44.99-.99-.44-.99-.99-.99Z"/>
    <path class="cls-3" d="m38.09,75.35c-.79,0-1.43-.64-1.43-1.43s.64-1.43,1.43-1.43,1.43.64,1.43,1.43-.64,1.43-1.43,1.43Zm0-2.42c-.54,0-.99.44-.99.99s.44.99.99.99.99-.44.99-.99-.44-.99-.99-.99Z"/>
    <path class="cls-3" d="m38.09,79.13c-.79,0-1.43-.64-1.43-1.43s.64-1.43,1.43-1.43,1.43.64,1.43,1.43-.64,1.43-1.43,1.43Zm0-2.42c-.54,0-.99.44-.99.99s.44.99.99.99.99-.44.99-.99-.44-.99-.99-.99Z"/>
    <path class="cls-3" d="m38.09,82.9c-.79,0-1.43-.64-1.43-1.43s.64-1.43,1.43-1.43,1.43.64,1.43,1.43-.64,1.43-1.43,1.43Zm0-2.42c-.54,0-.99.44-.99.99s.44.99.99.99.99-.44.99-.99-.44-.99-.99-.99Z"/>
    <path class="cls-3" d="m27.31,75.24c-.79,0-1.43-.64-1.43-1.43s.64-1.43,1.43-1.43,1.43.64,1.43,1.43-.64,1.43-1.43,1.43Zm0-2.42c-.54,0-.99.44-.99.99s.44.99.99.99.99-.44.99-.99-.44-.99-.99-.99Z"/>
    <path class="cls-3" d="m27.31,79.01c-.79,0-1.43-.64-1.43-1.43s.64-1.43,1.43-1.43,1.43.64,1.43,1.43-.64,1.43-1.43,1.43Zm0-2.42c-.54,0-.99.44-.99.99s.44.99.99.99.99-.44.99-.99-.44-.99-.99-.99Z"/>
    <path class="cls-3" d="m27.31,82.79c-.79,0-1.43-.64-1.43-1.43s.64-1.43,1.43-1.43,1.43.64,1.43,1.43-.64,1.43-1.43,1.43Zm0-2.42c-.54,0-.99.44-.99.99s.44.99.99.99.99-.44.99-.99-.44-.99-.99-.99Z"/>
    <path class="cls-3" d="m27.31,86.56c-.79,0-1.43-.64-1.43-1.43s.64-1.43,1.43-1.43,1.43.64,1.43,1.43-.64,1.43-1.43,1.43Zm0-2.42c-.54,0-.99.44-.99.99s.44.99.99.99.99-.44.99-.99-.44-.99-.99-.99Z"/>
    <path class="cls-3" d="m27.31,90.33c-.79,0-1.43-.64-1.43-1.43s.64-1.43,1.43-1.43,1.43.64,1.43,1.43-.64,1.43-1.43,1.43Zm0-2.42c-.54,0-.99.44-.99.99s.44.99.99.99.99-.44.99-.99-.44-.99-.99-.99Z"/>
    <path class="cls-3" d="m27.31,94.1c-.79,0-1.43-.64-1.43-1.43s.64-1.43,1.43-1.43,1.43.64,1.43,1.43-.64,1.43-1.43,1.43Zm0-2.42c-.54,0-.99.44-.99.99s.44.99.99.99.99-.44.99-.99-.44-.99-.99-.99Z"/>
    <path class="cls-3" d="m60.38,71.54c-.79,0-1.43-.64-1.43-1.43s.64-1.43,1.43-1.43,1.43.64,1.43,1.43-.64,1.43-1.43,1.43Zm0-2.42c-.54,0-.99.44-.99.99s.44.99.99.99.99-.44.99-.99-.44-.99-.99-.99Z"/>
    <path class="cls-3" d="m60.38,75.31c-.79,0-1.43-.64-1.43-1.43s.64-1.43,1.43-1.43,1.43.64,1.43,1.43-.64,1.43-1.43,1.43Zm0-2.42c-.54,0-.99.44-.99.99s.44.99.99.99.99-.44.99-.99-.44-.99-.99-.99Z"/>
    <path class="cls-3" d="m60.38,79.09c-.79,0-1.43-.64-1.43-1.43s.64-1.43,1.43-1.43,1.43.64,1.43,1.43-.64,1.43-1.43,1.43Zm0-2.42c-.54,0-.99.44-.99.99s.44.99.99.99.99-.44.99-.99-.44-.99-.99-.99Z"/>
    <path class="cls-3" d="m60.38,82.86c-.79,0-1.43-.64-1.43-1.43s.64-1.43,1.43-1.43,1.43.64,1.43,1.43-.64,1.43-1.43,1.43Zm0-2.42c-.54,0-.99.44-.99.99s.44.99.99.99.99-.44.99-.99-.44-.99-.99-.99Z"/>
    <path class="cls-3" d="m60.38,86.63c-.79,0-1.43-.64-1.43-1.43s.64-1.43,1.43-1.43,1.43.64,1.43,1.43-.64,1.43-1.43,1.43Zm0-2.42c-.54,0-.99.44-.99.99s.44.99.99.99.99-.44.99-.99-.44-.99-.99-.99Z"/>
    <path class="cls-3" d="m60.38,90.4c-.79,0-1.43-.64-1.43-1.43s.64-1.43,1.43-1.43,1.43.64,1.43,1.43-.64,1.43-1.43,1.43Zm0-2.42c-.54,0-.99.44-.99.99s.44.99.99.99.99-.44.99-.99-.44-.99-.99-.99Z"/>
    <path class="cls-3" d="m63.95,67.76c-.79,0-1.43-.64-1.43-1.43s.64-1.43,1.43-1.43,1.43.64,1.43,1.43-.64,1.43-1.43,1.43Zm0-2.42c-.54,0-.99.44-.99.99s.44.99.99.99.99-.44.99-.99-.44-.99-.99-.99Z"/>
    <path class="cls-3" d="m63.95,71.53c-.79,0-1.43-.64-1.43-1.43s.64-1.43,1.43-1.43,1.43.64,1.43,1.43-.64,1.43-1.43,1.43Zm0-2.42c-.54,0-.99.44-.99.99s.44.99.99.99.99-.44.99-.99-.44-.99-.99-.99Z"/>
    <path class="cls-3" d="m63.95,75.3c-.79,0-1.43-.64-1.43-1.43s.64-1.43,1.43-1.43,1.43.64,1.43,1.43-.64,1.43-1.43,1.43Zm0-2.42c-.54,0-.99.44-.99.99s.44.99.99.99.99-.44.99-.99-.44-.99-.99-.99Z"/>
    <path class="cls-3" d="m63.95,79.07c-.79,0-1.43-.64-1.43-1.43s.64-1.43,1.43-1.43,1.43.64,1.43,1.43-.64,1.43-1.43,1.43Zm0-2.42c-.54,0-.99.44-.99.99s.44.99.99.99.99-.44.99-.99-.44-.99-.99-.99Z"/>
    <path class="cls-3" d="m63.95,82.85c-.79,0-1.43-.64-1.43-1.43s.64-1.43,1.43-1.43,1.43.64,1.43,1.43-.64,1.43-1.43,1.43Zm0-2.42c-.54,0-.99.44-.99.99s.44.99.99.99.99-.44.99-.99-.44-.99-.99-.99Z"/>
    <path class="cls-3" d="m63.95,86.62c-.79,0-1.43-.64-1.43-1.43s.64-1.43,1.43-1.43,1.43.64,1.43,1.43-.64,1.43-1.43,1.43Zm0-2.42c-.54,0-.99.44-.99.99s.44.99.99.99.99-.44.99-.99-.44-.99-.99-.99Z"/>
    <path class="cls-3" d="m67.59,64.04c-.79,0-1.43-.64-1.43-1.43s.64-1.43,1.43-1.43,1.43.64,1.43,1.43-.64,1.43-1.43,1.43Zm0-2.42c-.54,0-.99.44-.99.99s.44.99.99.99.99-.44.99-.99-.44-.99-.99-.99Z"/>
    <path class="cls-3" d="m67.59,67.81c-.79,0-1.43-.64-1.43-1.43s.64-1.43,1.43-1.43,1.43.64,1.43,1.43-.64,1.43-1.43,1.43Zm0-2.42c-.54,0-.99.44-.99.99s.44.99.99.99.99-.44.99-.99-.44-.99-.99-.99Z"/>
    <path class="cls-3" d="m67.59,71.58c-.79,0-1.43-.64-1.43-1.43s.64-1.43,1.43-1.43,1.43.64,1.43,1.43-.64,1.43-1.43,1.43Zm0-2.42c-.54,0-.99.44-.99.99s.44.99.99.99.99-.44.99-.99-.44-.99-.99-.99Z"/>
    <path class="cls-3" d="m67.59,75.35c-.79,0-1.43-.64-1.43-1.43s.64-1.43,1.43-1.43,1.43.64,1.43,1.43-.64,1.43-1.43,1.43Zm0-2.42c-.54,0-.99.44-.99.99s.44.99.99.99.99-.44.99-.99-.44-.99-.99-.99Z"/>
    <path class="cls-3" d="m67.59,79.13c-.79,0-1.43-.64-1.43-1.43s.64-1.43,1.43-1.43,1.43.64,1.43,1.43-.64,1.43-1.43,1.43Zm0-2.42c-.54,0-.99.44-.99.99s.44.99.99.99.99-.44.99-.99-.44-.99-.99-.99Z"/>
    <path class="cls-3" d="m67.59,82.9c-.79,0-1.43-.64-1.43-1.43s.64-1.43,1.43-1.43,1.43.64,1.43,1.43-.64,1.43-1.43,1.43Zm0-2.42c-.54,0-.99.44-.99.99s.44.99.99.99.99-.44.99-.99-.44-.99-.99-.99Z"/>
    <path class="cls-3" d="m56.82,75.24c-.79,0-1.43-.64-1.43-1.43s.64-1.43,1.43-1.43,1.43.64,1.43,1.43-.64,1.43-1.43,1.43Zm0-2.42c-.54,0-.99.44-.99.99s.44.99.99.99.99-.44.99-.99-.44-.99-.99-.99Z"/>
    <path class="cls-3" d="m56.82,79.01c-.79,0-1.43-.64-1.43-1.43s.64-1.43,1.43-1.43,1.43.64,1.43,1.43-.64,1.43-1.43,1.43Zm0-2.42c-.54,0-.99.44-.99.99s.44.99.99.99.99-.44.99-.99-.44-.99-.99-.99Z"/>
    <path class="cls-3" d="m56.82,82.79c-.79,0-1.43-.64-1.43-1.43s.64-1.43,1.43-1.43,1.43.64,1.43,1.43-.64,1.43-1.43,1.43Zm0-2.42c-.54,0-.99.44-.99.99s.44.99.99.99.99-.44.99-.99-.44-.99-.99-.99Z"/>
    <path class="cls-3" d="m56.82,86.56c-.79,0-1.43-.64-1.43-1.43s.64-1.43,1.43-1.43,1.43.64,1.43,1.43-.64,1.43-1.43,1.43Zm0-2.42c-.54,0-.99.44-.99.99s.44.99.99.99.99-.44.99-.99-.44-.99-.99-.99Z"/>
    <path class="cls-3" d="m56.82,90.33c-.79,0-1.43-.64-1.43-1.43s.64-1.43,1.43-1.43,1.43.64,1.43,1.43-.64,1.43-1.43,1.43Zm0-2.42c-.54,0-.99.44-.99.99s.44.99.99.99.99-.44.99-.99-.44-.99-.99-.99Z"/>
    <path class="cls-3" d="m56.82,94.1c-.79,0-1.43-.64-1.43-1.43s.64-1.43,1.43-1.43,1.43.64,1.43,1.43-.64,1.43-1.43,1.43Zm0-2.42c-.54,0-.99.44-.99.99s.44.99.99.99.99-.44.99-.99-.44-.99-.99-.99Z"/>
    <path class="cls-3" d="m74.64,71.54c-.79,0-1.43-.64-1.43-1.43s.64-1.43,1.43-1.43,1.43.64,1.43,1.43-.64,1.43-1.43,1.43Zm0-2.42c-.54,0-.99.44-.99.99s.44.99.99.99.99-.44.99-.99-.44-.99-.99-.99Z"/>
    <path class="cls-3" d="m74.64,75.31c-.79,0-1.43-.64-1.43-1.43s.64-1.43,1.43-1.43,1.43.64,1.43,1.43-.64,1.43-1.43,1.43Zm0-2.42c-.54,0-.99.44-.99.99s.44.99.99.99.99-.44.99-.99-.44-.99-.99-.99Z"/>
    <path class="cls-3" d="m74.64,79.09c-.79,0-1.43-.64-1.43-1.43s.64-1.43,1.43-1.43,1.43.64,1.43,1.43-.64,1.43-1.43,1.43Zm0-2.42c-.54,0-.99.44-.99.99s.44.99.99.99.99-.44.99-.99-.44-.99-.99-.99Z"/>
    <path class="cls-3" d="m74.64,82.86c-.79,0-1.43-.64-1.43-1.43s.64-1.43,1.43-1.43,1.43.64,1.43,1.43-.64,1.43-1.43,1.43Zm0-2.42c-.54,0-.99.44-.99.99s.44.99.99.99.99-.44.99-.99-.44-.99-.99-.99Z"/>
    <path class="cls-3" d="m74.64,86.63c-.79,0-1.43-.64-1.43-1.43s.64-1.43,1.43-1.43,1.43.64,1.43,1.43-.64,1.43-1.43,1.43Zm0-2.42c-.54,0-.99.44-.99.99s.44.99.99.99.99-.44.99-.99-.44-.99-.99-.99Z"/>
    <path class="cls-3" d="m74.64,90.4c-.79,0-1.43-.64-1.43-1.43s.64-1.43,1.43-1.43,1.43.64,1.43,1.43-.64,1.43-1.43,1.43Zm0-2.42c-.54,0-.99.44-.99.99s.44.99.99.99.99-.44.99-.99-.44-.99-.99-.99Z"/>
    <path class="cls-3" d="m78.21,67.76c-.79,0-1.43-.64-1.43-1.43s.64-1.43,1.43-1.43,1.43.64,1.43,1.43-.64,1.43-1.43,1.43Zm0-2.42c-.54,0-.99.44-.99.99s.44.99.99.99.99-.44.99-.99-.44-.99-.99-.99Z"/>
    <path class="cls-3" d="m78.21,71.53c-.79,0-1.43-.64-1.43-1.43s.64-1.43,1.43-1.43,1.43.64,1.43,1.43-.64,1.43-1.43,1.43Zm0-2.42c-.54,0-.99.44-.99.99s.44.99.99.99.99-.44.99-.99-.44-.99-.99-.99Z"/>
    <path class="cls-3" d="m78.21,75.3c-.79,0-1.43-.64-1.43-1.43s.64-1.43,1.43-1.43,1.43.64,1.43,1.43-.64,1.43-1.43,1.43Zm0-2.42c-.54,0-.99.44-.99.99s.44.99.99.99.99-.44.99-.99-.44-.99-.99-.99Z"/>
    <path class="cls-3" d="m78.21,79.07c-.79,0-1.43-.64-1.43-1.43s.64-1.43,1.43-1.43,1.43.64,1.43,1.43-.64,1.43-1.43,1.43Zm0-2.42c-.54,0-.99.44-.99.99s.44.99.99.99.99-.44.99-.99-.44-.99-.99-.99Z"/>
    <path class="cls-3" d="m78.21,82.85c-.79,0-1.43-.64-1.43-1.43s.64-1.43,1.43-1.43,1.43.64,1.43,1.43-.64,1.43-1.43,1.43Zm0-2.42c-.54,0-.99.44-.99.99s.44.99.99.99.99-.44.99-.99-.44-.99-.99-.99Z"/>
    <path class="cls-3" d="m78.21,86.62c-.79,0-1.43-.64-1.43-1.43s.64-1.43,1.43-1.43,1.43.64,1.43,1.43-.64,1.43-1.43,1.43Zm0-2.42c-.54,0-.99.44-.99.99s.44.99.99.99.99-.44.99-.99-.44-.99-.99-.99Z"/>
    <path class="cls-3" d="m81.85,64.04c-.79,0-1.43-.64-1.43-1.43s.64-1.43,1.43-1.43,1.43.64,1.43,1.43-.64,1.43-1.43,1.43Zm0-2.42c-.54,0-.99.44-.99.99s.44.99.99.99.99-.44.99-.99-.44-.99-.99-.99Z"/>
    <path class="cls-3" d="m81.85,67.81c-.79,0-1.43-.64-1.43-1.43s.64-1.43,1.43-1.43,1.43.64,1.43,1.43-.64,1.43-1.43,1.43Zm0-2.42c-.54,0-.99.44-.99.99s.44.99.99.99.99-.44.99-.99-.44-.99-.99-.99Z"/>
    <path class="cls-3" d="m81.85,71.58c-.79,0-1.43-.64-1.43-1.43s.64-1.43,1.43-1.43,1.43.64,1.43,1.43-.64,1.43-1.43,1.43Zm0-2.42c-.54,0-.99.44-.99.99s.44.99.99.99.99-.44.99-.99-.44-.99-.99-.99Z"/>
    <path class="cls-3" d="m81.85,75.35c-.79,0-1.43-.64-1.43-1.43s.64-1.43,1.43-1.43,1.43.64,1.43,1.43-.64,1.43-1.43,1.43Zm0-2.42c-.54,0-.99.44-.99.99s.44.99.99.99.99-.44.99-.99-.44-.99-.99-.99Z"/>
    <path class="cls-3" d="m81.85,79.13c-.79,0-1.43-.64-1.43-1.43s.64-1.43,1.43-1.43,1.43.64,1.43,1.43-.64,1.43-1.43,1.43Zm0-2.42c-.54,0-.99.44-.99.99s.44.99.99.99.99-.44.99-.99-.44-.99-.99-.99Z"/>
    <path class="cls-3" d="m81.85,82.9c-.79,0-1.43-.64-1.43-1.43s.64-1.43,1.43-1.43,1.43.64,1.43,1.43-.64,1.43-1.43,1.43Zm0-2.42c-.54,0-.99.44-.99.99s.44.99.99.99.99-.44.99-.99-.44-.99-.99-.99Z"/>
    <path class="cls-3" d="m71.08,75.24c-.79,0-1.43-.64-1.43-1.43s.64-1.43,1.43-1.43,1.43.64,1.43,1.43-.64,1.43-1.43,1.43Zm0-2.42c-.54,0-.99.44-.99.99s.44.99.99.99.99-.44.99-.99-.44-.99-.99-.99Z"/>
    <path class="cls-3" d="m71.08,79.01c-.79,0-1.43-.64-1.43-1.43s.64-1.43,1.43-1.43,1.43.64,1.43,1.43-.64,1.43-1.43,1.43Zm0-2.42c-.54,0-.99.44-.99.99s.44.99.99.99.99-.44.99-.99-.44-.99-.99-.99Z"/>
    <path class="cls-3" d="m71.08,82.79c-.79,0-1.43-.64-1.43-1.43s.64-1.43,1.43-1.43,1.43.64,1.43,1.43-.64,1.43-1.43,1.43Zm0-2.42c-.54,0-.99.44-.99.99s.44.99.99.99.99-.44.99-.99-.44-.99-.99-.99Z"/>
    <path class="cls-3" d="m71.08,86.56c-.79,0-1.43-.64-1.43-1.43s.64-1.43,1.43-1.43,1.43.64,1.43,1.43-.64,1.43-1.43,1.43Zm0-2.42c-.54,0-.99.44-.99.99s.44.99.99.99.99-.44.99-.99-.44-.99-.99-.99Z"/>
    <path class="cls-3" d="m71.08,90.33c-.79,0-1.43-.64-1.43-1.43s.64-1.43,1.43-1.43,1.43.64,1.43,1.43-.64,1.43-1.43,1.43Zm0-2.42c-.54,0-.99.44-.99.99s.44.99.99.99.99-.44.99-.99-.44-.99-.99-.99Z"/>
    <path class="cls-3" d="m71.08,94.1c-.79,0-1.43-.64-1.43-1.43s.64-1.43,1.43-1.43,1.43.64,1.43,1.43-.64,1.43-1.43,1.43Zm0-2.42c-.54,0-.99.44-.99.99s.44.99.99.99.99-.44.99-.99-.44-.99-.99-.99Z"/>
  </g>
  <path class="cls-3" d="m93.43,107.35H1.48V1.57h91.95v105.78Zm-91.51-.44h91.06V2.02H1.93v104.89Z"/>
</svg>