<?xml version="1.0" encoding="UTF-8"?>
<svg id="_Слой_1" data-name="Слой 1" xmlns="http://www.w3.org/2000/svg" viewBox="0 0 141.73 141.73">
  <defs>
    <style>
      .cls-1 {
        fill: #ffffff;
       
      }
    </style>
  </defs>
  <path class="cls-1" d="m104.63,46.17l-17.35-17.33c-.32-.32-.76-.48-1.2-.48h0s-36.43-.01-36.43-.01c-2.95,0-5.35,2.4-5.35,5.35v4.39h-2.35c-2.95,0-5.35,2.4-5.35,5.35v64.6c0,2.95,2.4,5.35,5.35,5.35h49.92c2.96,0,5.36-2.4,5.36-5.35v-4.39h2.33c2.96,0,5.36-2.4,5.36-5.35v-50.16s.05-.06.06-.1c.26-.64.12-1.37-.37-1.86Zm-16.85-12.02l11.53,11.52h-10.3c-.68,0-1.23-.55-1.23-1.22v-10.3Zm6.05,73.88c0,1.07-.88,1.94-1.96,1.94h-49.92c-1.07,0-1.94-.87-1.94-1.94V43.44c0-1.07.87-1.94,1.94-1.94h2.35v56.8c0,2.95,2.4,5.35,5.35,5.35h44.18v4.39Zm5.74-7.8h-49.92c-1.07,0-1.94-.87-1.94-1.94V33.69c0-1.07.87-1.94,1.94-1.94h34.72v12.71c0,2.55,2.08,4.62,4.64,4.62h12.52v49.21c0,1.07-.88,1.94-1.96,1.94Z"/>
  <path class="cls-1" d="m55.26,49.08h26.69c.94,0,1.7-.76,1.7-1.7s-.76-1.7-1.7-1.7h-26.69c-.94,0-1.7.76-1.7,1.7s.76,1.7,1.7,1.7Z"/>
  <path class="cls-1" d="m97.09,53.83h-41.84c-.94,0-1.7.76-1.7,1.7s.76,1.7,1.7,1.7h41.84c.94,0,1.7-.76,1.7-1.7s-.76-1.7-1.7-1.7Z"/>
  <path class="cls-1" d="m97.09,61.99h-41.84c-.94,0-1.7.76-1.7,1.7s.76,1.7,1.7,1.7h41.84c.94,0,1.7-.76,1.7-1.7s-.76-1.7-1.7-1.7Z"/>
  <path class="cls-1" d="m97.09,70.14h-41.84c-.94,0-1.7.76-1.7,1.7s.76,1.7,1.7,1.7h41.84c.94,0,1.7-.76,1.7-1.7s-.76-1.7-1.7-1.7Z"/>
  <path class="cls-1" d="m97.09,78.29h-41.84c-.94,0-1.7.76-1.7,1.7s.76,1.7,1.7,1.7h41.84c.94,0,1.7-.76,1.7-1.7s-.76-1.7-1.7-1.7Z"/>
  <path class="cls-1" d="m97.09,86.45h-41.84c-.94,0-1.7.76-1.7,1.7s.76,1.7,1.7,1.7h41.84c.94,0,1.7-.76,1.7-1.7s-.76-1.7-1.7-1.7Z"/>
</svg>