<?xml version="1.0" encoding="UTF-8"?>
<svg id="_Слой_1" data-name="Слой 1" xmlns="http://www.w3.org/2000/svg" viewBox="0 0 426.07 134.68">
  <defs>
    <style>
      .cls-1 {
        fill: #6c767a;
      }

      .cls-2 {
        fill: #272f33;
      }
    </style>
  </defs>
  <path class="cls-1" d="m216.82,22.69v29.83h49.02v13.11h-44.67v3.1h47.77v-19.31h-49.02v-23.63h155.03v62.77h-153.78v3.1h156.88V22.69h-161.23ZM48.02,91.66h160.76v-3.1H51.11V25.79h157.41v23.63h-50.21v19.31h50.47v-3.1h-47.37v-13.11h50.2v-29.83H48.02v68.97Z"/>
  <path class="cls-2" d="m282.89,105.79c-3.43-10.43-13.34-17.77-24.48-17.77s-21.06,7.34-24.49,17.77h-12.76v-44.7h30.22v4.86h10.9v-11.05h-94.62v.16h0v10.9h8.64v-4.86h32.48v44.7h-13.52c-3.43-10.43-13.34-17.77-24.48-17.77s-21.06,7.34-24.49,17.77h-16.28v6.19h21.25v-2.52l.4.09c1.97-8.89,10.01-15.34,19.11-15.34s17.14,6.45,19.11,15.34l.21-.05v2.47h48.82v-2.51l.37.08c1.96-8.89,10-15.34,19.11-15.34s17.03,6.38,19.06,15.17v2.59h86.57v-6.19h-81.15Z"/>
</svg>