<?xml version="1.0" encoding="UTF-8"?>
<svg id="_Слой_1" data-name="Слой 1" xmlns="http://www.w3.org/2000/svg" viewBox="0 0 426.07 134.68">
  <defs>
    <style>
      .cls-1 {
        fill: #6c767a;
      }

      .cls-2 {
        fill: #272f33;
      }
    </style>
  </defs>
  <path class="cls-1" d="m178.26,91.56H17.73V22.89h160.53v31.48h-50.77v11.67h50.77v25.52Zm-157.45-3.08h154.37v-19.35h-50.77v-17.85h50.77v-25.31H20.81v62.51Z"/>
  <path class="cls-1" d="m408.34,91.56h-160.53v-25.52h50.78v-11.67h-50.78v-31.48h160.53v68.67Zm-157.45-3.08h154.37V25.97h-154.37v25.31h50.78v17.85h-50.78v19.35Z"/>
  <path class="cls-2" d="m317.95,105.63c-3.41-10.39-13.28-17.69-24.38-17.69s-20.97,7.31-24.38,17.69h-22.73v-45.32h13.03v5.9h10.65v-5.9h0v-6.17h-136.5v12.06h10.66v-5.9h33.5v45.32h-21.34c-3.41-10.39-13.28-17.69-24.38-17.69s-20.97,7.31-24.38,17.69h-62.53v6.17h67.48l.4-2.42c1.96-8.85,9.96-15.27,19.03-15.27s17.07,6.43,19.03,15.27l.22,2.42h32.8v-6.17h-.16v-45.32h56.32v49.84h.2v1.66h32.8l1.25-2.42c1.95-8.85,9.96-15.27,19.03-15.27s17.07,6.43,19.03,15.27l.06,2.42h67.9v-6.17h-62.61Z"/>
</svg>