<?xml version="1.0" encoding="UTF-8"?>
<svg id="_Слой_1" data-name="Слой 1" xmlns="http://www.w3.org/2000/svg" xmlns:xlink="http://www.w3.org/1999/xlink" viewBox="0 0 94.64 93.87">
  <defs>
    <style>
      .cls-1, .cls-2, .cls-3 {
        fill: none;
      }

      .cls-2 {
        stroke: #010101;
        stroke-miterlimit: 10;
        stroke-width: .25px;
      }

      .cls-3 {
        clip-path: url(#clippath);
      }

      .cls-4 {
        fill: #010101;
      }
    </style>
    <clipPath id="clippath">
      <path class="cls-1" d="m7.14,121.77v2.39h-2.07v5.25H.32v-7.63h6.82Zm1.89,0v2.39h2.1v5.25h2.75v-5.25h1.97v-2.39h-6.82Zm8.72,0v2.39h2.2v5.25h2.46v-5.25h2.15v-2.39h-6.82Zm8.72,0v2.39h2.02v5.25h2.69v-5.25h2.11v-2.39h-6.82Zm8.72,0v2.39h2.06v5.25h2.93v-5.25h2.1v-2.39h-7.09Zm8.98,0v2.39h2.08v5.25h2.41v-5.25h2.07v-2.39h-6.56Zm8.45,0v2.39h2.11v5.25h2.63v-5.25h2.09v-2.39h-6.82Zm8.72,0v2.39h2.08v5.25h2.75v-5.25h1.99v-2.39h-6.82Zm8.72,0v2.39h2.18v5.25h2.6v-5.25h2.05v-2.39h-6.82Zm8.72,0v2.39h2.13v5.25h2.9v-5.25h1.98v-2.39h-7.01Zm8.91,0v2.39h2.19v5.25h4.45v-7.63h-6.63Z"/>
    </clipPath>
  </defs>
  <path class="cls-4" d="m94.64,0H0v93.87h94.64V0h0ZM.63,93.24V.64h6.19v92.6H.63Zm6.82,0V.64h1.26v92.6h-1.26Zm1.9,0V.64h6.19v92.6h-6.19Zm6.82,0V.64h1.26v92.6h-1.26Zm1.89,0V.64h6.19v92.6h-6.19Zm6.82,0V.64h1.26v92.6h-1.26Zm1.9,0V.64h6.19v92.6h-6.19Zm6.82,0V.64h1.26v92.6h-1.26Zm1.9,0V.64h6.19v92.6h-6.19Zm6.82,0V.64h1.26v92.6h-1.26Zm1.9,0V.64h6.19v92.6h-6.19Zm6.82,0V.64h1.26v92.6h-1.26Zm1.89,0V.64h6.19v92.6h-6.19Zm6.82,0V.64h1.26v92.6h-1.26Zm1.9,0V.64h6.19v92.6h-6.19Zm6.82,0V.64h1.26v92.6h-1.26Zm1.9,0V.64h6.19v92.6h-6.19Zm6.82,0V.64h1.26v92.6h-1.26Zm1.89,0V.64h6.19v92.6h-6.19Zm6.82,0V.64h1.26v92.6h-1.26Zm1.9,0V.64h6.19v92.6h-6.19Z"/>
  <g class="cls-3">
    <g>
      <line class="cls-2" x1="76.06" y1="36.68" x2="-50.71" y2="163.45"/>
      <line class="cls-2" x1="76.9" y1="37.51" x2="-49.87" y2="164.29"/>
      <line class="cls-2" x1="77.74" y1="38.35" x2="-49.03" y2="165.12"/>
      <line class="cls-2" x1="78.58" y1="39.19" x2="-48.19" y2="165.96"/>
      <line class="cls-2" x1="79.42" y1="40.03" x2="-47.35" y2="166.8"/>
      <line class="cls-2" x1="80.26" y1="40.87" x2="-46.52" y2="167.64"/>
      <line class="cls-2" x1="81.09" y1="41.71" x2="-45.68" y2="168.48"/>
      <line class="cls-2" x1="81.93" y1="42.54" x2="-44.84" y2="169.32"/>
      <line class="cls-2" x1="82.77" y1="43.38" x2="-44" y2="170.15"/>
      <line class="cls-2" x1="83.61" y1="44.22" x2="-43.16" y2="170.99"/>
      <line class="cls-2" x1="84.45" y1="45.06" x2="-42.32" y2="171.83"/>
      <line class="cls-2" x1="85.29" y1="45.9" x2="-41.49" y2="172.67"/>
      <line class="cls-2" x1="86.12" y1="46.73" x2="-40.65" y2="173.51"/>
      <line class="cls-2" x1="86.96" y1="47.57" x2="-39.81" y2="174.35"/>
      <line class="cls-2" x1="87.8" y1="48.41" x2="-38.97" y2="175.18"/>
      <line class="cls-2" x1="88.64" y1="49.25" x2="-38.13" y2="176.02"/>
      <line class="cls-2" x1="89.48" y1="50.09" x2="-37.3" y2="176.86"/>
      <line class="cls-2" x1="90.31" y1="50.93" x2="-36.46" y2="177.7"/>
      <line class="cls-2" x1="91.15" y1="51.76" x2="-35.62" y2="178.54"/>
      <line class="cls-2" x1="91.99" y1="52.6" x2="-34.78" y2="179.37"/>
      <line class="cls-2" x1="92.83" y1="53.44" x2="-33.94" y2="180.21"/>
      <line class="cls-2" x1="93.67" y1="54.28" x2="-33.1" y2="181.05"/>
      <line class="cls-2" x1="94.51" y1="55.12" x2="-32.27" y2="181.89"/>
      <line class="cls-2" x1="95.34" y1="55.96" x2="-31.43" y2="182.73"/>
      <line class="cls-2" x1="96.18" y1="56.79" x2="-30.59" y2="183.57"/>
      <line class="cls-2" x1="97.02" y1="57.63" x2="-29.75" y2="184.4"/>
      <line class="cls-2" x1="97.86" y1="58.47" x2="-28.91" y2="185.24"/>
      <line class="cls-2" x1="98.7" y1="59.31" x2="-28.07" y2="186.08"/>
      <line class="cls-2" x1="99.54" y1="60.15" x2="-27.24" y2="186.92"/>
      <line class="cls-2" x1="100.37" y1="60.98" x2="-26.4" y2="187.76"/>
      <line class="cls-2" x1="101.21" y1="61.82" x2="-25.56" y2="188.6"/>
      <line class="cls-2" x1="102.05" y1="62.66" x2="-24.72" y2="189.43"/>
      <line class="cls-2" x1="102.89" y1="63.5" x2="-23.88" y2="190.27"/>
      <line class="cls-2" x1="103.73" y1="64.34" x2="-23.05" y2="191.11"/>
      <line class="cls-2" x1="104.56" y1="65.18" x2="-22.21" y2="191.95"/>
      <line class="cls-2" x1="105.4" y1="66.01" x2="-21.37" y2="192.79"/>
      <line class="cls-2" x1="106.24" y1="66.85" x2="-20.53" y2="193.62"/>
      <line class="cls-2" x1="107.08" y1="67.69" x2="-19.69" y2="194.46"/>
      <line class="cls-2" x1="107.92" y1="68.53" x2="-18.85" y2="195.3"/>
      <line class="cls-2" x1="108.76" y1="69.37" x2="-18.02" y2="196.14"/>
      <line class="cls-2" x1="109.59" y1="70.21" x2="-17.18" y2="196.98"/>
      <line class="cls-2" x1="110.43" y1="71.04" x2="-16.34" y2="197.82"/>
      <line class="cls-2" x1="111.27" y1="71.88" x2="-15.5" y2="198.65"/>
      <line class="cls-2" x1="112.11" y1="72.72" x2="-14.66" y2="199.49"/>
      <line class="cls-2" x1="112.95" y1="73.56" x2="-13.82" y2="200.33"/>
      <line class="cls-2" x1="113.79" y1="74.4" x2="-12.99" y2="201.17"/>
      <line class="cls-2" x1="114.62" y1="75.23" x2="-12.15" y2="202.01"/>
      <line class="cls-2" x1="115.46" y1="76.07" x2="-11.31" y2="202.85"/>
      <line class="cls-2" x1="116.3" y1="76.91" x2="-10.47" y2="203.68"/>
      <line class="cls-2" x1="117.14" y1="77.75" x2="-9.63" y2="204.52"/>
      <line class="cls-2" x1="117.98" y1="78.59" x2="-8.8" y2="205.36"/>
      <line class="cls-2" x1="118.81" y1="79.43" x2="-7.96" y2="206.2"/>
      <line class="cls-2" x1="119.65" y1="80.26" x2="-7.12" y2="207.04"/>
      <line class="cls-2" x1="120.49" y1="81.1" x2="-6.28" y2="207.87"/>
      <line class="cls-2" x1="121.33" y1="81.94" x2="-5.44" y2="208.71"/>
      <line class="cls-2" x1="122.17" y1="82.78" x2="-4.6" y2="209.55"/>
      <line class="cls-2" x1="123.01" y1="83.62" x2="-3.77" y2="210.39"/>
      <line class="cls-2" x1="123.84" y1="84.46" x2="-2.93" y2="211.23"/>
      <line class="cls-2" x1="124.68" y1="85.29" x2="-2.09" y2="212.07"/>
      <line class="cls-2" x1="125.52" y1="86.13" x2="-1.25" y2="212.9"/>
      <line class="cls-2" x1="126.36" y1="86.97" x2="-.41" y2="213.74"/>
      <line class="cls-2" x1="127.2" y1="87.81" x2=".43" y2="214.58"/>
      <line class="cls-2" x1="128.04" y1="88.65" x2="1.26" y2="215.42"/>
      <line class="cls-2" x1="128.87" y1="89.48" x2="2.1" y2="216.26"/>
      <line class="cls-2" x1="129.71" y1="90.32" x2="2.94" y2="217.1"/>
      <line class="cls-2" x1="130.55" y1="91.16" x2="3.78" y2="217.93"/>
      <line class="cls-2" x1="131.39" y1="92" x2="4.62" y2="218.77"/>
      <line class="cls-2" x1="132.23" y1="92.84" x2="5.45" y2="219.61"/>
      <line class="cls-2" x1="133.06" y1="93.68" x2="6.29" y2="220.45"/>
    </g>
  </g>
</svg>