<?xml version="1.0" encoding="UTF-8"?>
<svg id="_Слой_1" data-name="Слой 1" xmlns="http://www.w3.org/2000/svg" xmlns:xlink="http://www.w3.org/1999/xlink" viewBox="0 0 94.64 8.27">
  <defs>
    <style>
      .cls-1, .cls-2, .cls-3 {
        fill: none;
      }

      .cls-2 {
        stroke: #010101;
        stroke-miterlimit: 10;
        stroke-width: .25px;
      }

      .cls-3 {
        clip-path: url(#clippath);
      }

      .cls-4 {
        fill: #010101;
      }
    </style>
    <clipPath id="clippath">
      <path class="cls-1" d="m7.14.32v2.39h-2.07v5.25H.32V.32h6.82Zm1.89,0v2.39h2.1v5.25h2.75V2.7h1.97V.32h-6.82Zm8.72,0v2.39h2.2v5.25h2.46V2.7h2.15V.32h-6.82Zm8.72,0v2.39h2.02v5.25h2.69V2.7h2.11V.32h-6.82Zm8.72,0v2.39h2.06v5.25h2.93V2.7h2.1V.32h-7.09Zm8.98,0v2.39h2.08v5.25h2.41V2.7h2.07V.32h-6.56Zm8.45,0v2.39h2.11v5.25h2.63V2.7h2.09V.32h-6.82Zm8.72,0v2.39h2.08v5.25h2.75V2.7h1.99V.32h-6.82Zm8.72,0v2.39h2.18v5.25h2.6V2.7h2.05V.32h-6.82Zm8.72,0v2.39h2.13v5.25h2.9V2.7h1.98V.32h-7.01Zm8.91,0v2.39h2.19v5.25h4.45V.32h-6.63Z"/>
    </clipPath>
  </defs>
  <g class="cls-3">
    <g>
      <line class="cls-2" x1="76.06" y1="-84.77" x2="-50.71" y2="42"/>
      <line class="cls-2" x1="76.9" y1="-83.93" x2="-49.87" y2="42.84"/>
      <line class="cls-2" x1="77.74" y1="-83.1" x2="-49.03" y2="43.68"/>
      <line class="cls-2" x1="78.58" y1="-82.26" x2="-48.19" y2="44.51"/>
      <line class="cls-2" x1="79.42" y1="-81.42" x2="-47.35" y2="45.35"/>
      <line class="cls-2" x1="80.26" y1="-80.58" x2="-46.52" y2="46.19"/>
      <line class="cls-2" x1="81.09" y1="-79.74" x2="-45.68" y2="47.03"/>
      <line class="cls-2" x1="81.93" y1="-78.9" x2="-44.84" y2="47.87"/>
      <line class="cls-2" x1="82.77" y1="-78.07" x2="-44" y2="48.71"/>
      <line class="cls-2" x1="83.61" y1="-77.23" x2="-43.16" y2="49.54"/>
      <line class="cls-2" x1="84.45" y1="-76.39" x2="-42.32" y2="50.38"/>
      <line class="cls-2" x1="85.29" y1="-75.55" x2="-41.49" y2="51.22"/>
      <line class="cls-2" x1="86.12" y1="-74.71" x2="-40.65" y2="52.06"/>
      <line class="cls-2" x1="86.96" y1="-73.88" x2="-39.81" y2="52.9"/>
      <line class="cls-2" x1="87.8" y1="-73.04" x2="-38.97" y2="53.73"/>
      <line class="cls-2" x1="88.64" y1="-72.2" x2="-38.13" y2="54.57"/>
      <line class="cls-2" x1="89.48" y1="-71.36" x2="-37.3" y2="55.41"/>
      <line class="cls-2" x1="90.31" y1="-70.52" x2="-36.46" y2="56.25"/>
      <line class="cls-2" x1="91.15" y1="-69.68" x2="-35.62" y2="57.09"/>
      <line class="cls-2" x1="91.99" y1="-68.85" x2="-34.78" y2="57.93"/>
      <line class="cls-2" x1="92.83" y1="-68.01" x2="-33.94" y2="58.76"/>
      <line class="cls-2" x1="93.67" y1="-67.17" x2="-33.1" y2="59.6"/>
      <line class="cls-2" x1="94.51" y1="-66.33" x2="-32.27" y2="60.44"/>
      <line class="cls-2" x1="95.34" y1="-65.49" x2="-31.43" y2="61.28"/>
      <line class="cls-2" x1="96.18" y1="-64.65" x2="-30.59" y2="62.12"/>
      <line class="cls-2" x1="97.02" y1="-63.82" x2="-29.75" y2="62.96"/>
      <line class="cls-2" x1="97.86" y1="-62.98" x2="-28.91" y2="63.79"/>
      <line class="cls-2" x1="98.7" y1="-62.14" x2="-28.07" y2="64.63"/>
      <line class="cls-2" x1="99.54" y1="-61.3" x2="-27.24" y2="65.47"/>
      <line class="cls-2" x1="100.37" y1="-60.46" x2="-26.4" y2="66.31"/>
      <line class="cls-2" x1="101.21" y1="-59.63" x2="-25.56" y2="67.15"/>
      <line class="cls-2" x1="102.05" y1="-58.79" x2="-24.72" y2="67.98"/>
      <line class="cls-2" x1="102.89" y1="-57.95" x2="-23.88" y2="68.82"/>
      <line class="cls-2" x1="103.73" y1="-57.11" x2="-23.05" y2="69.66"/>
      <line class="cls-2" x1="104.56" y1="-56.27" x2="-22.21" y2="70.5"/>
      <line class="cls-2" x1="105.4" y1="-55.43" x2="-21.37" y2="71.34"/>
      <line class="cls-2" x1="106.24" y1="-54.6" x2="-20.53" y2="72.18"/>
      <line class="cls-2" x1="107.08" y1="-53.76" x2="-19.69" y2="73.01"/>
      <line class="cls-2" x1="107.92" y1="-52.92" x2="-18.85" y2="73.85"/>
      <line class="cls-2" x1="108.76" y1="-52.08" x2="-18.02" y2="74.69"/>
      <line class="cls-2" x1="109.59" y1="-51.24" x2="-17.18" y2="75.53"/>
      <line class="cls-2" x1="110.43" y1="-50.4" x2="-16.34" y2="76.37"/>
      <line class="cls-2" x1="111.27" y1="-49.57" x2="-15.5" y2="77.21"/>
      <line class="cls-2" x1="112.11" y1="-48.73" x2="-14.66" y2="78.04"/>
      <line class="cls-2" x1="112.95" y1="-47.89" x2="-13.82" y2="78.88"/>
      <line class="cls-2" x1="113.79" y1="-47.05" x2="-12.99" y2="79.72"/>
      <line class="cls-2" x1="114.62" y1="-46.21" x2="-12.15" y2="80.56"/>
      <line class="cls-2" x1="115.46" y1="-45.38" x2="-11.31" y2="81.4"/>
      <line class="cls-2" x1="116.3" y1="-44.54" x2="-10.47" y2="82.23"/>
      <line class="cls-2" x1="117.14" y1="-43.7" x2="-9.63" y2="83.07"/>
      <line class="cls-2" x1="117.98" y1="-42.86" x2="-8.8" y2="83.91"/>
      <line class="cls-2" x1="118.81" y1="-42.02" x2="-7.96" y2="84.75"/>
      <line class="cls-2" x1="119.65" y1="-41.18" x2="-7.12" y2="85.59"/>
      <line class="cls-2" x1="120.49" y1="-40.35" x2="-6.28" y2="86.43"/>
      <line class="cls-2" x1="121.33" y1="-39.51" x2="-5.44" y2="87.26"/>
      <line class="cls-2" x1="122.17" y1="-38.67" x2="-4.6" y2="88.1"/>
      <line class="cls-2" x1="123.01" y1="-37.83" x2="-3.77" y2="88.94"/>
      <line class="cls-2" x1="123.84" y1="-36.99" x2="-2.93" y2="89.78"/>
      <line class="cls-2" x1="124.68" y1="-36.15" x2="-2.09" y2="90.62"/>
      <line class="cls-2" x1="125.52" y1="-35.32" x2="-1.25" y2="91.46"/>
      <line class="cls-2" x1="126.36" y1="-34.48" x2="-.41" y2="92.29"/>
      <line class="cls-2" x1="127.2" y1="-33.64" x2=".43" y2="93.13"/>
      <line class="cls-2" x1="128.04" y1="-32.8" x2="1.26" y2="93.97"/>
      <line class="cls-2" x1="128.87" y1="-31.96" x2="2.1" y2="94.81"/>
      <line class="cls-2" x1="129.71" y1="-31.13" x2="2.94" y2="95.65"/>
      <line class="cls-2" x1="130.55" y1="-30.29" x2="3.78" y2="96.48"/>
      <line class="cls-2" x1="131.39" y1="-29.45" x2="4.62" y2="97.32"/>
      <line class="cls-2" x1="132.23" y1="-28.61" x2="5.45" y2="98.16"/>
      <line class="cls-2" x1="133.06" y1="-27.77" x2="6.29" y2="99"/>
    </g>
  </g>
  <path class="cls-4" d="m94.64,0h0s-7.27,0-7.27,0h0s-1.26,0-1.26,0h0s-7.65,0-7.65,0h0s-1.26,0-1.26,0h0s-7.46,0-7.46,0h0s-1.26,0-1.26,0h0s-7.46,0-7.46,0h0s-1.26,0-1.26,0h0s-7.46,0-7.46,0h0s-1.26,0-1.26,0h0s-7.19,0-7.19,0h0s-1.26,0-1.26,0h0s-7.72,0-7.72,0h0s-1.26,0-1.26,0h0s-7.46,0-7.46,0h0s-1.26,0-1.26,0h0s-7.46,0-7.46,0h0s-1.26,0-1.26,0h0s-7.46,0-7.46,0h0s-1.26,0-1.26,0h0s-7.46,0-7.46,0h0v8.27h0s94.64,0,94.64,0V0h0Zm-5.08,2.38h-1.55V.64h6v7h-3.81V2.39h-.64Zm-2.19-1.75v2.38h2.19v4.61h-5.43V3.02h1.98V.64h1.26Zm-6.15,7V2.39h-2.12V.64h6.38v1.75h-1.98v5.25h-2.27Zm-2.76-7v2.38h2.12v4.61h-5.43V3.02h2.04V.64h1.26Zm-5.9,7V2.39h-2.18V.64h6.19v1.75h-2.05v5.25h-1.96Zm-2.81-7v2.38h2.18v4.61h-5.43V3.02h1.99V.64h1.26Zm-6,7V2.39h-2.08V.64h6.19v1.75h-1.99v5.25h-2.11Zm-2.72-7v2.38h2.08v4.61h-5.43V3.02h2.09V.64h1.26Zm-5.98,7V2.39h-2.11V.64h6.19v1.75h-2.09v5.25h-1.99Zm-2.74-7v2.38h2.11v4.61h-5.43V3.02h2.07V.64h1.26Zm-5.74,7V2.39h-2.08V.64h5.92v1.75h-2.06v5.25h-1.78Zm-2.71-7v2.38h2.08v4.61h-5.43V3.02h2.09V.64h1.26Zm-6.29,7V2.39h-2.06V.64h6.45v1.75h-2.09v5.25h-2.3Zm-2.7-7v2.38h2.06v4.61h-5.43V3.02h2.11V.64h1.26Zm-6.07,7V2.39h-2.02V.64h6.19v1.75h-2.11v5.25h-2.06Zm-2.65-7v2.38h2.02v4.61h-5.43V3.02h2.15V.64h1.26Zm-5.88,7V2.39h-2.21V.64h6.19v1.75h-2.15v5.25h-1.83Zm-2.84-7v2.38h2.2v4.61h-5.43V3.02h1.96V.64h1.26Zm-5.98,7V2.39h-2.1V.64h6.19v1.75h-1.97v5.25h-2.12ZM8.72.64v2.38h2.1v4.61h-5.43V3.02h2.07V.64h1.26ZM.64,7.63V.64h6.19v1.75h-2.07v5.25H.64Z"/>
</svg>