<?xml version="1.0" encoding="UTF-8"?>
<svg id="_Слой_1" data-name="Слой 1" xmlns="http://www.w3.org/2000/svg" xmlns:xlink="http://www.w3.org/1999/xlink" viewBox="0 0 95.5 93.8">
  <defs>
    <style>
      .cls-1, .cls-2, .cls-3 {
        fill: none;
      }

      .cls-2 {
        stroke: #010101;
        stroke-miterlimit: 10;
        stroke-width: .25px;
      }

      .cls-3 {
        clip-path: url(#clippath);
      }

      .cls-4 {
        fill: #010101;
      }
    </style>
    <clipPath id="clippath">
      <path class="cls-1" d="m14.2,121.57v2.2h-1.97v5.59H.32v-7.79h13.88Zm2.28,0v2.2h1.82v5.59h10.18v-5.59h1.94v-2.2h-13.94Zm16.16,0v2.2h1.91v5.59h10.16v-5.59h1.87v-2.2h-13.94Zm16.16,0v2.2h1.98v5.59h10.2v-5.59h1.76v-2.2h-13.94Zm16.4,0v2.2h1.85v5.59h10.2v-5.59h1.83v-2.2h-13.87Zm16.15,0v2.2h1.97v5.59h12.07v-7.79h-14.04Z"/>
    </clipPath>
  </defs>
  <path class="cls-4" d="m81.08,0H0v93.8h95.5V0h-14.42ZM.63,93.16V.63h13.15v92.53H.63Zm13.78,0V.63h1.8v92.53h-1.8Zm2.43,0V.63h13.15v92.53h-13.15Zm13.78,0V.63h1.8v92.53h-1.8Zm2.43,0V.63h13.15v92.53h-13.15Zm13.78,0V.63h1.8v92.53h-1.8Zm2.43,0V.63h13.15v92.53h-13.15Zm13.78,0V.63h1.8v92.53h-1.8Zm2.43,0V.63h13.15v92.53h-13.15Zm13.78,0V.63h1.8v92.53h-1.8Zm15.58,0h-13.15V.63h13.15v92.53Z"/>
  <g class="cls-3">
    <g>
      <line class="cls-2" x1="86.18" y1="29.69" x2="-40.59" y2="156.46"/>
      <line class="cls-2" x1="87.02" y1="30.52" x2="-39.75" y2="157.3"/>
      <line class="cls-2" x1="87.86" y1="31.36" x2="-38.91" y2="158.13"/>
      <line class="cls-2" x1="88.7" y1="32.2" x2="-38.08" y2="158.97"/>
      <line class="cls-2" x1="89.53" y1="33.04" x2="-37.24" y2="159.81"/>
      <line class="cls-2" x1="90.37" y1="33.88" x2="-36.4" y2="160.65"/>
      <line class="cls-2" x1="91.21" y1="34.71" x2="-35.56" y2="161.49"/>
      <line class="cls-2" x1="92.05" y1="35.55" x2="-34.72" y2="162.33"/>
      <line class="cls-2" x1="92.89" y1="36.39" x2="-33.89" y2="163.16"/>
      <line class="cls-2" x1="93.72" y1="37.23" x2="-33.05" y2="164"/>
      <line class="cls-2" x1="94.56" y1="38.07" x2="-32.21" y2="164.84"/>
      <line class="cls-2" x1="95.4" y1="38.91" x2="-31.37" y2="165.68"/>
      <line class="cls-2" x1="96.24" y1="39.74" x2="-30.53" y2="166.52"/>
      <line class="cls-2" x1="97.08" y1="40.58" x2="-29.69" y2="167.35"/>
      <line class="cls-2" x1="97.92" y1="41.42" x2="-28.86" y2="168.19"/>
      <line class="cls-2" x1="98.75" y1="42.26" x2="-28.02" y2="169.03"/>
      <line class="cls-2" x1="99.59" y1="43.1" x2="-27.18" y2="169.87"/>
      <line class="cls-2" x1="100.43" y1="43.94" x2="-26.34" y2="170.71"/>
      <line class="cls-2" x1="101.27" y1="44.77" x2="-25.5" y2="171.55"/>
      <line class="cls-2" x1="102.11" y1="45.61" x2="-24.66" y2="172.38"/>
      <line class="cls-2" x1="102.95" y1="46.45" x2="-23.83" y2="173.22"/>
      <line class="cls-2" x1="103.78" y1="47.29" x2="-22.99" y2="174.06"/>
      <line class="cls-2" x1="104.62" y1="48.13" x2="-22.15" y2="174.9"/>
      <line class="cls-2" x1="105.46" y1="48.96" x2="-21.31" y2="175.74"/>
      <line class="cls-2" x1="106.3" y1="49.8" x2="-20.47" y2="176.58"/>
      <line class="cls-2" x1="107.14" y1="50.64" x2="-19.64" y2="177.41"/>
      <line class="cls-2" x1="107.97" y1="51.48" x2="-18.8" y2="178.25"/>
      <line class="cls-2" x1="108.81" y1="52.32" x2="-17.96" y2="179.09"/>
      <line class="cls-2" x1="109.65" y1="53.16" x2="-17.12" y2="179.93"/>
      <line class="cls-2" x1="110.49" y1="53.99" x2="-16.28" y2="180.77"/>
      <line class="cls-2" x1="111.33" y1="54.83" x2="-15.44" y2="181.6"/>
      <line class="cls-2" x1="112.17" y1="55.67" x2="-14.61" y2="182.44"/>
      <line class="cls-2" x1="113" y1="56.51" x2="-13.77" y2="183.28"/>
      <line class="cls-2" x1="113.84" y1="57.35" x2="-12.93" y2="184.12"/>
      <line class="cls-2" x1="114.68" y1="58.19" x2="-12.09" y2="184.96"/>
      <line class="cls-2" x1="115.52" y1="59.02" x2="-11.25" y2="185.8"/>
      <line class="cls-2" x1="116.36" y1="59.86" x2="-10.41" y2="186.63"/>
      <line class="cls-2" x1="117.2" y1="60.7" x2="-9.58" y2="187.47"/>
      <line class="cls-2" x1="118.03" y1="61.54" x2="-8.74" y2="188.31"/>
      <line class="cls-2" x1="118.87" y1="62.38" x2="-7.9" y2="189.15"/>
      <line class="cls-2" x1="119.71" y1="63.21" x2="-7.06" y2="189.99"/>
      <line class="cls-2" x1="120.55" y1="64.05" x2="-6.22" y2="190.83"/>
      <line class="cls-2" x1="121.39" y1="64.89" x2="-5.39" y2="191.66"/>
      <line class="cls-2" x1="122.22" y1="65.73" x2="-4.55" y2="192.5"/>
      <line class="cls-2" x1="123.06" y1="66.57" x2="-3.71" y2="193.34"/>
      <line class="cls-2" x1="123.9" y1="67.41" x2="-2.87" y2="194.18"/>
      <line class="cls-2" x1="124.74" y1="68.24" x2="-2.03" y2="195.02"/>
      <line class="cls-2" x1="125.58" y1="69.08" x2="-1.19" y2="195.85"/>
      <line class="cls-2" x1="126.42" y1="69.92" x2="-.36" y2="196.69"/>
      <line class="cls-2" x1="127.25" y1="70.76" x2=".48" y2="197.53"/>
      <line class="cls-2" x1="128.09" y1="71.6" x2="1.32" y2="198.37"/>
      <line class="cls-2" x1="128.93" y1="72.44" x2="2.16" y2="199.21"/>
      <line class="cls-2" x1="129.77" y1="73.27" x2="3" y2="200.05"/>
      <line class="cls-2" x1="130.61" y1="74.11" x2="3.84" y2="200.88"/>
      <line class="cls-2" x1="131.45" y1="74.95" x2="4.67" y2="201.72"/>
      <line class="cls-2" x1="132.28" y1="75.79" x2="5.51" y2="202.56"/>
      <line class="cls-2" x1="133.12" y1="76.63" x2="6.35" y2="203.4"/>
      <line class="cls-2" x1="133.96" y1="77.46" x2="7.19" y2="204.24"/>
      <line class="cls-2" x1="134.8" y1="78.3" x2="8.03" y2="205.08"/>
      <line class="cls-2" x1="135.64" y1="79.14" x2="8.86" y2="205.91"/>
      <line class="cls-2" x1="136.47" y1="79.98" x2="9.7" y2="206.75"/>
      <line class="cls-2" x1="137.31" y1="80.82" x2="10.54" y2="207.59"/>
      <line class="cls-2" x1="138.15" y1="81.66" x2="11.38" y2="208.43"/>
      <line class="cls-2" x1="138.99" y1="82.49" x2="12.22" y2="209.27"/>
      <line class="cls-2" x1="139.83" y1="83.33" x2="13.06" y2="210.1"/>
      <line class="cls-2" x1="140.67" y1="84.17" x2="13.89" y2="210.94"/>
      <line class="cls-2" x1="141.5" y1="85.01" x2="14.73" y2="211.78"/>
      <line class="cls-2" x1="142.34" y1="85.85" x2="15.57" y2="212.62"/>
      <line class="cls-2" x1="143.18" y1="86.69" x2="16.41" y2="213.46"/>
    </g>
  </g>
</svg>