<?xml version="1.0" encoding="UTF-8"?>
<svg id="_Слой_1" data-name="Слой 1" xmlns="http://www.w3.org/2000/svg" xmlns:xlink="http://www.w3.org/1999/xlink" viewBox="0 0 95.9 8.44">
  <defs>
    <style>
      .cls-1, .cls-2, .cls-3, .cls-4 {
        fill: none;
      }

      .cls-2 {
        stroke: #010101;
        stroke-miterlimit: 10;
        stroke-width: .25px;
      }

      .cls-3 {
        clip-path: url(#clippath);
      }

      .cls-4 {
        clip-path: url(#clippath-1);
      }

      .cls-5 {
        fill: #010101;
      }
    </style>
    <clipPath id="clippath">
      <path class="cls-1" d="m.32.32h14.3v2.12h-2.27v5.68H.32V.32Zm16.19,2.12h2.15v5.68h9.97V2.44h2.18V.32h-14.3v2.12Zm16.19,0h2.24v5.68h9.84V2.44h2.21V.32h-14.3v2.12Zm16.19,0h2.21v5.68h10.22V2.44h2.1V.32h-14.54v2.12Zm16.43,0h2.32v5.68h9.81V2.44h2.15V.32h-14.28v2.12ZM81.51.32v2.12h2.27v5.68h11.8V.32h-14.07Z"/>
    </clipPath>
    <clipPath id="clippath-1">
      <path class="cls-1" d="m151,.5v2.39h-2.07v5.25h-4.76V.5h6.82Zm1.89,0v2.39h2.1v5.25h2.75V2.88h1.97V.5h-6.82Zm8.72,0v2.39h2.2v5.25h2.46V2.88h2.15V.5h-6.82Zm8.72,0v2.39h2.02v5.25h2.69V2.88h2.11V.5h-6.82Zm8.72,0v2.39h2.06v5.25h2.93V2.88h2.1V.5h-7.09Zm8.98,0v2.39h2.08v5.25h2.41V2.88h2.07V.5h-6.56Zm8.45,0v2.39h2.11v5.25h2.63V2.88h2.09V.5h-6.82Zm8.72,0v2.39h2.08v5.25h2.75V2.88h1.99V.5h-6.82Zm8.72,0v2.39h2.18v5.25h2.6V2.88h2.05V.5h-6.82Zm8.72,0v2.39h2.13v5.25h2.9V2.88h1.98V.5h-7.01Zm8.91,0v2.39h2.19v5.25h4.45V.5h-6.63Z"/>
    </clipPath>
  </defs>
  <g class="cls-3">
    <g>
      <line class="cls-2" x1="84.51" y1="-85.35" x2="-42.27" y2="41.42"/>
      <line class="cls-2" x1="85.34" y1="-84.51" x2="-41.43" y2="42.26"/>
      <line class="cls-2" x1="86.18" y1="-83.67" x2="-40.59" y2="43.1"/>
      <line class="cls-2" x1="87.02" y1="-82.84" x2="-39.75" y2="43.94"/>
      <line class="cls-2" x1="87.86" y1="-82" x2="-38.91" y2="44.78"/>
      <line class="cls-2" x1="88.7" y1="-81.16" x2="-38.07" y2="45.61"/>
      <line class="cls-2" x1="89.54" y1="-80.32" x2="-37.24" y2="46.45"/>
      <line class="cls-2" x1="90.37" y1="-79.48" x2="-36.4" y2="47.29"/>
      <line class="cls-2" x1="91.21" y1="-78.64" x2="-35.56" y2="48.13"/>
      <line class="cls-2" x1="92.05" y1="-77.81" x2="-34.72" y2="48.97"/>
      <line class="cls-2" x1="92.89" y1="-76.97" x2="-33.88" y2="49.8"/>
      <line class="cls-2" x1="93.73" y1="-76.13" x2="-33.05" y2="50.64"/>
      <line class="cls-2" x1="94.56" y1="-75.29" x2="-32.21" y2="51.48"/>
      <line class="cls-2" x1="95.4" y1="-74.45" x2="-31.37" y2="52.32"/>
      <line class="cls-2" x1="96.24" y1="-73.61" x2="-30.53" y2="53.16"/>
      <line class="cls-2" x1="97.08" y1="-72.78" x2="-29.69" y2="54"/>
      <line class="cls-2" x1="97.92" y1="-71.94" x2="-28.85" y2="54.83"/>
      <line class="cls-2" x1="98.76" y1="-71.1" x2="-28.02" y2="55.67"/>
      <line class="cls-2" x1="99.59" y1="-70.26" x2="-27.18" y2="56.51"/>
      <line class="cls-2" x1="100.43" y1="-69.42" x2="-26.34" y2="57.35"/>
      <line class="cls-2" x1="101.27" y1="-68.59" x2="-25.5" y2="58.19"/>
      <line class="cls-2" x1="102.11" y1="-67.75" x2="-24.66" y2="59.03"/>
      <line class="cls-2" x1="102.95" y1="-66.91" x2="-23.82" y2="59.86"/>
      <line class="cls-2" x1="103.79" y1="-66.07" x2="-22.99" y2="60.7"/>
      <line class="cls-2" x1="104.62" y1="-65.23" x2="-22.15" y2="61.54"/>
      <line class="cls-2" x1="105.46" y1="-64.39" x2="-21.31" y2="62.38"/>
      <line class="cls-2" x1="106.3" y1="-63.56" x2="-20.47" y2="63.22"/>
      <line class="cls-2" x1="107.14" y1="-62.72" x2="-19.63" y2="64.05"/>
      <line class="cls-2" x1="107.98" y1="-61.88" x2="-18.8" y2="64.89"/>
      <line class="cls-2" x1="108.81" y1="-61.04" x2="-17.96" y2="65.73"/>
      <line class="cls-2" x1="109.65" y1="-60.2" x2="-17.12" y2="66.57"/>
      <line class="cls-2" x1="110.49" y1="-59.36" x2="-16.28" y2="67.41"/>
      <line class="cls-2" x1="111.33" y1="-58.53" x2="-15.44" y2="68.25"/>
      <line class="cls-2" x1="112.17" y1="-57.69" x2="-14.6" y2="69.08"/>
      <line class="cls-2" x1="113.01" y1="-56.85" x2="-13.77" y2="69.92"/>
      <line class="cls-2" x1="113.84" y1="-56.01" x2="-12.93" y2="70.76"/>
      <line class="cls-2" x1="114.68" y1="-55.17" x2="-12.09" y2="71.6"/>
      <line class="cls-2" x1="115.52" y1="-54.34" x2="-11.25" y2="72.44"/>
      <line class="cls-2" x1="116.36" y1="-53.5" x2="-10.41" y2="73.28"/>
      <line class="cls-2" x1="117.2" y1="-52.66" x2="-9.57" y2="74.11"/>
      <line class="cls-2" x1="118.04" y1="-51.82" x2="-8.74" y2="74.95"/>
      <line class="cls-2" x1="118.87" y1="-50.98" x2="-7.9" y2="75.79"/>
      <line class="cls-2" x1="119.71" y1="-50.14" x2="-7.06" y2="76.63"/>
      <line class="cls-2" x1="120.55" y1="-49.31" x2="-6.22" y2="77.47"/>
      <line class="cls-2" x1="121.39" y1="-48.47" x2="-5.38" y2="78.3"/>
      <line class="cls-2" x1="122.23" y1="-47.63" x2="-4.55" y2="79.14"/>
      <line class="cls-2" x1="123.06" y1="-46.79" x2="-3.71" y2="79.98"/>
      <line class="cls-2" x1="123.9" y1="-45.95" x2="-2.87" y2="80.82"/>
      <line class="cls-2" x1="124.74" y1="-45.11" x2="-2.03" y2="81.66"/>
      <line class="cls-2" x1="125.58" y1="-44.28" x2="-1.19" y2="82.5"/>
      <line class="cls-2" x1="126.42" y1="-43.44" x2="-.35" y2="83.33"/>
      <line class="cls-2" x1="127.26" y1="-42.6" x2=".48" y2="84.17"/>
      <line class="cls-2" x1="128.09" y1="-41.76" x2="1.32" y2="85.01"/>
      <line class="cls-2" x1="128.93" y1="-40.92" x2="2.16" y2="85.85"/>
      <line class="cls-2" x1="129.77" y1="-40.09" x2="3" y2="86.69"/>
      <line class="cls-2" x1="130.61" y1="-39.25" x2="3.84" y2="87.53"/>
      <line class="cls-2" x1="131.45" y1="-38.41" x2="4.68" y2="88.36"/>
      <line class="cls-2" x1="132.29" y1="-37.57" x2="5.51" y2="89.2"/>
      <line class="cls-2" x1="133.12" y1="-36.73" x2="6.35" y2="90.04"/>
      <line class="cls-2" x1="133.96" y1="-35.89" x2="7.19" y2="90.88"/>
      <line class="cls-2" x1="134.8" y1="-35.06" x2="8.03" y2="91.72"/>
      <line class="cls-2" x1="135.64" y1="-34.22" x2="8.87" y2="92.55"/>
      <line class="cls-2" x1="136.48" y1="-33.38" x2="9.7" y2="93.39"/>
      <line class="cls-2" x1="137.31" y1="-32.54" x2="10.54" y2="94.23"/>
      <line class="cls-2" x1="138.15" y1="-31.7" x2="11.38" y2="95.07"/>
      <line class="cls-2" x1="138.99" y1="-30.86" x2="12.22" y2="95.91"/>
      <line class="cls-2" x1="139.83" y1="-30.03" x2="13.06" y2="96.75"/>
      <line class="cls-2" x1="140.67" y1="-29.19" x2="13.9" y2="97.58"/>
      <line class="cls-2" x1="141.51" y1="-28.35" x2="14.73" y2="98.42"/>
    </g>
  </g>
  <path class="cls-5" d="m95.9,0h0s-95.9,0-95.9,0v8.44h95.9s0,0,0,0V0ZM.64,7.8V.64h13.66v1.49h-2.27v5.68H.64ZM12.66,2.76h2.27V.64h1.26v2.12h2.15v5.04h-5.68V2.76Zm6.32,5.04V2.12h-2.15V.64h13.66v1.49h-2.18v5.68h-9.33Zm9.97-5.04h2.18V.64h1.26v2.12h2.24v5.04h-5.68V2.76Zm6.32,5.04V2.12h-2.24V.64h13.66v1.49h-2.21v5.68h-9.21Zm9.84-5.04h2.21V.64h1.26v2.12h2.21v5.04h-5.68V2.76Zm6.32,5.04V2.12h-2.21V.64h13.9v1.49h-2.1v5.68h-9.59Zm10.23-5.04h2.1V.64h1.26v2.12h2.32v5.04h-5.68V2.76Zm6.32,5.04V2.12h-2.32V.64h13.65v1.49h-2.15v5.68h-9.18Zm9.81-5.04h2.15V.64h1.26v2.12h2.27v5.04h-5.68V2.76Zm5.68-.64h-1.63V.64h13.44v7.17h-11.17V2.12h-.64Z"/>
  <g class="cls-4">
    <g>
      <line class="cls-2" x1="219.93" y1="-84.6" x2="93.15" y2="42.18"/>
      <line class="cls-2" x1="220.76" y1="-83.76" x2="93.99" y2="43.02"/>
      <line class="cls-2" x1="221.6" y1="-82.92" x2="94.83" y2="43.85"/>
      <line class="cls-2" x1="222.44" y1="-82.08" x2="95.67" y2="44.69"/>
    </g>
  </g>
</svg>