<?xml version="1.0" encoding="UTF-8"?>
<svg id="_Слой_1" data-name="Слой 1" xmlns="http://www.w3.org/2000/svg" xmlns:xlink="http://www.w3.org/1999/xlink" viewBox="0 0 95.9 93.98">
  <defs>
    <style>
      .cls-1, .cls-2, .cls-3, .cls-4 {
        fill: none;
      }

      .cls-2 {
        stroke: #010101;
        stroke-miterlimit: 10;
        stroke-width: .25px;
      }

      .cls-3 {
        clip-path: url(#clippath);
      }

      .cls-4 {
        clip-path: url(#clippath-1);
      }

      .cls-5 {
        fill: #010101;
      }
    </style>
    <clipPath id="clippath">
      <path class="cls-1" d="m.32,121.94h14.3v2.12h-2.27v5.68H.32v-7.8Zm16.19,2.12h2.15v5.68h9.97v-5.68h2.18v-2.12h-14.3v2.12Zm16.19,0h2.24v5.68h9.84v-5.68h2.21v-2.12h-14.3v2.12Zm16.19,0h2.21v5.68h10.22v-5.68h2.1v-2.12h-14.54v2.12Zm16.43,0h2.32v5.68h9.81v-5.68h2.15v-2.12h-14.28v2.12Zm16.18-2.12v2.12h2.27v5.68h11.8v-7.8h-14.07Z"/>
    </clipPath>
    <clipPath id="clippath-1">
      <path class="cls-1" d="m151,122.12v2.39h-2.07v5.25h-4.76v-7.63h6.82Zm1.89,0v2.39h2.1v5.25h2.75v-5.25h1.97v-2.39h-6.82Zm8.72,0v2.39h2.2v5.25h2.46v-5.25h2.15v-2.39h-6.82Zm8.72,0v2.39h2.02v5.25h2.69v-5.25h2.11v-2.39h-6.82Zm8.72,0v2.39h2.06v5.25h2.93v-5.25h2.1v-2.39h-7.09Zm8.98,0v2.39h2.08v5.25h2.41v-5.25h2.07v-2.39h-6.56Zm8.45,0v2.39h2.11v5.25h2.63v-5.25h2.09v-2.39h-6.82Zm8.72,0v2.39h2.08v5.25h2.75v-5.25h1.99v-2.39h-6.82Zm8.72,0v2.39h2.18v5.25h2.6v-5.25h2.05v-2.39h-6.82Zm8.72,0v2.39h2.13v5.25h2.9v-5.25h1.98v-2.39h-7.01Zm8.91,0v2.39h2.19v5.25h4.45v-7.63h-6.63Z"/>
    </clipPath>
  </defs>
  <path class="cls-5" d="m.64.64h13.66v92.71H.64V.64Zm-.64,93.34h14.93V0H0v93.98Z"/>
  <path class="cls-5" d="m16.83.64h13.66v92.71h-13.66V.64Zm-.64,93.34h14.93V0h-14.93v93.98Z"/>
  <path class="cls-5" d="m33.02.64h13.66v92.71h-13.66V.64Zm-.64,93.34h14.93V0h-14.93v93.98Z"/>
  <path class="cls-5" d="m49.22.64h13.66v92.71h-13.66V.64Zm-.64,93.34h14.93V0h-14.93v93.98Z"/>
  <path class="cls-5" d="m65.41.64h13.66v92.71h-13.66V.64Zm-.64,93.34h14.93V0h-14.93v93.98Z"/>
  <path class="cls-5" d="m81.61.64h13.66v92.71h-13.66V.64Zm-.63,93.34h14.93V0h-14.93v93.98Z"/>
  <path class="cls-5" d="m.64.64h94.63v92.71H.64V.64Zm-.64,93.34h95.9V0H0v93.98Z"/>
  <g class="cls-3">
    <g>
      <line class="cls-2" x1="84.51" y1="36.28" x2="-42.27" y2="163.05"/>
      <line class="cls-2" x1="85.34" y1="37.11" x2="-41.43" y2="163.89"/>
      <line class="cls-2" x1="86.18" y1="37.95" x2="-40.59" y2="164.72"/>
      <line class="cls-2" x1="87.02" y1="38.79" x2="-39.75" y2="165.56"/>
      <line class="cls-2" x1="87.86" y1="39.63" x2="-38.91" y2="166.4"/>
      <line class="cls-2" x1="88.7" y1="40.47" x2="-38.07" y2="167.24"/>
      <line class="cls-2" x1="89.54" y1="41.3" x2="-37.24" y2="168.08"/>
      <line class="cls-2" x1="90.37" y1="42.14" x2="-36.4" y2="168.91"/>
      <line class="cls-2" x1="91.21" y1="42.98" x2="-35.56" y2="169.75"/>
      <line class="cls-2" x1="92.05" y1="43.82" x2="-34.72" y2="170.59"/>
      <line class="cls-2" x1="92.89" y1="44.66" x2="-33.88" y2="171.43"/>
      <line class="cls-2" x1="93.73" y1="45.5" x2="-33.05" y2="172.27"/>
      <line class="cls-2" x1="94.56" y1="46.33" x2="-32.21" y2="173.11"/>
      <line class="cls-2" x1="95.4" y1="47.17" x2="-31.37" y2="173.94"/>
      <line class="cls-2" x1="96.24" y1="48.01" x2="-30.53" y2="174.78"/>
      <line class="cls-2" x1="97.08" y1="48.85" x2="-29.69" y2="175.62"/>
      <line class="cls-2" x1="97.92" y1="49.69" x2="-28.85" y2="176.46"/>
      <line class="cls-2" x1="98.76" y1="50.53" x2="-28.02" y2="177.3"/>
      <line class="cls-2" x1="99.59" y1="51.36" x2="-27.18" y2="178.14"/>
      <line class="cls-2" x1="100.43" y1="52.2" x2="-26.34" y2="178.97"/>
      <line class="cls-2" x1="101.27" y1="53.04" x2="-25.5" y2="179.81"/>
      <line class="cls-2" x1="102.11" y1="53.88" x2="-24.66" y2="180.65"/>
      <line class="cls-2" x1="102.95" y1="54.72" x2="-23.82" y2="181.49"/>
      <line class="cls-2" x1="103.79" y1="55.55" x2="-22.99" y2="182.33"/>
      <line class="cls-2" x1="104.62" y1="56.39" x2="-22.15" y2="183.16"/>
      <line class="cls-2" x1="105.46" y1="57.23" x2="-21.31" y2="184"/>
      <line class="cls-2" x1="106.3" y1="58.07" x2="-20.47" y2="184.84"/>
      <line class="cls-2" x1="107.14" y1="58.91" x2="-19.63" y2="185.68"/>
      <line class="cls-2" x1="107.98" y1="59.75" x2="-18.8" y2="186.52"/>
      <line class="cls-2" x1="108.81" y1="60.58" x2="-17.96" y2="187.36"/>
      <line class="cls-2" x1="109.65" y1="61.42" x2="-17.12" y2="188.19"/>
      <line class="cls-2" x1="110.49" y1="62.26" x2="-16.28" y2="189.03"/>
      <line class="cls-2" x1="111.33" y1="63.1" x2="-15.44" y2="189.87"/>
      <line class="cls-2" x1="112.17" y1="63.94" x2="-14.6" y2="190.71"/>
      <line class="cls-2" x1="113.01" y1="64.78" x2="-13.77" y2="191.55"/>
      <line class="cls-2" x1="113.84" y1="65.61" x2="-12.93" y2="192.39"/>
      <line class="cls-2" x1="114.68" y1="66.45" x2="-12.09" y2="193.22"/>
      <line class="cls-2" x1="115.52" y1="67.29" x2="-11.25" y2="194.06"/>
      <line class="cls-2" x1="116.36" y1="68.13" x2="-10.41" y2="194.9"/>
      <line class="cls-2" x1="117.2" y1="68.97" x2="-9.57" y2="195.74"/>
      <line class="cls-2" x1="118.04" y1="69.8" x2="-8.74" y2="196.58"/>
      <line class="cls-2" x1="118.87" y1="70.64" x2="-7.9" y2="197.41"/>
      <line class="cls-2" x1="119.71" y1="71.48" x2="-7.06" y2="198.25"/>
      <line class="cls-2" x1="120.55" y1="72.32" x2="-6.22" y2="199.09"/>
      <line class="cls-2" x1="121.39" y1="73.16" x2="-5.38" y2="199.93"/>
      <line class="cls-2" x1="122.23" y1="74" x2="-4.55" y2="200.77"/>
      <line class="cls-2" x1="123.06" y1="74.83" x2="-3.71" y2="201.61"/>
      <line class="cls-2" x1="123.9" y1="75.67" x2="-2.87" y2="202.44"/>
      <line class="cls-2" x1="124.74" y1="76.51" x2="-2.03" y2="203.28"/>
      <line class="cls-2" x1="125.58" y1="77.35" x2="-1.19" y2="204.12"/>
      <line class="cls-2" x1="126.42" y1="78.19" x2="-.35" y2="204.96"/>
      <line class="cls-2" x1="127.26" y1="79.03" x2=".48" y2="205.8"/>
      <line class="cls-2" x1="128.09" y1="79.86" x2="1.32" y2="206.64"/>
      <line class="cls-2" x1="128.93" y1="80.7" x2="2.16" y2="207.47"/>
      <line class="cls-2" x1="129.77" y1="81.54" x2="3" y2="208.31"/>
      <line class="cls-2" x1="130.61" y1="82.38" x2="3.84" y2="209.15"/>
      <line class="cls-2" x1="131.45" y1="83.22" x2="4.68" y2="209.99"/>
      <line class="cls-2" x1="132.29" y1="84.05" x2="5.51" y2="210.83"/>
      <line class="cls-2" x1="133.12" y1="84.89" x2="6.35" y2="211.66"/>
      <line class="cls-2" x1="133.96" y1="85.73" x2="7.19" y2="212.5"/>
      <line class="cls-2" x1="134.8" y1="86.57" x2="8.03" y2="213.34"/>
      <line class="cls-2" x1="135.64" y1="87.41" x2="8.87" y2="214.18"/>
      <line class="cls-2" x1="136.48" y1="88.25" x2="9.7" y2="215.02"/>
      <line class="cls-2" x1="137.31" y1="89.08" x2="10.54" y2="215.86"/>
      <line class="cls-2" x1="138.15" y1="89.92" x2="11.38" y2="216.69"/>
      <line class="cls-2" x1="138.99" y1="90.76" x2="12.22" y2="217.53"/>
      <line class="cls-2" x1="139.83" y1="91.6" x2="13.06" y2="218.37"/>
      <line class="cls-2" x1="140.67" y1="92.44" x2="13.9" y2="219.21"/>
      <line class="cls-2" x1="141.51" y1="93.28" x2="14.73" y2="220.05"/>
    </g>
  </g>
  <g class="cls-4">
    <g>
      <line class="cls-2" x1="219.93" y1="37.03" x2="93.15" y2="163.8"/>
      <line class="cls-2" x1="220.76" y1="37.87" x2="93.99" y2="164.64"/>
      <line class="cls-2" x1="221.6" y1="38.71" x2="94.83" y2="165.48"/>
      <line class="cls-2" x1="222.44" y1="39.54" x2="95.67" y2="166.32"/>
    </g>
  </g>
</svg>